<?xml version="1.0" encoding="UTF-8" standalone="no"?>
<svg
   version="1.1"
   width="224.70334"
   height="219.2645"
   id="svg252"
   viewBox="0 0 224.70334 219.2645"
   sodipodi:docname="507e0d82c117a54830570219d7716ebc.cdr"
   xmlns:inkscape="http://www.inkscape.org/namespaces/inkscape"
   xmlns:sodipodi="http://sodipodi.sourceforge.net/DTD/sodipodi-0.dtd"
   xmlns:xlink="http://www.w3.org/1999/xlink"
   xmlns="http://www.w3.org/2000/svg"
   xmlns:svg="http://www.w3.org/2000/svg">
  <defs
     id="defs256" />
  <sodipodi:namedview
     id="namedview254"
     pagecolor="#ffffff"
     bordercolor="#666666"
     borderopacity="1.0"
     inkscape:pageshadow="2"
     inkscape:pageopacity="0.0"
     inkscape:pagecheckerboard="0" />
  <g
     id="Layer1000"
     transform="translate(-52.6042,-65.978201)">
    <path
       d="m 151.8168,86.8175 c 54.7934,0 99.2126,44.4192 99.2126,99.2126 0,54.7935 -44.4192,99.2126 -99.2126,99.2126 -54.7934,0 -99.2126,-44.4191 -99.2126,-99.2126 0,-54.7934 44.4192,-99.2126 99.2126,-99.2126 z"
       style="fill:#0069a0;fill-rule:evenodd"
       id="path2" />
    <path
       d="m 151.8168,98.2894 c 48.4577,0 87.7408,39.283 87.7408,87.7407 0,48.4577 -39.2831,87.7408 -87.7408,87.7408 -48.4577,0 -87.7408,-39.2831 -87.7408,-87.7408 0,-48.4577 39.2831,-87.7407 87.7408,-87.7407 z"
       style="fill:#00923f;fill-rule:evenodd"
       id="path4" />
    <path
       d="m 151.8168,110.5101 c 41.7084,0 75.5201,33.8116 75.5201,75.52 0,41.7085 -33.8117,75.5201 -75.5201,75.5201 -41.7084,0 -75.52,-33.8116 -75.52,-75.5201 0,-41.7084 33.8116,-75.52 75.52,-75.52 z"
       style="fill:#ffffff;fill-rule:evenodd"
       id="path6" />
    <path
       d="m 151.8168,120.4815 c 36.2016,0 65.5486,29.3474 65.5486,65.5486 0,36.2016 -29.347,65.5487 -65.5486,65.5487 -36.2015,0 -65.5486,-29.3471 -65.5486,-65.5487 0,-36.2012 29.3471,-65.5486 65.5486,-65.5486 z"
       style="fill:#f5c002;fill-rule:evenodd"
       id="path8" />
    <path
       d="m 151.706,120.4756 c 35.5819,0 64.4267,28.8447 64.4267,64.4266 0,35.5819 -28.8448,64.427 -64.4267,64.427 -35.5819,0 -64.4267,-28.8451 -64.4267,-64.427 0,-35.5819 28.8448,-64.4266 64.4267,-64.4266 z"
       style="fill:#f5c002;fill-rule:evenodd"
       id="path10" />
    <path
       d="m 151.8168,86.8175 c 0.8561,0 1.7099,0.0108 2.5608,0.0324 l 0.008,2e-4 c 0.8481,0.0216 1.6937,0.0539 2.5364,0.0964 52.4211,2.6575 94.1071,46.0026 94.1071,99.0836 0,2.3746 -0.089,4.7282 -0.2531,7.0609 h -33.861 c 0.2271,-2.217 0.3439,-4.4669 0.3439,-6.7437 0,-36.1425 -29.2995,-65.442 -65.4421,-65.442 -36.1428,0 -65.4423,29.2995 -65.4423,65.442 0,1.9287 0.0884,3.8364 0.252,5.7229 -5.785,5.6891 -9.4329,11.9123 -12.2168,18.3515 -3.7737,-2.2708 -19.0332,-16.151 -21.6062,-18.1766 -0.127,-2.0562 -0.1993,-4.127 -0.1993,-6.215 0,-53.081 41.6863,-96.4261 94.1071,-99.0836 0.8428,-0.0425 1.6881,-0.0748 2.5365,-0.0964 l 0.008,-2e-4 c 0.8507,-0.0213 1.7048,-0.0324 2.5608,-0.0324 z"
       style="fill:#e80911;fill-rule:evenodd"
       id="path12" />
    <path
       d="m 158.1262,87.0225 c 4.3478,5.3424 8.7689,10.6058 12.3947,16.1127 4.0102,6.7379 6.6935,14.978 7.9512,23.4269 -4.3741,-1.8808 -8.7225,-3.7057 -13.3872,-4.6916 -2.5869,-12.0994 -7.9061,-23.6568 -16.6875,-33.7377 -4.6403,16.1921 -29.5467,23.4338 -42.0004,12.0002 -0.5267,-0.4643 -1.0086,-1.0216 -1.4176,-1.622 13.9601,-7.4596 29.9035,-11.6935 46.8374,-11.6935 2.1201,0 4.2222,0.0743 6.3094,0.205 z"
       style="fill:#7e1410;fill-opacity:0;fill-rule:evenodd"
       id="path14" />
    <path
       d="m 173.1994,160.8006 c -2.2563,8.3292 -10.0533,17.7945 -1.4243,20.0613 1.2164,0.3195 4.2935,-0.2685 5.1945,0.587 1.6345,1.5528 -0.9833,2.699 -2.1829,4.4183 3.5913,3.5719 5.0948,5.3147 3.7697,8.311 -0.9922,2.244 -2.5346,2.9393 -3.2321,0.7361 -0.4765,-1.5061 -0.9075,-1.2708 -2.0599,-2.2419 0.1471,0.9142 0.1539,1.7747 0.0439,2.5915 -0.3781,2.808 -0.7342,2.0821 -2.8027,0.8441 -5.1233,-3.0669 -9.6873,-7.7296 -13.0657,-13.4258 -2.4425,-4.1174 6.7424,-6.1735 5.7733,-11.1591 z"
       style="fill:#110913;fill-rule:evenodd"
       id="path16" />
    <path
       d="m 129.6848,101.1044 13.9833,-17.1249 5.4374,-1.1251 18.375,33.0001 -0.1874,24.1878 -31.2701,1.2948 c 5.9406,-19.2248 0.8833,-37.5349 -6.3382,-40.2327 z"
       style="fill:#f5c002;fill-rule:evenodd"
       id="path18" />
    <path
       d="m 152.7029,89.3151 c -0.2225,0.2384 -0.447,0.474 -0.6729,0.7076 23.5321,35.2669 18.4255,68.6965 -0.2531,101.2564 12.825,-35.3557 15.5692,-69.0713 -6.7777,-95.1676 -3.8985,2.8154 -8.1536,5.0766 -12.6745,6.7575 -2.3684,-2.0971 -4.2546,-2.8499 -6.9523,-4.5521 l 19.0783,-16.1252 z"
       style="fill:#eda705;fill-rule:evenodd"
       id="path20" />
    <defs
       id="defs28">
      <linearGradient
         id="grad1">
        <stop
           offset="0%"
           stop-color="#3a3a3a"
           stop-opacity="1.0000"
           id="stop22" />
        <stop
           offset="100%"
           stop-color="#050109"
           stop-opacity="1.0000"
           id="stop24" />
      </linearGradient>
      <linearGradient
         xlink:href="#grad1"
         id="grad2"
         x1="130.72534"
         y1="51.268124"
         x2="130.72534"
         y2="148.63274"
         gradientTransform="scale(0.77704642,1.2869244)"
         gradientUnits="userSpaceOnUse" />
    </defs>
    <path
       d="m 134.0572,67.7186 c 0.1956,7.59 1.7719,13.2236 6.4689,14.4377 -3.3193,-4.987 -4.1944,-10.5801 -3.1373,-13.6477 2.0023,-5.8128 6.4148,-0.1514 8.0617,2.4962 6.662,10.7084 16.23,20.1602 23.0136,30.463 15.2504,25.6244 11.1878,68.8746 -16.6872,89.8113 16.1878,-31.563 20.751,-74.7511 -5.4363,-104.8136 -4.6403,16.192 -29.5467,23.4337 -42.0004,12.0002 -2.9685,-2.617 -4.5312,-8.1876 0.5159,-7.7811 6.563,0.0952 6.2484,-7.5226 10.3263,-11.5345 3.4407,-3.3843 8.7852,-4.8005 16.0178,-4.2624 -1.1776,-0.984 -3.0725,-1.4225 -5.8128,-1.2187 -2.0321,-5.1239 3.2953,-8.9359 8.6698,-5.9504 z"
       style="fill:url(#grad2)"
       id="path30" />
    <path
       d="m 146.3406,86.4655 c -4.6403,16.192 -29.5467,23.4337 -42.0004,12.0002 -0.8422,-0.7424 -1.5713,-1.7226 -2.0682,-2.7366 9.2716,11.5722 35.8078,7.3539 41.9517,-11.4219 z"
       style="fill:#2b2629;fill-rule:evenodd"
       id="path32" />
    <path
       d="m 140.5261,82.1563 c -3.3193,-4.987 -4.1944,-10.5801 -3.1373,-13.6477 1.182,-3.4317 3.2042,-2.8639 5.0017,-1.2782 -5.3765,1.0358 -5.2382,6.6396 -1.8644,14.9259 z"
       style="fill:#565757;fill-rule:evenodd"
       id="path34" />
    <path
       d="m 125.3874,73.669 c -2.0321,-5.1239 3.2953,-8.9359 8.6698,-5.9504 -5.6614,0.0127 -8.6338,1.9377 -8.6698,5.9504 z"
       style="fill:#565757;fill-rule:evenodd"
       id="path36" />
    <path
       d="m 101.9662,95.0224 c -0.8791,-2.3363 -0.394,-4.6023 2.8899,-4.3378 0.121,0.0017 0.2387,0 0.3552,-0.0034 l 0.001,8e-4 c 0.2415,2.4392 -0.9873,3.7755 -3.2462,4.3404 z"
       style="fill:#1b1918;fill-rule:evenodd"
       id="path38" />
    <defs
       id="defs45">
      <radialGradient
         id="grad3"
         cx="113.38218"
         cy="94.947685"
         r="8.4638519"
         gradientTransform="scale(1.075045,0.9301936)"
         fx="113.38218"
         fy="94.947685"
         gradientUnits="userSpaceOnUse">
        <stop
           offset="0%"
           stop-color="#ffffff"
           stop-opacity="1.0000"
           id="stop40" />
        <stop
           offset="100%"
           stop-color="#d9dadb"
           stop-opacity="1.0000"
           id="stop42" />
      </radialGradient>
    </defs>
    <path
       d="m 126.0765,85.8461 c -0.5808,1.8692 -1.5366,3.3319 -2.8391,4.4189 -1.1384,0.9505 -2.4991,1.6325 -4.0048,1.6747 -1.9545,0.0559 -2.5047,-1.3422 -2.158,-3.2059 0.2749,-1.4803 0.9881,-3.354 2.3618,-4.1349 2.1192,-1.2048 5.258,-0.1724 6.6401,1.2472 z"
       style="fill:url(#grad3)"
       id="path47" />
    <path
       d="m 125.7486,86.7628 c -0.5874,1.4381 -1.4298,2.5997 -2.5112,3.5022 -1.1384,0.9505 -2.4991,1.6325 -4.0048,1.6747 -0.4604,0.0131 -0.8428,-0.0544 -1.154,-0.1896 3.1416,-0.1346 5.6528,-1.9151 7.67,-4.9875 z"
       style="fill:#d9dadb;fill-rule:evenodd"
       id="path49" />
    <path
       d="m 117.1522,90.7682 c -0.2106,-0.546 -0.2236,-1.249 -0.0776,-2.0344 0.2749,-1.4803 0.9881,-3.354 2.3618,-4.1349 2.1192,-1.2048 5.258,-0.1724 6.6401,1.2472 -5.4479,-1.3683 -8.6643,-0.0218 -8.9243,4.9221 z"
       style="fill:#c4c6c8;fill-rule:evenodd"
       id="path51" />
    <path
       d="m 120.1983,85.5278 c 1.1843,0 2.1447,1.116 2.1447,2.4931 0,1.3767 -0.9604,2.4927 -2.1447,2.4927 -1.1843,0 -2.1447,-1.116 -2.1447,-2.4927 0,-1.3771 0.9604,-2.4931 2.1447,-2.4931 z"
       style="fill:#703f0a;fill-rule:evenodd"
       id="path53" />
    <path
       d="m 120.1983,85.5278 c 0.1429,0 0.2826,0.0161 0.4176,0.0473 -1.0556,0.29 -1.8853,0.8547 -2.4696,1.7184 0.2679,-1.0222 1.0854,-1.7657 2.052,-1.7657 z"
       style="fill:#522e07;fill-rule:evenodd"
       id="path55" />
    <path
       d="m 120.189,86.6937 c 0.6715,0 1.216,0.6327 1.216,1.4133 0,0.7807 -0.5445,1.4134 -1.216,1.4134 -0.6713,0 -1.2158,-0.6327 -1.2158,-1.4134 0,-0.7806 0.5445,-1.4133 1.2158,-1.4133 z"
       style="fill:#110913;fill-rule:evenodd"
       id="path57" />
    <path
       d="m 121.1579,86.8241 c 0.2321,0 0.4203,0.1919 0.4203,0.4286 0,0.2369 -0.1882,0.4288 -0.4203,0.4288 -0.2325,0 -0.4207,-0.1919 -0.4207,-0.4288 0,-0.2367 0.1882,-0.4286 0.4207,-0.4286 z"
       style="fill:#ffffff;fill-rule:evenodd"
       id="path59" />
    <path
       d="m 120.674,87.7949 c 0.1715,0 0.3104,0.1418 0.3104,0.3164 0,0.1746 -0.1389,0.3163 -0.3104,0.3163 -0.1715,0 -0.3104,-0.1417 -0.3104,-0.3163 0,-0.1746 0.1389,-0.3164 0.3104,-0.3164 z"
       style="fill:#ffffff;fill-rule:evenodd"
       id="path61" />
    <path
       d="m 118.3823,85.2965 c -4.5623,5.3715 -0.8989,9.906 4.1036,5.4967 -3.568,2.4722 -8.0679,1.5485 -4.1036,-5.4967 z"
       style="fill:#565757;fill-rule:evenodd"
       id="path63" />
    <path
       d="m 105.2422,91.313 c 4.2364,0.2976 6.228,-1.8989 8.1331,-4.8203 1.3564,-2.0815 2.0138,-3.2346 4.2256,-4.6817 4.9182,-3.2162 11.3522,-2.5277 17.1222,-1.7975 -1.4196,-0.8217 -2.414,-2.4298 -3.5229,-5.1258 -2.7587,-0.2719 -5.423,-0.1503 -7.9918,0.3696 -1.0715,0.2064 -2.042,0.4666 -2.9179,0.7756 l -0.0182,0.0059 -6e-4,0.0011 c -10.6304,3.7622 -7.7887,14.3876 -15.2379,14.645 z"
       style="fill:#110913;fill-opacity:0;fill-rule:evenodd"
       id="path65" />
    <path
       d="m 126.7305,85.7917 c -0.3042,2.0137 -1.6642,3.5963 -3.6564,4.9221 1.4542,-1.4437 2.5075,-3.0459 3.0024,-4.8677 -1.2376,-1.1441 -2.8516,-1.8006 -5.0091,-1.7504 2.179,-0.3668 4.1094,0.0624 5.6631,1.696 z"
       style="fill:#1b1918;fill-rule:evenodd"
       id="path67" />
    <path
       d="m 135.1375,105.169 c 31.1564,11.2808 0.0572,60.8953 8.4325,91.0199 3.8931,-0.6054 1.9497,2.3066 4.4892,4.4054 2.4815,2.0508 6.8009,-0.1287 5.2608,2.4383 3.314,2.8704 6.0455,5.1605 5.3385,8.392 -0.8212,2.2439 -3.5067,3.3871 -7.8157,-1.1018 4.0335,4.1763 -0.1771,6.8556 -3.0982,5.7688 -11.4696,-4.2685 -18.046,-10.2374 -22.7149,-30.3775 -2.0407,6.4043 -0.2716,14.0329 4.6874,22.6876 -2.6561,4 -6.3437,9.5939 -6.5625,15.3752 -5.7107,-11.3256 -13.1516,-21.1244 -27.375,-24.9378 20.9602,15.4519 31.2329,30.5725 28.8011,46.8309 -21.907,-10.6093 -37.4525,-44.739 -37.4525,-58.3127 0,-13.5737 0.0315,-2.34 0.0927,-3.4982 2.0554,-1.4565 4.2815,-2.8395 6.6838,-4.1471 31.5403,-13.4671 54.7056,-37.0692 41.2328,-74.543 z"
       style="fill:#a6500d;fill-opacity:0;fill-rule:evenodd"
       id="path69" />
    <path
       d="m 176.7938,185.7627 0.006,-0.004 2.3447,-1.4788 0.7259,-0.459 1.8746,-1.1875 0.4799,-0.3038 0.002,-0.001 0.5221,-0.3317 1.8699,-1.1892 0.6973,-0.4442 2.2203,-1.4168 0.9336,-0.597 1.6623,-1.0646 0.6574,-0.4211 2.5456,-1.6356 0.1518,-0.0976 2.4689,-1.5902 0.2293,-0.1478 0.3232,-0.2085 c 1.758,-1.1346 3.5132,-2.27 5.2603,-3.4029 l 0.093,-0.0602 2.6077,-1.6936 0.1201,-0.0779 c 1.7201,-1.1181 3.4284,-2.2315 5.1229,-3.3374 l 0.3196,-0.2085 0.6254,-0.4086 1.7299,-1.1305 0.3518,-0.2302 0.3002,-0.1966 2.3755,-1.5559 0.3933,-0.2577 1.6891,-1.1082 0.5579,-0.3663 0.3015,-0.1982 2.2988,-1.511 0.1704,-0.112 c 1.6465,-1.0835 3.2665,-2.1509 4.8529,-3.1979 l 0.0393,-0.0261 1.5363,-1.0144 0.9175,-0.6061 0.6354,-0.4201 1.5286,-1.0111 0.2317,-0.1535 1.2716,-0.842 1.0622,-0.7036 0.4148,-0.2749 1.4496,-0.9613 0.4028,-0.2673 2.196,-1.4581 0.2129,-0.1414 1.3599,-0.9039 0.5479,-0.3643 0.7797,-0.5187 1.261,-0.8394 0.0334,-0.022 1.2598,-0.8393 0.6631,-0.4418 0.5611,-0.3738 1.1874,-0.792 0.119,-0.0792 0.2137,-0.1426 2.997,-2.0002 0.2406,-0.1608 0.7877,-0.5264 0.787,-0.5258 0.199,-0.1332 0.9422,-0.6296 0.3269,-0.2187 0.5703,-0.3814 0.7869,-0.5264 0.064,-0.0428 0.8042,-0.5377 0.374,-0.2504 0.3814,-0.255 0.7058,-0.4723 0.0349,-0.0233 0.6204,-0.4149 0.3773,-0.2525 0.226,-0.1509 0.5504,-0.3679 0.0929,-0.0621 0.4029,-0.2691 0.3332,-0.2222 0.1076,-0.0717 0.3843,-0.256 0.1067,-0.0709 0.22,-0.146 0.2367,-0.1566 0.0309,-0.0204 0.2077,-0.1364 0.0715,-0.0467 0.02,-0.0127 c 0.0651,-0.0423 0.1152,-0.0744 0.1395,-0.0885 14.4,-8.4172 24.4748,10.541 11.8989,18.1705 -1.1282,0.6713 -50.293,24.679 -89.5392,45.2745 -21.0279,12.1293 -38.8478,21.1916 -45.2116,25.7608 0.79,1.3409 0.3864,3.0591 -0.8958,3.9118 l -0.009,0.006 -0.009,0.006 -0.009,0.006 -0.01,0.006 -0.004,0.003 -0.006,0.003 -0.009,0.006 -0.01,0.006 -0.01,0.006 -0.01,0.006 -0.01,0.006 -0.01,0.006 -0.001,8e-4 -0.002,0.002 c -0.002,3e-4 -0.003,0.002 -0.005,0.003 l -0.006,0.003 -0.008,0.005 -0.0654,0.0377 -0.0658,0.0359 -0.0662,0.0339 -0.067,0.0321 -0.0336,0.0153 -0.0674,0.0294 -0.0338,0.0142 -3e-4,-1e-4 -0.0341,0.0135 -0.0339,0.013 -1e-4,2e-4 -0.0343,0.0125 -0.034,0.0123 -2e-4,-1e-4 -0.0343,0.0116 -0.0345,0.0115 -0.0692,0.021 -0.0347,0.01 -0.0674,0.0181 -0.002,6e-4 -0.0346,0.009 -3e-4,-2e-4 -0.035,0.008 -0.0348,0.008 -0.0382,0.008 -0.0636,0.0121 -0.0386,0.007 -0.0354,0.005 -0.0349,0.005 -3e-4,-1e-4 -0.0351,0.005 -0.0352,0.004 -0.0353,0.004 -0.0351,0.003 -2e-4,-1e-4 -0.0353,0.003 -0.0351,0.003 -3e-4,-1e-4 -0.0352,0.002 -0.0351,0.002 -2e-4,-1e-4 -0.008,3e-4 -0.0623,0.002 -1e-4,3e-4 h -0.0703 l -0.0354,-5e-4 -0.0351,-0.001 -2e-4,3e-4 -0.0701,-0.003 -0.0352,-0.002 -0.0348,-0.003 -1e-4,3e-4 -0.0699,-0.007 -1e-4,2e-4 -0.0348,-0.004 -0.0348,-0.004 -0.0692,-0.01 -4e-4,2e-4 -0.0344,-0.006 -0.0344,-0.006 -2e-4,-1e-4 -0.0346,-0.006 -0.0342,-0.007 -0.0345,-0.007 -0.034,-0.008 -3e-4,2e-4 -0.0677,-0.0167 -3e-4,2e-4 -0.0674,-0.0181 -4e-4,10e-5 -0.0648,-0.0191 -0.002,-6e-4 -2e-4,-10e-5 -0.0334,-0.0105 -0.033,-0.0109 -3e-4,2e-4 -0.066,-0.023 -4e-4,1e-4 -0.0652,-0.0246 -4e-4,2e-4 -0.0324,-0.0128 -0.0326,-0.0132 -0.0644,-0.0276 -3e-4,-1e-4 c -0.0427,-0.019 -0.0852,-0.0387 -0.1271,-0.0597 l 1e-4,-3e-4 -0.0315,-0.0158 -0.0313,-0.0163 -0.0618,-0.0336 10e-5,-3e-4 -0.0612,-0.0352 1e-4,-2e-4 -0.0303,-0.0181 -0.03,-0.0186 -0.0597,-0.0382 1e-4,-2e-4 -0.0587,-0.0397 1e-4,-3e-4 -0.0578,-0.0411 1e-4,-3e-4 -0.0569,-0.0426 1e-4,-2e-4 -0.056,-0.0441 1e-4,-2e-4 -0.0551,-0.0456 1e-4,-2e-4 -0.0541,-0.0473 1e-4,-2e-4 -0.053,-0.0484 10e-5,-2e-4 -0.0517,-0.05 -1e-4,-4e-4 -0.0506,-0.0513 -1e-4,-3e-4 -0.0497,-0.0528 2e-4,-3e-4 -0.0245,-0.027 -0.024,-0.0271 -2e-4,-4e-4 -0.0471,-0.0557 1e-4,-3e-4 -0.046,-0.0571 10e-5,-2e-4 -0.0448,-0.0585 -2e-4,-3e-4 -0.0359,-0.0496 -0.007,-0.0104 -2e-4,-1e-4 -0.0211,-0.0305 -0.021,-0.0308 1e-4,-3e-4 -0.0205,-0.0312 -0.0204,-0.0317 -0.0393,-0.0642 -4.9376,-8.2998 -0.0377,-0.0653 -0.0359,-0.0658 -0.034,-0.0662 -0.032,-0.067 -0.0153,-0.0336 -0.0149,-0.0335 -2e-4,-4e-4 -0.0143,-0.0336 -0.0142,-0.0338 1e-4,-2e-4 -0.0135,-0.0341 -0.013,-0.0339 -2e-4,-2e-4 -0.0125,-0.0343 -0.0123,-0.0339 1e-4,-3e-4 -0.0119,-0.0343 -0.0112,-0.0344 -0.0211,-0.0692 -0.0194,-0.0694 -2e-4,-1e-4 -0.009,-0.035 -0.009,-0.0346 1e-4,-2e-4 -0.008,-0.035 -0.008,-0.0348 -0.007,-0.0352 -0.007,-0.0347 -2e-4,-4e-4 -0.006,-0.0351 -0.006,-0.035 -3e-4,-1e-4 -0.0104,-0.0703 -0.009,-0.0705 -0.007,-0.0704 -0.005,-0.0707 -0.004,-0.0705 c -0.002,-0.047 -0.003,-0.094 -0.002,-0.1411 l 0.002,-0.0702 -3e-4,-1e-4 c 0.003,-0.0705 0.008,-0.1405 0.0149,-0.2102 l -2e-4,-1e-4 c 0.005,-0.0467 0.0111,-0.0929 0.0183,-0.139 l -3e-4,-1e-4 0.0118,-0.0691 -3e-4,-1e-4 0.0134,-0.0687 -2e-4,-1e-4 0.0151,-0.0683 -3e-4,-2e-4 0.0162,-0.0681 c 0.0114,-0.0453 0.0245,-0.0902 0.0381,-0.1349 l -3e-4,-1e-4 c 0.0206,-0.0666 0.0435,-0.1329 0.0688,-0.1985 l -2e-4,-4e-4 c 0.0166,-0.0438 0.0348,-0.0869 0.0537,-0.1296 l 3e-4,1e-4 c 0.038,-0.0859 0.0795,-0.1699 0.1257,-0.2517 l 3e-4,1e-4 c 0.0231,-0.0411 0.0467,-0.0816 0.0718,-0.1215 l 2e-4,10e-5 c 0.0877,-0.1398 0.1876,-0.2727 0.2997,-0.3975 l 2e-4,1e-4 0.0242,-0.0265 0.0244,-0.0264 3e-4,1e-4 c 0.0331,-0.0347 0.0666,-0.069 0.1016,-0.1024 l 1e-4,-3e-4 0.0531,-0.0495 2e-4,1e-4 0.0542,-0.0484 2e-4,1e-4 0.0558,-0.0472 0.0573,-0.0459 0.0587,-0.0447 0.0604,-0.0434 0.0613,-0.0421 2e-4,1e-4 0.0312,-0.0205 0.0318,-0.0204 0.0641,-0.0393 0.0135,-0.008 0.0136,-0.008 0.0135,-0.008 0.0135,-0.008 0.002,-0.001 0.0116,-0.007 0.0136,-0.008 0.0134,-0.007 0.0139,-0.007 0.004,-0.002 0.01,-0.005 0.0137,-0.007 0.0137,-0.007 0.0137,-0.007 0.006,-0.003 0.008,-0.004 0.0136,-0.007 0.0139,-0.007 0.0139,-0.007 c 1.1496,-0.5593 2.5176,-0.2968 3.3812,0.6043 7.1281,-2.9769 23.4464,-12.8357 43.2353,-24.8538 l 0.1697,-0.1031 0.859,-0.522 0.1045,-0.0635 z m -40.9566,38.9287 0.002,-0.002 z m -9.3535,-11.1036 c 0.005,-0.0464 0.0111,-0.0929 0.0183,-0.139 z"
       style="fill:#a15e22;fill-opacity:0;fill-rule:evenodd"
       id="path71" />
    <g
       id="Layer1001">
      <path
         d="m 130.0731,210.8065 c 20.0721,-6.838 127.8222,-79.8504 129.5826,-80.8975 14.4001,-8.4172 24.475,10.5409 11.8992,18.1706 -1.7607,1.0475 -120.4982,58.9231 -135.9775,71.9786 -1.5325,-2.5762 -4.6039,-7.7373 -5.5043,-9.2517 z"
         style="fill:#c27532;fill-rule:evenodd"
         id="path73" />
      <path
         d="m 176.9208,184.0643 c 37.1613,-23.401 81.6095,-53.486 82.7349,-54.1553 14.4,-8.4173 24.475,10.5409 11.8992,18.1705 7.2718,-9.7892 -1.7849,-18.4068 -10.1643,-14.0802 l -84.5063,51.9964 c 0,0 0.0142,-0.702 0.0365,-1.9314 z"
         style="fill:#a15e22;fill-rule:evenodd"
         id="path75" />
      <path
         d="m 263.4605,131.2221 c 2e-4,-3e-4 2e-4,-3e-4 2e-4,-3e-4 0,0 0,0 -2e-4,3e-4 z m 10e-4,-8e-4 c 2e-4,-2e-4 6e-4,-5e-4 8e-4,-5e-4 -2e-4,0 -6e-4,3e-4 -8e-4,5e-4 z m 10e-4,-0.001 c 1e-4,0 3e-4,1e-4 5e-4,-2e-4 -1e-4,0 -4e-4,2e-4 -5e-4,2e-4 z m 9e-4,-5e-4 c 8e-4,-5e-4 0.002,-6e-4 0.002,-0.001 -7e-4,6e-4 -10e-4,7e-4 -0.002,0.001 z m 0.003,-0.001 c 2e-4,-3e-4 7e-4,-5e-4 9e-4,-5e-4 -3e-4,3e-4 -5e-4,2e-4 -9e-4,5e-4 z m 10e-4,-8e-4 c 4e-4,-2e-4 6e-4,-1e-4 10e-4,-4e-4 -4e-4,3e-4 -8e-4,5e-4 -10e-4,4e-4 z m 10e-4,-7e-4 c 3e-4,1e-4 5e-4,-3e-4 9e-4,-5e-4 -4e-4,2e-4 -7e-4,6e-4 -9e-4,5e-4 z m 0.001,-5e-4 c 7e-4,-5e-4 10e-4,-7e-4 0.002,-0.001 -4e-4,6e-4 -0.001,8e-4 -0.002,0.001 z m 0.002,-0.001 c 3e-4,-2e-4 7e-4,-5e-4 10e-4,-5e-4 -3e-4,0 -7e-4,3e-4 -10e-4,5e-4 z"
         style="fill:#a6500d;fill-rule:evenodd"
         id="path77" />
      <path
         d="m 176.7951,184.1438 5.2205,9.2102 c -22.5879,13.0296 -41.4776,22.5209 -46.4382,26.7042 l -5.5043,-9.2517 c 6.4043,-2.181 24.5625,-13.2023 46.722,-26.6627 z"
         style="fill:#322e33;fill-rule:evenodd"
         id="path79" />
      <path
         d="m 136.7928,219.0958 c 0.0859,-0.0646 0.1738,-0.1301 0.2633,-0.1968 1e-4,-4e-4 -3e-4,-5e-4 -10e-5,-0.001 -0.0898,0.067 -0.1777,0.1327 -0.2635,0.1973 z"
         style="fill:#d8cdc5;fill-rule:evenodd"
         id="path81" />
      <path
         d="m 178.5545,187.0973 v 0 l -0.4933,-0.83 -1e-4,4e-4 z"
         style="fill:#aa7e4e;fill-rule:evenodd"
         id="path83" />
      <path
         d="m 178.0611,186.2677 1e-4,-4e-4 -1.0147,-1.7053 z"
         style="fill:#91673e;fill-rule:evenodd"
         id="path85" />
      <path
         d="m 136.7924,219.0954 c 0.0859,-0.0646 0.1738,-0.1302 0.2636,-0.1974 -1.1935,-3.1397 1.4829,-6.9831 3.7336,-8.896 4.1062,-3.488 8.8282,-6.4148 13.3087,-9.3933 4.719,-3.1375 9.5203,-6.1544 14.3967,-9.0409 3.1464,-1.8625 6.4938,-3.5896 10.0595,-4.4705 l -0.4935,-0.8297 -1.2659,-2.1238 c -20.7282,12.5914 -37.924,23.1 -45.3333,26.136 0.149,0.1561 0.2831,0.3314 0.3979,0.5247 z"
         style="fill:#2b2628;fill-rule:evenodd"
         id="path87" />
      <path
         d="m 127.8574,209.7882 c -1.3857,0.8247 -1.8407,2.6163 -1.0163,4.002 l 4.9381,8.3 c 0.8254,1.3862 2.6169,1.8411 4.0023,1.0163 1.3862,-0.8241 1.8413,-2.6163 1.0163,-4.0021 l -4.938,-8.2998 c -0.8245,-1.3857 -2.6166,-1.8408 -4.0024,-1.0164 z"
         style="fill:#c27532;fill-rule:evenodd"
         id="path89" />
      <path
         d="m 135.7898,223.1016 c 0.002,-9e-4 0.004,-0.002 0.006,-0.003 -0.002,8e-4 -0.003,0.002 -0.006,0.003 z m 0.0101,-0.005 c 0.001,-0.001 0.002,-0.002 0.003,-0.002 -0.001,7e-4 -0.002,10e-4 -0.003,0.002 z"
         style="fill:#d8cdc5;fill-rule:evenodd"
         id="path91" />
      <path
         d="m 133.57,223.4274 c 0.7245,0.1839 1.5186,0.0915 2.2115,-0.3209 v 0 c 0.003,-0.002 0.006,-0.003 0.008,-0.005 0.002,-9e-4 0.004,-0.002 0.006,-0.003 0.001,-0.001 0.003,-0.002 0.005,-0.003 0.001,-10e-4 0.002,-0.002 0.003,-0.002 0.2073,-0.1255 0.3906,-0.2752 0.554,-0.4399 -0.1516,-0.0181 -0.303,-0.0471 -0.4543,-0.0855 -2.628,-0.6673 -5.1175,-4.2176 -6.2151,-6.0115 -1.1331,-1.8524 -1.7819,-3.7452 -1.3124,-5.9178 0.0896,-0.4126 0.2208,-0.8116 0.3853,-1.1991 -0.3104,0.0644 -0.6157,0.1774 -0.9034,0.3484 -0.6929,0.4125 -1.153,1.0662 -1.337,1.7906 -0.184,0.7245 -0.0914,1.5185 0.3207,2.2114 l 4.9381,8.3 c 0.4127,0.6931 1.0669,1.1533 1.7908,1.3372 z"
         style="fill:#a15e22;fill-rule:evenodd"
         id="path93" />
      <path
         d="m 180.3612,191.9367 c 0,0 -0.1963,-0.4262 -0.5226,-1.0464 -0.168,-0.3073 -0.3523,-0.6725 -0.5711,-1.0516 -0.2181,-0.3794 -0.4504,-0.7838 -0.6831,-1.1884 -0.2444,-0.3974 -0.4894,-0.7951 -0.7183,-1.1677 -0.2283,-0.3735 -0.4618,-0.7093 -0.6517,-1.0036 -0.3899,-0.5827 -0.6708,-0.9586 -0.6708,-0.9586 0,0 0.1958,0.4265 0.5225,1.0468 0.168,0.3074 0.3518,0.6728 0.5711,1.0516 0.2177,0.3793 0.4505,0.7838 0.6831,1.1883 0.2445,0.3976 0.4892,0.7947 0.7188,1.168 0.2285,0.3725 0.4618,0.7092 0.6513,1.003 0.39,0.5826 0.6708,0.9586 0.6708,0.9586 z"
         style="fill:#242125;fill-rule:evenodd"
         id="path95" />
      <path
         d="m 179.2054,192.6243 c 0,0 -0.1963,-0.4261 -0.5226,-1.0463 -0.1679,-0.3079 -0.3522,-0.673 -0.5709,-1.0521 -0.2182,-0.3794 -0.4504,-0.7839 -0.6832,-1.1883 -0.2444,-0.3975 -0.4889,-0.795 -0.7183,-1.1679 -0.2282,-0.3734 -0.4618,-0.7092 -0.6516,-1.0036 -0.3899,-0.5826 -0.6708,-0.9581 -0.6708,-0.9581 0,0 0.1958,0.4261 0.5223,1.0469 0.1683,0.3068 0.3518,0.6728 0.5711,1.0516 0.2179,0.3788 0.4506,0.7834 0.6833,1.1878 0.245,0.3977 0.4894,0.7952 0.7187,1.1679 0.2284,0.3731 0.4618,0.7094 0.6517,1.0036 0.3895,0.5826 0.6703,0.9585 0.6703,0.9585 z"
         style="fill:#242125;fill-rule:evenodd"
         id="path97" />
      <path
         d="m 178.0497,193.3119 c 0,0 -0.1963,-0.4262 -0.5225,-1.0464 -0.1676,-0.3072 -0.3522,-0.6729 -0.5711,-1.0515 -0.2183,-0.3794 -0.4505,-0.7838 -0.6831,-1.1883 -0.2444,-0.398 -0.4889,-0.7956 -0.7185,-1.1678 -0.2282,-0.3735 -0.4617,-0.7093 -0.6516,-1.0036 -0.3898,-0.5828 -0.6707,-0.9586 -0.6707,-0.9586 0,0 0.1963,0.4261 0.5224,1.0467 0.1681,0.3074 0.3518,0.6728 0.571,1.0516 0.2178,0.3793 0.4505,0.7839 0.6837,1.1885 0.2445,0.3975 0.489,0.7945 0.7184,1.1674 0.2284,0.373 0.4616,0.7097 0.6513,1.0035 0.3898,0.5826 0.6707,0.9585 0.6707,0.9585 z"
         style="fill:#242125;fill-rule:evenodd"
         id="path99" />
      <path
         d="m 176.8945,193.9993 c 0,0 -0.1963,-0.4262 -0.5226,-1.0464 -0.168,-0.3073 -0.3522,-0.6729 -0.5714,-1.0517 -0.2178,-0.3793 -0.4506,-0.7839 -0.6831,-1.1888 -0.2445,-0.3975 -0.4891,-0.7946 -0.7185,-1.1673 -0.2277,-0.3734 -0.4618,-0.7094 -0.6517,-1.0037 -0.3898,-0.5826 -0.6706,-0.9585 -0.6706,-0.9585 0,0 0.1961,0.4266 0.5223,1.0468 0.1681,0.3074 0.3517,0.6732 0.5711,1.0516 0.2182,0.3794 0.4509,0.7838 0.6836,1.1884 0.2445,0.3976 0.4889,0.795 0.7184,1.1673 0.2289,0.3732 0.4617,0.7097 0.6517,1.0037 0.39,0.5826 0.6708,0.9586 0.6708,0.9586 z"
         style="fill:#242125;fill-rule:evenodd"
         id="path101" />
      <path
         d="m 175.7382,194.6868 c 0,0 -0.1963,-0.4261 -0.5224,-1.0463 -0.1677,-0.3073 -0.3523,-0.6729 -0.5707,-1.0515 -0.2185,-0.3795 -0.4508,-0.7845 -0.6835,-1.1889 -0.2445,-0.3976 -0.489,-0.795 -0.7185,-1.1674 -0.2281,-0.3735 -0.4617,-0.7093 -0.6517,-1.0036 -0.3892,-0.583 -0.6706,-0.9586 -0.6706,-0.9586 0,0 0.1963,0.4262 0.5224,1.0469 0.1681,0.3073 0.3518,0.6728 0.5711,1.0516 0.2181,0.3794 0.4509,0.7838 0.6836,1.1884 0.2445,0.3975 0.4891,0.7946 0.7185,1.1673 0.2287,0.3731 0.4617,0.7094 0.6517,1.0036 0.3893,0.5826 0.6701,0.9585 0.6701,0.9585 z"
         style="fill:#242125;fill-rule:evenodd"
         id="path103" />
      <path
         d="m 174.583,195.3745 c 0,0 -0.1963,-0.4262 -0.5224,-1.0468 -0.1677,-0.3067 -0.3524,-0.6725 -0.5708,-1.0509 -0.2185,-0.3801 -0.4508,-0.7845 -0.6836,-1.189 -0.2443,-0.3975 -0.4888,-0.7951 -0.7183,-1.1673 -0.2283,-0.3735 -0.4618,-0.7093 -0.6516,-1.0041 -0.3895,-0.5825 -0.6708,-0.9581 -0.6708,-0.9581 0,0 0.1963,0.4261 0.5224,1.0467 0.1681,0.3074 0.3518,0.6729 0.5711,1.0516 0.2183,0.3791 0.4508,0.784 0.6836,1.1885 0.2445,0.3975 0.489,0.7945 0.7184,1.1674 0.2289,0.3731 0.4618,0.7092 0.6517,1.0036 0.3894,0.5825 0.6703,0.9584 0.6703,0.9584 z"
         style="fill:#242125;fill-rule:evenodd"
         id="path105" />
      <path
         d="m 173.4272,196.0621 c 0,0 -0.1963,-0.4261 -0.5223,-1.0467 -0.1682,-0.3073 -0.3524,-0.6725 -0.5711,-1.0516 -0.2178,-0.3793 -0.4509,-0.784 -0.6832,-1.1883 -0.2445,-0.3975 -0.4894,-0.7952 -0.7184,-1.1678 -0.2282,-0.3736 -0.4618,-0.7094 -0.6517,-1.0037 -0.3898,-0.5826 -0.6706,-0.9586 -0.6706,-0.9586 0,0 0.1958,0.4266 0.5218,1.0472 0.1681,0.3069 0.3517,0.6727 0.5716,1.0513 0.2182,0.3794 0.4505,0.7837 0.6833,1.1883 0.2448,0.3977 0.4893,0.7951 0.7182,1.1679 0.2294,0.3727 0.4622,0.7092 0.6522,1.0032 0.39,0.5826 0.6702,0.9588 0.6702,0.9588 z"
         style="fill:#242125;fill-rule:evenodd"
         id="path107" />
      <path
         d="m 172.2719,196.7499 c 0,0 -0.1968,-0.4263 -0.5228,-1.0468 -0.1677,-0.3073 -0.3523,-0.6725 -0.5707,-1.0515 -0.2182,-0.3794 -0.4509,-0.784 -0.6835,-1.1885 -0.2446,-0.3975 -0.4891,-0.7951 -0.7185,-1.1678 -0.2277,-0.3734 -0.4617,-0.7093 -0.6511,-1.0035 -0.3898,-0.5827 -0.6712,-0.9587 -0.6712,-0.9587 0,0 0.1962,0.4267 0.5223,1.0473 0.1682,0.3069 0.3518,0.6727 0.5712,1.0512 0.2182,0.3794 0.4509,0.7838 0.6836,1.1884 0.2445,0.3975 0.489,0.795 0.7184,1.1678 0.2288,0.3726 0.4618,0.7092 0.6518,1.0031 0.3898,0.5827 0.6705,0.959 0.6705,0.959 z"
         style="fill:#242125;fill-rule:evenodd"
         id="path109" />
      <path
         d="m 171.1163,197.4371 c 0,0 -0.1963,-0.4262 -0.523,-1.0464 -0.1676,-0.3072 -0.3523,-0.6725 -0.5706,-1.0514 -0.2182,-0.3795 -0.4509,-0.784 -0.6832,-1.1885 -0.2449,-0.3975 -0.4893,-0.7951 -0.7183,-1.1677 -0.2283,-0.3735 -0.4622,-0.7094 -0.6517,-1.0036 -0.3898,-0.5828 -0.6707,-0.9586 -0.6707,-0.9586 0,0 0.1957,0.4265 0.522,1.0466 0.168,0.3073 0.3522,0.673 0.5711,1.0516 0.2181,0.3794 0.4509,0.784 0.6835,1.1885 0.2445,0.3975 0.489,0.795 0.7184,1.1678 0.2289,0.3727 0.4618,0.7093 0.6518,1.0032 0.3898,0.5826 0.6707,0.9585 0.6707,0.9585 z"
         style="fill:#242125;fill-rule:evenodd"
         id="path111" />
      <path
         d="m 169.9605,198.1247 c 0,0 -0.1963,-0.4261 -0.5224,-1.0463 -0.1681,-0.3077 -0.3523,-0.6729 -0.571,-1.052 -0.2184,-0.379 -0.451,-0.7835 -0.6832,-1.1883 -0.2445,-0.3975 -0.4895,-0.7947 -0.7188,-1.1679 -0.228,-0.373 -0.4617,-0.7094 -0.6513,-1.0036 -0.3899,-0.5822 -0.6713,-0.9582 -0.6713,-0.9582 0,0 0.1964,0.4266 0.5225,1.0468 0.168,0.3073 0.3517,0.6727 0.5711,1.0515 0.2181,0.3795 0.4509,0.784 0.6835,1.1886 0.2447,0.397 0.4892,0.7945 0.7185,1.1673 0.2288,0.3732 0.4622,0.7093 0.6517,1.0037 0.3899,0.5826 0.6707,0.9584 0.6707,0.9584 z"
         style="fill:#242125;fill-rule:evenodd"
         id="path113" />
      <path
         d="m 168.8047,198.8124 c 0,0 -0.1963,-0.4262 -0.5224,-1.0464 -0.1681,-0.3077 -0.3527,-0.673 -0.571,-1.0519 -0.2183,-0.3795 -0.4509,-0.784 -0.6836,-1.1886 -0.2446,-0.3974 -0.4889,-0.795 -0.7183,-1.1677 -0.2279,-0.3734 -0.4618,-0.7093 -0.6513,-1.0035 -0.3899,-0.5826 -0.6713,-0.9582 -0.6713,-0.9582 0,0 0.1964,0.4262 0.5224,1.0467 0.1682,0.307 0.3519,0.6728 0.5711,1.0516 0.2183,0.3791 0.4511,0.7835 0.6838,1.1881 0.2444,0.3975 0.4889,0.7949 0.7183,1.1678 0.2287,0.3731 0.4618,0.7092 0.6517,1.0036 0.3898,0.5826 0.6706,0.9585 0.6706,0.9585 z"
         style="fill:#242125;fill-rule:evenodd"
         id="path115" />
      <path
         d="m 167.6495,199.5002 c 0,0 -0.1963,-0.4262 -0.5225,-1.0468 -0.168,-0.3073 -0.3523,-0.6725 -0.5711,-1.0515 -0.2181,-0.3795 -0.4509,-0.784 -0.6835,-1.1886 -0.2445,-0.3974 -0.489,-0.795 -0.7183,-1.1677 -0.2279,-0.3734 -0.4619,-0.7094 -0.6513,-1.0035 -0.3898,-0.5828 -0.6712,-0.9587 -0.6712,-0.9587 0,0 0.1962,0.4266 0.5224,1.0472 0.1681,0.307 0.3517,0.6728 0.5712,1.0512 0.2181,0.3793 0.4509,0.7839 0.6835,1.1884 0.2445,0.3975 0.489,0.795 0.7184,1.1678 0.2288,0.3731 0.4618,0.7093 0.6517,1.0036 0.3898,0.5827 0.6707,0.9586 0.6707,0.9586 z"
         style="fill:#242125;fill-rule:evenodd"
         id="path117" />
      <path
         d="m 166.4938,200.1873 c 0,0 -0.1963,-0.4261 -0.5223,-1.0467 -0.1678,-0.3067 -0.3523,-0.6725 -0.5712,-1.0512 -0.2183,-0.3793 -0.4505,-0.7838 -0.6832,-1.1883 -0.2444,-0.3979 -0.4889,-0.7955 -0.7184,-1.1678 -0.2282,-0.3735 -0.4618,-0.7093 -0.6517,-1.0036 -0.3898,-0.5827 -0.6706,-0.9586 -0.6706,-0.9586 0,0 0.1963,0.4262 0.5223,1.0468 0.1682,0.3073 0.3518,0.6729 0.5711,1.0515 0.2178,0.3794 0.4505,0.7839 0.6836,1.1886 0.2446,0.3974 0.4891,0.7945 0.7184,1.1673 0.2284,0.3731 0.4617,0.7097 0.6517,1.0037 0.3895,0.5825 0.6703,0.9583 0.6703,0.9583 z"
         style="fill:#242125;fill-rule:evenodd"
         id="path119" />
      <path
         d="m 165.3379,200.8755 c 0,0 -0.1963,-0.4262 -0.5223,-1.0469 -0.1681,-0.3073 -0.3524,-0.6723 -0.5711,-1.0515 -0.2182,-0.3795 -0.4509,-0.7839 -0.6835,-1.189 -0.2446,-0.3974 -0.4891,-0.7945 -0.718,-1.1672 -0.2283,-0.3734 -0.4622,-0.7093 -0.6517,-1.0036 -0.3898,-0.583 -0.6707,-0.9585 -0.6707,-0.9585 0,0 0.1959,0.4261 0.522,1.0466 0.168,0.3073 0.3516,0.6733 0.571,1.0516 0.2182,0.3794 0.4509,0.784 0.6837,1.1886 0.2444,0.3974 0.4889,0.795 0.7184,1.1673 0.2287,0.3731 0.4618,0.7092 0.6516,1.004 0.3898,0.5826 0.6706,0.9586 0.6706,0.9586 z"
         style="fill:#242125;fill-rule:evenodd"
         id="path121" />
      <path
         d="m 164.1823,201.5626 c 0,0 -0.1963,-0.4261 -0.5224,-1.0467 -0.1677,-0.3068 -0.3523,-0.6725 -0.5708,-1.0511 -0.2185,-0.3799 -0.4508,-0.7843 -0.6834,-1.1889 -0.2445,-0.3974 -0.489,-0.795 -0.7185,-1.1674 -0.2282,-0.3733 -0.4618,-0.7092 -0.6516,-1.0039 -0.3893,-0.5827 -0.6708,-0.9581 -0.6708,-0.9581 0,0 0.1963,0.4261 0.5225,1.0467 0.168,0.3073 0.3517,0.6728 0.5711,1.0516 0.2182,0.379 0.4509,0.784 0.6835,1.1884 0.2445,0.3976 0.4892,0.7946 0.7185,1.1675 0.2288,0.373 0.4618,0.7092 0.6517,1.0036 0.3893,0.5825 0.6702,0.9583 0.6702,0.9583 z"
         style="fill:#242125;fill-rule:evenodd"
         id="path123" />
      <path
         d="m 163.0266,202.2503 c 0,0 -0.1964,-0.4262 -0.5224,-1.0467 -0.1681,-0.3073 -0.3524,-0.6725 -0.5711,-1.0516 -0.2182,-0.3794 -0.4509,-0.784 -0.6837,-1.1886 -0.2444,-0.3974 -0.4889,-0.7949 -0.7178,-1.1676 -0.2283,-0.373 -0.4617,-0.7093 -0.6516,-1.0036 -0.39,-0.5828 -0.671,-0.9581 -0.671,-0.9581 0,0 0.196,0.4261 0.522,1.0466 0.1683,0.3069 0.3519,0.6728 0.5711,1.0516 0.2184,0.379 0.451,0.7835 0.6837,1.1884 0.2446,0.3971 0.489,0.7947 0.7184,1.1674 0.2289,0.3728 0.4622,0.7094 0.6523,1.0033 0.3894,0.5826 0.6701,0.9589 0.6701,0.9589 z"
         style="fill:#242125;fill-rule:evenodd"
         id="path125" />
      <path
         d="m 161.8712,202.9381 c 0,0 -0.1968,-0.4263 -0.5228,-1.047 -0.1678,-0.3067 -0.3523,-0.6724 -0.5706,-1.0514 -0.2182,-0.3795 -0.4509,-0.7839 -0.6836,-1.1885 -0.2445,-0.3975 -0.4889,-0.795 -0.7183,-1.1678 -0.2279,-0.3733 -0.4618,-0.7092 -0.6513,-1.0035 -0.3898,-0.5827 -0.6712,-0.9586 -0.6712,-0.9586 0,0 0.1963,0.4265 0.5223,1.0472 0.1682,0.3068 0.3518,0.6728 0.5713,1.0511 0.2181,0.3794 0.4508,0.784 0.6835,1.1885 0.2445,0.3975 0.489,0.795 0.7184,1.1678 0.2288,0.3731 0.4618,0.7093 0.6517,1.0036 0.3898,0.5827 0.6706,0.9586 0.6706,0.9586 z"
         style="fill:#242125;fill-rule:evenodd"
         id="path127" />
      <path
         d="m 160.7156,203.6252 c 0,0 -0.1967,-0.4262 -0.5225,-1.0463 -0.1681,-0.3074 -0.3527,-0.673 -0.5709,-1.052 -0.2184,-0.379 -0.4506,-0.7839 -0.6832,-1.1884 -0.245,-0.3972 -0.4895,-0.7946 -0.7185,-1.1674 -0.2278,-0.3732 -0.4617,-0.7097 -0.6516,-1.004 -0.3895,-0.5821 -0.6708,-0.958 -0.6708,-0.958 0,0 0.1962,0.4265 0.522,1.0466 0.168,0.3073 0.3522,0.6729 0.5716,1.0517 0.2176,0.3793 0.4504,0.7838 0.6831,1.1884 0.2445,0.397 0.4889,0.795 0.7184,1.1674 0.2288,0.3731 0.4618,0.7091 0.6517,1.0036 0.3898,0.5826 0.6707,0.9584 0.6707,0.9584 z"
         style="fill:#242125;fill-rule:evenodd"
         id="path129" />
      <path
         d="m 159.5603,204.313 c 0,0 -0.1963,-0.4261 -0.5228,-1.0468 -0.1681,-0.3074 -0.3524,-0.6725 -0.5711,-1.0516 -0.2178,-0.3793 -0.4505,-0.7839 -0.6832,-1.1884 -0.2445,-0.3975 -0.489,-0.7951 -0.7183,-1.1678 -0.2278,-0.3734 -0.4617,-0.7093 -0.6516,-1.0036 -0.39,-0.5828 -0.671,-0.9581 -0.671,-0.9581 0,0 0.196,0.4261 0.522,1.0466 0.1686,0.3075 0.3523,0.6729 0.5716,1.0517 0.2179,0.3789 0.4505,0.7834 0.6833,1.188 0.2449,0.3975 0.4894,0.7951 0.7188,1.1678 0.2287,0.3731 0.4617,0.7093 0.6517,1.0036 0.3898,0.5828 0.6706,0.9586 0.6706,0.9586 z"
         style="fill:#242125;fill-rule:evenodd"
         id="path131" />
      <path
         d="m 158.4043,205.0001 c 0,0 -0.1964,-0.4262 -0.5226,-1.0464 -0.168,-0.3073 -0.3523,-0.6724 -0.5711,-1.0516 -0.2181,-0.3793 -0.4504,-0.7837 -0.6831,-1.1883 -0.2446,-0.3974 -0.4889,-0.795 -0.7183,-1.1677 -0.2283,-0.3735 -0.4618,-0.7093 -0.6517,-1.0036 -0.3899,-0.5828 -0.6709,-0.9583 -0.6709,-0.9583 0,0 0.1959,0.4261 0.5226,1.0464 0.168,0.3073 0.3516,0.6733 0.5709,1.0521 0.2179,0.3788 0.4506,0.7834 0.6833,1.1879 0.2445,0.3975 0.4894,0.7951 0.7188,1.1679 0.2285,0.3726 0.4618,0.7093 0.6518,1.0032 0.3894,0.5825 0.6703,0.9584 0.6703,0.9584 z"
         style="fill:#242125;fill-rule:evenodd"
         id="path133" />
      <path
         d="m 157.2488,205.6883 c 0,0 -0.1963,-0.4261 -0.5223,-1.0468 -0.1682,-0.3074 -0.3524,-0.6724 -0.5711,-1.0516 -0.2183,-0.3794 -0.451,-0.7838 -0.6837,-1.1884 -0.2445,-0.3976 -0.4889,-0.795 -0.7183,-1.1679 -0.2279,-0.3733 -0.4618,-0.7092 -0.6513,-1.0035 -0.3898,-0.5826 -0.6712,-0.9586 -0.6712,-0.9586 0,0 0.1964,0.4266 0.5224,1.0473 0.1681,0.3068 0.3518,0.6728 0.5711,1.0515 0.2182,0.379 0.451,0.7835 0.6837,1.1881 0.2444,0.3974 0.4889,0.795 0.7183,1.1677 0.2288,0.3731 0.4618,0.7094 0.6517,1.0036 0.3898,0.5827 0.6707,0.9586 0.6707,0.9586 z"
         style="fill:#242125;fill-rule:evenodd"
         id="path135" />
      <path
         d="m 156.0927,206.3754 c 0,0 -0.1963,-0.4262 -0.5219,-1.0466 -0.1681,-0.307 -0.3529,-0.6727 -0.5717,-1.0513 -0.2176,-0.3794 -0.4504,-0.7838 -0.6832,-1.1884 -0.2443,-0.3979 -0.4888,-0.7955 -0.7182,-1.1678 -0.2278,-0.3733 -0.4618,-0.7092 -0.6517,-1.0036 -0.3895,-0.5826 -0.6707,-0.9585 -0.6707,-0.9585 0,0 0.1963,0.4262 0.5223,1.0467 0.1681,0.3074 0.3519,0.6728 0.5711,1.0516 0.2182,0.3794 0.4509,0.784 0.6837,1.1884 0.2444,0.3976 0.489,0.7947 0.7184,1.1675 0.2284,0.3729 0.4616,0.7097 0.6516,1.0036 0.3895,0.5826 0.6703,0.9584 0.6703,0.9584 z"
         style="fill:#242125;fill-rule:evenodd"
         id="path137" />
      <path
         d="m 154.9375,207.0632 c 0,0 -0.1964,-0.4262 -0.5225,-1.0468 -0.168,-0.3073 -0.3523,-0.6725 -0.5711,-1.0515 -0.2181,-0.3795 -0.4509,-0.784 -0.6836,-1.1886 -0.2444,-0.3974 -0.4889,-0.795 -0.7178,-1.1676 -0.2283,-0.3735 -0.4623,-0.7094 -0.6517,-1.0036 -0.3899,-0.5828 -0.6708,-0.9586 -0.6708,-0.9586 0,0 0.1958,0.4265 0.5219,1.0471 0.1682,0.3068 0.3518,0.6728 0.5712,1.0511 0.2182,0.3794 0.4509,0.7839 0.6836,1.1885 0.2445,0.3975 0.4889,0.795 0.7183,1.1677 0.229,0.3728 0.4618,0.7094 0.6522,1.0038 0.3895,0.5825 0.6703,0.9585 0.6703,0.9585 z"
         style="fill:#242125;fill-rule:evenodd"
         id="path139" />
      <path
         d="m 153.7817,207.7508 c 0,0 -0.1964,-0.4263 -0.5224,-1.0469 -0.1681,-0.3073 -0.3524,-0.6723 -0.5711,-1.0515 -0.2182,-0.3794 -0.4504,-0.7838 -0.6832,-1.1883 -0.2445,-0.3976 -0.4889,-0.795 -0.7183,-1.1679 -0.228,-0.3728 -0.4618,-0.7092 -0.6516,-1.0036 -0.3895,-0.5825 -0.6704,-0.958 -0.6704,-0.958 0,0 0.1959,0.4261 0.5219,1.0468 0.168,0.3073 0.3517,0.6727 0.5711,1.0515 0.2182,0.379 0.4509,0.7839 0.6837,1.1885 0.2445,0.397 0.489,0.7946 0.7178,1.1672 0.229,0.3728 0.4618,0.7093 0.6522,1.0039 0.3894,0.5825 0.6703,0.9583 0.6703,0.9583 z"
         style="fill:#242125;fill-rule:evenodd"
         id="path141" />
      <path
         d="m 152.626,208.4384 c 0,0 -0.1964,-0.4261 -0.5225,-1.0467 -0.1677,-0.3072 -0.3524,-0.6725 -0.5706,-1.0515 -0.2183,-0.3795 -0.4509,-0.7839 -0.6837,-1.1885 -0.2443,-0.3975 -0.4889,-0.795 -0.7182,-1.1678 -0.2283,-0.3734 -0.4618,-0.7092 -0.6517,-1.0036 -0.3895,-0.5826 -0.6708,-0.9585 -0.6708,-0.9585 0,0 0.1963,0.4265 0.5223,1.0472 0.1682,0.3069 0.3519,0.6728 0.5712,1.0511 0.2182,0.3794 0.4509,0.784 0.6837,1.1884 0.2444,0.3976 0.4889,0.7952 0.7183,1.1679 0.2289,0.3726 0.4617,0.7093 0.6517,1.0032 0.3894,0.5829 0.6703,0.9588 0.6703,0.9588 z"
         style="fill:#242125;fill-rule:evenodd"
         id="path143" />
      <path
         d="m 151.4707,209.1263 c 0,0 -0.1965,-0.4262 -0.5225,-1.0469 -0.168,-0.3073 -0.3523,-0.6724 -0.5711,-1.0516 -0.2181,-0.3793 -0.4504,-0.7837 -0.6835,-1.1889 -0.2444,-0.3974 -0.4889,-0.795 -0.7179,-1.1672 -0.2283,-0.3734 -0.4617,-0.7097 -0.6516,-1.004 -0.3899,-0.5828 -0.6709,-0.9581 -0.6709,-0.9581 0,0 0.1959,0.426 0.522,1.0466 0.1681,0.3073 0.3517,0.6733 0.5716,1.0517 0.2177,0.3793 0.4503,0.7839 0.6831,1.1883 0.2444,0.3977 0.4889,0.7951 0.7184,1.1673 0.2289,0.3732 0.4623,0.7095 0.6517,1.0036 0.3899,0.5828 0.6707,0.9592 0.6707,0.9592 z"
         style="fill:#242125;fill-rule:evenodd"
         id="path145" />
      <path
         d="m 150.3149,209.8138 c 0,0 -0.1964,-0.4262 -0.5225,-1.0466 -0.168,-0.3073 -0.3523,-0.6727 -0.571,-1.0517 -0.2182,-0.3794 -0.4504,-0.7839 -0.6832,-1.1883 -0.2449,-0.3976 -0.4894,-0.7953 -0.7182,-1.168 -0.2284,-0.3733 -0.4618,-0.7092 -0.6518,-1.0035 -0.3899,-0.5826 -0.6707,-0.9586 -0.6707,-0.9586 0,0 0.1957,0.4266 0.5219,1.0468 0.1681,0.3073 0.3522,0.6728 0.5716,1.0515 0.2178,0.3794 0.4504,0.784 0.6831,1.1886 0.2446,0.3974 0.489,0.7948 0.7188,1.1678 0.2285,0.3727 0.4618,0.7093 0.6518,1.0031 0.3895,0.5826 0.6702,0.9589 0.6702,0.9589 z"
         style="fill:#242125;fill-rule:evenodd"
         id="path147" />
      <path
         d="m 149.1592,210.5011 c 0,0 -0.1962,-0.4263 -0.5224,-1.0469 -0.168,-0.3073 -0.3523,-0.6725 -0.5711,-1.0516 -0.2181,-0.3794 -0.4504,-0.7837 -0.6832,-1.1883 -0.2445,-0.3975 -0.4894,-0.7951 -0.7182,-1.1678 -0.2283,-0.3735 -0.4618,-0.7092 -0.6517,-1.0035 -0.39,-0.5828 -0.6709,-0.9582 -0.6709,-0.9582 0,0 0.1959,0.426 0.522,1.0466 0.1685,0.3074 0.3523,0.673 0.5715,1.0518 0.2179,0.3788 0.4505,0.7834 0.6833,1.1879 0.2445,0.3976 0.4889,0.7949 0.7188,1.1679 0.2284,0.373 0.4617,0.7093 0.6511,1.0036 0.39,0.5827 0.6708,0.9585 0.6708,0.9585 z"
         style="fill:#242125;fill-rule:evenodd"
         id="path149" />
      <path
         d="m 148.0035,211.1886 c 0,0 -0.1963,-0.426 -0.5225,-1.0466 -0.168,-0.3073 -0.3523,-0.6725 -0.5711,-1.0517 -0.2181,-0.3794 -0.4503,-0.7839 -0.6831,-1.1883 -0.2444,-0.3974 -0.4889,-0.7951 -0.7183,-1.1677 -0.2283,-0.3736 -0.4618,-0.7094 -0.6517,-1.0036 -0.3898,-0.5828 -0.6707,-0.9586 -0.6707,-0.9586 0,0 0.1957,0.4264 0.5224,1.0467 0.1681,0.3073 0.3517,0.6733 0.5711,1.0515 0.2177,0.3794 0.4505,0.7839 0.6831,1.1884 0.2445,0.3975 0.4894,0.7952 0.7188,1.1679 0.2284,0.3732 0.4618,0.7094 0.6513,1.0035 0.3898,0.5827 0.6707,0.9585 0.6707,0.9585 z"
         style="fill:#242125;fill-rule:evenodd"
         id="path151" />
      <path
         d="m 146.8482,211.8765 c 0,0 -0.1964,-0.4263 -0.5224,-1.0469 -0.1681,-0.3073 -0.3529,-0.6726 -0.5711,-1.0515 -0.2182,-0.3794 -0.451,-0.7839 -0.6832,-1.1883 -0.2445,-0.3976 -0.4889,-0.795 -0.7183,-1.1679 -0.2282,-0.3735 -0.4617,-0.7093 -0.6516,-1.0036 -0.39,-0.5828 -0.6708,-0.9586 -0.6708,-0.9586 0,0 0.1963,0.4267 0.5218,1.0471 0.1682,0.3071 0.3522,0.673 0.5711,1.0517 0.2184,0.379 0.451,0.7834 0.6838,1.1879 0.2445,0.3976 0.4894,0.7952 0.7182,1.1679 0.2289,0.3731 0.4618,0.7092 0.6517,1.0037 0.3899,0.5827 0.6708,0.9585 0.6708,0.9585 z"
         style="fill:#242125;fill-rule:evenodd"
         id="path153" />
      <path
         d="m 145.6925,212.5638 c 0,0 -0.1964,-0.4263 -0.5224,-1.047 -0.168,-0.3073 -0.3524,-0.6724 -0.5711,-1.0514 -0.2182,-0.3791 -0.4509,-0.7842 -0.6835,-1.1886 -0.2445,-0.3975 -0.4891,-0.795 -0.7184,-1.1679 -0.2279,-0.3727 -0.4618,-0.7093 -0.6512,-1.0034 -0.3901,-0.5822 -0.6713,-0.9581 -0.6713,-0.9581 0,0 0.1963,0.426 0.5223,1.0467 0.1682,0.3074 0.3519,0.6728 0.5711,1.0517 0.2183,0.3792 0.4509,0.7839 0.6837,1.1883 0.2446,0.3972 0.489,0.7946 0.7184,1.1675 0.2289,0.373 0.4618,0.709 0.6517,1.0035 0.3899,0.5826 0.6707,0.9587 0.6707,0.9587 z"
         style="fill:#242125;fill-rule:evenodd"
         id="path155" />
      <path
         d="m 144.5368,213.2513 c 0,0 -0.1963,-0.4262 -0.5226,-1.0463 -0.1676,-0.3073 -0.3522,-0.673 -0.5705,-1.0516 -0.2187,-0.3793 -0.4509,-0.784 -0.6836,-1.1888 -0.2444,-0.3976 -0.4889,-0.795 -0.7184,-1.1674 -0.2283,-0.3735 -0.4618,-0.7093 -0.6517,-1.0036 -0.39,-0.5826 -0.6708,-0.9586 -0.6708,-0.9586 0,0 0.1964,0.4263 0.5225,1.0468 0.168,0.3073 0.3518,0.6729 0.5711,1.0517 0.2177,0.3793 0.4509,0.7838 0.6836,1.1884 0.2444,0.3974 0.4891,0.7945 0.7184,1.1673 0.2284,0.373 0.4618,0.7094 0.6517,1.0036 0.3895,0.5826 0.6703,0.9585 0.6703,0.9585 z"
         style="fill:#242125;fill-rule:evenodd"
         id="path157" />
      <path
         d="m 143.381,213.9389 c 0,0 -0.1963,-0.426 -0.5224,-1.0468 -0.1676,-0.3072 -0.3524,-0.6724 -0.5706,-1.0514 -0.2188,-0.3791 -0.4509,-0.784 -0.6837,-1.1886 -0.2444,-0.3974 -0.4889,-0.7948 -0.7183,-1.1677 -0.2283,-0.373 -0.4618,-0.7092 -0.6516,-1.0036 -0.3895,-0.5826 -0.6708,-0.9582 -0.6708,-0.9582 0,0 0.1963,0.4262 0.5223,1.0469 0.1681,0.3074 0.3518,0.6728 0.5711,1.0515 0.2184,0.3791 0.4509,0.784 0.6837,1.1884 0.2446,0.3972 0.4889,0.7948 0.7183,1.1675 0.2291,0.3726 0.4618,0.7093 0.6517,1.0036 0.3895,0.5825 0.6703,0.9584 0.6703,0.9584 z"
         style="fill:#242125;fill-rule:evenodd"
         id="path159" />
      <path
         d="m 142.2252,214.6267 c 0,0 -0.1962,-0.4263 -0.5223,-1.0469 -0.1676,-0.3072 -0.3523,-0.6725 -0.5707,-1.0515 -0.2181,-0.3794 -0.4509,-0.7838 -0.6835,-1.1884 -0.2445,-0.3975 -0.4891,-0.795 -0.7184,-1.1678 -0.2283,-0.3736 -0.4618,-0.7094 -0.6517,-1.0037 -0.3894,-0.5826 -0.6707,-0.9586 -0.6707,-0.9586 0,0 0.1962,0.4267 0.5222,1.0473 0.1683,0.3071 0.3519,0.6729 0.5712,1.0512 0.2183,0.3794 0.451,0.7838 0.6837,1.1884 0.2445,0.3976 0.4889,0.795 0.7183,1.1678 0.2289,0.3728 0.4617,0.7094 0.6518,1.0032 0.3893,0.583 0.6701,0.959 0.6701,0.959 z"
         style="fill:#242125;fill-rule:evenodd"
         id="path161" />
      <path
         d="m 141.07,215.3143 c 0,0 -0.1968,-0.4261 -0.5229,-1.0467 -0.1676,-0.3074 -0.3523,-0.6726 -0.5707,-1.0516 -0.2181,-0.3794 -0.4509,-0.784 -0.6835,-1.1885 -0.2446,-0.3974 -0.489,-0.7951 -0.7184,-1.1677 -0.2278,-0.3734 -0.4618,-0.7093 -0.6517,-1.0037 -0.3894,-0.5825 -0.6707,-0.9585 -0.6707,-0.9585 0,0 0.1962,0.4266 0.5222,1.0473 0.1683,0.3068 0.3519,0.6726 0.5713,1.051 0.2182,0.3795 0.4508,0.784 0.6836,1.1885 0.2445,0.3975 0.4889,0.7949 0.7183,1.1677 0.229,0.3727 0.4618,0.7093 0.6518,1.0031 0.3899,0.5829 0.6707,0.9591 0.6707,0.9591 z"
         style="fill:#242125;fill-rule:evenodd"
         id="path163" />
      <path
         d="m 139.9143,216.0016 c 0,0 -0.1963,-0.4263 -0.5224,-1.047 -0.1682,-0.3067 -0.3524,-0.6724 -0.5711,-1.0515 -0.2181,-0.3794 -0.4509,-0.7838 -0.6836,-1.1884 -0.2444,-0.3977 -0.489,-0.795 -0.7185,-1.1673 -0.2276,-0.3738 -0.4617,-0.7097 -0.6511,-1.0039 -0.3898,-0.5826 -0.6712,-0.9583 -0.6712,-0.9583 0,0 0.1962,0.4262 0.5224,1.0468 0.1681,0.3072 0.3518,0.6727 0.5711,1.0516 0.2183,0.3789 0.4511,0.7834 0.6837,1.188 0.2445,0.3975 0.489,0.7949 0.7184,1.1678 0.2287,0.3731 0.4621,0.7094 0.6517,1.0036 0.3898,0.5826 0.6706,0.9586 0.6706,0.9586 z"
         style="fill:#242125;fill-rule:evenodd"
         id="path165" />
      <path
         d="m 138.7587,216.6887 c 0,0 -0.1963,-0.4261 -0.5225,-1.0463 -0.1681,-0.3073 -0.3525,-0.6724 -0.5711,-1.0516 -0.2177,-0.3792 -0.4505,-0.7839 -0.6832,-1.1884 -0.2444,-0.3974 -0.4889,-0.795 -0.7183,-1.1678 -0.2278,-0.3732 -0.4618,-0.7093 -0.6517,-1.0036 -0.3895,-0.5825 -0.6707,-0.9586 -0.6707,-0.9586 0,0 0.1962,0.4267 0.522,1.0468 0.1685,0.3074 0.3522,0.6729 0.5714,1.0517 0.2183,0.3794 0.4506,0.7839 0.6832,1.1883 0.245,0.3977 0.4894,0.7952 0.7188,1.1678 0.2285,0.3727 0.4618,0.7093 0.6518,1.0034 0.3894,0.5825 0.6703,0.9583 0.6703,0.9583 z"
         style="fill:#242125;fill-rule:evenodd"
         id="path167" />
      <path
         d="m 137.6033,217.377 c 0,0 -0.1963,-0.4262 -0.5226,-1.0463 -0.1679,-0.3079 -0.3526,-0.6731 -0.571,-1.0521 -0.2181,-0.3794 -0.4509,-0.7839 -0.6835,-1.1884 -0.2445,-0.3976 -0.489,-0.7952 -0.7184,-1.1679 -0.2277,-0.3734 -0.4618,-0.7093 -0.6512,-1.0035 -0.3899,-0.5828 -0.6713,-0.9582 -0.6713,-0.9582 0,0 0.1963,0.4262 0.5224,1.0467 0.1681,0.3074 0.3518,0.6728 0.571,1.0517 0.2184,0.379 0.4511,0.7834 0.6838,1.1879 0.2445,0.3976 0.4889,0.795 0.7183,1.1679 0.2289,0.3731 0.4618,0.7093 0.6517,1.0036 0.3899,0.5827 0.6708,0.9586 0.6708,0.9586 z"
         style="fill:#242125;fill-rule:evenodd"
         id="path169" />
      <path
         d="m 135.3193,221.0722 c 0.2192,0.0557 0.4596,0.0273 0.6695,-0.0976 0.4193,-0.2493 0.5569,-0.7912 0.3075,-1.2109 l -5.1116,-8.5906 c -0.1244,-0.2098 -0.3224,-0.349 -0.5416,-0.4046 -0.2191,-0.0557 -0.4595,-0.0278 -0.6688,0.0972 -0.4197,0.2493 -0.5575,0.7919 -0.3076,1.2112 l 5.1108,8.5901 c 0.1249,0.2099 0.3227,0.3496 0.5418,0.4052 z"
         style="fill:#da853c;fill-rule:evenodd"
         id="path171" />
      <path
         d="m 183.1153,192.2963 c 0,0 5.6802,-3.1658 14.1997,-7.914 8.507,-4.772 19.8493,-11.1341 31.1916,-17.4965 11.3199,-6.4017 22.6401,-12.8038 31.1301,-17.6049 8.4767,-4.8251 14.128,-8.0416 14.128,-8.0416 0,0 -5.68,3.1657 -14.1997,7.9137 -8.5071,4.772 -19.8493,11.134 -31.1917,17.4965 -11.3197,6.4022 -22.6401,12.8038 -31.1297,17.6053 -8.4768,4.825 -14.1283,8.0415 -14.1283,8.0415 z"
         style="fill:#a6500d;fill-rule:evenodd"
         id="path173" />
      <path
         d="m 185.8875,184.985 c 0,0 5.2077,-2.9178 13.0187,-7.2944 7.8002,-4.3963 18.2004,-10.2578 28.6006,-16.1194 10.3811,-5.8952 20.7624,-11.7902 28.5482,-16.2116 7.7748,-4.441 12.9579,-7.4017 12.9579,-7.4017 0,0 -5.2075,2.9176 -13.0187,7.2941 -6.7636,3.812 -15.4815,8.7259 -24.4603,13.7861 -0.8357,0.5409 -1.6904,1.0737 -2.5524,1.5948 -2.0029,1.197 -4.0466,2.3273 -6.0065,3.3006 -0.2221,0.11 -0.4429,0.2179 -0.6624,0.3237 -8.6257,4.8982 -16.954,9.6279 -23.4668,13.3262 -7.7749,4.4411 -12.9583,7.4016 -12.9583,7.4016 z m 38.0777,-21.6664 c 1.6317,-0.8522 3.3052,-1.8007 4.951,-2.7945 0.093,-0.056 0.1858,-0.1115 0.2788,-0.1674 -0.6001,0.3381 -1.2006,0.6765 -1.8012,1.0151 -1.1441,0.6496 -2.2878,1.2989 -3.4286,1.9468 z"
         style="fill:#a6500d;fill-rule:evenodd"
         id="path175" />
      <path
         d="m 226.6204,165.0187 c 0,0 2.8199,-1.5605 7.0499,-3.9015 2.1106,-1.1785 4.5727,-2.5531 7.211,-4.026 2.6343,-1.4799 5.4443,-3.0586 8.2541,-4.6371 2.805,-1.5874 5.6099,-3.1751 8.2394,-4.6635 2.6257,-1.4952 5.0761,-2.8905 7.1768,-4.0868 4.1918,-2.4082 6.9865,-4.0138 6.9865,-4.0138 0,0 -2.82,1.5605 -7.05,3.9012 -2.1107,1.1785 -4.5731,2.5533 -7.2113,4.0263 -2.6342,1.4796 -5.4441,3.0583 -8.2539,4.637 -2.8048,1.5875 -5.6094,3.175 -8.2392,4.6632 -2.6256,1.4957 -5.0759,2.891 -7.1765,4.0873 -4.1921,2.4084 -6.9868,4.0137 -6.9868,4.0137 z"
         style="fill:#a6500d;fill-rule:evenodd"
         id="path177" />
      <path
         d="m 243.5225,148.2701 c 0,0 1.5289,-0.8529 3.8231,-2.132 1.1421,-0.6473 2.4749,-1.4026 3.903,-2.2119 1.4238,-0.8163 2.9431,-1.6869 4.4618,-2.5571 1.5138,-0.8797 3.0276,-1.7591 4.4468,-2.5837 1.4153,-0.8316 2.736,-1.6075 3.8683,-2.2728 0.6311,-0.3767 1.2034,-0.7182 1.7005,-1.0151 -0.0541,0.003 -0.1076,0.006 -0.1615,0.009 -0.4754,0.265 -1.0145,0.5656 -1.6038,0.8941 -1.1423,0.6476 -2.475,1.4029 -3.9029,2.2122 -1.4241,0.8163 -2.943,1.6864 -4.4619,2.5574 -1.5138,0.8794 -3.0274,1.7592 -4.4469,2.5837 -1.4149,0.8314 -2.736,1.6075 -3.868,2.2725 -2.2552,1.3463 -3.7585,2.2436 -3.7585,2.2436 z"
         style="fill:#a6500d;fill-rule:evenodd"
         id="path179" />
      <path
         d="m 265.5645,135.5066 c 0.0539,-0.003 0.1074,-0.006 0.1615,-0.009 1.2784,-0.7631 2.058,-1.2285 2.058,-1.2285 0,0 -0.8444,0.471 -2.2195,1.2376 z"
         style="fill:#a6500d;fill-rule:evenodd"
         id="path181" />
      <path
         d="m 241.0465,151.2928 c 0,0 1.1231,-0.6382 2.8073,-1.5953 0.8376,-0.4865 1.8151,-1.0541 2.862,-1.6621 1.043,-0.6149 2.1554,-1.2708 3.2677,-1.9266 1.1071,-0.6647 2.2146,-1.3292 3.2523,-1.9526 1.0342,-0.6299 1.999,-1.2179 2.8263,-1.7223 1.6448,-1.0235 2.7414,-1.706 2.7414,-1.706 0,0 -1.123,0.6379 -2.8076,1.5953 -0.8376,0.4863 -1.8147,1.0538 -2.8618,1.662 -1.0427,0.615 -2.1554,1.2708 -3.2677,1.9266 -1.1071,0.6647 -2.2144,1.3297 -3.2523,1.9526 -1.0337,0.6301 -1.9987,1.2184 -2.8258,1.7224 -1.6452,1.0238 -2.7418,1.706 -2.7418,1.706 z"
         style="fill:#a6500d;fill-rule:evenodd"
         id="path183" />
      <path
         d="m 185.6377,189.8064 c 0,0 1.5035,-0.8539 3.7584,-2.1357 1.1219,-0.6512 2.43,-1.4108 3.8316,-2.2252 1.3964,-0.8231 2.8861,-1.7012 4.3752,-2.5792 1.4823,-0.8899 2.9644,-1.7796 4.3542,-2.6141 1.3839,-0.8434 2.6756,-1.6306 3.7834,-2.3052 2.2021,-1.3708 3.6704,-2.2846 3.6704,-2.2846 0,0 -1.5041,0.8543 -3.759,2.1357 -1.1213,0.6512 -2.4294,1.4109 -3.8315,2.2251 -1.3959,0.8233 -2.8856,1.7013 -4.3748,2.5793 -1.4821,0.8899 -2.9645,1.7802 -4.3542,2.6146 -1.3839,0.8435 -2.6761,1.6305 -3.783,2.3054 -2.2025,1.3707 -3.6707,2.2839 -3.6707,2.2839 z"
         style="fill:#a6500d;fill-rule:evenodd"
         id="path185" />
      <path
         d="m 217.5464,162.4176 c 4.9594,-3.0404 9.6429,-5.9118 13.4587,-8.2516 5.585,-3.4505 9.3086,-5.7512 9.3086,-5.7512 0,0 -3.7494,2.2583 -9.3731,5.6458 -3.111,1.8887 -6.7963,4.126 -10.7387,6.5195 -0.884,0.6137 -1.769,1.2269 -2.6555,1.8375 z"
         style="fill:#a6500d;fill-rule:evenodd"
         id="path187" />
      <path
         d="m 180.7728,191.5011 c 0,0 5.0192,-3.0234 12.548,-7.5586 7.5131,-4.5614 17.5302,-10.6427 27.5479,-16.7238 3.1784,-1.949 6.3573,-3.898 9.4557,-5.7976 1.1869,-0.8175 2.3716,-1.6384 3.5552,-2.46 -4.242,2.5755 -8.7072,5.2858 -13.1706,7.9958 -9.9909,6.1253 -19.9816,12.2503 -27.4745,16.8445 -7.4771,4.6194 -12.4617,7.6997 -12.4617,7.6997 z"
         style="fill:#a6500d;fill-rule:evenodd"
         id="path189" />
      <path
         d="m 216.6543,164.944 c 0.0996,0.0253 0.2008,0.0255 0.3009,0.0211 0.4445,-0.0298 0.886,-0.1611 1.3353,-0.3057 0.4493,-0.1475 0.9056,-0.3223 1.3697,-0.5133 0.7181,-0.2953 1.4546,-0.6296 2.2053,-0.9908 0.5494,-0.3119 1.1011,-0.6254 1.6526,-0.9386 -0.3462,0.1811 -0.6909,0.3577 -1.0326,0.5292 -0.9768,0.4898 -1.9327,0.9402 -2.8563,1.3254 -0.4619,0.1921 -0.9159,0.3686 -1.3618,0.5172 -0.4454,0.1456 -0.8857,0.2777 -1.3155,0.3084 -0.0967,0.005 -0.1949,0.004 -0.2835,-0.0181 -0.009,-0.002 -0.0176,-0.005 -0.0262,-0.007 l -0.0632,-0.0267 -0.0566,-0.0438 -0.0266,-0.0291 -0.007,-0.0274 -0.0154,-0.0654 c 0.008,-0.1919 0.1308,-0.3713 0.2407,-0.5297 0.2351,-0.318 0.5034,-0.5862 0.7587,-0.8315 0.5131,-0.4901 0.9943,-0.8815 1.3904,-1.2028 0.7979,-0.6353 1.2704,-0.9778 1.2704,-0.9778 0,0 -0.4768,0.3361 -1.2839,0.9609 -0.4001,0.3167 -0.8868,0.7014 -1.4078,1.1866 -0.2601,0.2431 -0.5329,0.5081 -0.7766,0.8288 -0.114,0.1627 -0.2447,0.3374 -0.2573,0.5688 0.007,0.1248 0.0957,0.2199 0.2141,0.2528 0.0108,0.003 0.0218,0.006 0.0325,0.009 z m 12.0936,-5.6892 c 0.7808,-0.4401 1.5611,-0.8801 2.3389,-1.3186 1.1008,-0.7123 2.1689,-1.4383 3.1764,-2.1681 0.8854,-0.6424 1.7254,-1.2876 2.4822,-1.9479 0.3774,-0.3308 0.7347,-0.6659 1.0462,-1.0244 0.1522,-0.1814 0.2999,-0.3661 0.3943,-0.583 0.0396,-0.107 0.0864,-0.234 0.0105,-0.3601 -0.0477,-0.0707 -0.1262,-0.1094 -0.2052,-0.1295 -0.0377,-0.01 -0.075,-0.0147 -0.1092,-0.0173 -0.452,-0.0202 -0.8599,0.1091 -1.2423,0.2189 -0.3821,0.118 -0.7369,0.2508 -1.0682,0.38 -0.662,0.2605 -1.2272,0.5156 -1.6908,0.7286 -0.9255,0.4301 -1.4443,0.6965 -1.4443,0.6965 0,0 0.5223,-0.2591 1.4531,-0.6768 0.4664,-0.207 1.0344,-0.4539 1.6985,-0.7055 0.3322,-0.1246 0.6878,-0.2523 1.0695,-0.3643 0.3793,-0.1046 0.7913,-0.2317 1.2175,-0.2093 0.0356,0.004 0.0701,0.009 0.1031,0.0176 0.0656,0.0167 0.1242,0.046 0.1632,0.1047 0.0471,0.0747 0.0188,0.1929 -0.0215,0.2893 -0.0887,0.2011 -0.2342,0.3839 -0.3846,0.5614 -0.3092,0.3521 -0.6661,0.6845 -1.0435,1.0119 -0.7566,0.6541 -1.5977,1.2943 -2.4847,1.9315 -1.6924,1.2144 -3.5559,2.4177 -5.4591,3.5644 z"
         style="fill:#a6500d;fill-rule:evenodd"
         id="path191" />
      <path
         d="m 221.8655,163.1553 c 0.2195,-0.1057 0.4404,-0.2136 0.6625,-0.3236 1.9599,-0.9734 4.0035,-2.1037 6.0064,-3.3006 0.862,-0.5211 1.7167,-1.054 2.5524,-1.5949 -0.7778,0.4385 -1.5581,0.8785 -2.3389,1.3186 -0.0929,0.056 -0.1858,0.1115 -0.2788,0.1674 -1.6458,0.9938 -3.3193,1.9424 -4.951,2.7945 -0.5515,0.3132 -1.1032,0.6267 -1.6526,0.9386 z"
         style="fill:#a6500d;fill-rule:evenodd"
         id="path193" />
      <path
         d="m 218.1399,163.6107 c 0.0436,0.0111 0.0871,0.0161 0.1297,0.0159 0.3516,-0.0136 0.6647,-0.1269 0.9603,-0.2249 0.2951,-0.104 0.5696,-0.2149 0.8263,-0.3233 0.512,-0.2174 0.9508,-0.4247 1.3105,-0.5977 0.7189,-0.3484 1.1227,-0.561 1.1227,-0.561 0,0 -0.4065,0.2076 -1.129,0.547 -0.3619,0.1685 -0.8031,0.3703 -1.3169,0.5811 -0.2577,0.1046 -0.5331,0.2125 -0.8277,0.312 -0.294,0.0942 -0.6108,0.2065 -0.9452,0.217 -0.037,-0.001 -0.0758,-0.004 -0.1098,-0.0122 -0.0413,-0.0105 -0.0761,-0.0304 -0.0923,-0.0682 -0.0237,-0.066 0.012,-0.1535 0.0558,-0.2254 0.0884,-0.1497 0.2125,-0.2835 0.339,-0.4154 0.2559,-0.2629 0.5464,-0.5107 0.8489,-0.7589 0.6075,-0.4941 1.2746,-0.9831 1.9761,-1.4718 1.403,-0.9774 2.9449,-1.9551 4.5105,-2.8908 1.5623,-0.9419 3.1516,-1.8398 4.6706,-2.6256 0.7594,-0.3923 1.502,-0.7563 2.2176,-1.0754 0.7165,-0.3103 1.4032,-0.6107 2.0713,-0.7371 0.083,-0.0112 0.167,-0.02 0.2459,-0.0107 0.0163,0.001 0.0313,0.004 0.0453,0.007 0.0217,0.006 0.041,0.0133 0.0589,0.021 l 0.0378,0.0401 0.0131,0.0488 c -0.0167,0.1484 -0.1261,0.2813 -0.2182,0.4006 -0.1999,0.2368 -0.4164,0.4394 -0.6233,0.6239 -0.415,0.3695 -0.798,0.6672 -1.1131,0.912 -0.6348,0.4843 -1.0079,0.7473 -1.0079,0.7473 0,0 0.3762,-0.2583 1.0171,-0.735 0.3185,-0.2408 0.7053,-0.534 1.1256,-0.8993 0.21,-0.1827 0.4298,-0.3831 0.6353,-0.6208 0.0948,-0.1228 0.21,-0.248 0.232,-0.4298 l -0.019,-0.0704 -0.0447,-0.0508 c -0.0277,-0.0163 -0.0561,-0.028 -0.084,-0.0351 -0.0167,-0.004 -0.0328,-0.007 -0.0487,-0.008 -0.0874,-0.0108 -0.1737,-10e-4 -0.2595,0.01 -0.6815,0.1261 -1.3672,0.424 -2.0875,0.7326 -0.7185,0.3165 -1.4636,0.6777 -2.2258,1.0673 -1.524,0.7802 -3.1187,1.6721 -4.6861,2.6081 -1.564,0.943 -3.1021,1.9286 -4.5033,2.9128 -0.7001,0.4927 -1.3663,0.985 -1.9734,1.4832 -0.3028,0.2503 -0.5925,0.5001 -0.8506,0.767 -0.1274,0.1342 -0.2521,0.2689 -0.3448,0.427 -0.0432,0.0768 -0.0921,0.1697 -0.0573,0.2719 0.0176,0.0495 0.0679,0.0779 0.1131,0.0926 0.002,4e-4 0.003,8e-4 0.005,0.001 z"
         style="fill:#a6500d;fill-rule:evenodd"
         id="path195" />
      <path
         d="m 221.9466,161.7389 c 0.0383,0.01 0.0774,0.014 0.1162,0.0132 0.4072,-0.0201 0.8161,-0.1835 1.2428,-0.3448 0.4259,-0.1691 0.8654,-0.3698 1.3142,-0.5887 0.8975,-0.4383 1.8318,-0.9523 2.7461,-1.4992 0.9115,-0.551 1.8038,-1.1343 2.6085,-1.7263 0.4022,-0.2964 0.7828,-0.5947 1.1237,-0.9014 0.17,-0.1538 0.3297,-0.3106 0.4676,-0.4778 0.0668,-0.0853 0.1308,-0.1727 0.1684,-0.2742 0.0144,-0.0513 0.0281,-0.1107 -0.0104,-0.1649 -0.0208,-0.0297 -0.0644,-0.0521 -0.1051,-0.0625 -0.0127,-0.003 -0.025,-0.005 -0.0364,-0.006 -0.2062,-0.0198 -0.394,0.0377 -0.5697,0.0828 -0.1755,0.0495 -0.338,0.1097 -0.4903,0.1654 -0.3038,0.1149 -0.5629,0.2294 -0.7752,0.3249 -0.4241,0.1929 -0.6618,0.3125 -0.6618,0.3125 0,0 0.2394,-0.1167 0.6659,-0.3034 0.2133,-0.0926 0.4739,-0.2032 0.7787,-0.3136 0.1527,-0.0534 0.3153,-0.1112 0.4908,-0.1578 0.1734,-0.043 0.3637,-0.099 0.5569,-0.0787 0.0147,0.002 0.0284,0.004 0.0413,0.008 0.0305,0.008 0.0565,0.021 0.0809,0.0518 0.0227,0.0313 0.0173,0.0857 0.002,0.1308 -0.0347,0.0938 -0.0977,0.1796 -0.1636,0.2629 -0.1367,0.1641 -0.2961,0.3192 -0.4661,0.4715 -0.3407,0.3035 -0.7218,0.5993 -1.1244,0.8935 -0.806,0.587 -1.7002,1.1653 -2.613,1.7117 -0.9102,0.5503 -1.8409,1.0678 -2.7349,1.5098 -0.4472,0.2207 -0.8847,0.423 -1.3088,0.5932 -0.4231,0.163 -0.8339,0.3273 -1.2284,0.3485 -0.033,0.002 -0.0699,-0.001 -0.1036,-0.01 -0.0586,-0.0149 -0.1071,-0.0478 -0.1066,-0.1073 0.002,-0.0879 0.0533,-0.1717 0.1017,-0.2453 0.1027,-0.1482 0.2231,-0.273 0.3375,-0.387 0.2301,-0.228 0.4478,-0.409 0.6268,-0.5577 0.36,-0.2926 0.5742,-0.4501 0.5759,-0.4514 -0.002,0.001 -0.218,0.1557 -0.5822,0.4437 -0.1812,0.1464 -0.4013,0.3244 -0.6354,0.5499 -0.1167,0.113 -0.2395,0.2362 -0.3461,0.3863 -0.0504,0.0752 -0.1062,0.1582 -0.1087,0.2634 0.004,0.0557 0.035,0.1018 0.0892,0.1234 0.0118,0.004 0.0236,0.008 0.0353,0.0107 z m 1.5479,-1.7774 z"
         style="fill:#a6500d;fill-rule:evenodd"
         id="path197" />
      <path
         d="m 223.5824,160.7532 c 0.023,0.006 0.044,0.009 0.0578,0.007 0.0581,0.007 0.1123,0.002 0.1664,-0.003 0.2158,-0.0236 0.4217,-0.0853 0.6295,-0.1507 0.8276,-0.2735 1.6449,-0.708 2.4436,-1.166 0.7835,-0.4828 1.556,-0.9939 2.1908,-1.5907 0.157,-0.1511 0.3095,-0.303 0.4328,-0.4814 0.0561,-0.0894 0.1296,-0.186 0.1081,-0.3306 -0.025,-0.0788 -0.0826,-0.1148 -0.1446,-0.1305 -0.0594,-0.0151 -0.1231,-0.0118 -0.1669,-0.0111 -0.4091,0.0501 -0.7494,0.2093 -1.0675,0.3411 -0.6299,0.2808 -1.1351,0.5514 -1.4839,0.7496 -0.3493,0.1974 -0.5441,0.3186 -0.5441,0.3186 0,0 0.197,-0.1175 0.5496,-0.3083 0.3533,-0.1882 0.8587,-0.462 1.498,-0.7127 0.3183,-0.1161 0.6751,-0.2576 1.0531,-0.2855 0.0438,5e-4 0.088,0.003 0.1233,0.0118 0.037,0.009 0.064,0.0262 0.0699,0.0561 0.008,0.0562 -0.0427,0.1509 -0.1017,0.2258 -0.1197,0.1566 -0.2749,0.2985 -0.4337,0.4374 -0.653,0.5436 -1.4134,1.0543 -2.2004,1.5135 -0.7787,0.473 -1.5904,0.8979 -2.3793,1.2125 -0.1982,0.0731 -0.3969,0.1416 -0.5917,0.172 -0.0489,0.007 -0.097,0.0133 -0.1411,0.01 l -0.0557,-0.006 -0.05,-0.0212 c -0.046,-0.027 -0.0119,-0.1262 0.0322,-0.2037 0.2045,-0.319 0.4991,-0.565 0.7533,-0.7892 0.5256,-0.4415 1.0071,-0.7554 1.341,-0.9762 0.3361,-0.2192 0.5332,-0.3359 0.5332,-0.3359 0,0 -0.199,0.1131 -0.5392,0.3261 -0.3406,0.212 -0.8198,0.527 -1.3668,0.9466 -0.2677,0.217 -0.5696,0.4402 -0.8088,0.7755 -0.0254,0.0468 -0.0561,0.0898 -0.0693,0.15 -0.0161,0.0495 -0.0174,0.1453 0.0439,0.1904 0.017,0.0227 0.0712,0.0467 0.1182,0.0587 z"
         style="fill:#a6500d;fill-rule:evenodd"
         id="path199" />
    </g>
    <path
       d="m 135.1375,105.169 c 26.1879,10.6246 4.1879,62.7809 12.5631,92.9056 0.8187,-0.1769 1.5534,-0.4527 2.278,-0.7977 3.1104,-1.3405 3.9523,-0.379 4.1051,0.9482 -0.4887,0.9201 -0.4102,2.6149 -0.273,3.3794 1.798,1.5571 5.0542,5.184 4.7135,8.0022 -0.3235,2.6694 -4.1347,4.2061 -7.4047,1.0154 3.3094,3.4268 -0.8294,4.9623 -3.8356,4.5859 -3.7797,-0.4723 -10.927,-6.3811 -13.0918,-8.7593 -4.6655,-5.1256 -7.6425,-11.7956 -10.0224,-22.0618 -2.0407,6.4043 -0.2716,14.0329 4.6873,22.6877 -2.656,3.9999 -6.3436,9.5938 -6.5624,15.3751 -5.7107,-11.3256 -13.1517,-21.1244 -27.3751,-24.9378 20.9602,15.4519 30.7953,31.2871 28.3635,47.5455 -21.907,-10.6092 -37.0148,-33.0534 -37.0148,-59.0273 0,-1.1735 0.0315,-2.34 0.0927,-3.4982 5.0879,-3.6054 9.6732,-5.3104 15.1126,-8.0612 27.1862,-13.7471 45.9065,-35.2496 33.664,-69.3017 z"
       style="fill:#110913;fill-rule:evenodd"
       id="path202" />
    <path
       d="m 86.3365,188.9895 c -0.0436,-0.9813 -0.0683,-1.9672 -0.0683,-2.9594 0,-1.1735 0.0315,-2.34 0.0927,-3.4982 5.0879,-3.6054 9.6732,-5.3104 15.1126,-8.0612 27.1862,-13.7471 45.9065,-35.2496 33.664,-69.3017 17.3148,35.8161 -1.5137,63.2268 -48.6989,84.0425 z"
       style="fill:#3a3a3a;fill-rule:evenodd"
       id="path204" />
    <path
       d="m 85.986,241.02 -6.1695,-8.2946 2.7613,-5.9108 c 0.4769,-1.0372 1.8655,-0.3669 1.3736,0.6882 l -2.2627,4.9498 1.2854,1.7282 2.8128,-6.162 c 0.4728,-0.8289 1.8068,-0.2236 1.4118,0.7395 l -0.7918,1.7156 1.4132,0.314 c 0.9678,0.2854 0.6892,1.6305 -0.2612,1.52 l -1.8302,-0.3221 -1.6692,3.6275 0.3364,0.4523 3.9628,-0.5353 0.1966,-1.8827 c 0.179,-0.9772 1.6381,-0.759 1.5391,0.2603 l -0.1093,1.3635 1.8337,-0.2702 c 0.9079,-0.1518 1.4167,1.3255 0.2809,1.5805 l -6.6063,0.9368 1.2632,1.6983 5.46,-0.7941 c 1.0438,-0.1113 1.3092,1.3502 0.2712,1.5944 z"
       style="fill:#f5c002;fill-rule:evenodd"
       id="path206" />
    <path
       d="m 104.1324,257.827 -8.0813,-6.4464 1.1621,-6.4196 c 0.1965,-1.1246 1.7101,-0.8307 1.5037,0.315 l -0.9252,5.3633 1.6838,1.3431 1.1479,-6.6757 c 0.2457,-0.9221 1.6899,-0.6771 1.5536,0.3549 l -0.3279,1.8609 1.4466,-0.0569 c 1.0085,0.029 1.0822,1.4007 0.1351,1.5363 l -1.8518,0.1554 -0.6886,3.9333 0.4406,0.3515 3.6951,-1.5284 -0.2901,-1.8707 c -0.0762,-0.9904 1.3903,-1.1517 1.5546,-0.1409 l 0.2421,1.3463 1.7041,-0.7291 c 0.8392,-0.3783 1.708,0.9204 0.6748,1.4567 l -6.1488,2.591 1.6547,1.3199 5.0768,-2.1607 c 0.9809,-0.3738 1.6103,0.9716 0.6689,1.4725 z"
       style="fill:#f5c002;fill-rule:evenodd"
       id="path208" />
    <path
       d="m 126.1272,268.3715 -9.6653,-3.6668 -0.8563,-6.4675 c -0.1568,-1.1308 1.3742,-1.3138 1.528,-0.1598 l 0.759,5.3893 2.0137,0.764 -0.9482,-6.707 c -0.048,-0.953 1.402,-1.1614 1.5878,-0.1371 l 0.2567,1.872 1.36,-0.4965 c 0.9691,-0.2807 1.4587,1.0027 0.5983,1.4215 l -1.7156,0.7141 0.547,3.9555 0.527,0.2 3.0509,-2.5851 -0.8482,-1.6923 c -0.3754,-0.9197 0.9716,-1.5217 1.437,-0.6095 l 0.6422,1.2078 1.3995,-1.2152 c 0.6834,-0.6168 1.9076,0.354 1.0879,1.1805 l -5.0621,4.347 1.979,0.7508 4.173,-3.6095 c 0.8196,-0.6558 1.8303,0.4327 1.0871,1.1974 z"
       style="fill:#f5c002;fill-rule:evenodd"
       id="path210" />
    <g
       id="Layer1002">
      <path
         d="m 258.4198,160.6608 c 0,-6.5739 -5.2811,-11.9033 -11.7959,-11.9033 -6.5146,0 -11.7957,5.3294 -11.7957,11.9033 0,6.574 5.2811,11.9032 11.7957,11.9032 6.5148,0 11.7959,-5.3292 11.7959,-11.9032 z"
         style="fill:#ececed;fill-rule:evenodd"
         id="path212" />
      <path
         d="m 258.4198,160.6608 h -0.1902 c -2e-4,-3.2345 -1.2987,-6.161 -3.3992,-8.281 -2.1008,-2.1198 -5.001,-3.4301 -8.2065,-3.4304 -3.2053,3e-4 -6.1054,1.3106 -8.2063,3.4304 -2.1005,2.12 -3.3992,5.0465 -3.3992,8.281 0,3.2345 1.2987,6.1611 3.3992,8.2811 2.1009,2.1196 5.001,3.4301 8.2063,3.4301 3.2055,0 6.1057,-1.3105 8.2065,-3.4301 2.1005,-2.12 3.399,-5.0466 3.3992,-8.2811 h 0.3804 c -2e-4,6.68 -5.3662,12.0951 -11.9861,12.0951 -6.6197,0 -11.9859,-5.4151 -11.9859,-12.0951 0,-6.6799 5.366,-12.0951 11.9859,-12.0952 6.6199,1e-4 11.9859,5.4153 11.9861,12.0952 z"
         style="fill:#b1b3b4;fill-rule:evenodd"
         id="path214" />
      <path
         d="m 253.7834,160.8952 c 0,-4.8961 -3.9333,-8.8654 -8.7854,-8.8654 -4.852,0 -8.7852,3.9693 -8.7852,8.8654 0,4.8962 3.9332,8.8653 8.7852,8.8653 4.8521,0 8.7854,-3.9691 8.7854,-8.8653 z"
         style="fill:#f4f7f6;fill-rule:evenodd"
         id="path216" />
      <path
         d="m 249.835,161.7391 c 0,-3.2392 -2.6022,-5.8652 -5.8123,-5.8652 -3.21,0 -5.8121,2.626 -5.8121,5.8652 0,3.2392 2.6021,5.8651 5.8121,5.8651 3.2101,0 5.8123,-2.6259 5.8123,-5.8651 z"
         style="fill:#ffffff;fill-rule:evenodd"
         id="path218" />
    </g>
    <path
       d="m 259.1222,151.3724 c 7.3438,7.0673 4.1858,21.3759 -6.5492,24.6609 -0.5409,0.2077 -1.6403,-0.158 -0.5439,-0.4755 9.4967,-2.999 14.6065,-15.791 7.0931,-24.1854 z"
       style="fill:#b1b3b4;fill-rule:evenodd"
       id="path221" />
    <path
       d="m 263.6394,155.2241 c 2.5219,5.1231 2.5254,15.2053 -4.3381,19.5093 -0.3812,0.2782 -0.8683,0.0622 -0.3692,-0.3227 6.0865,-3.8358 6.7606,-13.2631 4.7073,-19.1866 z"
       style="fill:#b1b3b4;fill-rule:evenodd"
       id="path223" />
    <path
       d="m 212.1456,158.304 c -3.1382,12.1682 0.3302,23.2733 11.1201,33.2003 0.827,0.7038 1.1339,-0.0184 0.5667,-0.5897 -9.6573,-10.1954 -13.9028,-21.0242 -11.6868,-32.6106 z"
       style="fill:#ffffff;fill-rule:evenodd"
       id="path225" />
    <path
       d="m 224.6414,154.1708 c -2.2684,10.0906 -0.3726,23.2494 9.9878,33.7329 1.1988,1.3209 1.9894,0.3959 0.7605,-0.6512 -8.7525,-8.5217 -12.3179,-21.1124 -10.7483,-33.0817 z"
       style="fill:#ffffff;fill-rule:evenodd"
       id="path227" />
    <path
       d="m 238.2283,143.5935 c -20.4832,1.4557 -25.233,18.9283 -19.4662,34.7562 0.4101,1.3939 1.9693,1.0454 1.3186,-0.5241 -3.9986,-8.3256 -7.0731,-30.0095 18.1476,-34.2321 z"
       style="fill:#ffffff;fill-rule:evenodd"
       id="path229" />
    <path
       d="m 69.6438,156.3746 3.5459,-8.7987 10.2334,4.1241 -0.9913,2.4599 -8.4833,-3.4185 -1.563,3.8786 6.2598,2.5228 c 0.4098,0.165 0.7401,0.3623 0.9898,0.5913 0.2498,0.2291 0.4232,0.4576 0.5207,0.6863 0.0973,0.2288 0.1344,0.5 0.1114,0.8147 -0.0229,0.3146 -0.072,0.6035 -0.1474,0.866 -0.0754,0.263 -0.187,0.5782 -0.3353,0.9465 -0.2373,0.5887 -0.4351,1.0037 -0.5939,1.2455 l -1.608,-0.6483 c 0.1286,-0.1681 0.2653,-0.4308 0.4093,-0.788 0.2585,-0.6415 0.0405,-1.1018 -0.6531,-1.3813 z m 20.0194,-15.5349 -1.345,2.3246 -3.0101,-0.602 -2.0174,3.4874 2.0307,2.2944 -1.311,2.266 -7.5067,-9.0567 1.6174,-2.7958 z m -6.1747,1.3376 -4.2885,-0.8708 -0.034,0.059 2.8922,3.2836 z m 13.4779,-9.7758 -1.7402,2.0012 -6.9015,-6.0015 -3.0118,3.4634 6.9015,6.0015 -1.7402,2.0013 -8.3256,-7.2397 6.4922,-7.4659 z m 2.1365,-14.2401 -2.5503,2.2226 6.0091,6.895 -1.9992,1.7422 -6.0092,-6.8947 -2.5631,2.2339 -1.2399,-1.4227 7.1127,-6.1991 z m 15.7068,0.4166 -2.2672,1.4398 -2.391,-1.9253 -3.4007,2.16 0.7404,2.9732 -2.2102,1.4037 -2.4707,-11.501 2.7267,-1.7314 z m -6.0937,-1.6679 -3.4004,-2.7544 -0.0573,0.0366 1.0469,4.2488 z"
       style="fill:#ffffff;fill-rule:evenodd"
       id="path231" />
    <path
       d="m 148.3226,140.828 c -2.562,22.9028 -4.2446,44.377 -0.622,57.2466 2.7868,-1.145 5.9015,-2.7531 6.3831,0.1505 -1.4182,-1.853 -5.309,-0.4513 -7.1379,0.9567 -7.6037,-19.3575 -1.126,-40.9408 1.3768,-58.3538 z"
       style="fill:#565757;fill-rule:evenodd"
       id="path233" />
    <path
       d="m 153.8107,201.6045 c 7.7766,6.5809 4.7716,12.8333 -0.8583,10.3201 5.9156,0.7033 6.1492,-4.0745 0.8583,-10.3201 z"
       style="fill:#565757;fill-rule:evenodd"
       id="path235" />
    <path
       d="m 147.3727,207.8376 c 4.8262,2.3803 7.9888,7.1978 0.5573,7.4214 5.4728,-0.7341 3.6966,-4.5779 -0.5573,-7.4214 z"
       style="fill:#565757;fill-rule:evenodd"
       id="path237" />
    <path
       d="m 146.3406,86.4655 c 23.0615,26.1028 25.3207,66.566 5.4363,104.8136 22.096,-40.1982 22.1382,-90.1834 -9.8479,-108.9403 1.5341,1.2181 3.0172,2.5651 4.4116,4.1267 z"
       style="fill:#565757;fill-rule:evenodd"
       id="path239" />
    <path
       d="m 116.8707,89.5025 c -0.2741,-2.2496 0.6826,-5.2591 2.2842,-6.1693 2.1189,-1.2047 5.6381,0.775 6.9216,2.5129 -4.9257,-3.3695 -8.4067,-1.8972 -9.2058,3.6564 z"
       style="fill:#1b1918;fill-rule:evenodd"
       id="path241" />
    <path
       d="m 103.0552,91.326 c -0.4166,0.1693 -0.6508,0.5619 -0.5227,0.8765 0.1279,0.3147 0.5692,0.4326 0.9859,0.2631 0.4167,-0.1693 0.6509,-0.5619 0.5227,-0.8765 -0.1278,-0.3146 -0.5692,-0.4326 -0.9859,-0.2631 z"
       style="fill:#565757;fill-rule:evenodd"
       id="path243" />
    <path
       d="m 150.844,191.1841 -3.5626,0.7968 c -4.0638,-25.5645 7.9432,-64.3592 -1.0426,-79.1351 7.0143,8.2188 5.4363,21.5674 4.2565,35.36 -1.4221,16.6283 -3.1167,33.8615 0.3487,42.9783 z"
       style="fill:#ffffff;fill-opacity:0;fill-rule:evenodd"
       id="path245" />
    <path
       d="m 170.5635,167.6976 c -6.67,9.6262 -3.3089,16.6278 4.5992,13.2696 -7.6286,0.5797 -9.1942,-3.1595 -4.5992,-13.2696 z"
       style="fill:#565757;fill-rule:evenodd"
       id="path247" />
    <path
       d="m 194.6597,109.311 -3.6012,7.1516 c -0.9584,1.9028 -2.8647,2.1359 -5.7192,0.6984 -2.8445,-1.4323 -3.7873,-3.1 -2.8292,-5.0029 l 3.6014,-7.1515 2.3686,1.1928 -3.6011,7.1516 c -0.2242,0.4453 -0.2319,0.8254 -0.0224,1.1401 0.2095,0.3149 0.6633,0.6482 1.3618,1 0.6882,0.3464 1.2163,0.5077 1.5837,0.4833 0.3676,-0.0241 0.6636,-0.2591 0.8878,-0.7044 l 3.6014,-7.1515 z m 9.3628,8.6066 -2.7536,-1.9653 -5.3132,7.4444 -2.1586,-1.5407 5.3132,-7.4443 -2.7674,-1.9752 1.0961,-1.5361 7.6796,5.4814 z m 5.1653,17.1193 -1.7294,-1.66 5.6508,-5.887 -0.0368,-0.0354 -7.6621,3.9566 -1.5329,-1.4718 3.5778,-7.8763 -0.049,-0.0471 -5.6506,5.887 -1.7538,-1.6835 7.64,-7.9597 2.7226,2.6136 -3.4999,7.5741 7.4001,-3.8307 2.5634,2.4605 z m 7.4826,10.3909 -1.5698,-2.1795 3.0877,-8.8025 -6.2075,4.4708 -1.3808,-1.9173 8.9524,-6.448 1.5698,2.1796 -2.9911,8.7327 6.1109,-4.4014 1.3811,1.9174 z"
       style="fill:#ffffff;fill-rule:evenodd"
       id="path249" />
  </g>
</svg>
