<?xml version="1.0" encoding="UTF-8" standalone="no"?>
<svg
   version="1.1"
   width="224.66573"
   height="219.26433"
   id="svg14"
   viewBox="0 0 224.66572 219.26433"
   sodipodi:docname="4b3432a8d34188a7d6239f92a9a6380c.cdr"
   xmlns:inkscape="http://www.inkscape.org/namespaces/inkscape"
   xmlns:sodipodi="http://sodipodi.sourceforge.net/DTD/sodipodi-0.dtd"
   xmlns="http://www.w3.org/2000/svg"
   xmlns:svg="http://www.w3.org/2000/svg">
  <defs
     id="defs18" />
  <sodipodi:namedview
     id="namedview16"
     pagecolor="#ffffff"
     bordercolor="#666666"
     borderopacity="1.0"
     inkscape:pageshadow="2"
     inkscape:pageopacity="0.0"
     inkscape:pagecheckerboard="0" />
  <path
     d="m 107.502,21.186635 c 35.5836,2.9444 65.8343,24.6674 80.8293,55.232 10.9687,-7.3004 18.2727,-12.2219 18.7203,-12.4881 14.4,-8.4171 24.4749,10.541 11.899,18.1707 -0.3036,0.1806 -4.0827,2.0494 -10.2073,5.0856 0.5437,0.8224 0.9958,1.7056 1.3519,2.6363 1.5001,3.9206 1.2183,8.4203 -0.4757,12.231695 -1.8207,4.0969 -5.1599,7.2131 -9.4674,8.5369 -1.4378,0.5331 -2.6739,-1.0387 -0.8978,-1.5529 2.2425,-0.7083 4.252,-1.9939 5.8916,-3.6734 4.6613,-4.7738 5.868,-12.001895 2.4349,-17.601995 l -2.6915,1.3354 c 0.7172,1.5245 1.1189,3.2267 1.1189,5.023 0,5.4266 -3.6596,9.998095 -8.6448,11.382495 0.699,4.7478 1.0618,9.6052 1.0618,14.5474 0,2.249 -0.0796,4.4793 -0.2276,6.6906 l -6e-4,0.006 -0.0249,0.3642 h -0.006 c -3.9245,51.2005 -46.1789,92.1518 -98.9535,92.1518 -52.1407,0 -95.7846,-41.0995 -99.0105,-92.9954 l -0.0028,-0.002 C 0.0723,124.21063 0,122.13993 0,120.05193 0,83.084435 20.2221,50.844935 50.2044,33.776635 c 0.072,0.0675 0.1454,0.1341 0.2194,0.1993 0.5227,0.4799 1.0647,0.9284 1.6234,1.3473 -29.7805,16.6159 -49.7795,48.4586 -49.7795,84.728695 0,1.6954 0.0491,3.3905 0.1384,5.0834 1.1508,0.9541 2.2855,1.984 3.3959,2.9568 2.2237,1.9485 4.443,3.9019 6.6758,5.8402 2.098,1.8213 4.2069,3.6377 6.3522,5.4031 0.6253,0.5148 1.3266,1.1064 2.0438,1.6719 2.7847,-5.8564 6.2203,-11.0863 10.8054,-15.7771 -0.116,-1.6174 -0.1766,-3.2391 -0.1766,-4.8611 0,-32.223695 22.5124,-59.188195 52.6666,-66.029695 0.0578,0.7549 0.0983,1.5217 0.1196,2.2989 -13.8237,3.2244 -25.9623,10.8307 -34.8744,21.2743 -8.6014,10.4094 -13.9941,23.566395 -14.6659,37.958195 4.6993,-3.1493 9.0372,-4.8075 14.1208,-7.3783 C 71.5255,97.036035 88.2987,80.191435 86.1744,55.187935 l -0.006,-0.078 c -0.0307,-0.3555 -0.0664,-0.7126 -0.1046,-1.0712 -0.5004,-4.6537 -1.6484,-9.5857 -3.5283,-14.8142 6.1806,2.5076 9.6758,7.3299 11.52,13.6293 l 0.008,-6e-4 c 0.6956,2.384 1.1529,4.9814 1.4326,7.7423 l 0.0151,0.1488 c 0.0272,0.2764 0.053,0.5539 0.0768,0.8334 l 0.0309,0.3739 c 0.017,0.216 0.0334,0.432 0.0485,0.65 0.0141,0.2027 0.0275,0.4059 0.0399,0.6103 l 0.023,0.3903 c 0.0159,0.2874 0.03,0.5766 0.0431,0.8671 l 0.008,0.1857 c 0.0162,0.3804 0.0292,0.7634 0.0402,1.1489 h -2e-4 c 0.5658,20.4661 -5.9182,47.613495 -0.7246,66.292395 0.8187,-0.1769 1.5534,-0.4527 2.2779,-0.7976 2.835,-1.2218 3.7854,-0.531 4.0474,0.6057 3.291,-1.9548 6.8096,-4.0694 10.5111,-6.3059 -2.073,-1.9455 -3.9773,-4.1724 -5.6543,-6.6291 -2.169,2.2787 -4.5354,4.4007 -7.1059,6.3314 16.1879,-31.562895 20.7511,-74.750995 -5.4362,-104.813495 -4.6404,16.192 -29.5467,23.4337 -42.0004,12.0001 -2.9685,-2.6169 -4.5312,-8.1875 0.5159,-7.7811 6.563,0.0953 6.2484,-7.5225 10.3263,-11.5344 3.4407,-3.3843005 8.7852,-4.8005005 16.0178,-4.2625005 -1.1776,-0.9839 -3.0725,-1.4224 -5.8128,-1.2186 -2.0321,-5.1239 3.2953,-8.9359 8.6698,-5.9505 0.1956,7.5901 1.7719,13.2236005 6.4689,14.4377005 -3.3193,-4.987 -4.1944,-10.5800005 -3.1373,-13.6477005 2.0023,-5.8127 6.4148,-0.1513 8.0617,2.4962 6.662,10.7085005 16.23,20.1603005 23.0136,30.4631005 9.5933,16.1192 11.5418,39.2122 4.7299,59.3385 l 0.005,-0.006 c -2.2564,8.329095 -10.0534,17.794495 -1.4244,20.061395 1.2166,0.3195 4.2936,-0.2687 5.1945,0.5868 1.2648,1.2013 -0.0156,2.1594 -1.2155,3.3275 l 0.9958,-0.6051 c 11.4783,-7.2261 23.6591,-15.0951 35.0493,-22.542295 -3.7704,-9.7257 -9.8346,-18.3081 -17.5281,-25.0843 -4.6737,-3.9878 -9.9153,-7.3296 -15.5868,-9.8864 -0.1021,-0.879 -0.2192,-1.7555 -0.3515,-2.6292 16.1421,6.8775 29.0647,19.8443 35.8894,36.0139 9.1185,-5.9723 17.6499,-11.6183 24.8029,-16.3746 -14.2597,-29.302 -42.8621,-50.4507 -76.9133,-54.0385 -0.6653,-0.8241 -1.3349,-1.6447 -2.0055,-2.4648 z m -45.1523,31.4289 -2.2671,1.4397 -2.391,-1.9253 -3.4007,2.16 0.7404,2.9733 -2.2102,1.4037 -2.4707,-11.501 2.7267,-1.7314 z m -6.0936,-1.6679 -3.4004,-2.7544 -0.0573,0.0365 1.0468,4.2489 z m -9.5474,1.2331 -2.5707,2.1996 5.9462,6.9492 -2.0148,1.724 -5.9463,-6.9491 -2.5835,2.2104 -1.2268,-1.4337 7.1691,-6.1342 z m -2.2322,14.2897 -1.7402,2.0015 -6.9021,-6.0012 -3.0115,3.4637 6.9018,6.0012 -1.7402,2.0012 -8.3257,-7.2391 6.4919,-7.4664 z m -7.3489,8.4246 -1.345,2.3247 -3.0101,-0.6021 -2.0174,3.4874 2.0307,2.2944 -1.311,2.266 -7.5067,-9.0567 1.6174,-2.7958 z m -6.1747,1.3376 -4.2885,-0.8708 -0.034,0.059 2.8922,3.2836 z m -13.8302,14.1412 3.5461,-8.7984 10.2331,4.1241 -0.9913,2.4599 -8.4829,-3.4189 -1.5633,3.879 6.2597,2.5228 c 0.4099,0.165 0.7399,0.3623 0.9896,0.5913 0.25,0.229 0.4235,0.4575 0.5207,0.6863 0.0972,0.2287 0.1344,0.5 0.1114,0.8146 -0.0227,0.3147 -0.072,0.6035 -0.1474,0.8663 -0.0754,0.2628 -0.1871,0.5783 -0.3353,0.9462 -0.2373,0.5888 -0.4351,1.0038 -0.5939,1.2456 l -1.6081,-0.6483 c 0.129,-0.1681 0.2653,-0.4309 0.4093,-0.7883 0.2586,-0.6412 0.0406,-1.1016 -0.6531,-1.3811 z m 146.8431,-10.8198 -1.5542,-2.1906 3.1504,-8.7801 -6.239,4.4266 -1.3675,-1.9273 8.9983,-6.3841 1.5546,2.1909 -3.0538,8.7111 6.1424,-4.3577 1.3671,1.9273 z m -7.3471,-10.5103 -1.7294,-1.66 5.6509,-5.887 -0.0369,-0.0354 -7.662,3.9566 -1.533,-1.4718 3.5779,-7.8763 -0.049,-0.0471 -5.6506,5.887 -1.7538,-1.6835 7.6399,-7.9597 2.7227,2.6136 -3.5,7.5742 7.4002,-3.8308 2.5633,2.4605 z m -5.1899,-17.0172 -2.7536,-1.9653 -5.3133,7.4443 -2.1585,-1.5406 5.3132,-7.4443 -2.7674,-1.9752 1.0961,-1.5361 7.6796,5.4813 z m -9.4196,-8.7041 -3.6011,7.1515 c -0.9584,1.9029 -2.8647,2.1359 -5.7192,0.6985 -2.8445,-1.4324 -3.7873,-3.1 -2.8292,-5.0029 l 3.6014,-7.1515 2.3686,1.1928 -3.6011,7.1515 c -0.2242,0.4454 -0.2319,0.8255 -0.0224,1.1401 0.2095,0.315 0.6633,0.6483 1.3618,1.0001 0.6882,0.3464 1.2163,0.5077 1.5837,0.4833 0.3676,-0.0241 0.6636,-0.2591 0.8878,-0.7044 l 3.6014,-7.1515 z M 82.7153,155.09393 c 0.2191,0.0555 0.4595,0.0272 0.6692,-0.0978 0.4193,-0.2492 0.557,-0.7912 0.3076,-1.211 l -5.1117,-8.5904 c -0.1242,-0.2097 -0.3223,-0.3489 -0.5415,-0.4048 -0.2191,-0.0555 -0.4595,-0.0277 -0.6689,0.0973 -0.4196,0.2494 -0.5573,0.792 -0.3076,1.2112 l 5.1109,8.5901 c 0.125,0.2101 0.3226,0.3495 0.542,0.4054 z m 0.4694,1.6214 3e-4,-3e-4 c 1.241,-0.7744 1.6948,-2.3488 1.1128,-3.6493 1.7674,-1.2583 4.3835,-2.8502 7.6808,-4.7466 0.9952,0.4827 1.9199,0.813 2.7011,0.9105 3.0062,0.3764 7.145,-1.1591 3.8356,-4.5859 3.27,3.1907 7.0812,1.654 7.4047,-1.0154 0.1057,-0.8733 -0.1344,-1.8246 -0.5692,-2.7677 7.0577,-3.8895 15.2733,-8.4164 24.0477,-13.4776 10.8278,-5.6824 22.4107,-11.6241 33.5316,-17.2642 0.3934,2.8789 0.5984,5.8179 0.5984,8.805 0,35.5819 -28.8448,64.427 -64.4267,64.427 -10.1018,0 -19.6594,-2.3273 -28.1693,-6.4712 1.2665,-15.488 -8.6032,-30.5918 -28.6172,-45.3462 14.2234,3.8135 21.6644,13.6123 27.375,24.9378 0.2189,-5.7812 3.9065,-11.3751 6.5625,-15.3751 -4.9589,-8.6547 -6.728,-16.2833 -4.6873,-22.6876 2.3799,10.2662 5.3569,16.9361 10.0224,22.0617 0.4159,0.457 1.0162,1.044 1.7405,1.698 -1.7493,0.8997 -3.2539,1.6191 -4.4844,2.1328 -0.8966,-1.173 -2.5676,-1.4967 -3.8441,-0.6999 l -3e-4,3e-4 c -1.3549,0.8456 -1.7716,2.6456 -0.9258,4.0008 l 5.1101,8.187 c 0.8458,1.3553 2.6458,1.7717 4.0008,0.9261 z m 121.0266,-68.857195 2.5608,-1.2705 c -0.2126,-0.2772 -0.4379,-0.5494 -0.6763,-0.8155 l -0.3643,-0.4071 c -0.5233,-0.7098 0.2778,-1.2351 0.7861,-0.7583 l 0.3937,0.3787 c 0.3461,0.3328 0.6715,0.6835 0.976,1.0491 l 3.7408,-1.8549 c 1.5636,-0.7753 3.1272,-1.55 4.6885,-2.3296 0.6206,-0.3095 1.3122,-0.6261 1.8998,-0.9612 1.0625,-0.6434 1.9392,-1.3796 2.6487,-2.177 3.2315,-8.2494 -4.6857,-14.5083 -12.0787,-10.6909 l -83.6059,51.442595 c 1.3326,2.1436 2.6586,4.292 3.9663,6.4508 6.4247,-3.3698 12.869,-6.7031 19.3246,-10.0136 11.5316,-5.9137 23.1004,-11.7567 34.6892,-17.557295 -0.502,-1.311 -0.7775,-2.734 -0.7775,-4.2216 0,-6.5234 5.2886,-11.8123 11.8128,-11.8123 4.2225,0 7.9268,2.2164 10.0154,5.5486 z m -20.4659,11.7745 c -5.6231,2.815695 -11.6424,5.841895 -17.8429,8.980195 0.6695,3.8183 1.0199,7.7459 1.0199,11.7561 0,1.493 -0.0488,2.986 -0.146,4.4759 h 29.2603 c 0.0794,-1.5965 0.1208,-3.1946 0.1208,-4.7931 0,-4.8044 -0.3523,-9.5306 -1.0318,-14.1537 -0.3067,0.0239 -0.6168,0.0366 -0.9298,0.0366 -4.5337,0 -8.4705,-2.5543 -10.4505,-6.301995 z m 17.434,-4.7157 c 0,-4.8963 -3.9334,-8.8656 -8.7855,-8.8656 -4.852,0 -8.7854,3.9693 -8.7854,8.8656 0,4.896 3.9334,8.865095 8.7854,8.865095 4.8521,0 8.7855,-3.969095 8.7855,-8.865095 z m 7.0528,14.777895 c -1.0091,0.7132 -2.0965,-0.4215 -1.0315,-1.2427 l 0.0213,-0.0165 0.0226,-0.0142 c 5.7314,-3.6119 6.5056,-12.660295 4.4737,-18.521195 l -0.1743,-0.5035 c -0.2231,-0.7231 0.6499,-1.0593 0.9833,-0.4107 l 0.2353,0.4782 c 1.7872,3.6303 2.0279,8.6167 0.9674,12.483495 -0.8742,3.1881 -2.6614,5.9627 -5.4978,7.7471 z m -124.3763,40.8999 c 0.3801,-1.4346 1.6464,-3.1793 3.5598,-5.1122 0.7452,0.5434 1.5094,1.0678 2.2657,1.5437 -0.5672,0.3311 -1.133,0.6644 -1.6968,1.0006 -1.3229,0.7886 -2.7689,1.6475 -4.1287,2.5679 z m 17.2678,-15.6747 c 7.1314,-4.6519 15.4126,-9.267 22.726,-12.7582 l 2.4772,4.371 c -7.3384,4.2041 -14.736,8.2851 -22.1361,12.3724 -0.9657,-1.3515 -2.137,-2.5452 -2.9843,-3.2791 -0.0337,-0.1876 -0.0635,-0.4314 -0.0828,-0.7061 z M 67.9864,20.715235 c 0.3371,0 0.6503,0.1202 0.9094,0.3252 -0.1108,0.1043 -0.18,0.2531 -0.18,0.4187 0,0.3152 0.2506,0.5706 0.5598,0.5706 0.0854,0 0.1661,-0.0196 0.2387,-0.0545 0.0584,0.1942 0.0902,0.4028 0.0902,0.6203 0,1.0386 -0.7246,1.8805 -1.6181,1.8805 -0.8929,0 -1.6174,-0.8419 -1.6174,-1.8805 0,-1.0384 0.7245,-1.8803 1.6174,-1.8803 z m 0.6455,1.4653 c 0.2279,0 0.4127,0.1885 0.4127,0.4206 0,0.2325 -0.1848,0.421 -0.4127,0.421 -0.2282,0 -0.413,-0.1885 -0.413,-0.421 0,-0.2321 0.1848,-0.4206 0.413,-0.4206 z m 4.8404,-2.3128 c -0.5808,1.8691 -1.5366,3.3318 -2.8391,4.4189 -1.1384,0.9505 -2.4991,1.6325 -4.0048,1.6747 -1.9545,0.0559 -2.5047,-1.3422 -2.1581,-3.206 0.275,-1.4802 0.9882,-3.3539 2.3619,-4.1349 2.1192,-1.2047 5.258,-0.1723 6.6401,1.2473 z m -23.0213,5.4799 c -0.4167,0.1692 -0.6508,0.5618 -0.5227,0.8765 0.1279,0.3146 0.5692,0.4326 0.9859,0.263 0.4167,-0.1692 0.6509,-0.5618 0.5227,-0.8764 -0.1278,-0.3147 -0.5692,-0.4326 -0.9859,-0.2631 z M 70.9325,176.87963 c -0.0601,0.7321 -0.144,1.4652 -0.2537,2.1994 l -0.0227,-0.0114 c 8.6321,4.1845 18.3198,6.5327 28.5565,6.5327 33.8156,0 61.647,-25.6073 65.1691,-58.4878 h 10.0565 l -0.0383,0.0176 c -3.5694,38.3888 -35.8662,68.4417 -75.1873,68.4417 -35.9062,0 -65.9548,-25.0608 -73.6214,-58.6443 2.2005,-3.7332 4.894,-7.3426 8.3551,-10.7606 0.0102,0.1097 0.0221,0.2188 0.0332,0.3282 l 0.0499,0.4936 c 0.0467,0.4453 0.0961,0.8898 0.1522,1.3322 0.0133,0.1066 0.0286,0.2126 0.0425,0.3189 0.0493,0.3736 0.1012,0.7461 0.1565,1.1177 0.0255,0.1721 0.0513,0.3439 0.0782,0.5154 0.0686,0.4374 0.1395,0.8742 0.2169,1.3087 0.0192,0.1092 0.0408,0.2175 0.0606,0.3263 0.0666,0.3643 0.1364,0.7277 0.2089,1.0899 l 0.0967,0.476 c 0.0893,0.4294 0.1814,0.8577 0.2792,1.2841 0.0309,0.134 0.0638,0.267 0.0953,0.4008 0.0782,0.3308 0.1587,0.6613 0.2418,0.9904 0.0413,0.1641 0.0827,0.3283 0.1255,0.4918 0.1086,0.4167 0.2206,0.8317 0.3371,1.245 0.0399,0.1412 0.0816,0.2818 0.1224,0.4226 0.0919,0.3172 0.186,0.6336 0.2826,0.9491 0.0485,0.1584 0.0964,0.3166 0.146,0.4742 0.1293,0.411 0.2617,0.8201 0.3986,1.2274 0.0453,0.1347 0.0924,0.2682 0.1386,0.4022 0.1105,0.3212 0.2231,0.6412 0.3382,0.9601 0.0527,0.1463 0.1051,0.2923 0.159,0.438 0.1494,0.4039 0.3019,0.8064 0.4589,1.2067 0.0533,0.1358 0.1086,0.2713 0.1627,0.4068 0.1222,0.305 0.2461,0.6091 0.3725,0.9122 l 0.1848,0.4407 c 0.1664,0.3907 0.3365,0.7799 0.5103,1.1665 0.0635,0.1412 0.1286,0.2818 0.193,0.4224 0.1332,0.2911 0.2687,0.5808 0.4062,0.8696 0.0697,0.1463 0.1386,0.2934 0.2095,0.4391 0.1845,0.3804 0.3725,0.7586 0.5641,1.1347 0.0691,0.1358 0.14,0.2707 0.21,0.406 0.1497,0.2885 0.3008,0.5754 0.4544,0.8611 0.0717,0.1335 0.1429,0.2676 0.2154,0.4006 0.2019,0.369 0.4068,0.7361 0.6154,1.1009 0.082,0.1432 0.1653,0.2852 0.2481,0.4278 0.1599,0.2749 0.3217,0.5491 0.4856,0.8215 0.0759,0.1264 0.151,0.2534 0.2279,0.3792 0.2194,0.3595 0.4422,0.7158 0.6681,1.0704 0.0896,0.1406 0.1806,0.2803 0.2713,0.4201 0.1683,0.2599 0.3387,0.5187 0.5108,0.7761 0.0876,0.131 0.1743,0.2625 0.2627,0.3929 0.2308,0.3402 0.4652,0.6778 0.7022,1.0131 0.1006,0.1423 0.2024,0.2838 0.3041,0.4252 0.1795,0.2497 0.3606,0.4983 0.5434,0.7455 0.0922,0.1247 0.1834,0.25 0.2767,0.3739 0.246,0.328 0.4958,0.6531 0.7481,0.976 0.1122,0.1437 0.2259,0.2866 0.3393,0.4294 0.18,0.2265 0.362,0.4521 0.5448,0.6764 0.1054,0.1295 0.2103,0.2599 0.3169,0.3886 0.2597,0.3132 0.5227,0.6236 0.788,0.932 0.1148,0.1335 0.2308,0.2659 0.3467,0.3986 0.2081,0.2381 0.4181,0.4748 0.6299,0.7101 0.0944,0.1048 0.1873,0.2103 0.2823,0.3143 0.2738,0.3008 0.5516,0.5978 0.8311,0.8932 0.1321,0.1398 0.2653,0.2784 0.3986,0.4167 0.2075,0.2157 0.4167,0.4297 0.6273,0.6426 0.1264,0.1279 0.2525,0.2557 0.3798,0.3824 0.2659,0.2642 0.5341,0.5256 0.8042,0.7852 0.1375,0.1321 0.2758,0.2634 0.4144,0.3943 0.2157,0.2035 0.4332,0.4059 0.6517,0.6069 0.1633,0.1502 0.3274,0.3002 0.4924,0.4487 0.2514,0.2265 0.5048,0.4513 0.7597,0.6738 l 0.4138,0.358 c 0.2328,0.1999 0.4669,0.3977 0.7025,0.5945 0.1896,0.1584 0.3804,0.3157 0.572,0.4719 0.2339,0.1911 0.4691,0.3807 0.7058,0.5684 0.1548,0.1227 0.3098,0.2446 0.4658,0.3659 0.2392,0.1863 0.4801,0.3705 0.7219,0.5536 0.1985,0.1503 0.3977,0.2988 0.5979,0.4468 0.2398,0.1771 0.4804,0.3532 0.7228,0.5272 0.1596,0.1145 0.3195,0.2288 0.4802,0.3419 0.2534,0.1786 0.5085,0.3549 0.7645,0.5298 0.2115,0.1448 0.4243,0.2877 0.6375,0.43 0.2353,0.1568 0.4711,0.3127 0.7087,0.4666 0.1666,0.108 0.3336,0.2154 0.5014,0.322 0.2903,0.1842 0.5823,0.3665 0.8756,0.5465 0.1863,0.1143 0.3736,0.2268 0.561,0.3393 0.2495,0.1494 0.4995,0.2979 0.7509,0.4442 0.1721,0.0998 0.3441,0.1996 0.5171,0.2979 0.3393,0.1934 0.6803,0.385 1.0235,0.5723 0.1446,0.0791 0.2903,0.1557 0.4354,0.2336 0.2685,0.144 0.5381,0.2866 0.8088,0.4269 0.1681,0.0873 0.3364,0.1741 0.5057,0.26 0.3529,0.1788 0.7072,0.3557 1.0638,0.5286 z m 2.4494,23.7305 -8.3679,-3.1745 -0.7412,-5.5993 c -0.1358,-0.9791 1.1897,-1.1376 1.3229,-0.1384 l 0.6571,4.6659 1.7433,0.6613 -0.8209,-5.8065 c -0.0414,-0.8252 1.2138,-1.0054 1.3748,-0.1188 l 0.2222,1.6206 1.1772,-0.4297 c 0.8391,-0.243 1.2629,0.8682 0.5182,1.2305 l -1.4853,0.6185 0.4736,3.4245 0.4561,0.173 2.6413,-2.238 -0.7344,-1.4652 c -0.3249,-0.7963 0.8413,-1.3173 1.2444,-0.5275 l 0.5559,1.0454 1.2115,-1.052 c 0.5916,-0.534 1.6515,0.3065 0.9419,1.0222 l -4.3826,3.7633 1.7133,0.65 3.613,-3.1249 c 0.7095,-0.5678 1.5846,0.3747 0.9411,1.0366 z m -38.8261,-26.5088 -5.5026,-7.3981 2.4627,-5.2716 c 0.4252,-0.9252 1.6639,-0.3274 1.2251,0.6137 l -2.018,4.4147 1.1464,1.5414 2.5086,-5.4958 c 0.4218,-0.7392 1.6115,-0.1995 1.2592,0.6597 l -0.7061,1.5301 1.2603,0.2801 c 0.8631,0.2542 0.6148,1.4541 -0.2331,1.3555 l -1.6321,-0.2874 -1.4888,3.2354 0.2999,0.4034 3.5345,-0.4774 0.1755,-1.6792 c 0.1596,-0.8714 1.461,-0.6769 1.3725,0.2321 l -0.0975,1.2161 1.6356,-0.2409 c 0.8099,-0.1355 1.2634,1.1823 0.2506,1.4096 l -5.8921,0.8357 1.1265,1.5145 4.8699,-0.7083 c 0.9309,-0.0992 1.1676,1.2044 0.2418,1.4221 z m 17.6751,16.471 -7.3746,-5.8827 1.0607,-5.8584 c 0.1792,-1.0261 1.5605,-0.758 1.372,0.2877 l -0.8442,4.894 1.5364,1.2257 1.0477,-6.0919 c 0.2242,-0.8413 1.542,-0.6179 1.4176,0.324 l -0.2991,1.698 1.3201,-0.0519 c 0.9205,0.0266 0.9876,1.2784 0.1234,1.402 l -1.6901,0.1417 -0.6284,3.5895 0.4022,0.3209 3.3721,-1.3949 -0.2647,-1.707 c -0.0698,-0.904 1.2685,-1.0511 1.4184,-0.1287 l 0.2211,1.2285 1.5551,-0.6653 c 0.7657,-0.3452 1.5585,0.8399 0.6157,1.3295 l -5.6112,2.3644 1.51,1.2044 4.633,-1.9718 c 0.8952,-0.341 1.4695,0.8867 0.6106,1.3439 z m 134.4348,-63.4598 h -2.0466 l -0.0139,0.1225 c -3.6496,43.9659 -40.4844,78.5117 -85.3926,78.5117 -40.5431,0 -74.505,-28.1576 -83.4109,-65.982 -0.826,-0.6945 -1.69,-1.4301 -2.5704,-2.1861 8.0697,40.0581 42.2201,70.2139 85.9813,70.2139 44.6857,0 83.772,-35.6083 87.4531,-80.68 z"
     style="fill:#1b1918;fill-rule:evenodd"
     id="path2" />
  <path
     d="m 207.5752,56.806135 c 2e-4,-4e-4 2e-4,-4e-4 2e-4,-4e-4 0,0 0,0 -2e-4,4e-4 z m 0.001,-8e-4 c 3e-4,-2e-4 7e-4,-6e-4 9e-4,-5e-4 -2e-4,-10e-5 -6e-4,3e-4 -9e-4,5e-4 z m 0.001,-10e-4 c 1e-4,0 3e-4,0 5e-4,-2e-4 -1e-4,-1e-4 -4e-4,2e-4 -5e-4,2e-4 z m 9e-4,-5e-4 c 8e-4,-5e-4 0.002,-6e-4 0.002,-10e-4 -7e-4,7e-4 -10e-4,8e-4 -0.002,10e-4 z m 0.002,-10e-4 c 2e-4,-3e-4 7e-4,-5e-4 9e-4,-5e-4 -3e-4,2e-4 -5e-4,2e-4 -9e-4,5e-4 z m 0.001,-8e-4 c 5e-4,-2e-4 7e-4,-2e-4 0.001,-5e-4 -4e-4,3e-4 -8e-4,6e-4 -0.001,5e-4 z m 0.001,-7e-4 c 3e-4,0 5e-4,-3e-4 9e-4,-5e-4 -4e-4,2e-4 -7e-4,5e-4 -9e-4,5e-4 z m 0.001,-5e-4 c 7e-4,-5e-4 0.001,-7e-4 0.002,-10e-4 -5e-4,6e-4 -0.001,8e-4 -0.002,10e-4 z m 0.002,-10e-4 c 3e-4,-2e-4 7e-4,-5e-4 10e-4,-4e-4 -3e-4,-1e-4 -7e-4,2e-4 -10e-4,4e-4 z"
     style="fill:#a6500d;fill-rule:evenodd"
     id="path4" />
  <path
     d="m 80.9075,144.67983 c 0.0859,-0.0647 0.1738,-0.1302 0.2633,-0.1969 1e-4,-3e-4 -3e-4,-4e-4 -1e-4,-9e-4 -0.0898,0.067 -0.1777,0.1326 -0.2635,0.1973 z"
     style="fill:#d8cdc5;fill-rule:evenodd"
     id="path6" />
  <path
     d="m 122.6692,112.68123 v 0 l -0.4933,-0.8299 -1e-4,4e-4 z"
     style="fill:#aa7e4e;fill-rule:evenodd"
     id="path8" />
  <path
     d="m 122.1758,111.85173 1e-4,-4e-4 -1.0147,-1.7053 z"
     style="fill:#91673e;fill-rule:evenodd"
     id="path10" />
  <path
     d="m 79.9045,148.68563 c 0.002,-9e-4 0.004,-0.002 0.006,-0.003 -0.002,8e-4 -0.003,0.002 -0.006,0.003 z m 0.0101,-0.005 c 0.001,-0.001 0.002,-0.002 0.003,-0.002 -10e-4,6e-4 -0.002,0.001 -0.003,0.002 z"
     style="fill:#d8cdc5;fill-rule:evenodd"
     id="path12" />
</svg>
