<?xml version="1.0" encoding="UTF-8" standalone="no"?>
<svg
   version="1.1"
   width="224.70358"
   height="218.76843"
   id="svg254"
   viewBox="0 0 224.70358 218.76843"
   sodipodi:docname="b239a8738fd76a8c1101515950131fdb.cdr"
   xmlns:inkscape="http://www.inkscape.org/namespaces/inkscape"
   xmlns:sodipodi="http://sodipodi.sourceforge.net/DTD/sodipodi-0.dtd"
   xmlns:xlink="http://www.w3.org/1999/xlink"
   xmlns="http://www.w3.org/2000/svg"
   xmlns:svg="http://www.w3.org/2000/svg">
  <defs
     id="defs258" />
  <sodipodi:namedview
     id="namedview256"
     pagecolor="#ffffff"
     bordercolor="#666666"
     borderopacity="1.0"
     inkscape:pageshadow="2"
     inkscape:pageopacity="0.0"
     inkscape:pagecheckerboard="0" />
  <g
     id="Layer1000"
     transform="translate(-29.3803,-32.347967)">
    <path
       d="m 128.5931,52.6912 c 54.7935,0 99.2126,44.4192 99.2126,99.2126 0,54.7935 -44.4191,99.2126 -99.2126,99.2126 -54.7934,0 -99.2126,-44.4191 -99.2126,-99.2126 0,-54.7934 44.4192,-99.2126 99.2126,-99.2126 z"
       style="fill:#0069a0;fill-rule:evenodd"
       id="path2" />
    <path
       d="m 128.5931,64.1631 c 48.4577,0 87.7408,39.283 87.7408,87.7407 0,48.4577 -39.2831,87.7408 -87.7408,87.7408 -48.4577,0 -87.7408,-39.2831 -87.7408,-87.7408 0,-48.4577 39.2831,-87.7407 87.7408,-87.7407 z"
       style="fill:#00923f;fill-rule:evenodd"
       id="path4" />
    <path
       d="m 128.5931,76.3838 c 41.7084,0 75.5201,33.8116 75.5201,75.52 0,41.7085 -33.8117,75.5201 -75.5201,75.5201 -41.7084,0 -75.52,-33.8116 -75.52,-75.5201 0,-41.7084 33.8116,-75.52 75.52,-75.52 z"
       style="fill:#ffffff;fill-rule:evenodd"
       id="path6" />
    <path
       d="m 128.5931,86.3552 c 36.2016,0 65.5487,29.3474 65.5487,65.5486 0,36.2016 -29.3471,65.5487 -65.5487,65.5487 -36.2015,0 -65.5486,-29.3471 -65.5486,-65.5487 0,-36.2012 29.3471,-65.5486 65.5486,-65.5486 z"
       style="fill:#f5c002;fill-rule:evenodd"
       id="path8" />
    <path
       d="m 128.4823,86.3493 c 35.5819,0 64.4267,28.8447 64.4267,64.4266 0,35.5819 -28.8448,64.427 -64.4267,64.427 -35.5819,0 -64.4267,-28.8451 -64.4267,-64.427 0,-35.5819 28.8448,-64.4266 64.4267,-64.4266 z"
       style="fill:#f5c002;fill-rule:evenodd"
       id="path10" />
    <path
       d="m 128.5931,52.6912 c 0.8561,0 1.7099,0.0108 2.5609,0.0324 l 0.008,2e-4 c 0.8481,0.0216 1.6937,0.0539 2.5364,0.0964 52.4211,2.6575 94.1071,46.0026 94.1071,99.0836 0,2.3746 -0.089,4.7282 -0.2531,7.0609 h -33.8613 c 0.2271,-2.217 0.3439,-4.4669 0.3439,-6.7437 0,-36.1425 -29.2995,-65.442 -65.4421,-65.442 -36.1428,0 -65.4423,29.2995 -65.4423,65.442 0,1.9287 0.0884,3.8365 0.252,5.7229 -5.7849,5.6891 -9.4328,11.9123 -12.2168,18.3515 -3.7737,-2.2708 -19.0332,-16.151 -21.6062,-18.1766 -0.127,-2.0562 -0.1993,-4.127 -0.1993,-6.215 0,-53.081 41.6863,-96.4261 94.1072,-99.0836 0.8427,-0.0425 1.688,-0.0748 2.5364,-0.0964 l 0.008,-2e-4 c 0.8507,-0.0213 1.7048,-0.0324 2.5608,-0.0324 z"
       style="fill:#e80911;fill-rule:evenodd"
       id="path12" />
    <path
       d="m 134.9025,52.8962 c 4.3478,5.3424 8.769,10.6058 12.3948,16.1127 4.0101,6.7379 6.6934,14.978 7.9511,23.4269 -4.3741,-1.8808 -8.7224,-3.7057 -13.3871,-4.6916 -2.5869,-12.0994 -7.9061,-23.6568 -16.6876,-33.7377 -4.6403,16.1921 -29.5466,23.4338 -42.0004,12.0002 -0.5267,-0.4643 -1.0085,-1.0216 -1.4176,-1.622 13.9601,-7.4596 29.9035,-11.6935 46.8374,-11.6935 2.1201,0 4.2222,0.0743 6.3094,0.205 z"
       style="fill:#7e1410;fill-opacity:0;fill-rule:evenodd"
       id="path14" />
    <path
       d="m 149.9757,126.6743 c -2.2563,8.3292 -10.0533,17.7945 -1.4243,20.0613 1.2165,0.3195 4.2935,-0.2685 5.1945,0.587 1.6346,1.5528 -0.9833,2.699 -2.1829,4.4183 3.5913,3.5719 5.0948,5.3147 3.7697,8.311 -0.9922,2.244 -2.5346,2.9393 -3.2321,0.7361 -0.4764,-1.5061 -0.9075,-1.2708 -2.0598,-2.2419 0.147,0.9142 0.1539,1.7747 0.0438,2.5915 -0.3781,2.808 -0.7342,2.0821 -2.8027,0.8442 -5.1233,-3.067 -9.6873,-7.7297 -13.0657,-13.4259 -2.4425,-4.1174 6.7424,-6.1735 5.7734,-11.1591 z"
       style="fill:#110913;fill-rule:evenodd"
       id="path16" />
    <path
       d="m 106.4611,66.9781 13.9833,-17.1249 5.4374,-1.1251 18.375,33.0001 -0.1873,24.1878 -31.2702,1.2948 c 5.9406,-19.2248 0.8833,-37.5349 -6.3382,-40.2327 z"
       style="fill:#f5c002;fill-rule:evenodd"
       id="path18" />
    <path
       d="m 129.4792,55.1889 c -0.2225,0.2383 -0.447,0.4739 -0.6729,0.7075 23.5321,35.2669 18.4255,68.6965 -0.2531,101.2564 12.825,-35.3557 15.5693,-69.0713 -6.7777,-95.1676 -3.8985,2.8154 -8.1535,5.0766 -12.6745,6.7575 -2.3684,-2.0971 -4.2545,-2.8499 -6.9523,-4.5521 L 121.227,48.0654 Z"
       style="fill:#eda705;fill-rule:evenodd"
       id="path20" />
    <defs
       id="defs28">
      <linearGradient
         id="grad1">
        <stop
           offset="0%"
           stop-color="#3a3a3a"
           stop-opacity="1.0000"
           id="stop22" />
        <stop
           offset="100%"
           stop-color="#050109"
           stop-opacity="1.0000"
           id="stop24" />
      </linearGradient>
      <linearGradient
         xlink:href="#grad1"
         id="grad2"
         x1="97.66658"
         y1="31.778465"
         x2="97.66658"
         y2="126.08063"
         gradientTransform="scale(0.80228053,1.2464468)"
         gradientUnits="userSpaceOnUse" />
    </defs>
    <path
       d="m 114.5937,42.3961 c -0.0261,-0.0825 -0.0479,-0.1604 -0.0669,-0.2356 9.6174,3.2018 20.1271,11.5013 25.3068,17.7268 1.9137,2.4542 3.744,4.9289 5.4068,7.4542 15.2504,25.6244 11.1878,68.8746 -16.6872,89.8113 16.1878,-31.563 20.751,-74.7511 -5.4363,-104.8136 -4.6403,16.192 -29.5467,23.4337 -42.0004,12.0002 -2.9684,-2.617 -4.5312,-8.1876 0.5159,-7.7811 6.5631,0.0952 6.2484,-7.5226 10.3263,-11.5345 2.2553,-2.2184 5.332,-3.5586 9.2155,-4.1153 0.2137,-0.0306 0.5162,-0.0567 0.6964,-0.0856 0.0621,-0.01 0.1253,-0.0153 0.1764,-0.025 0.006,-0.0011 -0.027,-0.0901 -0.0307,-0.1026 -1.2772,-4.1593 1.2445,5.1667 5.0304,2.5214 1.6282,-1.1375 -0.2857,-2.395 0.9099,-1.281 2.5019,2.331 3.1043,0.4851 3.3509,-0.6565 0.386,0.0811 0.7744,0.1715 1.1653,0.2722 0.7429,0.2301 1.4508,0.5102 2.1209,0.8447 z"
       style="fill:url(#grad2)"
       id="path30" />
    <path
       d="M 123.1169,52.3392 C 118.4766,68.5312 93.5702,75.7729 81.1165,64.3394 80.2743,63.597 79.5453,62.6168 79.0483,61.6028 88.3199,73.175 114.8562,68.9567 121,50.1809 Z"
       style="fill:#2b2628;fill-rule:evenodd"
       id="path32" />
    <path
       d="m 78.7425,60.8961 c -0.879,-2.3363 -0.394,-4.6023 2.8899,-4.3378 0.1211,0.0017 0.2387,0 0.3552,-0.0034 l 0.0011,8e-4 c 0.2415,2.4392 -0.9873,3.7755 -3.2462,4.3404 z"
       style="fill:#1b1918;fill-rule:evenodd"
       id="path34" />
    <defs
       id="defs41">
      <radialGradient
         id="grad3"
         cx="91.609917"
         cy="58.091419"
         r="8.4638977"
         gradientTransform="scale(1.0750509,0.93018849)"
         fx="91.609917"
         fy="58.091419"
         gradientUnits="userSpaceOnUse">
        <stop
           offset="0%"
           stop-color="#ffffff"
           stop-opacity="1.0000"
           id="stop36" />
        <stop
           offset="100%"
           stop-color="#d9dadb"
           stop-opacity="1.0000"
           id="stop38" />
      </radialGradient>
    </defs>
    <path
       d="m 102.8529,51.7198 c -0.5809,1.8692 -1.5367,3.3319 -2.8392,4.4189 -1.1384,0.9505 -2.4991,1.6325 -4.0048,1.6747 -1.9545,0.0559 -2.5047,-1.3422 -2.158,-3.2059 0.2749,-1.4803 0.9881,-3.354 2.3618,-4.1349 2.1192,-1.2048 5.258,-0.1724 6.6402,1.2472 z"
       style="fill:url(#grad3)"
       id="path43" />
    <path
       d="m 102.5249,52.6365 c -0.5874,1.4381 -1.4298,2.5997 -2.5112,3.5022 -1.1384,0.9505 -2.4991,1.6325 -4.0048,1.6747 -0.4604,0.0131 -0.8428,-0.0544 -1.154,-0.1896 3.1416,-0.1346 5.6528,-1.9151 7.67,-4.9875 z"
       style="fill:#d9dadb;fill-rule:evenodd"
       id="path45" />
    <path
       d="m 93.9285,56.6419 c -0.2106,-0.546 -0.2236,-1.249 -0.0776,-2.0344 0.2749,-1.4803 0.9881,-3.354 2.3618,-4.1349 2.1192,-1.2048 5.258,-0.1724 6.6402,1.2472 -5.448,-1.3683 -8.6644,-0.0218 -8.9244,4.9221 z"
       style="fill:#c4c6c8;fill-rule:evenodd"
       id="path47" />
    <path
       d="m 96.9746,51.4015 c 1.1844,0 2.1447,1.116 2.1447,2.4931 0,1.3767 -0.9603,2.4927 -2.1447,2.4927 -1.1843,0 -2.1446,-1.116 -2.1446,-2.4927 0,-1.3771 0.9603,-2.4931 2.1446,-2.4931 z"
       style="fill:#703f0a;fill-rule:evenodd"
       id="path49" />
    <path
       d="m 96.9746,51.4015 c 0.1429,0 0.2827,0.0161 0.4176,0.0473 -1.0556,0.29 -1.8853,0.8547 -2.4696,1.7184 0.2679,-1.0222 1.0854,-1.7657 2.052,-1.7657 z"
       style="fill:#522e07;fill-rule:evenodd"
       id="path51" />
    <path
       d="m 96.9653,52.5674 c 0.6715,0 1.2161,0.6327 1.2161,1.4133 0,0.7807 -0.5446,1.4134 -1.2161,1.4134 -0.6713,0 -1.2158,-0.6327 -1.2158,-1.4134 0,-0.7806 0.5445,-1.4133 1.2158,-1.4133 z"
       style="fill:#110913;fill-rule:evenodd"
       id="path53" />
    <path
       d="m 97.9342,52.6978 c 0.2321,0 0.4204,0.1919 0.4204,0.4286 0,0.2369 -0.1883,0.4288 -0.4204,0.4288 -0.2325,0 -0.4207,-0.1919 -0.4207,-0.4288 0,-0.2367 0.1882,-0.4286 0.4207,-0.4286 z"
       style="fill:#ffffff;fill-rule:evenodd"
       id="path55" />
    <path
       d="m 97.4503,53.6686 c 0.1715,0 0.3104,0.1418 0.3104,0.3164 0,0.1746 -0.1389,0.3163 -0.3104,0.3163 -0.1715,0 -0.3104,-0.1417 -0.3104,-0.3163 0,-0.1746 0.1389,-0.3164 0.3104,-0.3164 z"
       style="fill:#ffffff;fill-rule:evenodd"
       id="path57" />
    <path
       d="m 95.1586,51.1702 c -4.5623,5.3715 -0.8989,9.9061 4.1036,5.4967 -3.568,2.4722 -8.0678,1.5485 -4.1036,-5.4967 z"
       style="fill:#565757;fill-rule:evenodd"
       id="path59" />
    <path
       d="m 103.5068,51.6654 c -0.3042,2.0137 -1.6642,3.5963 -3.6564,4.9221 1.4542,-1.4437 2.5075,-3.0459 3.0025,-4.8677 -1.2377,-1.1441 -2.8517,-1.8006 -5.0092,-1.7504 2.179,-0.3668 4.1094,0.0624 5.6631,1.696 z"
       style="fill:#1b1918;fill-rule:evenodd"
       id="path61" />
    <path
       d="m 111.9138,71.0427 c 31.1564,11.2808 0.0573,60.8953 8.4325,91.0199 3.8931,-0.6054 1.9497,2.3066 4.4892,4.4054 2.4815,2.0508 6.8009,-0.1287 5.2608,2.4383 3.314,2.8704 6.0455,5.1605 5.3385,8.392 -0.8212,2.2439 -3.5067,3.3871 -7.8156,-1.1018 4.0334,4.1763 -0.1772,6.8556 -3.0983,5.7688 -11.4696,-4.2684 -18.0459,-10.2374 -22.7149,-30.3775 -2.0406,6.4043 -0.2715,14.0329 4.6874,22.6876 -2.6561,4 -6.3437,9.5939 -6.5625,15.3752 -5.7107,-11.3256 -13.1516,-21.1244 -27.375,-24.9378 20.9602,15.4519 31.233,30.5725 28.8011,46.8309 -21.907,-10.6093 -37.4525,-44.739 -37.4525,-58.3127 0,-13.5737 0.0315,-2.34 0.0927,-3.4982 2.0554,-1.4565 4.2815,-2.8395 6.6838,-4.1471 31.5403,-13.4671 54.7056,-37.0692 41.2328,-74.543 z"
       style="fill:#a6500d;fill-opacity:0;fill-rule:evenodd"
       id="path63" />
    <path
       d="m 153.5701,151.6364 0.006,-0.004 2.3447,-1.4788 0.7259,-0.459 1.8746,-1.1875 0.4799,-0.3038 0.002,-0.001 0.5222,-0.3317 1.8698,-1.1892 0.6973,-0.4442 2.2203,-1.4168 0.9336,-0.597 1.6624,-1.0646 0.6573,-0.4211 2.5456,-1.6356 0.1518,-0.0975 2.4689,-1.5903 0.2293,-0.1477 0.3232,-0.2086 c 1.758,-1.1346 3.5132,-2.27 5.2603,-3.4029 l 0.0931,-0.0602 2.6077,-1.6936 0.12,-0.0779 c 1.7201,-1.1181 3.4284,-2.2314 5.1229,-3.3374 l 0.3196,-0.2085 0.6255,-0.4086 1.7298,-1.1305 0.3519,-0.2302 0.3001,-0.1966 2.3755,-1.5559 0.3934,-0.2577 1.689,-1.1082 0.5579,-0.3663 0.3015,-0.1982 2.2989,-1.511 0.1703,-0.112 c 1.6466,-1.0835 3.2665,-2.1509 4.8529,-3.1979 l 0.0393,-0.0261 1.5364,-1.0144 0.9174,-0.6061 0.6354,-0.4201 1.5286,-1.0111 0.2317,-0.1535 1.2716,-0.842 1.0622,-0.7036 0.4148,-0.2749 1.4496,-0.9613 0.4028,-0.2673 2.196,-1.4581 0.2129,-0.1414 1.3599,-0.9039 0.5479,-0.3643 0.7797,-0.5187 1.261,-0.8394 0.0334,-0.022 1.2598,-0.8393 0.6631,-0.4418 0.5611,-0.3738 1.1874,-0.792 0.119,-0.0792 0.2137,-0.1425 2.997,-2.0003 0.2406,-0.1608 0.7878,-0.5264 0.7869,-0.5258 0.1991,-0.1332 0.9422,-0.6296 0.3268,-0.2187 0.5703,-0.3814 0.7869,-0.5264 0.0641,-0.0428 0.8041,-0.5377 0.374,-0.2504 0.3814,-0.255 0.7059,-0.4723 0.0348,-0.0233 0.6204,-0.4149 0.3773,-0.2525 0.2261,-0.1509 0.5503,-0.3679 0.0929,-0.0621 0.4029,-0.2691 0.3332,-0.2222 0.1077,-0.0717 0.3842,-0.256 0.1067,-0.0709 0.2201,-0.146 0.2366,-0.1566 0.0309,-0.0204 0.2077,-0.1364 0.0716,-0.0467 0.0199,-0.0126 c 0.0651,-0.0424 0.1152,-0.0745 0.1395,-0.0886 14.4,-8.4172 24.4748,10.541 11.899,18.1705 -1.1283,0.6713 -50.293,24.6791 -89.5393,45.2745 -21.0278,12.1293 -38.8478,21.1916 -45.2115,25.7608 0.79,1.3409 0.3864,3.0591 -0.8958,3.9118 l -0.009,0.006 -0.009,0.006 -0.009,0.006 -0.01,0.006 -0.004,0.003 -0.006,0.004 -0.009,0.006 -0.01,0.006 -0.01,0.006 -0.01,0.006 -0.01,0.006 -0.01,0.006 -0.002,9e-4 -0.002,0.002 c -0.002,3e-4 -0.003,0.002 -0.005,0.003 l -0.005,0.003 -0.008,0.005 -0.0653,0.0377 -0.0659,0.0359 -0.0662,0.034 -0.067,0.032 -0.0336,0.0153 -0.0674,0.0294 -0.0338,0.0142 -3e-4,-1e-4 -0.0341,0.0135 -0.0339,0.013 -1e-4,2e-4 -0.0343,0.0125 -0.034,0.0123 -2e-4,-1e-4 -0.0343,0.0116 -0.0345,0.0115 -0.0691,0.021 -0.0348,0.01 -0.0673,0.0181 -0.002,6e-4 -0.0346,0.009 -3e-4,-1e-4 -0.035,0.008 -0.0348,0.008 -0.0382,0.008 -0.0635,0.0121 -0.0387,0.007 -0.0353,0.005 -0.035,0.005 -3e-4,-10e-5 -0.0351,0.005 -0.0352,0.004 -0.0353,0.004 -0.0351,0.003 -2e-4,-1e-4 -0.0353,0.003 -0.0351,0.003 -3e-4,-1e-4 -0.0352,0.002 -0.0351,0.002 -2e-4,-10e-5 -0.008,3e-4 -0.0623,0.001 -10e-5,3e-4 h -0.0703 l -0.0354,-5e-4 -0.0351,-0.001 -10e-5,3e-4 -0.0702,-0.003 -0.0352,-0.002 -0.0348,-0.003 -1e-4,2e-4 -0.0699,-0.007 -1e-4,2e-4 -0.0348,-0.004 -0.0348,-0.004 -0.0692,-0.01 -3e-4,2e-4 -0.0345,-0.006 -0.0344,-0.006 -2e-4,-1e-4 -0.0345,-0.006 -0.0343,-0.007 -0.0345,-0.007 -0.0339,-0.008 -4e-4,2e-4 -0.0677,-0.0167 -3e-4,2e-4 -0.0674,-0.0181 -4e-4,1e-4 -0.0648,-0.0191 -0.002,-6e-4 -2e-4,-1e-4 -0.0334,-0.0105 -0.033,-0.0109 -3e-4,2e-4 -0.066,-0.023 -3e-4,10e-5 -0.0653,-0.0246 -4e-4,2e-4 -0.0324,-0.0128 -0.0326,-0.0132 -0.0644,-0.0276 -2e-4,-1e-4 c -0.0428,-0.019 -0.0853,-0.0387 -0.1272,-0.0597 l 1e-4,-3e-4 -0.0315,-0.0158 -0.0312,-0.0163 -0.0619,-0.0336 1e-4,-3e-4 -0.0612,-0.0352 1e-4,-2e-4 -0.0303,-0.0181 -0.03,-0.0186 -0.0597,-0.0382 1e-4,-2e-4 -0.0587,-0.0397 1e-4,-3e-4 -0.0578,-0.0411 1e-4,-3e-4 -0.0569,-0.0425 1e-4,-3e-4 -0.056,-0.0441 1e-4,-2e-4 -0.0551,-0.0456 10e-5,-2e-4 -0.0541,-0.0473 2e-4,-2e-4 -0.053,-0.0484 1e-4,-2e-4 -0.0518,-0.05 -1e-4,-3e-4 -0.0506,-0.0514 -1e-4,-3e-4 -0.0496,-0.0528 1e-4,-3e-4 -0.0244,-0.0269 -0.0241,-0.0272 -10e-5,-4e-4 -0.0472,-0.0557 1e-4,-3e-4 -0.046,-0.0571 1e-4,-2e-4 -0.0448,-0.0585 -2e-4,-3e-4 -0.0359,-0.0496 -0.007,-0.0104 -2e-4,-1e-4 -0.0211,-0.0305 -0.021,-0.0308 1e-4,-3e-4 -0.0205,-0.0312 -0.0203,-0.0317 -0.0394,-0.0642 -4.9376,-8.2998 -0.0377,-0.0653 -0.0359,-0.0658 -0.0339,-0.0662 -0.0321,-0.067 -0.0153,-0.0336 -0.0149,-0.0335 -2e-4,-4e-4 -0.0143,-0.0335 -0.0142,-0.0339 1e-4,-2e-4 -0.0135,-0.0341 -0.013,-0.0339 -2e-4,-1e-4 -0.0125,-0.0344 -0.0123,-0.0339 1e-4,-3e-4 -0.0119,-0.0343 -0.0112,-0.0344 -0.021,-0.0692 -0.0195,-0.0694 -2e-4,-1e-4 -0.009,-0.035 -0.009,-0.0346 2e-4,-2e-4 -0.008,-0.035 -0.008,-0.0348 -0.007,-0.0352 -0.007,-0.0347 -2e-4,-4e-4 -0.006,-0.0351 -0.006,-0.035 -2e-4,-10e-5 -0.0105,-0.0703 -0.009,-0.0705 -0.007,-0.0704 -0.005,-0.0707 -0.004,-0.0705 c -0.002,-0.047 -0.002,-0.094 -0.002,-0.1411 l 0.001,-0.0702 -3e-4,-1e-4 c 0.002,-0.0705 0.008,-0.1405 0.0149,-0.2102 l -2e-4,-1e-4 c 0.005,-0.0467 0.0112,-0.0929 0.0183,-0.139 l -3e-4,-1e-4 0.0118,-0.0691 -3e-4,-1e-4 0.0134,-0.0687 -2e-4,-1e-4 0.0151,-0.0683 -3e-4,-1e-4 0.0163,-0.0682 c 0.0114,-0.0453 0.0244,-0.0902 0.038,-0.1349 l -2e-4,-1e-4 c 0.0205,-0.0666 0.0434,-0.1329 0.0687,-0.1985 l -1e-4,-4e-4 c 0.0165,-0.0438 0.0347,-0.0869 0.0536,-0.1296 l 3e-4,1e-4 c 0.038,-0.0859 0.0796,-0.1699 0.1257,-0.2517 l 3e-4,1e-4 c 0.0231,-0.041 0.0467,-0.0816 0.0718,-0.1215 l 3e-4,1e-4 c 0.0876,-0.1398 0.1875,-0.2727 0.2996,-0.3975 l 3e-4,1e-4 0.0241,-0.0265 0.0245,-0.0264 2e-4,1e-4 c 0.0331,-0.0347 0.0667,-0.069 0.1016,-0.1024 l 2e-4,-3e-4 0.053,-0.0495 3e-4,1e-4 0.0541,-0.0484 2e-4,1e-4 0.0558,-0.0472 0.0573,-0.0459 0.0588,-0.0447 0.0603,-0.0434 0.0613,-0.0421 3e-4,10e-5 0.0312,-0.0205 0.0317,-0.0203 0.0642,-0.0394 0.0134,-0.008 0.0137,-0.008 0.0134,-0.008 0.0135,-0.007 0.002,-10e-4 0.0116,-0.007 0.0136,-0.007 0.0134,-0.007 0.0139,-0.007 0.004,-0.002 0.01,-0.005 0.0137,-0.007 0.0137,-0.007 0.0138,-0.007 0.006,-0.003 0.008,-0.004 0.0137,-0.007 0.0138,-0.007 0.0139,-0.007 c 1.1497,-0.5593 2.5176,-0.2968 3.3812,0.6043 7.1282,-2.9769 23.4464,-12.8357 43.2353,-24.8538 l 0.1697,-0.1031 0.859,-0.522 0.1045,-0.0635 z m -40.9565,38.9287 0.002,-0.002 z M 103.26,179.4615 c 0.005,-0.0464 0.0112,-0.0929 0.0183,-0.139 z"
       style="fill:#a15e22;fill-opacity:0;fill-rule:evenodd"
       id="path65" />
    <g
       id="Layer1001">
      <path
         d="m 106.8494,176.6802 c 20.0722,-6.838 127.8222,-79.8504 129.5827,-80.8975 14.4,-8.4172 24.4749,10.5409 11.8992,18.1706 -1.7608,1.0475 -120.4983,58.9231 -135.9776,71.9786 -1.5325,-2.5761 -4.6039,-7.7373 -5.5043,-9.2517 z"
         style="fill:#c27532;fill-rule:evenodd"
         id="path67" />
      <path
         d="m 153.6971,149.938 c 37.1613,-23.401 81.6096,-53.486 82.735,-54.1553 14.3999,-8.4173 24.4749,10.5409 11.8991,18.1705 7.2718,-9.7892 -1.7849,-18.4068 -10.1643,-14.0802 l -84.5062,51.9964 c 0,0 0.0142,-0.702 0.0364,-1.9314 z"
         style="fill:#a15e22;fill-rule:evenodd"
         id="path69" />
      <path
         d="m 240.2369,97.0958 c 2e-4,-3e-4 2e-4,-3e-4 2e-4,-3e-4 0,0 0,0 -2e-4,3e-4 z m 0.001,-8e-4 c 2e-4,-2e-4 6e-4,-5e-4 8e-4,-5e-4 -2e-4,0 -6e-4,3e-4 -8e-4,5e-4 z m 0.001,-0.001 c 1e-4,0 3e-4,1e-4 5e-4,-2e-4 -1e-4,0 -4e-4,2e-4 -5e-4,2e-4 z m 0.001,-5e-4 c 7e-4,-5e-4 0.001,-6e-4 0.002,-0.0012 -7e-4,6e-4 -10e-4,7e-4 -0.002,0.0012 z m 0.002,-0.0015 c 1e-4,-3e-4 6e-4,-5e-4 8e-4,-5e-4 -3e-4,3e-4 -5e-4,2e-4 -8e-4,5e-4 z m 0.001,-8e-4 c 4e-4,-2e-4 6e-4,-1e-4 0.001,-4e-4 -4e-4,3e-4 -7e-4,5e-4 -0.001,4e-4 z m 0.001,-7e-4 c 2e-4,10e-5 4e-4,-3e-4 8e-4,-5e-4 -4e-4,2e-4 -7e-4,6e-4 -8e-4,5e-4 z m 9e-4,-5e-4 c 7e-4,-5e-4 0.001,-7e-4 0.002,-0.0013 -4e-4,6e-4 -0.001,8e-4 -0.002,0.0013 z m 0.002,-0.0012 c 4e-4,-2e-4 7e-4,-5e-4 0.001,-5e-4 -3e-4,0 -6e-4,3e-4 -0.001,5e-4 z"
         style="fill:#a6500d;fill-rule:evenodd"
         id="path71" />
      <path
         d="m 153.5715,150.0175 5.2204,9.2102 c -22.5879,13.0296 -41.4776,22.5209 -46.4382,26.7042 l -5.5043,-9.2517 c 6.4044,-2.181 24.5625,-13.2023 46.7221,-26.6627 z"
         style="fill:#322e33;fill-rule:evenodd"
         id="path73" />
      <path
         d="m 113.5691,184.9695 c 0.0859,-0.0646 0.1738,-0.1301 0.2633,-0.1968 10e-5,-4e-4 -2e-4,-5e-4 -1e-4,-10e-4 -0.0898,0.067 -0.1777,0.1327 -0.2635,0.1974 z"
         style="fill:#d8cdc5;fill-rule:evenodd"
         id="path75" />
      <path
         d="m 155.3308,152.971 v 0 l -0.4933,-0.83 -1e-4,4e-4 z"
         style="fill:#aa7e4e;fill-rule:evenodd"
         id="path77" />
      <path
         d="m 154.8374,152.1414 1e-4,-4e-4 -1.0147,-1.7053 z"
         style="fill:#91673e;fill-rule:evenodd"
         id="path79" />
      <path
         d="m 113.5687,184.9691 c 0.0859,-0.0646 0.1738,-0.1302 0.2636,-0.1974 -1.1934,-3.1397 1.4829,-6.9831 3.7336,-8.896 4.1063,-3.4879 8.8282,-6.4148 13.3087,-9.3933 4.719,-3.1375 9.5203,-6.1544 14.3968,-9.0409 3.1463,-1.8625 6.4938,-3.5896 10.0594,-4.4705 l -0.4935,-0.8297 -1.2658,-2.1238 c -20.7283,12.5914 -37.924,23.1 -45.3334,26.136 0.149,0.1561 0.2831,0.3314 0.3979,0.5248 z"
         style="fill:#2b2628;fill-rule:evenodd"
         id="path81" />
      <path
         d="m 104.6337,175.6619 c -1.3857,0.8247 -1.8406,2.6163 -1.0162,4.0021 l 4.938,8.2999 c 0.8254,1.3862 2.6169,1.8411 4.0023,1.0163 1.3863,-0.8241 1.8414,-2.6163 1.0163,-4.0021 l -4.938,-8.2998 c -0.8245,-1.3857 -2.6166,-1.8408 -4.0024,-1.0164 z"
         style="fill:#c27532;fill-rule:evenodd"
         id="path83" />
      <path
         d="m 112.5662,188.9753 c 0.002,-9e-4 0.004,-0.002 0.006,-0.003 -0.002,8e-4 -0.003,0.002 -0.006,0.003 z m 0.01,-0.006 c 0.001,-0.001 0.002,-0.002 0.004,-0.002 -0.001,7e-4 -0.002,0.001 -0.004,0.002 z"
         style="fill:#d8cdc5;fill-rule:evenodd"
         id="path85" />
      <path
         d="m 110.3463,189.3011 c 0.7245,0.1839 1.5186,0.0915 2.2115,-0.3209 v 0 c 0.003,-0.002 0.006,-0.003 0.008,-0.005 0.002,-9e-4 0.004,-0.002 0.006,-0.003 0.001,-10e-4 0.003,-0.002 0.004,-0.003 0.001,-0.001 0.002,-0.002 0.004,-0.002 0.2072,-0.1255 0.3905,-0.2752 0.554,-0.4399 -0.1517,-0.018 -0.3031,-0.0471 -0.4544,-0.0855 -2.628,-0.6673 -5.1175,-4.2176 -6.2151,-6.0115 -1.1331,-1.8524 -1.7819,-3.7452 -1.3123,-5.9178 0.0895,-0.4126 0.2207,-0.8116 0.3852,-1.199 -0.3104,0.0643 -0.6156,0.1773 -0.9034,0.3483 -0.6929,0.4125 -1.153,1.0662 -1.337,1.7906 -0.1839,0.7245 -0.0914,1.5185 0.3208,2.2115 l 4.938,8.2999 c 0.4127,0.6931 1.0669,1.1533 1.7908,1.3372 z"
         style="fill:#a15e22;fill-rule:evenodd"
         id="path87" />
      <path
         d="m 157.1375,157.8104 c 0,0 -0.1963,-0.4262 -0.5226,-1.0464 -0.168,-0.3073 -0.3523,-0.6725 -0.5711,-1.0515 -0.2181,-0.3795 -0.4503,-0.7839 -0.6831,-1.1885 -0.2444,-0.3974 -0.4894,-0.7951 -0.7183,-1.1677 -0.2282,-0.3735 -0.4618,-0.7093 -0.6517,-1.0036 -0.3899,-0.5827 -0.6708,-0.9586 -0.6708,-0.9586 0,0 0.1958,0.4265 0.5225,1.0468 0.168,0.3074 0.3518,0.6728 0.5711,1.0516 0.2177,0.3793 0.4505,0.7838 0.6831,1.1883 0.2445,0.3976 0.4892,0.7947 0.7188,1.168 0.2285,0.3725 0.4618,0.7092 0.6513,1.003 0.39,0.5826 0.6708,0.9586 0.6708,0.9586 z"
         style="fill:#242125;fill-rule:evenodd"
         id="path89" />
      <path
         d="m 155.9817,158.498 c 0,0 -0.1963,-0.4261 -0.5225,-1.0463 -0.1679,-0.3079 -0.3522,-0.673 -0.571,-1.0521 -0.2181,-0.3794 -0.4504,-0.7839 -0.6832,-1.1883 -0.2443,-0.3975 -0.4889,-0.795 -0.7182,-1.1679 -0.2283,-0.3733 -0.4618,-0.7091 -0.6517,-1.0036 -0.3898,-0.5826 -0.6708,-0.9581 -0.6708,-0.9581 0,0 0.1958,0.4261 0.5223,1.0469 0.1683,0.3068 0.3519,0.6728 0.5711,1.0516 0.2179,0.3788 0.4506,0.7834 0.6833,1.1878 0.245,0.3977 0.4894,0.7952 0.7188,1.1679 0.2283,0.3731 0.4617,0.7094 0.6517,1.0037 0.3894,0.5825 0.6702,0.9584 0.6702,0.9584 z"
         style="fill:#242125;fill-rule:evenodd"
         id="path91" />
      <path
         d="m 154.826,159.1856 c 0,0 -0.1963,-0.4262 -0.5225,-1.0464 -0.1676,-0.3072 -0.3522,-0.6728 -0.571,-1.0515 -0.2183,-0.3794 -0.4506,-0.7838 -0.6832,-1.1883 -0.2444,-0.398 -0.4889,-0.7956 -0.7184,-1.1678 -0.2283,-0.3735 -0.4618,-0.7093 -0.6517,-1.0036 -0.3898,-0.5828 -0.6707,-0.9586 -0.6707,-0.9586 0,0 0.1963,0.4262 0.5224,1.0467 0.1681,0.3074 0.3518,0.6728 0.5711,1.0516 0.2177,0.3793 0.4505,0.7839 0.6836,1.1886 0.2445,0.3974 0.489,0.7944 0.7184,1.1673 0.2284,0.373 0.4617,0.7097 0.6513,1.0035 0.3898,0.5826 0.6707,0.9585 0.6707,0.9585 z"
         style="fill:#242125;fill-rule:evenodd"
         id="path93" />
      <path
         d="m 153.6708,159.873 c 0,0 -0.1963,-0.4262 -0.5226,-1.0464 -0.168,-0.3073 -0.3522,-0.6729 -0.5714,-1.0516 -0.2178,-0.3794 -0.4505,-0.7839 -0.6831,-1.1889 -0.2445,-0.3975 -0.4891,-0.7946 -0.7185,-1.1673 -0.2277,-0.3734 -0.4618,-0.7094 -0.6517,-1.0036 -0.3898,-0.5827 -0.6706,-0.9586 -0.6706,-0.9586 0,0 0.1961,0.4266 0.5223,1.0468 0.1681,0.3074 0.3517,0.6732 0.5711,1.0516 0.2182,0.3794 0.4509,0.7838 0.6837,1.1884 0.2445,0.3976 0.4889,0.795 0.7183,1.1674 0.2289,0.3731 0.4617,0.7097 0.6517,1.0036 0.39,0.5826 0.6708,0.9586 0.6708,0.9586 z"
         style="fill:#242125;fill-rule:evenodd"
         id="path95" />
      <path
         d="m 152.5145,160.5605 c 0,0 -0.1963,-0.4261 -0.5224,-1.0463 -0.1677,-0.3072 -0.3522,-0.6729 -0.5707,-1.0515 -0.2185,-0.3795 -0.4508,-0.7845 -0.6834,-1.1889 -0.2445,-0.3976 -0.4891,-0.795 -0.7186,-1.1674 -0.2281,-0.3735 -0.4617,-0.7093 -0.6516,-1.0036 -0.3892,-0.583 -0.6707,-0.9586 -0.6707,-0.9586 0,0 0.1963,0.4262 0.5224,1.0469 0.1681,0.3073 0.3518,0.6728 0.5711,1.0516 0.2182,0.3794 0.451,0.7838 0.6836,1.1884 0.2445,0.3975 0.4891,0.7946 0.7185,1.1673 0.2288,0.3732 0.4618,0.7094 0.6517,1.0037 0.3893,0.5825 0.6701,0.9584 0.6701,0.9584 z"
         style="fill:#242125;fill-rule:evenodd"
         id="path97" />
      <path
         d="m 151.3593,161.2482 c 0,0 -0.1963,-0.4262 -0.5224,-1.0467 -0.1677,-0.3068 -0.3524,-0.6726 -0.5708,-1.051 -0.2185,-0.3801 -0.4507,-0.7845 -0.6835,-1.1889 -0.2444,-0.3976 -0.4889,-0.7952 -0.7184,-1.1674 -0.2283,-0.3735 -0.4618,-0.7093 -0.6516,-1.0041 -0.3894,-0.5825 -0.6708,-0.9581 -0.6708,-0.9581 0,0 0.1963,0.4261 0.5224,1.0467 0.1681,0.3074 0.3518,0.6729 0.5711,1.0516 0.2183,0.3791 0.4509,0.784 0.6836,1.1885 0.2445,0.3975 0.489,0.7945 0.7184,1.1674 0.2289,0.3731 0.4618,0.7092 0.6517,1.0036 0.3894,0.5825 0.6703,0.9584 0.6703,0.9584 z"
         style="fill:#242125;fill-rule:evenodd"
         id="path99" />
      <path
         d="m 150.2035,161.9358 c 0,0 -0.1963,-0.4261 -0.5223,-1.0467 -0.1682,-0.3073 -0.3524,-0.6725 -0.5711,-1.0516 -0.2178,-0.3793 -0.4509,-0.7839 -0.6832,-1.1883 -0.2445,-0.3975 -0.4894,-0.7952 -0.7184,-1.1678 -0.2282,-0.3736 -0.4617,-0.7094 -0.6517,-1.0037 -0.3898,-0.5826 -0.6706,-0.9585 -0.6706,-0.9585 0,0 0.1958,0.4265 0.5218,1.0471 0.1681,0.3069 0.3518,0.6727 0.5716,1.0513 0.2182,0.3794 0.4505,0.7837 0.6833,1.1883 0.2449,0.3977 0.4893,0.7951 0.7182,1.1679 0.2294,0.3727 0.4622,0.7092 0.6522,1.0032 0.39,0.5826 0.6702,0.9588 0.6702,0.9588 z"
         style="fill:#242125;fill-rule:evenodd"
         id="path101" />
      <path
         d="m 149.0483,162.6236 c 0,0 -0.1968,-0.4263 -0.5229,-1.0468 -0.1676,-0.3073 -0.3523,-0.6725 -0.5707,-1.0515 -0.2181,-0.3794 -0.4509,-0.784 -0.6835,-1.1885 -0.2446,-0.3975 -0.4891,-0.7951 -0.7184,-1.1678 -0.2278,-0.3734 -0.4618,-0.7093 -0.6512,-1.0035 -0.3898,-0.5827 -0.6712,-0.9587 -0.6712,-0.9587 0,0 0.1962,0.4267 0.5224,1.0473 0.1681,0.3069 0.3517,0.6727 0.5711,1.0512 0.2182,0.3794 0.451,0.7838 0.6836,1.1884 0.2445,0.3975 0.489,0.795 0.7184,1.1678 0.2289,0.3726 0.4618,0.7092 0.6518,1.0031 0.3898,0.5827 0.6706,0.959 0.6706,0.959 z"
         style="fill:#242125;fill-rule:evenodd"
         id="path103" />
      <path
         d="m 147.8926,163.3108 c 0,0 -0.1963,-0.4262 -0.523,-1.0464 -0.1676,-0.3072 -0.3523,-0.6725 -0.5706,-1.0514 -0.2182,-0.3795 -0.4508,-0.784 -0.6832,-1.1885 -0.2449,-0.3975 -0.4893,-0.7951 -0.7183,-1.1677 -0.2283,-0.3735 -0.4622,-0.7094 -0.6517,-1.0036 -0.3898,-0.5828 -0.6707,-0.9586 -0.6707,-0.9586 0,0 0.1957,0.4265 0.522,1.0466 0.168,0.3073 0.3522,0.673 0.5711,1.0516 0.2181,0.3794 0.4509,0.784 0.6835,1.1885 0.2445,0.3975 0.489,0.795 0.7184,1.1678 0.2289,0.3727 0.4618,0.7093 0.6518,1.0032 0.3898,0.5826 0.6707,0.9585 0.6707,0.9585 z"
         style="fill:#242125;fill-rule:evenodd"
         id="path105" />
      <path
         d="m 146.7368,163.9984 c 0,0 -0.1963,-0.4261 -0.5224,-1.0463 -0.1681,-0.3077 -0.3522,-0.6729 -0.571,-1.052 -0.2184,-0.379 -0.451,-0.7834 -0.6832,-1.1883 -0.2445,-0.3975 -0.4895,-0.7947 -0.7187,-1.1679 -0.228,-0.373 -0.4618,-0.7094 -0.6513,-1.0036 -0.39,-0.5822 -0.6713,-0.9582 -0.6713,-0.9582 0,0 0.1963,0.4266 0.5224,1.0468 0.1681,0.3073 0.3518,0.6727 0.5711,1.0515 0.2182,0.3795 0.4509,0.784 0.6835,1.1886 0.2447,0.397 0.4892,0.7945 0.7186,1.1674 0.2287,0.3731 0.4621,0.7092 0.6516,1.0036 0.3899,0.5826 0.6707,0.9584 0.6707,0.9584 z"
         style="fill:#242125;fill-rule:evenodd"
         id="path107" />
      <path
         d="m 145.5811,164.6861 c 0,0 -0.1963,-0.4262 -0.5225,-1.0464 -0.168,-0.3077 -0.3527,-0.673 -0.571,-1.0519 -0.2182,-0.3795 -0.4509,-0.784 -0.6836,-1.1886 -0.2446,-0.3974 -0.4889,-0.795 -0.7183,-1.1677 -0.2279,-0.3734 -0.4618,-0.7093 -0.6513,-1.0035 -0.3898,-0.5826 -0.6713,-0.9582 -0.6713,-0.9582 0,0 0.1964,0.4262 0.5225,1.0467 0.1681,0.307 0.3518,0.6728 0.5711,1.0516 0.2182,0.3791 0.451,0.7835 0.6837,1.1881 0.2444,0.3975 0.4889,0.795 0.7183,1.1678 0.2287,0.3731 0.4618,0.7092 0.6517,1.0036 0.3898,0.5827 0.6707,0.9585 0.6707,0.9585 z"
         style="fill:#242125;fill-rule:evenodd"
         id="path109" />
      <path
         d="m 144.4258,165.3739 c 0,0 -0.1963,-0.4262 -0.5225,-1.0468 -0.168,-0.3073 -0.3523,-0.6725 -0.5711,-1.0515 -0.2181,-0.3795 -0.4509,-0.784 -0.6835,-1.1886 -0.2445,-0.3974 -0.489,-0.795 -0.7183,-1.1677 -0.2279,-0.3734 -0.4619,-0.7094 -0.6513,-1.0035 -0.3898,-0.5828 -0.6712,-0.9587 -0.6712,-0.9587 0,0 0.1962,0.4266 0.5224,1.0472 0.1681,0.307 0.3517,0.6728 0.5712,1.0512 0.2181,0.3793 0.4509,0.7839 0.6835,1.1884 0.2446,0.3975 0.4891,0.795 0.7185,1.1678 0.2287,0.3731 0.4617,0.7093 0.6516,1.0036 0.3898,0.5827 0.6707,0.9586 0.6707,0.9586 z"
         style="fill:#242125;fill-rule:evenodd"
         id="path111" />
      <path
         d="m 143.2701,166.061 c 0,0 -0.1963,-0.4261 -0.5223,-1.0467 -0.1678,-0.3067 -0.3523,-0.6725 -0.5712,-1.0512 -0.2183,-0.3793 -0.4505,-0.7838 -0.6832,-1.1883 -0.2444,-0.3979 -0.4889,-0.7955 -0.7184,-1.1677 -0.2282,-0.3736 -0.4617,-0.7094 -0.6517,-1.0037 -0.3898,-0.5827 -0.6706,-0.9585 -0.6706,-0.9585 0,0 0.1963,0.4261 0.5223,1.0467 0.1682,0.3073 0.3518,0.6729 0.5711,1.0515 0.2178,0.3794 0.4505,0.7839 0.6837,1.1886 0.2445,0.3974 0.489,0.7945 0.7184,1.1673 0.2283,0.3731 0.4616,0.7097 0.6516,1.0037 0.3895,0.5825 0.6703,0.9583 0.6703,0.9583 z"
         style="fill:#242125;fill-rule:evenodd"
         id="path113" />
      <path
         d="m 142.1142,166.7492 c 0,0 -0.1963,-0.4262 -0.5223,-1.0469 -0.1681,-0.3073 -0.3523,-0.6723 -0.5711,-1.0515 -0.2182,-0.3795 -0.4509,-0.7839 -0.6835,-1.189 -0.2445,-0.3974 -0.489,-0.7945 -0.718,-1.1672 -0.2283,-0.3734 -0.4622,-0.7093 -0.6517,-1.0036 -0.3897,-0.583 -0.6707,-0.9585 -0.6707,-0.9585 0,0 0.1959,0.4261 0.522,1.0466 0.168,0.3074 0.3516,0.6733 0.5711,1.0516 0.2181,0.3794 0.4509,0.784 0.6836,1.1886 0.2444,0.3974 0.4889,0.795 0.7184,1.1673 0.2288,0.3731 0.4618,0.7092 0.6516,1.004 0.3898,0.5826 0.6706,0.9586 0.6706,0.9586 z"
         style="fill:#242125;fill-rule:evenodd"
         id="path115" />
      <path
         d="m 140.9586,167.4363 c 0,0 -0.1963,-0.4261 -0.5224,-1.0467 -0.1677,-0.3068 -0.3523,-0.6725 -0.5708,-1.0511 -0.2185,-0.3799 -0.4507,-0.7843 -0.6834,-1.1889 -0.2445,-0.3974 -0.489,-0.795 -0.7185,-1.1674 -0.2281,-0.3733 -0.4618,-0.7091 -0.6516,-1.0039 -0.3893,-0.5827 -0.6708,-0.9581 -0.6708,-0.9581 0,0 0.1963,0.4261 0.5225,1.0467 0.168,0.3073 0.3517,0.6728 0.5711,1.0516 0.2182,0.379 0.4509,0.784 0.6835,1.1884 0.2445,0.3976 0.4892,0.7946 0.7185,1.1675 0.2288,0.373 0.4618,0.7092 0.6517,1.0036 0.3893,0.5825 0.6702,0.9583 0.6702,0.9583 z"
         style="fill:#242125;fill-rule:evenodd"
         id="path117" />
      <path
         d="m 139.803,168.124 c 0,0 -0.1965,-0.4261 -0.5225,-1.0467 -0.1681,-0.3073 -0.3524,-0.6725 -0.5711,-1.0516 -0.2181,-0.3794 -0.4509,-0.784 -0.6837,-1.1885 -0.2444,-0.3975 -0.4889,-0.795 -0.7177,-1.1676 -0.2284,-0.3731 -0.4618,-0.7094 -0.6517,-1.0037 -0.39,-0.5827 -0.6709,-0.9581 -0.6709,-0.9581 0,0 0.1959,0.4261 0.5219,1.0467 0.1683,0.3068 0.3519,0.6727 0.5711,1.0515 0.2184,0.379 0.451,0.7835 0.6837,1.1884 0.2446,0.3971 0.489,0.7947 0.7184,1.1674 0.229,0.3728 0.4623,0.7094 0.6523,1.0034 0.3894,0.5825 0.6702,0.9588 0.6702,0.9588 z"
         style="fill:#242125;fill-rule:evenodd"
         id="path119" />
      <path
         d="m 138.6476,168.8118 c 0,0 -0.1968,-0.4263 -0.5229,-1.047 -0.1677,-0.3067 -0.3523,-0.6724 -0.5706,-1.0514 -0.2182,-0.3795 -0.4509,-0.7839 -0.6836,-1.1885 -0.2445,-0.3975 -0.4889,-0.795 -0.7183,-1.1678 -0.2279,-0.3733 -0.4618,-0.7092 -0.6513,-1.0035 -0.3898,-0.5827 -0.6712,-0.9586 -0.6712,-0.9586 0,0 0.1963,0.4265 0.5224,1.0472 0.1681,0.3068 0.3517,0.6728 0.5712,1.0511 0.2181,0.3794 0.4509,0.784 0.6835,1.1885 0.2445,0.3975 0.489,0.7951 0.7184,1.1678 0.2288,0.3731 0.4618,0.7093 0.6517,1.0036 0.3898,0.5828 0.6707,0.9586 0.6707,0.9586 z"
         style="fill:#242125;fill-rule:evenodd"
         id="path121" />
      <path
         d="m 137.4919,169.4989 c 0,0 -0.1967,-0.4262 -0.5224,-1.0463 -0.1682,-0.3074 -0.3528,-0.673 -0.571,-1.0519 -0.2184,-0.3791 -0.4505,-0.7839 -0.6832,-1.1885 -0.245,-0.3971 -0.4895,-0.7946 -0.7185,-1.1674 -0.2278,-0.3732 -0.4617,-0.7097 -0.6516,-1.0039 -0.3895,-0.5822 -0.6708,-0.9581 -0.6708,-0.9581 0,0 0.1962,0.4265 0.522,1.0466 0.168,0.3073 0.3522,0.6729 0.5716,1.0517 0.2176,0.3793 0.4504,0.7838 0.6831,1.1884 0.2445,0.3971 0.4889,0.795 0.7184,1.1674 0.2288,0.3731 0.4618,0.7092 0.6517,1.0036 0.3898,0.5826 0.6707,0.9584 0.6707,0.9584 z"
         style="fill:#242125;fill-rule:evenodd"
         id="path123" />
      <path
         d="m 136.3366,170.1867 c 0,0 -0.1963,-0.4261 -0.5228,-1.0468 -0.168,-0.3073 -0.3523,-0.6725 -0.5711,-1.0516 -0.2178,-0.3793 -0.4505,-0.7839 -0.6831,-1.1884 -0.2446,-0.3975 -0.4891,-0.7951 -0.7183,-1.1678 -0.2279,-0.3734 -0.4618,-0.7093 -0.6517,-1.0036 -0.3899,-0.5828 -0.6709,-0.9581 -0.6709,-0.9581 0,0 0.1959,0.4261 0.5219,1.0466 0.1686,0.3075 0.3523,0.6729 0.5716,1.0517 0.2179,0.3789 0.4505,0.7834 0.6833,1.188 0.2449,0.3975 0.4894,0.7951 0.7188,1.1678 0.2288,0.3731 0.4618,0.7093 0.6517,1.0036 0.3898,0.5828 0.6706,0.9586 0.6706,0.9586 z"
         style="fill:#242125;fill-rule:evenodd"
         id="path125" />
      <path
         d="m 135.1806,170.8738 c 0,0 -0.1964,-0.4262 -0.5226,-1.0464 -0.168,-0.3073 -0.3523,-0.6724 -0.571,-1.0516 -0.2182,-0.3793 -0.4505,-0.7837 -0.6832,-1.1883 -0.2445,-0.3974 -0.4889,-0.795 -0.7183,-1.1677 -0.2283,-0.3735 -0.4618,-0.7093 -0.6517,-1.0036 -0.3899,-0.5828 -0.6709,-0.9582 -0.6709,-0.9582 0,0 0.1959,0.426 0.5226,1.0463 0.168,0.3073 0.3516,0.6733 0.571,1.0521 0.2178,0.3788 0.4505,0.7834 0.6832,1.1879 0.2446,0.3975 0.4894,0.7951 0.7188,1.1679 0.2285,0.3726 0.4618,0.7093 0.6518,1.0032 0.3895,0.5825 0.6703,0.9584 0.6703,0.9584 z"
         style="fill:#242125;fill-rule:evenodd"
         id="path127" />
      <path
         d="m 134.0251,171.562 c 0,0 -0.1963,-0.4261 -0.5223,-1.0468 -0.1682,-0.3074 -0.3524,-0.6724 -0.5711,-1.0516 -0.2183,-0.3794 -0.4509,-0.7838 -0.6837,-1.1884 -0.2445,-0.3976 -0.4889,-0.795 -0.7183,-1.1679 -0.2279,-0.3733 -0.4618,-0.7092 -0.6513,-1.0035 -0.3898,-0.5826 -0.6712,-0.9586 -0.6712,-0.9586 0,0 0.1964,0.4266 0.5224,1.0473 0.1681,0.3068 0.3518,0.6728 0.5711,1.0516 0.2182,0.3789 0.451,0.7834 0.6838,1.188 0.2444,0.3974 0.4889,0.795 0.7182,1.1677 0.2288,0.3731 0.4618,0.7094 0.6517,1.0036 0.3899,0.5827 0.6707,0.9586 0.6707,0.9586 z"
         style="fill:#242125;fill-rule:evenodd"
         id="path129" />
      <path
         d="m 132.8691,172.2491 c 0,0 -0.1963,-0.4262 -0.522,-1.0466 -0.1681,-0.307 -0.3528,-0.6727 -0.5717,-1.0513 -0.2176,-0.3793 -0.4504,-0.7838 -0.6832,-1.1883 -0.2442,-0.398 -0.4887,-0.7956 -0.7182,-1.1679 -0.2278,-0.3733 -0.4618,-0.7092 -0.6517,-1.0036 -0.3895,-0.5825 -0.6707,-0.9585 -0.6707,-0.9585 0,0 0.1963,0.4262 0.5223,1.0467 0.1681,0.3074 0.3519,0.6728 0.5711,1.0516 0.2182,0.3794 0.4509,0.784 0.6837,1.1884 0.2444,0.3976 0.489,0.7947 0.7184,1.1675 0.2284,0.3729 0.4616,0.7097 0.6517,1.0036 0.3894,0.5826 0.6703,0.9584 0.6703,0.9584 z"
         style="fill:#242125;fill-rule:evenodd"
         id="path131" />
      <path
         d="m 131.7138,172.9369 c 0,0 -0.1964,-0.4262 -0.5225,-1.0468 -0.168,-0.3073 -0.3523,-0.6725 -0.5711,-1.0515 -0.2181,-0.3795 -0.4509,-0.784 -0.6836,-1.1886 -0.2444,-0.3974 -0.4889,-0.795 -0.7178,-1.1676 -0.2282,-0.3735 -0.4623,-0.7094 -0.6517,-1.0036 -0.3899,-0.5828 -0.6708,-0.9586 -0.6708,-0.9586 0,0 0.1958,0.4265 0.5219,1.0471 0.1683,0.3068 0.3518,0.6728 0.5712,1.0511 0.2182,0.3794 0.4509,0.784 0.6836,1.1885 0.2446,0.3975 0.4889,0.795 0.7183,1.1677 0.229,0.3728 0.4618,0.7094 0.6522,1.0038 0.3895,0.5825 0.6703,0.9585 0.6703,0.9585 z"
         style="fill:#242125;fill-rule:evenodd"
         id="path133" />
      <path
         d="m 130.558,173.6245 c 0,0 -0.1964,-0.4263 -0.5224,-1.0468 -0.168,-0.3074 -0.3524,-0.6724 -0.5711,-1.0516 -0.2181,-0.3794 -0.4504,-0.7837 -0.6832,-1.1883 -0.2445,-0.3976 -0.4889,-0.795 -0.7182,-1.1679 -0.2281,-0.3728 -0.4618,-0.7092 -0.6517,-1.0036 -0.3895,-0.5825 -0.6704,-0.958 -0.6704,-0.958 0,0 0.1959,0.4261 0.5219,1.0468 0.168,0.3073 0.3517,0.6727 0.5711,1.0515 0.2183,0.379 0.4509,0.7839 0.6837,1.1885 0.2445,0.397 0.489,0.7946 0.7179,1.1672 0.2289,0.3728 0.4617,0.7093 0.6521,1.0039 0.3895,0.5825 0.6703,0.9583 0.6703,0.9583 z"
         style="fill:#242125;fill-rule:evenodd"
         id="path135" />
      <path
         d="m 129.4023,174.3121 c 0,0 -0.1963,-0.4261 -0.5225,-1.0467 -0.1677,-0.3072 -0.3524,-0.6725 -0.5706,-1.0515 -0.2182,-0.3795 -0.4509,-0.7839 -0.6837,-1.1885 -0.2443,-0.3975 -0.4889,-0.795 -0.7182,-1.1678 -0.2283,-0.3734 -0.4618,-0.7092 -0.6517,-1.0036 -0.3894,-0.5826 -0.6708,-0.9585 -0.6708,-0.9585 0,0 0.1963,0.4265 0.5223,1.0472 0.1682,0.3069 0.3519,0.6728 0.5713,1.0511 0.2181,0.3794 0.4508,0.784 0.6836,1.1884 0.2444,0.3976 0.4889,0.7952 0.7183,1.1679 0.2289,0.3726 0.4618,0.7093 0.6518,1.0032 0.3893,0.5829 0.6702,0.9588 0.6702,0.9588 z"
         style="fill:#242125;fill-rule:evenodd"
         id="path137" />
      <path
         d="m 128.247,175 c 0,0 -0.1964,-0.4262 -0.5225,-1.0469 -0.168,-0.3073 -0.3523,-0.6724 -0.5711,-1.0516 -0.2181,-0.3793 -0.4504,-0.7837 -0.6835,-1.1889 -0.2444,-0.3974 -0.4889,-0.795 -0.7179,-1.1672 -0.2283,-0.3734 -0.4617,-0.7097 -0.6516,-1.004 -0.3899,-0.5828 -0.6709,-0.9581 -0.6709,-0.9581 0,0 0.1959,0.426 0.522,1.0466 0.1681,0.3073 0.3517,0.6733 0.5716,1.0517 0.2177,0.3793 0.4504,0.7839 0.6832,1.1883 0.2443,0.3977 0.4888,0.7951 0.7183,1.1673 0.2289,0.3732 0.4623,0.7095 0.6517,1.0036 0.3899,0.5828 0.6707,0.9592 0.6707,0.9592 z"
         style="fill:#242125;fill-rule:evenodd"
         id="path139" />
      <path
         d="m 127.0912,175.6875 c 0,0 -0.1964,-0.4262 -0.5225,-1.0466 -0.168,-0.3073 -0.3523,-0.6726 -0.571,-1.0517 -0.2182,-0.3794 -0.4504,-0.7839 -0.6832,-1.1883 -0.2449,-0.3976 -0.4894,-0.7953 -0.7182,-1.168 -0.2283,-0.3733 -0.4618,-0.7092 -0.6517,-1.0035 -0.39,-0.5826 -0.6708,-0.9586 -0.6708,-0.9586 0,0 0.1958,0.4266 0.5219,1.0468 0.1682,0.3073 0.3522,0.6728 0.5716,1.0515 0.2178,0.3794 0.4504,0.784 0.6831,1.1886 0.2446,0.3974 0.489,0.7948 0.7188,1.1678 0.2285,0.3727 0.4618,0.7094 0.6519,1.0031 0.3894,0.5826 0.6701,0.9589 0.6701,0.9589 z"
         style="fill:#242125;fill-rule:evenodd"
         id="path141" />
      <path
         d="m 125.9356,176.3748 c 0,0 -0.1963,-0.4263 -0.5225,-1.0469 -0.168,-0.3073 -0.3523,-0.6725 -0.5711,-1.0516 -0.2181,-0.3794 -0.4504,-0.7837 -0.6831,-1.1883 -0.2445,-0.3975 -0.4894,-0.7951 -0.7183,-1.1678 -0.2283,-0.3735 -0.4618,-0.7092 -0.6517,-1.0035 -0.3899,-0.5828 -0.6709,-0.9582 -0.6709,-0.9582 0,0 0.1959,0.426 0.522,1.0466 0.1685,0.3074 0.3523,0.673 0.5715,1.0518 0.2179,0.3788 0.4505,0.7834 0.6833,1.1879 0.2445,0.3976 0.4889,0.7949 0.7188,1.1679 0.2284,0.373 0.4618,0.7093 0.6511,1.0036 0.39,0.5827 0.6709,0.9585 0.6709,0.9585 z"
         style="fill:#242125;fill-rule:evenodd"
         id="path143" />
      <path
         d="m 124.7798,177.0623 c 0,0 -0.1963,-0.426 -0.5225,-1.0466 -0.168,-0.3073 -0.3523,-0.6725 -0.571,-1.0517 -0.2182,-0.3794 -0.4504,-0.7839 -0.6832,-1.1883 -0.2444,-0.3974 -0.4889,-0.7951 -0.7183,-1.1677 -0.2283,-0.3735 -0.4618,-0.7093 -0.6517,-1.0036 -0.3898,-0.5828 -0.6707,-0.9586 -0.6707,-0.9586 0,0 0.1957,0.4264 0.5224,1.0467 0.1681,0.3073 0.3517,0.6733 0.5711,1.0516 0.2177,0.3793 0.4505,0.7839 0.6832,1.1883 0.2445,0.3975 0.4893,0.7952 0.7187,1.1679 0.2284,0.3732 0.4618,0.7094 0.6513,1.0036 0.3899,0.5826 0.6707,0.9584 0.6707,0.9584 z"
         style="fill:#242125;fill-rule:evenodd"
         id="path145" />
      <path
         d="m 123.6245,177.7502 c 0,0 -0.1964,-0.4263 -0.5224,-1.0468 -0.1681,-0.3074 -0.3529,-0.6727 -0.5711,-1.0516 -0.2181,-0.3794 -0.4509,-0.7839 -0.6832,-1.1883 -0.2445,-0.3976 -0.4889,-0.795 -0.7182,-1.1679 -0.2283,-0.3735 -0.4618,-0.7093 -0.6517,-1.0036 -0.39,-0.5828 -0.6708,-0.9586 -0.6708,-0.9586 0,0 0.1963,0.4267 0.5218,1.0471 0.1682,0.3071 0.3522,0.673 0.5711,1.0517 0.2184,0.379 0.451,0.7834 0.6838,1.1879 0.2445,0.3976 0.4894,0.7952 0.7182,1.1679 0.2289,0.3731 0.4618,0.7092 0.6517,1.0037 0.39,0.5827 0.6708,0.9585 0.6708,0.9585 z"
         style="fill:#242125;fill-rule:evenodd"
         id="path147" />
      <path
         d="m 122.4688,178.4375 c 0,0 -0.1964,-0.4263 -0.5224,-1.047 -0.168,-0.3073 -0.3523,-0.6724 -0.5711,-1.0514 -0.2182,-0.3791 -0.4508,-0.7842 -0.6835,-1.1886 -0.2445,-0.3975 -0.489,-0.795 -0.7184,-1.1678 -0.2279,-0.3728 -0.4618,-0.7094 -0.6512,-1.0035 -0.3901,-0.5822 -0.6713,-0.9581 -0.6713,-0.9581 0,0 0.1963,0.426 0.5223,1.0467 0.1682,0.3074 0.3519,0.6728 0.5711,1.0517 0.2183,0.3792 0.4509,0.7839 0.6837,1.1883 0.2446,0.3972 0.489,0.7946 0.7184,1.1675 0.2289,0.373 0.4618,0.709 0.6517,1.0035 0.3899,0.5826 0.6707,0.9587 0.6707,0.9587 z"
         style="fill:#242125;fill-rule:evenodd"
         id="path149" />
      <path
         d="m 121.3131,179.125 c 0,0 -0.1963,-0.4262 -0.5226,-1.0463 -0.1676,-0.3073 -0.3522,-0.673 -0.5705,-1.0516 -0.2187,-0.3793 -0.4509,-0.784 -0.6836,-1.1888 -0.2444,-0.3976 -0.4889,-0.795 -0.7184,-1.1674 -0.2282,-0.3735 -0.4618,-0.7093 -0.6517,-1.0036 -0.3899,-0.5826 -0.6708,-0.9586 -0.6708,-0.9586 0,0 0.1964,0.4263 0.5225,1.0468 0.168,0.3073 0.3518,0.6729 0.5711,1.0517 0.2177,0.3793 0.4509,0.7838 0.6836,1.1884 0.2444,0.3974 0.4891,0.7945 0.7184,1.1673 0.2284,0.3731 0.4618,0.7094 0.6517,1.0036 0.3895,0.5826 0.6703,0.9585 0.6703,0.9585 z"
         style="fill:#242125;fill-rule:evenodd"
         id="path151" />
      <path
         d="m 120.1574,179.8126 c 0,0 -0.1964,-0.426 -0.5225,-1.0468 -0.1675,-0.3072 -0.3524,-0.6724 -0.5706,-1.0514 -0.2188,-0.3791 -0.4509,-0.784 -0.6836,-1.1886 -0.2445,-0.3974 -0.489,-0.7948 -0.7183,-1.1677 -0.2284,-0.373 -0.4618,-0.7092 -0.6517,-1.0036 -0.3895,-0.5825 -0.6708,-0.9582 -0.6708,-0.9582 0,0 0.1963,0.4262 0.5223,1.047 0.1682,0.3073 0.3519,0.6727 0.5711,1.0514 0.2184,0.3791 0.4509,0.784 0.6837,1.1884 0.2446,0.3972 0.489,0.7948 0.7184,1.1675 0.229,0.3726 0.4617,0.7093 0.6516,1.0036 0.3895,0.5825 0.6704,0.9584 0.6704,0.9584 z"
         style="fill:#242125;fill-rule:evenodd"
         id="path153" />
      <path
         d="m 119.0015,180.5004 c 0,0 -0.1962,-0.4263 -0.5223,-1.0469 -0.1676,-0.3072 -0.3523,-0.6725 -0.5707,-1.0515 -0.2181,-0.3794 -0.4509,-0.7838 -0.6835,-1.1884 -0.2445,-0.3975 -0.4891,-0.795 -0.7184,-1.1678 -0.2283,-0.3736 -0.4618,-0.7094 -0.6517,-1.0037 -0.3894,-0.5826 -0.6707,-0.9585 -0.6707,-0.9585 0,0 0.1962,0.4266 0.5223,1.0472 0.1682,0.3071 0.3518,0.6729 0.5712,1.0512 0.2182,0.3794 0.4509,0.7838 0.6836,1.1884 0.2445,0.3976 0.4889,0.795 0.7183,1.1679 0.229,0.3727 0.4618,0.7093 0.6518,1.0031 0.3893,0.583 0.6701,0.959 0.6701,0.959 z"
         style="fill:#242125;fill-rule:evenodd"
         id="path155" />
      <path
         d="m 117.8463,181.188 c 0,0 -0.1968,-0.4261 -0.5229,-1.0467 -0.1676,-0.3074 -0.3523,-0.6726 -0.5707,-1.0516 -0.2181,-0.3794 -0.4508,-0.784 -0.6835,-1.1885 -0.2445,-0.3974 -0.489,-0.7951 -0.7184,-1.1677 -0.2278,-0.3734 -0.4618,-0.7093 -0.6517,-1.0037 -0.3894,-0.5825 -0.6707,-0.9585 -0.6707,-0.9585 0,0 0.1962,0.4266 0.5223,1.0473 0.1682,0.3068 0.3518,0.6726 0.5712,1.051 0.2182,0.3795 0.4509,0.784 0.6837,1.1885 0.2444,0.3975 0.4889,0.795 0.7182,1.1677 0.229,0.3727 0.4618,0.7093 0.6519,1.0031 0.3898,0.5829 0.6706,0.9591 0.6706,0.9591 z"
         style="fill:#242125;fill-rule:evenodd"
         id="path157" />
      <path
         d="m 116.6906,181.8753 c 0,0 -0.1962,-0.4263 -0.5224,-1.047 -0.1682,-0.3067 -0.3523,-0.6724 -0.5711,-1.0514 -0.2181,-0.3795 -0.4509,-0.7839 -0.6835,-1.1884 -0.2445,-0.3978 -0.4891,-0.7951 -0.7186,-1.1674 -0.2276,-0.3738 -0.4616,-0.7097 -0.651,-1.0039 -0.3899,-0.5826 -0.6713,-0.9583 -0.6713,-0.9583 0,0 0.1963,0.4262 0.5224,1.0469 0.1681,0.3071 0.3518,0.6726 0.5711,1.0515 0.2183,0.3789 0.4511,0.7834 0.6837,1.188 0.2445,0.3975 0.489,0.7949 0.7184,1.1678 0.2287,0.3731 0.4621,0.7094 0.6517,1.0036 0.3898,0.5826 0.6706,0.9586 0.6706,0.9586 z"
         style="fill:#242125;fill-rule:evenodd"
         id="path159" />
      <path
         d="m 115.535,182.5624 c 0,0 -0.1963,-0.4261 -0.5225,-1.0463 -0.1681,-0.3073 -0.3524,-0.6724 -0.571,-1.0516 -0.2178,-0.3792 -0.4506,-0.7839 -0.6833,-1.1884 -0.2444,-0.3974 -0.4889,-0.795 -0.7183,-1.1677 -0.2278,-0.3733 -0.4618,-0.7094 -0.6517,-1.0037 -0.3894,-0.5825 -0.6706,-0.9586 -0.6706,-0.9586 0,0 0.1961,0.4267 0.5219,1.0468 0.1685,0.3074 0.3522,0.6729 0.5715,1.0517 0.2182,0.3794 0.4505,0.7839 0.6831,1.1883 0.245,0.3977 0.4894,0.7952 0.7188,1.1678 0.2285,0.3727 0.4618,0.7093 0.6518,1.0034 0.3894,0.5825 0.6703,0.9583 0.6703,0.9583 z"
         style="fill:#242125;fill-rule:evenodd"
         id="path161" />
      <path
         d="m 114.3796,183.2507 c 0,0 -0.1963,-0.4262 -0.5226,-1.0463 -0.1679,-0.3079 -0.3526,-0.6731 -0.5709,-1.0521 -0.2182,-0.3794 -0.451,-0.7839 -0.6836,-1.1884 -0.2445,-0.3976 -0.489,-0.7952 -0.7184,-1.1679 -0.2277,-0.3734 -0.4617,-0.7093 -0.6512,-1.0035 -0.3899,-0.5828 -0.6713,-0.9582 -0.6713,-0.9582 0,0 0.1963,0.4262 0.5224,1.0467 0.1682,0.3074 0.3519,0.6728 0.5711,1.0517 0.2183,0.379 0.451,0.7834 0.6838,1.188 0.2445,0.3975 0.4889,0.7949 0.7182,1.1678 0.2289,0.3731 0.4618,0.7093 0.6517,1.0036 0.39,0.5827 0.6708,0.9586 0.6708,0.9586 z"
         style="fill:#242125;fill-rule:evenodd"
         id="path163" />
      <path
         d="m 112.0956,186.9459 c 0.2192,0.0557 0.4596,0.0273 0.6695,-0.0976 0.4193,-0.2493 0.5569,-0.7912 0.3075,-1.2109 l -5.1116,-8.5906 c -0.1244,-0.2098 -0.3224,-0.349 -0.5416,-0.4046 -0.2191,-0.0557 -0.4594,-0.0278 -0.6688,0.0972 -0.4197,0.2493 -0.5575,0.7919 -0.3076,1.2112 l 5.1108,8.5901 c 0.1249,0.2099 0.3227,0.3496 0.5418,0.4052 z"
         style="fill:#da853c;fill-rule:evenodd"
         id="path165" />
      <path
         d="m 159.8916,158.17 c 0,0 5.6802,-3.1658 14.1997,-7.914 8.507,-4.772 19.8493,-11.1341 31.1916,-17.4965 11.3199,-6.4017 22.6401,-12.8038 31.1301,-17.6049 8.4767,-4.8251 14.128,-8.0416 14.128,-8.0416 0,0 -5.68,3.1657 -14.1997,7.9137 -8.5071,4.772 -19.8493,11.134 -31.1917,17.4965 -11.3197,6.4022 -22.64,12.8038 -31.1297,17.6053 -8.4768,4.825 -14.1283,8.0415 -14.1283,8.0415 z"
         style="fill:#a6500d;fill-rule:evenodd"
         id="path167" />
      <path
         d="m 162.6638,150.8587 c 0,0 5.2077,-2.9178 13.0187,-7.2943 7.8002,-4.3964 18.2004,-10.2579 28.6006,-16.1195 10.3811,-5.8951 20.7624,-11.7902 28.5482,-16.2116 7.7748,-4.441 12.958,-7.4017 12.958,-7.4017 0,0 -5.2076,2.9176 -13.0188,7.2941 -6.7636,3.812 -15.4815,8.7259 -24.4603,13.7861 -0.8357,0.5409 -1.6904,1.0737 -2.5524,1.5948 -2.0029,1.197 -4.0466,2.3273 -6.0064,3.3007 -0.2221,0.1099 -0.443,0.2178 -0.6625,0.3236 -8.6257,4.8983 -16.954,9.6279 -23.4668,13.3262 -7.7749,4.4411 -12.9583,7.4016 -12.9583,7.4016 z m 38.0777,-21.6664 c 1.6317,-0.8522 3.3052,-1.8007 4.951,-2.7945 0.093,-0.056 0.1859,-0.1114 0.2788,-0.1674 -0.6001,0.3381 -1.2006,0.6765 -1.8011,1.0151 -1.1441,0.6496 -2.2879,1.2989 -3.4287,1.9468 z"
         style="fill:#a6500d;fill-rule:evenodd"
         id="path169" />
      <path
         d="m 203.3967,130.8924 c 0,0 2.82,-1.5605 7.0499,-3.9015 2.1107,-1.1785 4.5727,-2.5531 7.2111,-4.026 2.6342,-1.4799 5.4442,-3.0586 8.254,-4.6371 2.805,-1.5874 5.6099,-3.1751 8.2394,-4.6635 2.6258,-1.4952 5.0761,-2.8905 7.1768,-4.0868 4.1918,-2.4082 6.9865,-4.0138 6.9865,-4.0138 0,0 -2.82,1.5605 -7.05,3.9012 -2.1106,1.1785 -4.5731,2.5533 -7.2113,4.0263 -2.6342,1.4796 -5.444,3.0583 -8.2539,4.637 -2.8048,1.5875 -5.6094,3.175 -8.2391,4.6632 -2.6256,1.4957 -5.076,2.891 -7.1766,4.0873 -4.1921,2.4084 -6.9868,4.0137 -6.9868,4.0137 z"
         style="fill:#a6500d;fill-rule:evenodd"
         id="path171" />
      <path
         d="m 220.2989,114.1438 c 0,0 1.5289,-0.8529 3.823,-2.132 1.1421,-0.6473 2.4749,-1.4026 3.903,-2.2119 1.4239,-0.8162 2.9431,-1.6869 4.4618,-2.5571 1.5138,-0.8797 3.0276,-1.7591 4.4468,-2.5837 1.4153,-0.8316 2.736,-1.6075 3.8683,-2.2728 0.6311,-0.3767 1.2034,-0.7182 1.7005,-1.0151 -0.0541,0.003 -0.1076,0.006 -0.1615,0.009 -0.4754,0.265 -1.0145,0.5656 -1.6037,0.8941 -1.1424,0.6476 -2.4751,1.4029 -3.903,2.2122 -1.4241,0.8163 -2.943,1.6864 -4.4619,2.5574 -1.5138,0.8795 -3.0274,1.7592 -4.4469,2.5837 -1.4149,0.8314 -2.736,1.6075 -3.868,2.2725 -2.2552,1.3463 -3.7584,2.2436 -3.7584,2.2436 z"
         style="fill:#a6500d;fill-rule:evenodd"
         id="path173" />
      <path
         d="m 242.3408,101.3803 c 0.0539,-0.003 0.1074,-0.006 0.1615,-0.009 1.2784,-0.7631 2.058,-1.2285 2.058,-1.2285 0,0 -0.8444,0.471 -2.2195,1.2376 z"
         style="fill:#a6500d;fill-rule:evenodd"
         id="path175" />
      <path
         d="m 217.8228,117.1665 c 0,0 1.1231,-0.6382 2.8073,-1.5953 0.8376,-0.4865 1.8151,-1.0541 2.862,-1.6621 1.0431,-0.6148 2.1554,-1.2708 3.2678,-1.9266 1.107,-0.6647 2.2145,-1.3292 3.2522,-1.9526 1.0342,-0.6299 1.9991,-1.2179 2.8263,-1.7223 1.6448,-1.0235 2.7414,-1.706 2.7414,-1.706 0,0 -1.123,0.6379 -2.8076,1.5953 -0.8376,0.4863 -1.8146,1.0538 -2.8618,1.662 -1.0427,0.615 -2.1553,1.2708 -3.2677,1.9266 -1.1071,0.6647 -2.2144,1.3297 -3.2523,1.9526 -1.0337,0.6302 -1.9987,1.2184 -2.8258,1.7224 -1.6452,1.0238 -2.7418,1.706 -2.7418,1.706 z"
         style="fill:#a6500d;fill-rule:evenodd"
         id="path177" />
      <path
         d="m 162.4141,155.6801 c 0,0 1.5034,-0.8539 3.7584,-2.1357 1.1218,-0.6512 2.4299,-1.4108 3.8316,-2.2252 1.3964,-0.8231 2.886,-1.7012 4.3751,-2.5792 1.4823,-0.8899 2.9644,-1.7796 4.3542,-2.6141 1.3839,-0.8434 2.6756,-1.6306 3.7834,-2.3052 2.2021,-1.3708 3.6704,-2.2846 3.6704,-2.2846 0,0 -1.5041,0.8543 -3.7589,2.1357 -1.1214,0.6512 -2.4294,1.4109 -3.8316,2.2251 -1.3959,0.8233 -2.8855,1.7013 -4.3748,2.5793 -1.4821,0.8899 -2.9645,1.7802 -4.3542,2.6146 -1.3839,0.8435 -2.6761,1.6305 -3.783,2.3054 -2.2025,1.3707 -3.6706,2.2839 -3.6706,2.2839 z"
         style="fill:#a6500d;fill-rule:evenodd"
         id="path179" />
      <path
         d="m 194.3227,128.2913 c 4.9594,-3.0404 9.6429,-5.9118 13.4587,-8.2516 5.585,-3.4504 9.3086,-5.7512 9.3086,-5.7512 0,0 -3.7494,2.2583 -9.373,5.6458 -3.1111,1.8887 -6.7964,4.126 -10.7387,6.5195 -0.8841,0.6137 -1.7691,1.2269 -2.6556,1.8375 z"
         style="fill:#a6500d;fill-rule:evenodd"
         id="path181" />
      <path
         d="m 157.5491,157.3748 c 0,0 5.0192,-3.0234 12.548,-7.5586 7.5131,-4.5614 17.5302,-10.6427 27.5479,-16.7238 3.1784,-1.949 6.3573,-3.898 9.4557,-5.7976 1.1869,-0.8175 2.3716,-1.6384 3.5552,-2.46 -4.242,2.5755 -8.7071,5.2858 -13.1706,7.9958 -9.9909,6.1253 -19.9816,12.2503 -27.4745,16.8445 -7.4771,4.6194 -12.4617,7.6997 -12.4617,7.6997 z"
         style="fill:#a6500d;fill-rule:evenodd"
         id="path183" />
      <path
         d="m 193.4306,130.8177 c 0.0997,0.0253 0.2008,0.0255 0.3009,0.0211 0.4445,-0.0298 0.886,-0.1611 1.3354,-0.3057 0.4492,-0.1475 0.9055,-0.3223 1.3696,-0.5133 0.7181,-0.2953 1.4546,-0.6296 2.2053,-0.9908 0.5494,-0.3119 1.1011,-0.6254 1.6526,-0.9385 -0.3462,0.181 -0.6909,0.3576 -1.0326,0.5291 -0.9768,0.4898 -1.9327,0.9402 -2.8563,1.3254 -0.4619,0.1921 -0.9159,0.3686 -1.3618,0.5172 -0.4454,0.1456 -0.8857,0.2777 -1.3155,0.3084 -0.0967,0.005 -0.1949,0.004 -0.2835,-0.0181 -0.009,-0.002 -0.0176,-0.005 -0.0262,-0.007 l -0.0631,-0.0267 -0.0567,-0.0438 -0.0266,-0.0291 -0.007,-0.0274 -0.0154,-0.0654 c 0.008,-0.1919 0.1308,-0.3713 0.2406,-0.5297 0.2351,-0.3179 0.5034,-0.5862 0.7587,-0.8315 0.5131,-0.4901 0.9944,-0.8815 1.3904,-1.2028 0.798,-0.6353 1.2704,-0.9778 1.2704,-0.9778 0,0 -0.4767,0.3361 -1.2839,0.9609 -0.4001,0.3167 -0.8868,0.7014 -1.4078,1.1866 -0.2601,0.2431 -0.5329,0.5081 -0.7765,0.8288 -0.1141,0.1627 -0.2448,0.3374 -0.2574,0.5688 0.007,0.1249 0.0957,0.2199 0.2141,0.2528 0.0108,0.003 0.0219,0.006 0.0325,0.009 z m 12.0937,-5.6892 c 0.7807,-0.4401 1.561,-0.8801 2.3388,-1.3185 1.1008,-0.7124 2.169,-1.4384 3.1765,-2.1682 0.8853,-0.6424 1.7253,-1.2876 2.4821,-1.9479 0.3774,-0.3307 0.7348,-0.6659 1.0462,-1.0244 0.1522,-0.1814 0.2999,-0.3661 0.3943,-0.583 0.0397,-0.107 0.0864,-0.234 0.0106,-0.3601 -0.0478,-0.0707 -0.1263,-0.1094 -0.2053,-0.1295 -0.0377,-0.01 -0.075,-0.0147 -0.1091,-0.0173 -0.4521,-0.0202 -0.86,0.1091 -1.2424,0.2189 -0.3821,0.118 -0.7369,0.2509 -1.0682,0.38 -0.662,0.2605 -1.2272,0.5156 -1.6908,0.7286 -0.9255,0.4301 -1.4442,0.6965 -1.4442,0.6965 0,0 0.5222,-0.2591 1.453,-0.6768 0.4664,-0.207 1.0344,-0.4539 1.6985,-0.7055 0.3322,-0.1246 0.6879,-0.2522 1.0695,-0.3643 0.3793,-0.1046 0.7913,-0.2317 1.2175,-0.2093 0.0356,0.004 0.0701,0.009 0.1031,0.0176 0.0657,0.0167 0.1242,0.046 0.1632,0.1047 0.0472,0.0747 0.0189,0.1929 -0.0215,0.2893 -0.0887,0.2011 -0.2342,0.3839 -0.3846,0.5614 -0.3091,0.3521 -0.6661,0.6845 -1.0435,1.0119 -0.7566,0.6541 -1.5977,1.2943 -2.4846,1.9315 -1.6925,1.2144 -3.556,2.4177 -5.4591,3.5644 z"
         style="fill:#a6500d;fill-rule:evenodd"
         id="path185" />
      <path
         d="m 198.6418,129.029 c 0.2195,-0.1057 0.4404,-0.2136 0.6625,-0.3236 1.9599,-0.9734 4.0036,-2.1037 6.0064,-3.3006 0.862,-0.5211 1.7167,-1.054 2.5524,-1.5948 -0.7778,0.4384 -1.5581,0.8784 -2.3388,1.3185 -0.093,0.056 -0.1859,0.1115 -0.2789,0.1674 -1.6457,0.9938 -3.3192,1.9424 -4.951,2.7946 -0.5515,0.3131 -1.1032,0.6266 -1.6526,0.9385 z"
         style="fill:#a6500d;fill-rule:evenodd"
         id="path187" />
      <path
         d="m 194.9162,129.4844 c 0.0436,0.0111 0.0871,0.0161 0.1297,0.0159 0.3517,-0.0136 0.6647,-0.1269 0.9603,-0.2249 0.2951,-0.1039 0.5696,-0.2149 0.8264,-0.3233 0.5119,-0.2174 0.9507,-0.4247 1.3105,-0.5977 0.7188,-0.3484 1.1227,-0.561 1.1227,-0.561 0,0 -0.4066,0.2076 -1.1291,0.547 -0.3619,0.1686 -0.8031,0.3703 -1.3169,0.5811 -0.2576,0.1046 -0.5331,0.2125 -0.8277,0.312 -0.294,0.0942 -0.6108,0.2065 -0.9452,0.217 -0.037,-0.001 -0.0757,-0.004 -0.1098,-0.0122 -0.0413,-0.0105 -0.076,-0.0304 -0.0923,-0.0682 -0.0237,-0.066 0.012,-0.1535 0.0558,-0.2254 0.0884,-0.1497 0.2126,-0.2835 0.339,-0.4154 0.2559,-0.2629 0.5464,-0.5107 0.8489,-0.7589 0.6075,-0.4941 1.2746,-0.9831 1.9761,-1.4718 1.403,-0.9774 2.9449,-1.9551 4.5105,-2.8908 1.5623,-0.9419 3.1516,-1.8398 4.6706,-2.6256 0.7594,-0.3923 1.502,-0.7563 2.2176,-1.0754 0.7165,-0.3103 1.4033,-0.6107 2.0713,-0.7371 0.0831,-0.0112 0.167,-0.02 0.2459,-0.0107 0.0163,10e-4 0.0313,0.004 0.0453,0.007 0.0217,0.005 0.041,0.0133 0.0589,0.021 l 0.0378,0.0401 0.0131,0.0488 c -0.0167,0.1484 -0.1261,0.2813 -0.2182,0.4006 -0.1999,0.2368 -0.4164,0.4394 -0.6233,0.6239 -0.415,0.3695 -0.798,0.6672 -1.1131,0.912 -0.6348,0.4843 -1.0079,0.7473 -1.0079,0.7473 0,0 0.3762,-0.2583 1.0171,-0.735 0.3185,-0.2408 0.7053,-0.534 1.1256,-0.8993 0.21,-0.1827 0.4298,-0.3831 0.6353,-0.6208 0.0948,-0.1228 0.21,-0.248 0.232,-0.4298 l -0.019,-0.0704 -0.0447,-0.0508 c -0.0277,-0.0163 -0.056,-0.028 -0.084,-0.0351 -0.0166,-0.004 -0.0327,-0.007 -0.0487,-0.008 -0.0874,-0.0108 -0.1737,-0.001 -0.2595,0.01 -0.6814,0.1261 -1.3672,0.424 -2.0875,0.7326 -0.7185,0.3165 -1.4636,0.6777 -2.2258,1.0673 -1.524,0.7802 -3.1187,1.6721 -4.6861,2.6081 -1.5639,0.943 -3.1021,1.9286 -4.5033,2.9128 -0.7,0.4927 -1.3663,0.985 -1.9733,1.4832 -0.3028,0.2503 -0.5926,0.5001 -0.8506,0.767 -0.1275,0.1342 -0.2522,0.2689 -0.3449,0.427 -0.0432,0.0768 -0.0921,0.1697 -0.0573,0.2719 0.0176,0.0495 0.0679,0.0779 0.1131,0.0926 0.002,4e-4 0.003,8e-4 0.005,0.001 z"
         style="fill:#a6500d;fill-rule:evenodd"
         id="path189" />
      <path
         d="m 198.723,127.6126 c 0.0382,0.01 0.0773,0.014 0.1161,0.0132 0.4072,-0.0201 0.8161,-0.1835 1.2428,-0.3448 0.4259,-0.1691 0.8655,-0.3698 1.3142,-0.5887 0.8975,-0.4383 1.8318,-0.9523 2.7461,-1.4992 0.9115,-0.5509 1.8038,-1.1343 2.6085,-1.7263 0.4023,-0.2964 0.7828,-0.5947 1.1237,-0.9014 0.17,-0.1538 0.3297,-0.3106 0.4677,-0.4778 0.0667,-0.0853 0.1307,-0.1727 0.1683,-0.2742 0.0144,-0.0513 0.0281,-0.1107 -0.0104,-0.1649 -0.0208,-0.0297 -0.0644,-0.0521 -0.1051,-0.0625 -0.0127,-0.003 -0.0249,-0.005 -0.0364,-0.006 -0.2062,-0.0198 -0.394,0.0377 -0.5697,0.0828 -0.1754,0.0495 -0.338,0.1097 -0.4903,0.1654 -0.3038,0.1149 -0.5628,0.2294 -0.7752,0.3249 -0.4241,0.1929 -0.6617,0.3125 -0.6617,0.3125 0,0 0.2393,-0.1167 0.6658,-0.3033 0.2134,-0.0927 0.4739,-0.2033 0.7787,-0.3137 0.1527,-0.0534 0.3154,-0.1112 0.4909,-0.1578 0.1734,-0.043 0.3636,-0.099 0.5569,-0.0787 0.0147,0.002 0.0283,0.004 0.0413,0.008 0.0304,0.008 0.0564,0.0211 0.0809,0.0518 0.0226,0.0313 0.0172,0.0857 0.002,0.1308 -0.0348,0.0938 -0.0977,0.1796 -0.1637,0.2629 -0.1367,0.1641 -0.2961,0.3192 -0.4661,0.4715 -0.3407,0.3035 -0.7217,0.5993 -1.1244,0.8935 -0.806,0.587 -1.7002,1.1653 -2.613,1.7117 -0.9102,0.5503 -1.8409,1.0678 -2.7349,1.5098 -0.4472,0.2207 -0.8846,0.423 -1.3087,0.5932 -0.4232,0.163 -0.834,0.3273 -1.2284,0.3486 -0.033,0.002 -0.07,-0.001 -0.1037,-0.01 -0.0586,-0.0149 -0.1071,-0.0478 -0.1066,-0.1073 0.002,-0.0879 0.0533,-0.1717 0.1018,-0.2453 0.1026,-0.1482 0.223,-0.273 0.3375,-0.387 0.23,-0.228 0.4477,-0.409 0.6267,-0.5577 0.36,-0.2926 0.5742,-0.4501 0.576,-0.4514 -0.002,0.001 -0.2181,0.1558 -0.5822,0.4437 -0.1813,0.1464 -0.4014,0.3244 -0.6354,0.5499 -0.1168,0.113 -0.2396,0.2362 -0.3462,0.3863 -0.0504,0.0752 -0.1062,0.1582 -0.1087,0.2634 0.004,0.0557 0.0351,0.1019 0.0893,0.1234 0.0117,0.004 0.0235,0.008 0.0353,0.0107 z m 1.5479,-1.7774 z"
         style="fill:#a6500d;fill-rule:evenodd"
         id="path191" />
      <path
         d="m 200.3587,126.6269 c 0.023,0.006 0.044,0.009 0.0579,0.007 0.0581,0.007 0.1122,0.002 0.1664,-0.003 0.2157,-0.0236 0.4216,-0.0853 0.6295,-0.1507 0.8275,-0.2735 1.6448,-0.708 2.4435,-1.1659 0.7835,-0.4829 1.556,-0.994 2.1908,-1.5908 0.157,-0.1511 0.3095,-0.303 0.4328,-0.4814 0.0561,-0.0894 0.1297,-0.186 0.1081,-0.3306 -0.025,-0.0788 -0.0826,-0.1148 -0.1446,-0.1305 -0.0593,-0.0151 -0.1231,-0.0118 -0.1669,-0.0111 -0.4091,0.0501 -0.7494,0.2093 -1.0674,0.3411 -0.63,0.2808 -1.1352,0.5514 -1.484,0.7496 -0.3493,0.1974 -0.5441,0.3186 -0.5441,0.3186 0,0 0.197,-0.1174 0.5496,-0.3083 0.3533,-0.1882 0.8588,-0.462 1.4981,-0.7127 0.3183,-0.1161 0.675,-0.2576 1.053,-0.2855 0.0438,5e-4 0.088,0.003 0.1234,0.0118 0.0369,0.009 0.0639,0.0262 0.0698,0.0561 0.008,0.0563 -0.0426,0.1509 -0.1017,0.2258 -0.1196,0.1566 -0.2749,0.2986 -0.4337,0.4374 -0.653,0.5436 -1.4133,1.0543 -2.2004,1.5135 -0.7787,0.473 -1.5904,0.8979 -2.3793,1.2125 -0.1981,0.0731 -0.3969,0.1416 -0.5916,0.172 -0.0489,0.007 -0.0971,0.0133 -0.1412,0.01 l -0.0556,-0.006 -0.0501,-0.0213 c -0.0459,-0.027 -0.0119,-0.1262 0.0322,-0.2037 0.2046,-0.319 0.4991,-0.565 0.7533,-0.7892 0.5256,-0.4415 1.0071,-0.7554 1.341,-0.9762 0.3361,-0.2191 0.5332,-0.3359 0.5332,-0.3359 0,0 -0.199,0.1131 -0.5392,0.3261 -0.3406,0.212 -0.8198,0.527 -1.3668,0.9466 -0.2677,0.217 -0.5696,0.4402 -0.8088,0.7756 -0.0254,0.0467 -0.0561,0.0897 -0.0693,0.1499 -0.0161,0.0495 -0.0174,0.1453 0.0439,0.1904 0.017,0.0227 0.0713,0.0467 0.1182,0.0587 z"
         style="fill:#a6500d;fill-rule:evenodd"
         id="path193" />
    </g>
    <path
       d="m 111.9138,71.0427 c 26.1879,10.6246 4.1879,62.7809 12.5631,92.9056 0.8187,-0.1769 1.5534,-0.4527 2.278,-0.7977 3.1104,-1.3405 3.9523,-0.379 4.1051,0.9482 -0.4887,0.9201 -0.4102,2.6149 -0.273,3.3794 1.798,1.5571 5.0542,5.184 4.7135,8.0022 -0.3235,2.6694 -4.1346,4.2061 -7.4047,1.0154 3.3095,3.4268 -0.8294,4.9623 -3.8355,4.5859 -3.7798,-0.4722 -10.927,-6.3811 -13.0919,-8.7593 -4.6655,-5.1256 -7.6424,-11.7956 -10.0224,-22.0618 -2.0407,6.4043 -0.2716,14.0329 4.6874,22.6877 -2.6561,3.9999 -6.3437,9.5938 -6.5625,15.3751 -5.7107,-11.3256 -13.1517,-21.1244 -27.3751,-24.9378 20.9603,15.4519 30.7954,31.2871 28.3635,47.5455 -21.907,-10.6092 -37.0148,-33.0534 -37.0148,-59.0273 0,-1.1735 0.0315,-2.34 0.0927,-3.4982 5.0879,-3.6054 9.6732,-5.3104 15.1126,-8.0612 27.1863,-13.7471 45.9065,-35.2496 33.664,-69.3017 z"
       style="fill:#110913;fill-rule:evenodd"
       id="path196" />
    <path
       d="m 63.1128,154.8632 c -0.0436,-0.9813 -0.0683,-1.9672 -0.0683,-2.9594 0,-1.1735 0.0315,-2.34 0.0927,-3.4982 5.0879,-3.6054 9.6732,-5.3104 15.1126,-8.0612 27.1863,-13.7471 45.9065,-35.2496 33.664,-69.3017 17.3149,35.8161 -1.5137,63.2268 -48.6989,84.0425 z"
       style="fill:#3a3a3a;fill-rule:evenodd"
       id="path198" />
    <g
       id="Layer1002">
      <path
         d="m 235.1961,126.5345 c 0,-6.5739 -5.2811,-11.9033 -11.7959,-11.9033 -6.5146,0 -11.7957,5.3294 -11.7957,11.9033 0,6.574 5.2811,11.9032 11.7957,11.9032 6.5148,0 11.7959,-5.3292 11.7959,-11.9032 z"
         style="fill:#ececed;fill-rule:evenodd"
         id="path200" />
      <path
         d="m 235.1961,126.5345 h -0.1902 c -2e-4,-3.2345 -1.2987,-6.161 -3.3992,-8.281 -2.1008,-2.1198 -5.0009,-3.4301 -8.2065,-3.4304 -3.2053,3e-4 -6.1054,1.3106 -8.2063,3.4304 -2.1004,2.12 -3.3991,5.0465 -3.3991,8.281 0,3.2345 1.2987,6.1611 3.3991,8.2811 2.1009,2.1196 5.001,3.4301 8.2063,3.4301 3.2056,0 6.1057,-1.3105 8.2065,-3.4301 2.1005,-2.12 3.399,-5.0466 3.3992,-8.2811 h 0.3805 c -2e-4,6.68 -5.3663,12.0951 -11.9862,12.0951 -6.6197,0 -11.9859,-5.4151 -11.9859,-12.0951 0,-6.6799 5.366,-12.0951 11.9859,-12.0952 6.6199,1e-4 11.986,5.4153 11.9862,12.0952 z"
         style="fill:#b1b3b4;fill-rule:evenodd"
         id="path202" />
      <path
         d="m 230.5597,126.7689 c 0,-4.8961 -3.9332,-8.8654 -8.7854,-8.8654 -4.8519,0 -8.7852,3.9693 -8.7852,8.8654 0,4.8962 3.9333,8.8653 8.7852,8.8653 4.8522,0 8.7854,-3.9691 8.7854,-8.8653 z"
         style="fill:#f4f7f6;fill-rule:evenodd"
         id="path204" />
      <path
         d="m 226.6113,127.6128 c 0,-3.2392 -2.6022,-5.8652 -5.8122,-5.8652 -3.21,0 -5.8122,2.626 -5.8122,5.8652 0,3.2392 2.6022,5.8651 5.8122,5.8651 3.21,0 5.8122,-2.6259 5.8122,-5.8651 z"
         style="fill:#ffffff;fill-rule:evenodd"
         id="path206" />
    </g>
    <path
       d="m 235.8985,117.2461 c 7.3439,7.0673 4.1858,21.3759 -6.5492,24.6609 -0.5409,0.2077 -1.6403,-0.158 -0.5439,-0.4755 9.4967,-2.999 14.6065,-15.791 7.0931,-24.1854 z"
       style="fill:#b1b3b4;fill-rule:evenodd"
       id="path209" />
    <path
       d="m 240.4157,121.0979 c 2.5219,5.123 2.5254,15.2052 -4.338,19.5092 -0.3813,0.2782 -0.8684,0.0622 -0.3693,-0.3227 6.0866,-3.8358 6.7606,-13.2631 4.7073,-19.1865 z"
       style="fill:#b1b3b4;fill-rule:evenodd"
       id="path211" />
    <path
       d="m 188.922,124.1777 c -3.1383,12.1682 0.3301,23.2733 11.1201,33.2003 0.8269,0.7038 1.1338,-0.0183 0.5667,-0.5897 -9.6573,-10.1954 -13.9029,-21.0242 -11.6868,-32.6106 z"
       style="fill:#ffffff;fill-rule:evenodd"
       id="path213" />
    <path
       d="m 201.4177,120.0445 c -2.2684,10.0906 -0.3726,23.2494 9.9878,33.7329 1.1988,1.3209 1.9895,0.3959 0.7605,-0.6512 -8.7525,-8.5217 -12.3178,-21.1124 -10.7483,-33.0817 z"
       style="fill:#ffffff;fill-rule:evenodd"
       id="path215" />
    <path
       d="m 215.0046,109.4672 c -20.4832,1.4557 -25.2329,18.9283 -19.4662,34.7562 0.4102,1.394 1.9693,1.0454 1.3186,-0.5241 -3.9986,-8.3256 -7.0731,-30.0095 18.1476,-34.2321 z"
       style="fill:#ffffff;fill-rule:evenodd"
       id="path217" />
    <path
       d="m 46.4202,122.2483 3.5458,-8.7987 10.2334,4.1241 -0.9913,2.4599 -8.4832,-3.4185 -1.5631,3.8786 6.2598,2.5228 c 0.4099,0.165 0.7401,0.3623 0.9898,0.5913 0.2498,0.2291 0.4232,0.4576 0.5208,0.6863 0.0972,0.2288 0.1343,0.5 0.1114,0.8147 -0.023,0.3146 -0.072,0.6035 -0.1474,0.866 -0.0754,0.263 -0.1871,0.5782 -0.3354,0.9465 -0.2372,0.5887 -0.4351,1.0037 -0.5938,1.2455 l -1.6081,-0.6483 c 0.1287,-0.1681 0.2653,-0.4308 0.4093,-0.788 0.2585,-0.6415 0.0405,-1.1018 -0.6531,-1.3813 z m 20.0194,-15.5349 -1.3451,2.3246 -3.0101,-0.602 -2.0174,3.4874 2.0307,2.2944 -1.311,2.266 -7.5067,-9.0567 1.6174,-2.7958 z m -6.1747,1.3376 -4.2886,-0.8708 -0.034,0.059 2.8922,3.2836 z m 13.4778,-9.7758 -1.7401,2.0012 -6.9016,-6.0015 -3.0118,3.4634 6.9015,6.0015 -1.7401,2.0013 -8.3257,-7.2397 6.4922,-7.4659 z m 2.1365,-14.2401 -2.5503,2.2226 6.0091,6.895 -1.9992,1.7422 -6.0092,-6.8947 -2.5631,2.2339 -1.2399,-1.4227 7.1127,-6.1991 z m 15.7068,0.4166 -2.2672,1.4398 -2.391,-1.9253 -3.4007,2.16 0.7404,2.9732 -2.2102,1.4038 -2.4707,-11.5011 2.7267,-1.7314 z m -6.0937,-1.6679 -3.4004,-2.7544 -0.0573,0.0366 1.0469,4.2488 z"
       style="fill:#ffffff;fill-rule:evenodd"
       id="path219" />
    <path
       d="m 125.0989,106.7017 c -2.562,22.9028 -4.2446,44.377 -0.622,57.2466 2.7868,-1.145 5.9015,-2.7531 6.3831,0.1505 -1.4182,-1.853 -5.309,-0.4513 -7.1379,0.9567 -7.6037,-19.3575 -1.1259,-40.9408 1.3768,-58.3538 z"
       style="fill:#565757;fill-rule:evenodd"
       id="path221" />
    <path
       d="m 130.587,167.4782 c 7.7766,6.581 4.7716,12.8333 -0.8583,10.3201 5.9156,0.7033 6.1492,-4.0745 0.8583,-10.3201 z"
       style="fill:#565757;fill-rule:evenodd"
       id="path223" />
    <path
       d="m 124.149,173.7113 c 4.8262,2.3803 7.9889,7.1978 0.5573,7.4214 5.4728,-0.7341 3.6966,-4.5779 -0.5573,-7.4214 z"
       style="fill:#565757;fill-rule:evenodd"
       id="path225" />
    <path
       d="m 93.6471,55.3762 c -0.2742,-2.2496 0.6825,-5.2591 2.2841,-6.1693 2.1189,-1.2047 5.6381,0.775 6.9217,2.5129 -4.9258,-3.3695 -8.4068,-1.8972 -9.2058,3.6564 z"
       style="fill:#1b1918;fill-rule:evenodd"
       id="path227" />
    <path
       d="m 79.8316,57.1997 c -0.4167,0.1693 -0.6509,0.5619 -0.5227,0.8765 0.1278,0.3147 0.5691,0.4326 0.9858,0.2631 0.4167,-0.1693 0.6509,-0.5619 0.5228,-0.8765 -0.1279,-0.3146 -0.5692,-0.4326 -0.9859,-0.2631 z"
       style="fill:#565757;fill-rule:evenodd"
       id="path229" />
    <path
       d="m 127.6203,157.0578 -3.5626,0.7968 c -4.0637,-25.5645 7.9432,-64.3592 -1.0426,-79.1351 7.0144,8.2188 5.4363,21.5674 4.2565,35.36 -1.4221,16.6283 -3.1167,33.8615 0.3487,42.9783 z"
       style="fill:#ffffff;fill-opacity:0;fill-rule:evenodd"
       id="path231" />
    <path
       d="m 147.3398,133.5713 c -6.6699,9.6262 -3.3089,16.6278 4.5992,13.2696 -7.6286,0.5797 -9.1942,-3.1595 -4.5992,-13.2696 z"
       style="fill:#565757;fill-rule:evenodd"
       id="path233" />
    <path
       d="m 100.0015,43.4654 c -0.4126,-4.1256 2.7389,-7.3779 5.9346,-9.4641 4.2484,-2.7693 6.6852,-2.1539 6.7031,2.5609 0.005,2.7044 -0.2277,5.8477 -2.0407,7.9381 l -2.5251,0.1048 z"
       style="fill:#3a3a3a;fill-rule:evenodd"
       id="path235" />
    <path
       d="m 100.1537,41.0981 c 0.6976,-3.0121 3.2255,-5.4275 5.7824,-7.0968 3.2179,-2.0976 5.3957,-2.2527 6.2711,-0.1565 -2.0103,-2.3836 -8.0345,2.0744 -9.7946,6.9772 -0.8385,0.0618 -1.6083,0.1539 -2.2589,0.2761 z"
       style="fill:#868789;fill-opacity:0;fill-rule:evenodd"
       id="path237" />
    <path
       d="m 82.0185,57.1867 c 4.2364,0.2976 6.228,-1.8989 8.1332,-4.8203 1.3563,-2.0815 2.0137,-3.2346 4.2256,-4.6817 2.5296,-1.6543 6.703,-2.238 10.9451,-2.3151 6.9897,-0.1267 10.8096,0.4859 16.6048,4.9119 -2.575,-3.884 -4.6401,-6.3649 -7.3046,-7.8148 l -0.0289,-0.0706 c -0.5888,-0.3594 -1.3604,-0.6469 -2.2431,-0.8739 -3.0254,-0.9179 -9.2307,-1.0259 -12.3658,-0.3912 -1.0715,0.2064 -2.0421,0.4666 -2.918,0.7756 l -0.0182,0.0059 -5e-4,0.0011 c -10.6305,3.7622 -7.7888,14.3876 -15.238,14.645 z"
       style="fill:#110913;fill-opacity:0;fill-rule:evenodd"
       id="path239" />
    <path
       d="m 123.1169,52.3392 c 23.0615,26.1028 25.3207,66.566 5.4363,104.8136 22.096,-40.1982 22.1383,-90.1834 -9.8479,-108.9403 1.5341,1.2181 3.0172,2.5651 4.4116,4.1267 z"
       style="fill:#565757;fill-rule:evenodd"
       id="path241" />
    <path
       d="m 107.9317,45.3651 c 0.2382,-5.065 2.2269,-7.5762 4.5027,-8.9211 1.9248,-1.1376 6.1387,-2.246 8.2208,-2.4726 3.706,-0.4034 4.8948,1.23 4.0865,7.478 -0.6431,4.9718 -2.1839,6.2109 -5.2571,8.4537 -4.9937,-3.9417 -7.3075,-4.2303 -11.5529,-4.538 z"
       style="fill:#3a3a3a;fill-rule:evenodd"
       id="path243" />
    <path
       d="m 107.9317,45.3651 c 0.2382,-5.065 2.2269,-7.5762 4.5027,-8.9211 1.9248,-1.1376 6.1387,-2.246 8.2208,-2.4726 2.7119,-0.2952 4.0757,0.5008 4.2955,3.3968 -2.6439,-5.3606 -16.1954,0.2898 -14.4814,8.2321 l -0.3303,-0.0408 c -0.6884,-0.0801 -1.4141,-0.137 -2.2073,-0.1944 z"
       style="fill:#868789;fill-opacity:0;fill-rule:evenodd"
       id="path245" />
    <path
       d="m 114.8383,41.0241 c -0.817,1.1492 -1.2476,1.9388 -1.5128,2.7872 -0.2077,0.6629 -0.3877,1.41 -0.4789,2.1078 1.0744,0.247 2.6147,1.2885 3.7735,1.931 7.1091,-5.7587 1.3665,-11.3179 -1.7818,-6.826 z"
       style="fill:#1c161d;fill-rule:evenodd"
       id="path247" />
    <path
       d="m 177.4947,76.1774 -1.3566,-0.8688 -1.9126,2.986 -1.1066,-0.7086 2.3494,-3.6681 2.4633,1.5775 z m 3.8401,3.5929 -0.7531,1.0435 c -0.165,0.2287 -0.343,0.3982 -0.5338,0.5085 -0.1905,0.1103 -0.3719,0.1718 -0.5437,0.1845 -0.172,0.0128 -0.3622,-0.0187 -0.5697,-0.0946 -0.2081,-0.0763 -0.3878,-0.1599 -0.5403,-0.2512 -0.1522,-0.0916 -0.3308,-0.2109 -0.5352,-0.3583 -0.2041,-0.1474 -0.3736,-0.2792 -0.5083,-0.3949 -0.1349,-0.1159 -0.271,-0.2602 -0.4087,-0.4337 -0.1375,-0.1732 -0.2274,-0.3435 -0.2693,-0.5108 -0.0422,-0.1672 -0.0408,-0.3588 0.004,-0.5745 0.0445,-0.2158 0.1493,-0.4377 0.3143,-0.6665 l 0.7532,-1.0434 c 0.1757,-0.2432 0.3634,-0.4241 0.5635,-0.5423 0.2001,-0.1185 0.3881,-0.1842 0.5644,-0.1978 0.176,-0.0134 0.3702,0.0178 0.5822,0.0932 0.2121,0.0751 0.3918,0.1568 0.5392,0.2447 0.1474,0.0878 0.3209,0.2038 0.5204,0.3478 0.1996,0.144 0.364,0.2721 0.4941,0.3844 0.1298,0.1122 0.2639,0.2571 0.4022,0.4348 0.1384,0.1774 0.2288,0.3518 0.2716,0.523 0.0425,0.1715 0.0394,0.3707 -0.0102,0.5981 -0.049,0.227 -0.1613,0.4623 -0.3368,0.7055 z m -1.9082,0.3986 0.9637,-1.3354 c 0.1369,-0.1899 0.1857,-0.36 0.1463,-0.5105 -0.0394,-0.1503 -0.2049,-0.3311 -0.4969,-0.5417 -0.2917,-0.2107 -0.5156,-0.311 -0.6707,-0.3011 -0.155,0.0102 -0.3013,0.11 -0.4382,0.2999 l -0.9638,1.3354 c -0.1335,0.1848 -0.1792,0.3478 -0.1369,0.4896 0.0422,0.1411 0.2117,0.3192 0.5085,0.5335 0.2968,0.214 0.5188,0.3188 0.6664,0.3143 0.1477,-0.0045 0.288,-0.0989 0.4216,-0.284 z m 6.4584,2.7944 -0.868,1.1375 c -0.3931,0.5154 -0.7716,0.7739 -1.135,0.7756 -0.3636,0.002 -0.8033,-0.1936 -1.3183,-0.5868 -0.3243,-0.2475 -0.5463,-0.4584 -0.6659,-0.6327 -0.1199,-0.1746 -0.1364,-0.3682 -0.0493,-0.5811 l -1.4029,1.8391 -1.0448,-0.7971 3.7774,-4.9515 0.9876,0.7534 -0.2619,0.3436 c 0.1783,-0.1055 0.3832,-0.1191 0.6142,-0.0411 0.2308,0.0782 0.5228,0.2517 0.8759,0.5213 0.2957,0.2253 0.5185,0.4331 0.6679,0.6227 0.1497,0.19 0.2313,0.3748 0.2449,0.5548 0.0136,0.18 -0.0136,0.3464 -0.0805,0.4986 -0.0675,0.1525 -0.1811,0.3336 -0.3413,0.5437 z m -2.0163,0.4765 0.9771,-1.2807 c 0.1712,-0.2242 0.2379,-0.398 0.1996,-0.5213 -0.038,-0.1233 -0.2217,-0.3104 -0.5508,-0.5615 -0.2956,-0.2257 -0.5167,-0.3343 -0.6633,-0.3252 -0.1465,0.0091 -0.2922,0.1092 -0.4379,0.2999 l -0.9771,1.2807 c -0.1565,0.2052 -0.2183,0.375 -0.1854,0.5097 0.0331,0.1346 0.2024,0.3186 0.5079,0.5513 0.305,0.233 0.5307,0.3504 0.6764,0.3524 0.1457,0.0017 0.2971,-0.1001 0.4535,-0.3053 z m 6.0228,3.3573 -0.8512,0.9655 c -0.1866,0.2115 -0.3802,0.3628 -0.5806,0.4538 -0.2004,0.0916 -0.3869,0.1353 -0.5593,0.131 -0.1726,-0.004 -0.3585,-0.0539 -0.5578,-0.1497 -0.1996,-0.0961 -0.3705,-0.1967 -0.5134,-0.3027 -0.1426,-0.1057 -0.3084,-0.2418 -0.4975,-0.4085 -0.189,-0.1667 -0.3449,-0.3143 -0.4677,-0.4425 -0.123,-0.1284 -0.2443,-0.2854 -0.3645,-0.4714 -0.1199,-0.1856 -0.1928,-0.3639 -0.2183,-0.5346 -0.0258,-0.1703 -0.006,-0.3611 0.0598,-0.5712 0.0652,-0.2103 0.1914,-0.4212 0.3779,-0.6327 l 0.8512,-0.9654 c 0.1982,-0.2248 0.4028,-0.3867 0.6135,-0.4848 0.2106,-0.0983 0.4042,-0.1457 0.5808,-0.142 0.1766,0.004 0.3668,0.0539 0.5706,0.1494 0.2038,0.0955 0.3744,0.1942 0.5125,0.2959 0.1383,0.1021 0.2999,0.2342 0.4844,0.3969 0.1846,0.1627 0.3357,0.3061 0.4541,0.4306 0.1183,0.1244 0.2379,0.2815 0.3581,0.4719 0.1204,0.19 0.1936,0.3722 0.2194,0.5471 0.0258,0.1746 0.003,0.3728 -0.0681,0.5942 -0.0711,0.2211 -0.2058,0.4444 -0.4039,0.6692 z m -1.9381,0.2112 1.0891,-1.2353 c 0.1548,-0.1758 0.2197,-0.3402 0.1953,-0.4938 -0.0244,-0.1534 -0.1718,-0.3495 -0.4419,-0.5876 -0.2699,-0.2382 -0.4827,-0.3595 -0.6381,-0.3646 -0.1553,-0.0051 -0.3107,0.08 -0.4654,0.2554 l -1.0891,1.2354 c -0.1511,0.1712 -0.2123,0.3288 -0.184,0.4739 0.0284,0.1449 0.1798,0.3382 0.4541,0.5803 0.2744,0.242 0.4856,0.3679 0.6327,0.3781 0.1474,0.0096 0.2963,-0.0706 0.4473,-0.2418 z m 4.3906,0.0145 2.384,2.4519 -2.5421,2.4719 0.2761,0.284 -1.4457,1.4057 -0.8345,-0.8583 0.8648,-0.8408 -1.7566,-1.8068 -0.8649,0.8407 -0.8345,-0.8583 1.4457,-1.4054 0.2256,0.2322 c 0.9233,-0.1778 1.8,-0.6704 2.6306,-1.4777 z m 0.9,2.0874 -0.6213,-0.6389 -0.1678,0.1633 c -0.2668,0.259 -0.6106,0.5184 -1.0324,0.7778 -0.4215,0.2593 -0.8155,0.4371 -1.1818,0.5337 l 1.0418,1.0713 z m 1.8122,7.3142 -0.8308,-0.9827 0.3024,-0.2557 c -0.195,0.0388 -0.3789,0.0139 -0.5524,-0.0751 -0.1735,-0.0893 -0.4153,-0.3169 -0.7251,-0.6835 -0.3796,-0.4493 -0.5624,-0.8053 -0.5488,-1.0681 0.0136,-0.2627 0.2381,-0.5782 0.6735,-0.9462 0.394,-0.333 0.7319,-0.4887 1.0131,-0.4671 0.2815,0.0215 0.5865,0.2268 0.9159,0.6165 l 0.9527,1.1274 0.2268,-0.1917 c 0.2018,-0.1706 0.2959,-0.3308 0.2831,-0.4807 -0.013,-0.1503 -0.1474,-0.3767 -0.403,-0.6792 -0.2401,-0.284 -0.5967,-0.6503 -1.0701,-1.0987 l 0.6324,-0.5343 c 0.3674,0.3415 0.7486,0.746 1.1438,1.2135 0.5187,0.614 0.8044,1.1029 0.8569,1.4672 0.0524,0.3642 -0.1415,0.7322 -0.5814,1.1041 z m 0.004,-1.7237 0.6463,-0.5462 -0.5808,-0.6874 c -0.186,-0.22 -0.3274,-0.336 -0.4244,-0.3484 -0.0969,-0.0125 -0.2554,0.0742 -0.4754,0.2602 -0.2154,0.182 -0.3217,0.3209 -0.3194,0.417 0.003,0.0958 0.1029,0.2608 0.3004,0.4946 0.097,0.1145 0.1696,0.1982 0.2183,0.2512 0.0488,0.0533 0.1049,0.1077 0.1684,0.1644 0.0632,0.0564 0.1156,0.0884 0.1576,0.0964 0.0422,0.0076 0.0893,0.0053 0.1414,-0.0074 0.0522,-0.0128 0.108,-0.0442 0.1676,-0.0944 z"
       style="fill:#ffffff;fill-rule:evenodd"
       id="path249" />
    <path
       d="m 160.863,77.6628 -2.2535,-0.8853 -2.3939,6.0931 -1.7668,-0.6942 2.3936,-6.0931 -2.2649,-0.8898 0.4938,-1.2569 6.2855,2.4693 z m 0.377,7.2589 -1.6458,-0.9453 3.9331,-6.8477 1.6458,0.9454 -1.5755,2.7431 1.0551,0.606 0.4424,-0.7699 c 0.2022,-0.3518 0.4587,-0.6159 0.7705,-0.7925 0.3118,-0.1764 0.6191,-0.271 0.9213,-0.2846 0.3027,-0.0134 0.6372,0.0266 1.0043,0.1207 0.3671,0.0938 0.6794,0.201 0.938,0.3212 0.2585,0.1205 0.5247,0.2591 0.7991,0.417 0.2811,0.1615 0.5405,0.3245 0.7781,0.4889 0.2378,0.1647 0.4895,0.3819 0.7557,0.6517 0.2662,0.2696 0.4711,0.5394 0.6154,0.8096 0.1443,0.2698 0.218,0.5811 0.2211,0.934 0.003,0.3526 -0.0981,0.7081 -0.3042,1.067 l -1.7209,2.9962 c -0.2222,0.3869 -0.5142,0.659 -0.8756,0.8164 -0.3614,0.157 -0.754,0.2052 -1.1778,0.1442 -0.4232,-0.0606 -0.8235,-0.1618 -1.2005,-0.3035 -0.377,-0.1415 -0.7591,-0.3238 -1.1457,-0.546 -0.366,-0.21 -0.6957,-0.43 -0.9896,-0.6593 -0.2937,-0.2296 -0.5854,-0.5117 -0.8748,-0.8462 -0.2894,-0.335 -0.4606,-0.7044 -0.5136,-1.1092 -0.053,-0.4045 0.0397,-0.8141 0.2781,-1.2294 l 0.606,-1.055 -1.0551,-0.6061 z m 6.9874,1.5154 1.7272,-3.0067 c 0.1899,-0.3308 0.1879,-0.6409 -0.006,-0.9297 -0.1938,-0.2892 -0.5547,-0.5854 -1.0825,-0.8884 -0.5343,-0.307 -0.9729,-0.4723 -1.3147,-0.4958 -0.3422,-0.0232 -0.61,0.1338 -0.8039,0.4714 l -1.7272,3.007 c -0.1012,0.176 -0.1391,0.3484 -0.1145,0.5168 0.025,0.1686 0.1091,0.3268 0.2534,0.475 0.144,0.1486 0.29,0.2767 0.4383,0.3853 0.1482,0.1085 0.3381,0.2296 0.5703,0.3628 0.2322,0.1332 0.4326,0.2367 0.6009,0.3098 0.1684,0.0734 0.351,0.1338 0.5483,0.1814 0.197,0.048 0.3727,0.0392 0.5272,-0.0266 0.1545,-0.0655 0.2826,-0.1862 0.3835,-0.3623 z m 9.08,9.2206 -1.3459,-1.0642 3.6224,-4.5813 -0.0287,-0.0227 -5.1876,3.3438 -1.1931,-0.9434 2.0094,-5.8567 -0.0382,-0.0303 -3.6224,4.5814 -1.3649,-1.0792 4.898,-6.1943 2.1186,1.6753 -1.9746,5.6361 5.0099,-3.2363 1.9948,1.5775 z m 5.6917,5.4082 -4.4499,-4.2375 5.4457,-5.7186 4.3619,4.1536 -0.9314,0.9779 -2.9872,-2.8445 -1.2504,1.313 2.6964,2.5676 -0.9315,0.9779 -2.6963,-2.5676 -1.4012,1.4715 3.0753,2.9285 z m 5.3322,6.5415 -1.1727,-1.4927 2.66,-2.0894 -2.0741,-2.6411 -2.6603,2.0894 -1.1724,-1.4927 6.2102,-4.8778 1.1724,1.4927 -2.4877,1.9542 2.0744,2.6407 2.4877,-1.9539 1.1726,1.493 z m 2.1433,3.0739 -1.1047,-1.7201 6.6444,-4.2672 0.9797,1.5256 -4.6378,2.9786 6.571,0.0315 1.1047,1.7197 -6.6447,4.2673 -0.9797,-1.5253 4.7095,-3.0246 z"
       style="fill:#ffffff;fill-rule:evenodd"
       id="path251" />
  </g>
</svg>
