<svg version="1.2" xmlns="http://www.w3.org/2000/svg" viewBox="0 0 1049 864" width="1049" height="864">
	<title>dep_smp-svg</title>
	<style>
		.s0 { fill: none } 
		.s1 { fill: #0c2e66 } 
		.s2 { fill: #2d9a2b } 
		.s3 { fill: #0a2d68 } 
		.s4 { fill: #ce031c } 
		.s5 { fill: #ffffff } 
	</style>
	<g id="Layer">
		<path id="canvas_background" class="s0" d="m-1-163h1051v1028h-1051z"/>
	</g>
	<g id="Layer">
		<path id="path195" fill-rule="evenodd" class="s1" d="m41.9 186.6l2.3-3.9 16 9.2-5.3 9.2-7-3.9-9.7 17 7 4-5.4 9.3-16-9.1 2.2-3.9q-2.5-4.8-10.1-9.1l-15.9-9.1 14.5-25.3zm-10.4 18.1l5.1-8.9-18.8-10.7-3.9 6.8 7.3 4.2q7.3 4.2 10.3 8.6z"/>
		<path id="path197" fill-rule="evenodd" class="s1" d="m57.1 172l12.2-10.8 6.7 7.5-20.2 18-27.9-31.4 19.9-17.7 6.7 7.4-11.9 10.7 3.8 4.3 10.8-9.6 6.6 7.4-10.8 9.6z"/>
		<path id="path199" fill-rule="evenodd" class="s1" d="m89.2 114.5l18.8 37.6-9.6 4.8-14.1-28.3-9.8 4.9 14.2 28.2-9.6 4.9-18.8-37.6z"/>
		<path id="path201" fill-rule="evenodd" class="s1" d="m138.3 144l-3.2-5.4-13.6 3.4-0.3 6.3-11.3 2.8 3.2-44.1 12.7-3.2 23.7 37.4zm-16.4-11.7l8.3-2.1-7.7-12.8z"/>
		<path id="path203" fill-rule="evenodd" class="s1" d="m165.9 97.8q6.3-0.6 11 3.1 4.7 3.7 5.3 10.1 0.6 6.4-3.4 10.9-3.9 4.5-10.2 5.1l-5.6 0.6 1.2 12.5-10.7 1-3.9-41.8zm1.8 19.1q1.8-0.2 2.9-1.5 1.1-1.4 0.9-3.4-0.2-1.9-1.5-3.1-1.3-1.1-3.1-0.9l-5.6 0.5 0.8 8.9z"/>
		<path id="path205" fill-rule="evenodd" class="s1" d="m216.6 96.4v10.4l-10.4-0.1-0.1 31.7-10.8-0.1 0.1-31.6h-10.3v-10.4z"/>
		<path id="path207" fill-rule="evenodd" class="s1" d="m243.2 140.6l-1.3-6.2-13.9-1.2-2.3 5.9-11.6-0.9 17.3-40.8 13 1.1 10.4 43zm-11.7-16.3l8.4 0.7-3.1-14.6z"/>
		<path id="path209" fill-rule="evenodd" class="s1" d="m307.4 107.7l-7 41.4-10.5-1.8 3.7-22.3-12.8 15-1.1-0.2-7.2-18.3-3.8 22.3-10.5-1.8 6.9-41.4 10.6 1.7 7.6 19.5 13.6-15.9z"/>
		<path id="path211" fill-rule="evenodd" class="s1" d="m319 143.2l15.8 3.7-2.3 9.8-26.3-6.1 9.6-40.9 26 6-2.3 9.8-15.5-3.6-1.4 5.6 14.1 3.3-2.2 9.7-14.1-3.3z"/>
		<path id="path213" fill-rule="evenodd" class="s1" d="m371.4 123.9l10.3 2.9-11.5 40.4-10.3-2.9 4.4-15.5-11.4-3.3-4.4 15.6-10.3-3 11.5-40.4 10.3 3-4.2 14.9 11.3 3.2z"/>
		<path id="path215" fill-rule="evenodd" class="s1" d="m416.6 138.3l-3.2 9.9-9.9-3.3-9.9 30-10.2-3.4 9.9-30-9.8-3.2 3.2-9.9z"/>
		<path id="path217" fill-rule="evenodd" class="s1" d="m830.5 388.2l-28 31.4-8-7.2 21.1-23.6-8.2-7.2-21 23.6-8.1-7.2 28-31.3z"/>
		<path id="path219" fill-rule="evenodd" class="s1" d="m836.8 444.9q-9 0.1-15.6-6.4-6.7-6.4-6.9-15.4-0.2-9 6.3-15.6 6.4-6.7 15.4-6.8 9-0.1 15.6 6.4 6.7 6.4 6.9 15.4 0.1 9-6.3 15.6-6.4 6.7-15.4 6.8zm-11.9-21.8q0.1 4.5 3.6 7.9 3.5 3.4 8 3.3 4.6 0 8-3.6 3.5-3.6 3.4-8.1-0.1-4.6-3.6-8-3.5-3.4-8-3.3-4.6 0-8.1 3.6-3.4 3.6-3.3 8.2z"/>
		<path id="path221" fill-rule="evenodd" class="s1" d="m863.1 481.8q-6.4-7-6-15.9 0.5-8.8 7.4-15.1 6.9-6.3 15.7-5.9 8.9 0.4 15.2 7.4 3.9 4.2 5.2 9.6 1.2 5.4-0.3 10.5l-10.2-3.3q0.8-2.3 0.2-5-0.6-2.6-2.6-4.8-3.4-3.7-7.8-3.8-4.4-0.2-8.2 3.2-3.8 3.5-4 7.9-0.3 4.4 3.1 8.1 2 2.2 4.5 3.1 2.6 0.8 5.1 0.2l2.3 10.5q-5.3 1.1-10.5-0.7-5.3-1.8-9.1-6z"/>
		<path id="path223" fill-rule="evenodd" class="s1" d="m931.1 495.5l-32.4 26.7-6.8-8.3 24.4-20.1-7-8.4-24.4 20.1-6.8-8.3 32.4-26.7z"/>
		<path id="path225" fill-rule="evenodd" class="s1" d="m928.1 552.8q-8.9-1.5-14.3-8.9-5.5-7.5-4.1-16.4 1.4-8.9 8.8-14.3 7.5-5.5 16.4-4 8.9 1.4 14.3 8.9 5.4 7.5 4.1 16.4-1.4 8.9-8.9 14.3-7.4 5.4-16.3 4zm-8-23.6q-0.7 4.6 2.2 8.5 2.8 3.9 7.3 4.7 4.5 0.7 8.6-2.2 4-3 4.7-7.5 0.7-4.5-2.2-8.4-2.9-3.9-7.4-4.7-4.5-0.7-8.5 2.2-4 2.9-4.7 7.4z"/>
		<path id="path227" fill-rule="evenodd" class="s1" d="m973.9 556.4q3.4 5.4 2.2 11.2-1.2 5.9-6.7 9.3-5.4 3.4-11.2 1.9-5.8-1.4-9.2-6.8l-3-4.8-10.6 6.7-5.7-9.1 35.6-22.3zm-16.3 10.2q0.9 1.6 2.7 1.9 1.7 0.4 3.4-0.6 1.6-1.1 2-2.8 0.4-1.7-0.5-3.2l-3-4.7-7.6 4.7z"/>
		<path id="path229" fill-rule="evenodd" class="s1" d="m998.4 599.8l-9.2 4.9-4.8-9.2-27.9 14.9-5.1-9.4 27.9-14.9-4.9-9.2 9.2-4.9z"/>
		<path id="path231" fill-rule="evenodd" class="s1" d="m1010.4 627.1l4.3 10.1-31.5 0.2q-7.4 0.1-12.2-3-4.7-3-7.1-9.4l9.2-3.9q1.8 5.4 6.1 6.5l21.2-24 4.3 10.2-12.7 13.8z"/>
		<path id="path233" fill-rule="evenodd" class="s1" d="m14.3 343.3l19.6-7.9-25.2-5.9-3.1-7.7 39-15.7 4 9.9-19.6 7.9 25.1 5.9 3.1 7.7-38.9 15.7z"/>
		<path id="path235" fill-rule="evenodd" class="s1" d="m87.4 389.9l-35.9 21.8-5.5-9.1 19.3-11.7h-19.7l-0.5-0.9 9-17.4-19.2 11.7-5.6-9.2 35.9-21.8 5.6 9.2-9.8 18.4 20.9-0.1z"/>
		<path id="path237" fill-rule="evenodd" class="s1" d="m82.6 444.9q-8.9-1.4-14.4-8.8-5.5-7.4-4.2-16.3 1.2-8.9 8.6-14.4 7.4-5.6 16.3-4.2 8.9 1.3 14.4 8.7 5.6 7.5 4.3 16.4-1.3 8.9-8.7 14.4-7.4 5.5-16.3 4.2zm-8.2-23.5q-0.7 4.5 2.2 8.4 2.9 3.9 7.4 4.6 4.5 0.7 8.5-2.3 4-3 4.7-7.5 0.6-4.5-2.3-8.4-2.9-3.9-7.4-4.6-4.5-0.7-8.5 2.3-4 3-4.6 7.5z"/>
		<path id="path239" fill-rule="evenodd" class="s1" d="m83.7 455.1l7.6-6.5q1.9 2.8 3.9 3.1 2.1 0.2 5.5-2.7l19.1-16.3 19.4 22.8-32 27.2-6.9-8.2 24-20.5-5.4-6.4-11.6 9.9q-3.9 3.4-7.6 4.6-3.7 1.2-6.6 0.3-3-0.9-5.2-2.7-2.3-1.8-4.2-4.6z"/>
		<path id="path241" fill-rule="evenodd" class="s1" d="m141.3 511.1q-8.9-0.3-15.3-7-6.4-6.6-6.2-15.6 0.1-9 6.8-15.4 6.7-6.4 15.7-6.1 9 0.2 15.4 6.9 6.4 6.7 6.2 15.7-0.2 9-6.9 15.4-6.7 6.3-15.7 6.1zm-11-22.3q-0.1 4.6 3.3 8.1 3.3 3.5 7.9 3.6 4.5 0.2 8.2-3.3 3.6-3.4 3.6-8 0.1-4.5-3.2-8-3.4-3.6-7.9-3.7-4.6-0.1-8.2 3.3-3.6 3.5-3.7 8z"/>
		<path id="path243" fill-rule="evenodd" class="s1" d="m177.6 539.1l3.3 3.1-12.7 13.4-7.7-7.4 5.5-5.8-14.3-13.5-5.5 5.8-7.8-7.4 12.7-13.3 3.2 3q5.3-1.4 11.3-7.7l12.6-13.3 21.2 20.1zm-15.2-14.4l7.4 7.1 14.9-15.7-5.7-5.4-5.8 6.1q-5.8 6.1-10.8 7.9z"/>
		<path id="path245" fill-rule="evenodd" class="s1" d="m192.3 552.5l12.2 10.8-6.6 7.5-20.3-17.8 27.7-31.5 20.1 17.6-6.7 7.5-12-10.5-3.8 4.3 10.9 9.6-6.6 7.4-10.8-9.5z"/>
		<path id="path247" fill-rule="evenodd" class="s1" d="m242.7 607.4l-9.3-7.5 3.6-20.6-11.5 14.2-8.4-6.7 11.5-14.2-19.4 7.8-9.3-7.5 23.2-8.6 3.6-23.7 9.3 7.4-3.9 20.3 11.4-14.2 8.4 6.7-11.4 14.2 18.8-8.1 9.3 7.4-22.4 8.7z"/>
		<path id="path249" fill-rule="evenodd" class="s1" d="m289.4 589.6l8.6 6.3-24.9 33.8-8.6-6.4 9.6-13-9.5-7-9.6 13-8.7-6.4 25-33.8 8.6 6.4-9.2 12.5 9.5 7.1z"/>
		<path id="path251" fill-rule="evenodd" class="s1" d="m311 649.3q-8.9 1.6-16.5-3.6-7.6-5.3-9.3-14.1-1.7-8.8 3.5-16.4 5.2-7.7 14.1-9.3 8.8-1.6 16.5 3.6 7.6 5.3 9.3 14.1 1.7 8.8-3.5 16.4-5.3 7.7-14.1 9.3zm-15.4-19.5q0.8 4.5 4.8 7.2 4.1 2.8 8.5 1.9 4.5-0.8 7.3-4.9 2.9-4.1 2-8.6-0.9-4.5-4.9-7.2-4-2.8-8.5-1.9-4.5 0.8-7.3 4.9-2.8 4.1-1.9 8.6z"/>
		<path id="path253" fill-rule="evenodd" class="s1" d="m363.8 635.9l4.5-7.1-16.4-10.4-4.5 7.1zm-18.1 42.1l22.5-35.5-7-4.4-23.8 9.9 11.3-17.8-9.1-5.8-22.5 35.5 7.1 4.4 23.8-9.9-11.3 17.9z"/>
		<path id="path255" fill-rule="evenodd" class="s1" d="m412.1 668.3l-21 36.4-9.3-5.4 15.9-27.3-9.5-5.5-15.8 27.4-9.3-5.4 21-36.4z"/>
		<path id="path257" fill-rule="evenodd" class="s1" d="m430.9 720q-8.6 2.6-16.7-1.8-8.2-4.3-10.9-12.9-2.6-8.6 1.7-16.8 4.4-8.1 13-10.7 8.6-2.6 16.7 1.8 8.2 4.3 10.9 12.9 2.6 8.6-1.7 16.7-4.4 8.2-13 10.8zm-17.4-17.7q1.3 4.4 5.6 6.6 4.3 2.3 8.6 1 4.4-1.3 6.8-5.7 2.3-4.4 1-8.7-1.4-4.4-5.7-6.7-4.3-2.3-8.6-1-4.4 1.4-6.8 5.7-2.3 4.4-0.9 8.8z"/>
		<path id="path259" fill-rule="evenodd" class="s1" d="m434.4 727.9l4.4-9q2.8 1.9 4.8 1.3 2-0.6 4-4.6l11-22.6 26.9 13.2-18.5 37.7-9.6-4.7 13.9-28.4-7.6-3.7-6.7 13.7q-2.2 4.6-5.1 7.2-2.9 2.5-6 2.9-3 0.4-5.8-0.4-2.8-0.8-5.7-2.6z"/>
		<path id="path261" fill-rule="evenodd" class="s1" d="m494.9 756.5l8.6-19.3-22.1 13.3-7.6-3.4 17.1-38.4 9.8 4.4-8.6 19.3 22.1-13.3 7.6 3.4-17.1 38.4z"/>
		<path id="path263" fill-rule="evenodd" class="s1" d="m554.1 735.7l-3.9 9.6-9.6-3.9-11.9 29.3-10-4.1 11.9-29.2-9.6-4 3.9-9.6z"/>
		<path id="path265" fill-rule="evenodd" class="s1" d="m563.4 783.9l7.3-19.8-21.2 14.7-7.8-2.9 14.5-39.4 10 3.7-7.2 19.8 21.2-14.7 7.7 2.9-14.4 39.4z"/>
		<path id="path267" fill-rule="evenodd" class="s1" d="m613.9 800.7l-11.4-3.7-5.8-21.5-5.7 17.9-10.2-3.3 12.8-40 10.2 3.3-5.4 16.8 16.3-13.3 11.5 3.6-19 15.4z"/>
		<path id="path269" fill-rule="evenodd" class="s1" d="m630.9 794.9l15.7 4.3-2.7 9.7-26-7.1 11.2-40.5 25.7 7.1-2.7 9.6-15.3-4.2-1.6 5.6 13.9 3.8-2.6 9.6-13.9-3.9z"/>
		<path id="path271" fill-rule="evenodd" class="s1" d="m702.8 779l-2.1 10.2-10.2-2.1-6.4 30.9-10.5-2.1 6.4-31-10.2-2.1 2.2-10.2z"/>
		<path id="path273" fill-rule="evenodd" class="s1" d="m743.4 783.9q9.1 1.2 14.7 8.3 5.5 7 4.4 16.2-1.1 9.1-8.3 14.6-7.2 5.5-16.3 4.4-7.8-1-13.1-6.5-5.2-5.6-5.7-13.3l-5.2-0.7-2 16.4-10.6-1.4 5.2-41.7 10.6 1.4-1.9 15.1 5.4 0.7q2.7-6.9 9-10.6 6.2-3.8 13.8-2.9zm-11.8 28.9q2.8 3.6 7.6 4.2 4.9 0.6 8.5-2.2 3.6-2.8 4.2-7.7 0.6-5-2.2-8.5-2.8-3.6-7.6-4.2-4.9-0.6-8.5 2.1-3.6 2.8-4.2 7.8-0.6 4.9 2.2 8.5z"/>
		<path id="path275" fill-rule="evenodd" class="s1" d="m811 787.4v42h-10.7v-22.6l-10.2 16.9h-1.1l-10.1-16.8v22.5h-10.8v-42h10.8l10.7 18 10.7-18z"/>
		<path id="path277" fill-rule="evenodd" class="s1" d="m831.5 816.9l16.2-2.1 1.3 10-26.8 3.5-5.5-41.7 26.5-3.4 1.3 9.9-15.8 2.1 0.7 5.7 14.4-1.8 1.3 9.8-14.4 1.9z"/>
		<path id="path279" fill-rule="evenodd" class="s1" d="m867.6 776.4l10.2-3.2 12.3 40.2-10.2 3.1-4.7-15.4-11.3 3.5 4.7 15.4-10.3 3.1-12.3-40.1 10.3-3.2 4.6 14.9 11.3-3.5z"/>
		<path id="path281" fill-rule="evenodd" class="s1" d="m922.8 794.7l-11.8-17.5-0.5 25.8-6.9 4.6-23.5-34.8 8.9-6 11.8 17.5 0.5-25.8 6.8-4.6 23.5 34.8z"/>
		<path id="path283" fill-rule="evenodd" class="s2" d="m739.5 157.6h-25.8l-244.2 422.9c-11.5-5.8-23-12.1-34.5-18.7-0.1-0.1-23.1-13.7-33.9-20.8l221.3-383.4h-25.1l140.3-120.5z"/>
		<path id="path285" fill-rule="evenodd" class="s3" d="m409.3 252.2l30.3-52.4h-25.2l140.3-120.5 1.9 120.5h-25.8l-177.4 307.2q-16.2-12.7-30.7-25.7c-10.5-9.4-20.3-18.8-29.3-28.3-61.7-64.4-89.2-129.5-65-171.4 10.9-19 31.4-31.1 58.5-36.8-6.1 4.9-11.2 10.7-15.1 17.4-21 36.4-1 91.1 47.2 146.4l77.7-134.6c-53.3-13.3-92.9-11-105 10-2.1 3.5-3.3 7.4-3.7 11.7-1.4-10.3-0.1-19.5 4.4-27.3 14.4-25 58.7-29.5 116.9-16.2z"/>
		<path id="path287" fill-rule="evenodd" class="s4" d="m713.6 426.8l-0.1 0.1c42 44.6 61.1 86 46.4 111.5-4.4 7.6-11.5 13.3-20.9 17.2q5-3.7 7.9-8.8c12.4-21.3-6.3-57.7-46-98.1l-60.7 105.2-1.2 2.1-16.6 28.8c73.3 15 131.9 5.2 153.2-31.7 4-6.9 6.5-14.4 7.6-22.5 9 26.7 8.8 50.8-2.3 70-24.5 42.4-96 50.8-184.2 28.6-12.7-3.2-25.7-7-39-11.5-12.3-4.1-24.8-8.7-37.5-13.9l216.7-375.5h-25.2l140.4-120.4 1.9 120.4h-25.8z"/>
		<path id="path289" fill-rule="evenodd" class="s5" d="m346.4 421.4l16.4 9.4-1.3 2.2-12.8-7.4 5.8 10.5-0.1 0.3-12 0.2 12.8 7.4-1.3 2.2-16.4-9.5 1.5-2.5 11.6-0.2-5.6-10.2z"/>
		<path id="path291" fill-rule="evenodd" class="s5" d="m370.5 412.4q1 3.9-1 7.5-2.1 3.5-6 4.6-3.9 1-7.4-1-3.5-2.1-4.6-6-1-3.9 1-7.4 2.1-3.6 5.9-4.6 3.9-1 7.5 1 3.5 2 4.6 5.9zm-7.6 9.7q2.9-0.7 4.5-3.4 1.5-2.7 0.7-5.6-0.8-2.9-3.5-4.4-2.7-1.6-5.6-0.8-2.8 0.7-4.4 3.4-1.5 2.7-0.8 5.6 0.8 2.8 3.5 4.4 2.7 1.6 5.6 0.8z"/>
		<path id="path293" fill-rule="evenodd" class="s5" d="m374.2 411l-2-1.1q1.2-1.5 0.5-3-0.6-1.4-3.7-3.2l-9.3-5.4 6.2-10.8 16.4 9.5-1.2 2.1-14.4-8.2-3.7 6.4 7.2 4.2q2.2 1.3 3.5 2.5 1.2 1.3 1.6 2.5 0.3 1.2 0 2.3-0.3 1-1.1 2.2z"/>
		<path id="path295" fill-rule="evenodd" class="s5" d="m390 378.6q1.1 3.9-1 7.4-2 3.6-5.9 4.6-3.9 1-7.4-1-3.6-2.1-4.6-5.9-1.1-3.9 1-7.5 2-3.5 5.9-4.6 3.9-1 7.4 1 3.6 2.1 4.6 6zm-7.5 9.6q2.9-0.7 4.4-3.4 1.6-2.7 0.8-5.6-0.8-2.8-3.5-4.4-2.7-1.6-5.6-0.8-2.9 0.7-4.4 3.4-1.6 2.7-0.8 5.6 0.8 2.9 3.5 4.4 2.7 1.6 5.6 0.8z"/>
		<path id="path297" fill-rule="evenodd" class="s5" d="m399.6 362.3l1-1.8 5.2 3-1.3 2.2-3.1-1.8-6.2 10.8 3.1 1.8-1.2 2.2-5.2-3 0.8-1.4q-1-2.7-4.9-4.9l-8.6-4.9 6.1-10.5zm-5.5 9.5l4.2-7.3-12.2-7.1-3.6 6.1 6.6 3.8q3.7 2.1 5 4.5z"/>
		<path id="path299" fill-rule="evenodd" class="s5" d="m403.3 355.8l4.4-7.6 2.1 1.2-5.7 9.8-16.4-9.5 5.6-9.6 2.1 1.2-4.3 7.5 5 2.9 4-6.9 2 1.1-4 6.9zm-12.9-15.1q0.2 0.6-0.1 1.1-0.3 0.5-0.9 0.7-0.5 0.1-1.1-0.2-0.5-0.3-0.6-0.8-0.2-0.6 0.1-1.1 0.3-0.5 0.9-0.7 0.5-0.1 1.1 0.2 0.5 0.3 0.6 0.8zm-2.5 4.5q0.1 0.5-0.2 1-0.3 0.6-0.8 0.7-0.6 0.2-1.1-0.1-0.5-0.3-0.7-0.9-0.1-0.6 0.2-1.1 0.3-0.5 0.8-0.6 0.6-0.2 1.1 0.1 0.5 0.3 0.7 0.9z"/>
		<path id="path301" fill-rule="evenodd" class="s5" d="m421.7 328.7l-1.4 2.4-11.4 1.7 7.8 4.5-1.2 2.2-7.9-4.6 4.3 10.8-1.4 2.4-4.6-11.3-11.6 1.7 1.4-2.5 10.9-1.6-7.5-4.4 1.3-2.1 7.5 4.3-4.1-10.3 1.4-2.5 4.4 11z"/>
		<path id="path303" fill-rule="evenodd" class="s5" d="m412.5 306.9l1.2-2.1 16.4 9.4-1.3 2.2-7.3-4.3-4.6 8 7.3 4.2-1.2 2.2-16.4-9.4 1.3-2.2 6.9 4 4.6-7.9z"/>
		<path id="path305" fill-rule="evenodd" class="s5" d="m438.3 299.9l-4.4-0.7-4.3 7.3 2.9 3.5-1.3 2.3-12.8-15.6 1.4-2.4 19.9 3.3zm-10.3 4.7l3.4-5.9-9.8-1.7z"/>
		<path id="path307" fill-rule="evenodd" class="s5" d="m430.8 275.2l16.4 9.4-1.3 2.1-6.2-3.6-1.9 3.3 3.8 7.8-1.4 2.5-3.9-8.1q-1.4 1.5-3.4 1.8-2 0.3-3.7-0.7-2.1-1.2-2.7-3.6-0.7-2.3 0.5-4.4zm4.4 11.2l2.5-4.4-6.1-3.5-2.5 4.4q-0.7 1.2-0.3 2.6 0.4 1.4 1.6 2.1 1.3 0.7 2.7 0.4 1.4-0.4 2.1-1.6z"/>
		<path id="path309" fill-rule="evenodd" class="s5" d="m443.1 253.9l16.3 9.5-1.2 2.1-14.3-8.2-4.4 7.5 14.3 8.3-1.2 2.1-16.4-9.4z"/>
		<path id="path311" fill-rule="evenodd" class="s5" d="m467.2 245q1 3.9-1 7.4-2.1 3.6-6 4.6-3.9 1-7.4-1-3.6-2-4.6-5.9-1.1-3.9 1-7.5 2-3.5 5.9-4.6 3.9-1 7.5 1.1 3.5 2 4.6 5.9zm-7.6 9.7q2.9-0.8 4.4-3.5 1.6-2.7 0.8-5.5-0.8-2.9-3.5-4.5-2.7-1.5-5.6-0.8-2.9 0.8-4.4 3.5-1.6 2.6-0.8 5.5 0.8 2.9 3.5 4.5 2.7 1.5 5.6 0.8z"/>
		<path id="path313" fill-rule="evenodd" class="s5" d="m470.9 243.5l-2-1.1q1.2-1.5 0.5-3-0.6-1.4-3.7-3.2l-9.3-5.4 6.2-10.8 16.4 9.5-1.3 2.2-14.3-8.3-3.7 6.5 7.2 4.1q2.2 1.3 3.5 2.6 1.2 1.2 1.5 2.4 0.4 1.2 0.1 2.3-0.3 1.1-1.1 2.2z"/>
		<path id="path315" fill-rule="evenodd" class="s5" d="m486.9 215.8l-12.2-7 7.3 15.4-1 1.8-16.3-9.5 1.2-2.1 12.2 7-7.3-15.5 1-1.7 16.4 9.4z"/>
		<path id="path317" fill-rule="evenodd" class="s5" d="m479.9 190.2l2 1.2-2.8 4.8 14.3 8.3-1.2 2.1-14.3-8.2-2.8 4.8-2-1.2z"/>
		<path id="path319" fill-rule="evenodd" class="s5" d="m503.4 187.3l-12.3-7 7.4 15.4-1 1.8-16.4-9.5 1.3-2.1 12.2 7-7.4-15.5 1-1.7 16.4 9.4z"/>
		<path id="path321" fill-rule="evenodd" class="s5" d="m513.5 169.7l-1.5 2.7-12 2.5 7.9 4.5-1.3 2.2-16.3-9.4 1.2-2.2 7.4 4.3-3.4-11.1 1.5-2.7 3.8 11.8z"/>
		<path id="path323" fill-rule="evenodd" class="s5" d="m521 156.7l-4.4-0.8-4.3 7.4 2.9 3.4-1.3 2.3-12.8-15.5 1.4-2.5 19.9 3.4zm-10.3 4.6l3.4-5.8-9.8-1.8z"/>
		<path id="path325" fill-rule="evenodd" class="s5" d="m457.2 511.2q3-1.1 5.8 0.5 2.9 1.7 3.3 4.8 0.5 3-1.3 6.7l1.8 1.1-1.2 2.1-1.8-1.1q-2.3 3.4-5.2 4.6-2.9 1.1-5.8-0.6-2.8-1.6-3.3-4.7-0.4-3.1 1.3-6.7l-1.8-1.1 1.2-2.1 1.9 1.1q2.2-3.4 5.1-4.6zm-3.1 16q2 1.2 4 0.3 1.9-0.8 3.6-3.3l-8.9-5.2q-1.3 2.8-1 4.9 0.2 2.1 2.3 3.3zm8.9-5.1q1.3-2.8 1.1-4.9-0.3-2.1-2.3-3.3-2.1-1.2-4.1-0.4-1.9 0.9-3.6 3.4z"/>
		<path id="path327" fill-rule="evenodd" class="s5" d="m478.5 503.9l-12.3-7.1 7.4 15.5-1 1.7-16.4-9.4 1.3-2.2 12.2 7.1-7.4-15.5 1-1.7 16.4 9.4z"/>
		<path id="path329" fill-rule="evenodd" class="s5" d="m477.8 485.4q1.3-0.9 2.7-1 1.4-0.1 2.8 0.7 2.1 1.2 2.6 3.5 0.4 2.4-1.1 5-1.4 2.3-3.3 3.2-1.8 0.8-3.8 0.4v-2.4q3.2 0.8 5-2.4 1-1.7 0.8-3.1-0.2-1.4-1.5-2.1-1.2-0.7-2.5-0.3-1.3 0.4-2.2 2l-1.1 1.9-2-1.1 0.8-1.4q0.9-1.5 0.6-2.8-0.2-1.3-1.4-2-1.1-0.7-2.4-0.3-1.2 0.4-2 1.9-1.6 2.7 0.3 5l-2.1 1.2q-2.6-3.4-0.3-7.4 1.4-2.3 3.6-3 2.1-0.7 4.1 0.4 2.4 1.4 2.4 4.1z"/>
		<path id="path331" fill-rule="evenodd" class="s5" d="m495.2 474.9l-12.2-7.1 7.3 15.5-1 1.8-16.4-9.5 1.3-2.2 12.2 7.1-7.3-15.5 1-1.7 16.3 9.4z"/>
		<path id="path333" fill-rule="evenodd" class="s5" d="m487.3 450.8l1.2-2.2 16.4 9.4-1.2 2.2-6.6-3.8q-0.2 2.5-1.5 4.6-1.3 2.3-3.5 3-2.2 0.7-4.4-0.5l-5.8-3.4 1.2-2.2 5.7 3.3q1.4 0.8 2.7 0.4 1.2-0.4 2.1-1.9 1.2-2.1 1.4-4.5z"/>
		<path id="path335" fill-rule="evenodd" class="s5" d="m506.1 451.2l4.4-7.6 2.1 1.2-5.7 9.7-16.3-9.4 5.5-9.7 2.1 1.2-4.3 7.5 5 2.9 4-6.9 2 1.2-4 6.9z"/>
		<path id="path337" fill-rule="evenodd" class="s5" d="m518.8 434.7q-2.2 3.8-6 4.8-3.9 1-7.5-1.1-3.5-2.1-4.6-5.9-1.1-3.8 1.1-7.6 1.3-2.2 3.5-3.5 2.1-1.2 4.5-1.2l0.1 2.5q-1.8-0.1-3.4 0.8-1.6 1-2.6 2.7-1.6 2.8-0.8 5.6 0.7 2.9 3.5 4.4 2.7 1.6 5.6 0.9 2.8-0.8 4.4-3.6 1-1.7 1-3.5 0-1.9-0.9-3.4l2.2-1.2q1.2 2 1.2 4.6 0 2.5-1.3 4.7z"/>
		<path id="path339" fill-rule="evenodd" class="s5" d="m530.8 413.2l-1.5 2.6-11.9 2.5 7.8 4.6-1.2 2.2-16.4-9.5 1.2-2.2 7.4 4.3-3.4-11.1 1.5-2.7 3.8 11.8z"/>
		<path id="path341" fill-rule="evenodd" class="s5" d="m538.4 400.1l-4.5-0.8-4.2 7.4 2.9 3.4-1.4 2.4-12.8-15.6 1.4-2.4 19.9 3.3zm-10.3 4.7l3.4-5.9-9.8-1.7z"/>
		<path id="path343" fill-rule="evenodd" class="s5" d="m530.8 375.3l16.4 9.5-1.2 2.1-6.3-3.6-1.9 3.3 3.9 7.8-1.5 2.5-3.9-8.1q-1.3 1.5-3.3 1.8-2.1 0.3-3.8-0.7-2.1-1.2-2.7-3.6-0.6-2.3 0.6-4.4zm4.3 11.2l2.6-4.4-6.1-3.5-2.6 4.4q-0.7 1.2-0.3 2.6 0.4 1.3 1.7 2.1 1.2 0.7 2.6 0.4 1.4-0.4 2.1-1.6z"/>
		<path id="path345" fill-rule="evenodd" class="s5" d="m559.5 363.5l-1.6 2.7-11.9 2.5 7.9 4.5-1.3 2.2-16.4-9.4 1.3-2.2 7.4 4.3-3.5-11.1 1.6-2.7 3.8 11.8z"/>
		<path id="path347" fill-rule="evenodd" class="s5" d="m549.4 343.2l1.3-2.2 9.4 12.5q1.6 2.1 1.7 4 0.2 1.9-1.1 3.9l-2-1.2q0.9-1.3 0.9-2.4-0.1-1.2-1-2.5l-0.3-0.4-15-1.2 1.3-2.2 11.9 1z"/>
		<path id="path349" fill-rule="evenodd" class="s5" d="m566.3 351.8l-2-1.2q1.2-1.4 0.5-2.9-0.7-1.5-3.8-3.3l-9.2-5.3 6.2-10.8 16.4 9.4-1.3 2.2-14.3-8.3-3.7 6.5 7.2 4.2q2.2 1.2 3.5 2.5 1.2 1.3 1.5 2.5 0.3 1.2 0.1 2.2-0.3 1.1-1.1 2.3z"/>
		<path id="path351" fill-rule="evenodd" class="s5" d="m569.3 322.2q1.3-2.3 3.7-2.9 2.4-0.6 4.6 0.7 2.3 1.3 2.9 3.6 0.6 2.4-0.7 4.7l-3.4 5.9-16.4-9.4 1.3-2.2 5.8 3.4zm8.5 4.9q0.8-1.4 0.4-2.8-0.4-1.4-1.8-2.2-1.4-0.8-2.8-0.5-1.5 0.4-2.2 1.8l-2.2 3.7 6.4 3.7z"/>
		<path id="path353" fill-rule="evenodd" class="s5" d="m572.9 302.6l2 1.1-2.8 4.9 14.3 8.3-1.2 2.1-14.3-8.3-2.8 4.9-2.1-1.2z"/>
		<path id="path355" fill-rule="evenodd" class="s5" d="m579.5 291l1.3-2.2 9.4 12.5q1.6 2.1 1.8 4 0.1 2-1.1 3.9l-2.1-1.2q1-1.3 0.9-2.4 0-1.2-1-2.5l-0.3-0.4-14.9-1.2 1.2-2.2 11.9 1.1z"/>
		<path id="path357" fill-rule="evenodd" class="s5" d="m585.4 280.9q1.3-2.3 3.6-2.9 2.4-0.6 4.7 0.7 2.2 1.3 2.8 3.6 0.7 2.4-0.6 4.7l-2.2 3.8 5.8 3.3-1.2 2.2-16.4-9.4zm8.5 4.9q0.8-1.4 0.4-2.8-0.4-1.4-1.8-2.2-1.4-0.9-2.8-0.5-1.5 0.4-2.2 1.7l-2.2 3.8 6.4 3.7z"/>
		<path id="path359" fill-rule="evenodd" class="s5" d="m611.5 273.4l-4.4-0.8-4.3 7.4 2.9 3.4-1.3 2.3-12.9-15.5 1.5-2.5 19.9 3.4zm-10.3 4.6l3.3-5.8-9.7-1.7z"/>
		<path id="path361" fill-rule="evenodd" class="s5" d="m623.2 253.1l-12.2-7 7.4 15.4-1 1.8-16.4-9.5 1.2-2.1 12.3 7-7.4-15.5 1-1.7 16.4 9.4z"/>
		<path id="path363" fill-rule="evenodd" class="s5" d="m634.6 234.1q-2.1 3.7-6 4.7-3.8 1-7.4-1.1-3.6-2.1-4.6-5.9-1.1-3.8 1.1-7.5 1.3-2.3 3.4-3.6 2.2-1.2 4.6-1.2v2.5q-1.7-0.1-3.3 0.9-1.7 0.9-2.6 2.6-1.7 2.8-0.9 5.6 0.8 2.9 3.6 4.5 2.7 1.5 5.5 0.8 2.9-0.7 4.5-3.6 1-1.7 1-3.5 0-1.9-1-3.3l2.2-1.3q1.2 2.1 1.2 4.6 0 2.5-1.3 4.8z"/>
		<path id="path365" fill-rule="evenodd" class="s5" d="m630.3 203l16.4 9.5-1.3 2.2-14.3-8.3-4.3 7.5 14.3 8.3-1.3 2.2-16.3-9.5z"/>
		<path id="path367" fill-rule="evenodd" class="s5" d="m654.4 194.1q1 3.9-1 7.5-2.1 3.5-6 4.5-3.8 1.1-7.4-1-3.5-2-4.6-5.9-1-3.9 1-7.4 2.1-3.6 6-4.6 3.9-1.1 7.4 1 3.5 2 4.6 5.9zm-7.6 9.7q2.9-0.8 4.5-3.5 1.5-2.7 0.7-5.5-0.8-2.9-3.4-4.5-2.8-1.5-5.6-0.8-2.9 0.8-4.5 3.5-1.5 2.7-0.7 5.5 0.7 2.9 3.5 4.5 2.7 1.5 5.5 0.8z"/>
		<path id="path369" fill-rule="evenodd" class="s5" d="m646.6 174.9q1.3-2.3 3.7-2.9 2.3-0.7 4.6 0.6 2.2 1.3 2.9 3.7 0.6 2.4-0.7 4.6l-2.2 3.8 5.9 3.4-1.3 2.2-16.4-9.5zm8.5 4.9q0.8-1.3 0.4-2.8-0.4-1.4-1.8-2.2-1.4-0.8-2.8-0.4-1.4 0.3-2.2 1.7l-2.2 3.7 6.5 3.8z"/>
		<path id="path371" fill-rule="evenodd" class="s5" d="m656.9 157l2.1 1.1-2.8 4.9 14.3 8.2-1.3 2.2-14.3-8.3-2.7 4.9-2.1-1.2z"/>
		<path id="path373" fill-rule="evenodd" class="s5" d="m587.1 582.7l1-1.8 5.2 3-1.3 2.2-3.1-1.8-6.3 10.8 3.2 1.8-1.3 2.2-5.2-3 0.9-1.5q-1.1-2.6-4.9-4.8l-8.6-4.9 6.1-10.5zm-5.5 9.5l4.2-7.3-12.3-7.1-3.5 6.1 6.6 3.8q3.7 2.1 5 4.5z"/>
		<path id="path375" fill-rule="evenodd" class="s5" d="m597.1 565q1.1 3.9-1 7.4-2 3.6-5.9 4.6-3.9 1-7.5-1-3.5-2.1-4.6-5.9-1-3.9 1.1-7.5 2-3.5 5.9-4.6 3.9-1 7.4 1 3.6 2.1 4.6 6zm-7.5 9.6q2.8-0.7 4.4-3.4 1.5-2.7 0.8-5.6-0.8-2.8-3.5-4.4-2.7-1.5-5.6-0.8-2.9 0.8-4.4 3.4-1.6 2.7-0.8 5.6 0.8 2.9 3.5 4.4 2.7 1.6 5.6 0.8z"/>
		<path id="path377" fill-rule="evenodd" class="s5" d="m592.7 539.8l16.4 9.5-1.3 2.2-14.3-8.3-4.3 7.5 14.3 8.3-1.3 2.2-16.3-9.5z"/>
		<path id="path379" fill-rule="evenodd" class="s5" d="m616.8 530.9q1.1 3.9-1 7.4-2 3.6-5.9 4.6-3.9 1-7.5-1-3.5-2.1-4.6-5.9-1-3.9 1-7.5 2.1-3.5 6-4.6 3.9-1 7.4 1 3.6 2.1 4.6 6zm-7.6 9.6q2.9-0.7 4.5-3.4 1.5-2.7 0.7-5.6-0.7-2.8-3.4-4.4-2.7-1.5-5.6-0.8-2.9 0.8-4.5 3.4-1.5 2.7-0.7 5.6 0.8 2.9 3.5 4.4 2.7 1.6 5.5 0.8z"/>
		<path id="path381" fill-rule="evenodd" class="s5" d="m620.6 529.4l-2-1.1q1.2-1.5 0.5-3-0.7-1.4-3.8-3.2l-9.3-5.4 6.3-10.8 16.4 9.5-1.3 2.2-14.3-8.3-3.7 6.5 7.2 4.1q2.2 1.3 3.4 2.6 1.3 1.2 1.6 2.4 0.3 1.2 0 2.3-0.2 1.1-1 2.2z"/>
		<path id="path383" fill-rule="evenodd" class="s5" d="m620.2 492.3l1.2-2.1 16.4 9.4-1.3 2.2-7.3-4.3-4.6 8 7.3 4.2-1.2 2.2-16.4-9.5 1.3-2.1 6.9 4 4.6-8z"/>
		<path id="path385" fill-rule="evenodd" class="s5" d="m645.7 485.9l-12.2-7 7.3 15.4-1 1.8-16.4-9.5 1.3-2.1 12.2 7-7.4-15.5 1.1-1.7 16.3 9.4z"/>
		<path id="path387" fill-rule="evenodd" class="s5" d="m638.6 460.3l2.1 1.2-2.8 4.8 14.3 8.3-1.2 2.1-14.4-8.2-2.7 4.8-2.1-1.2z"/>
		<path id="path389" fill-rule="evenodd" class="s5" d="m655.4 464.2l4.4-7.6 2.1 1.2-5.7 9.8-16.3-9.4 5.5-9.7 2.1 1.2-4.3 7.5 5 2.9 4-6.9 2 1.2-4 6.9z"/>
		<path id="path391" fill-rule="evenodd" class="s5" d="m662.6 456.6l-2-1.1q1.2-1.5 0.5-2.9-0.7-1.5-3.8-3.3l-9.2-5.3 6.2-10.8 16.4 9.4-1.3 2.2-14.3-8.3-3.7 6.5 7.2 4.2q2.2 1.2 3.4 2.5 1.3 1.3 1.6 2.4 0.3 1.2 0.1 2.3-0.3 1.1-1.1 2.2z"/>
		<path id="path393" fill-rule="evenodd" class="s5" d="m665.6 427.1q1.3-2.3 3.7-2.9 2.4-0.6 4.6 0.6 2.3 1.3 2.9 3.7 0.6 2.4-0.7 4.7l-3.4 5.9-16.4-9.5 1.3-2.1 5.8 3.3zm8.5 4.9q0.8-1.3 0.4-2.7-0.4-1.4-1.8-2.2-1.4-0.8-2.8-0.5-1.4 0.4-2.2 1.7l-2.2 3.8 6.4 3.7z"/>
		<path id="path395" fill-rule="evenodd" class="s5" d="m670.1 405.7l1.3-2.1 16.4 9.4-1.3 2.2-7.4-4.3-4.5 8 7.3 4.2-1.2 2.2-16.4-9.4 1.3-2.2 6.9 4 4.6-8z"/>
		<path id="path397" fill-rule="evenodd" class="s5" d="m695.5 394.6q1 3.9-1 7.5-2.1 3.6-6 4.6-3.9 1-7.4-1-3.6-2.1-4.6-6-1.1-3.8 1-7.4 2-3.6 5.9-4.6 3.9-1 7.5 1 3.5 2.1 4.6 5.9zm-7.6 9.7q2.9-0.7 4.4-3.4 1.6-2.7 0.8-5.6-0.8-2.9-3.5-4.4-2.7-1.6-5.6-0.8-2.9 0.7-4.4 3.4-1.6 2.7-0.8 5.6 0.8 2.8 3.5 4.4 2.7 1.6 5.6 0.8z"/>
		<path id="path399" fill-rule="evenodd" class="s5" d="m699.8 387.4l4.4-7.6 2 1.2-5.6 9.8-16.4-9.5 5.6-9.6 2.1 1.2-4.4 7.5 5.1 2.9 3.9-6.9 2.1 1.1-4 6.9z"/>
		<path id="path401" fill-rule="evenodd" class="s5" d="m716.8 357.7q1.1 3.9-1 7.4-2 3.6-5.9 4.6-3.9 1-7.5-1-3.5-2-4.6-5.9-1-3.9 1-7.5 2.1-3.5 6-4.6 3.9-1 7.4 1.1 3.5 2 4.6 5.9zm-7.6 9.7q2.9-0.8 4.5-3.5 1.5-2.7 0.7-5.5-0.8-2.9-3.4-4.5-2.8-1.5-5.6-0.8-2.9 0.8-4.5 3.5-1.5 2.6-0.7 5.5 0.8 2.9 3.5 4.5 2.7 1.5 5.5 0.8z"/>
		<path id="path403" fill-rule="evenodd" class="s5" d="m715.5 342q1.3-2.2 3.5-2.8 2.3-0.7 4.4 0.5 2.1 1.3 2.7 3.6 0.6 2.2-0.6 4.4l-3.6 6.1-16.3-9.4 5.6-9.8 2.1 1.2-4.4 7.6 4.3 2.5zm7.9 4.6q0.7-1.2 0.4-2.6-0.4-1.3-1.6-2-1.3-0.7-2.6-0.4-1.3 0.4-2 1.6l-2.3 4 5.8 3.4z"/>
		<path id="path405" fill-rule="evenodd" class="s5" d="m716.9 324.8q1.3-2.3 3.7-2.9 2.3-0.7 4.6 0.6 2.2 1.3 2.9 3.7 0.6 2.4-0.7 4.7l-2.2 3.7 5.9 3.4-1.3 2.2-16.4-9.5zm8.5 4.9q0.8-1.3 0.4-2.8-0.4-1.4-1.8-2.2-1.4-0.8-2.8-0.4-1.4 0.3-2.2 1.7l-2.2 3.8 6.5 3.7z"/>
		<path id="path407" fill-rule="evenodd" class="s5" d="m743 317.3l-4.4-0.8-4.2 7.3 2.9 3.5-1.4 2.3-12.8-15.6 1.4-2.4 19.9 3.3zm-10.3 4.7l3.4-5.9-9.8-1.7z"/>
		<path id="path409" fill-rule="evenodd" class="s5" d="m741.6 300.2q1.3-1 2.7-1.1 1.5-0.1 2.9 0.7 2.1 1.2 2.5 3.6 0.4 2.3-1.1 4.9-1.3 2.4-3.2 3.2-1.9 0.8-3.9 0.4v-2.4q3.2 0.9 5.1-2.4 1-1.7 0.7-3.1-0.2-1.3-1.5-2.1-1.2-0.7-2.5-0.3-1.3 0.5-2.2 2l-1.1 1.9-2-1.1 0.8-1.4q0.9-1.5 0.7-2.8-0.3-1.3-1.5-2-1.1-0.7-2.3-0.3-1.2 0.4-2.1 1.9-1.6 2.7 0.3 5l-2.1 1.2q-2.5-3.4-0.2-7.4 1.3-2.3 3.5-3 2.1-0.7 4.1 0.4 2.4 1.4 2.4 4.2z"/>
		<path id="path411" fill-rule="evenodd" class="s5" d="m758.8 284.9q1.1 3.9-1 7.5-2 3.5-5.9 4.6-3.9 1-7.5-1.1-3.5-2-4.6-5.9-1-3.9 1-7.4 2.1-3.6 6-4.6 3.9-1.1 7.4 1 3.6 2 4.6 5.9zm-7.5 9.7q2.8-0.8 4.4-3.5 1.5-2.6 0.8-5.5-0.8-2.9-3.5-4.4-2.7-1.6-5.6-0.9-2.9 0.8-4.5 3.5-1.5 2.7-0.7 5.6 0.8 2.8 3.5 4.4 2.7 1.5 5.6 0.8z"/>
		<path id="path413" fill-rule="evenodd" class="s5" d="m760.8 266.8q1.2-0.8 2.6-0.9 1.4 0 2.7 0.7 2 1.1 2.5 3.3 0.5 2.1-0.6 4.1l-4.1 7.1-16.3-9.5 3.7-6.5q1.1-1.9 3.2-2.5 2.1-0.6 4 0.5 2.1 1.2 2.3 3.7zm-7.4-0.5l-2.6 4.3 5 2.9 2.6-4.3q0.6-1.1 0.2-2.2-0.3-1.1-1.3-1.7-1.1-0.6-2.2-0.3-1.2 0.3-1.7 1.3zm12.6 6.6q0.6-1.1 0.3-2.3-0.4-1.2-1.5-1.9-1.1-0.6-2.3-0.3-1.2 0.3-1.8 1.4l-2.9 4.9 5.3 3z"/>
		<path id="path415" fill-rule="evenodd" class="s5" d="m778.4 255.9l-4.4-0.7-4.2 7.3 2.9 3.5-1.4 2.3-12.8-15.6 1.4-2.4 19.9 3.3zm-10.3 4.7l3.4-5.9-9.8-1.7z"/>
		<path id="path417" fill-rule="evenodd" class="s5" d="m770.4 232.1l1.2-2.1 16.4 9.4-1.2 2.2-7.4-4.3-4.6 8 7.4 4.2-1.3 2.2-16.4-9.5 1.3-2.1 6.9 4 4.6-8z"/>
		<path id="path419" fill-rule="evenodd" class="s5" d="m795.9 225.7l-12.2-7 7.3 15.4-1 1.8-16.3-9.5 1.2-2.1 12.2 7-7.3-15.4 1-1.8 16.3 9.4z"/>
		<path id="path421" fill-rule="evenodd" class="s5" d="m798.4 216.7l4.4-7.6 2 1.2-5.6 9.7-16.4-9.4 5.6-9.7 2 1.2-4.3 7.5 5 2.9 4-6.9 2.1 1.2-4 6.9z"/>
	</g>
</svg>