<svg width="1049" height="1026" xmlns="http://www.w3.org/2000/svg">

 <g>
  <title>background</title>
  <rect fill="none" id="canvas_background" height="1028" width="1051" y="-1" x="-1"/>
 </g>
 <g>
  <title>Layer 1</title>
  <path fill="#0c2e66" fill-rule="evenodd" id="path195" d="m31.5663,366.8224l5.0862,-8.9093l-18.8115,-10.7365l-3.8968,6.8267l7.3468,4.1947c4.8645,2.7731 8.2897,5.65 10.2753,8.6244zm10.3805,-18.184l2.2292,-3.9098l15.9993,9.1307l-5.2943,9.2781l-6.9826,-3.987l-9.7254,17.0405l6.9812,3.9835l-5.3229,9.3283l-15.9968,-9.1304l2.2006,-3.8563c-1.7224,-3.1955 -5.103,-6.2299 -10.1418,-9.1034l-15.8933,-9.0703l14.4839,-25.3797l27.4629,15.6758z"/>
  <path fill="#0c2e66" fill-rule="evenodd" id="path197" d="m57.117,334.019l12.1405,-10.8173l6.7048,7.5277l-20.162,17.9592l-27.9355,-31.3614l19.9367,-17.7613l6.6656,7.484l-11.9168,10.6161l3.8704,4.3455l10.7983,-9.62l6.5843,7.3936l-10.798,9.6166l4.1117,4.6173z"/>
  <path fill="#0c2e66" fill-rule="evenodd" id="path199" d="m89.2332,276.493l18.8008,37.5582l-9.6046,4.8084l-14.1537,-28.2767l-9.7648,4.8855l14.1526,28.2767l-9.605,4.8082l-18.7996,-37.558l28.9743,-14.5023z"/>
  <path fill="#0c2e66" fill-rule="evenodd" id="path201" d="m121.9155,294.3317l8.2046,-2.0656l-7.6178,-12.8089l-0.5868,14.8745zm16.3594,11.6586l-3.2233,-5.4354l-13.5578,3.4101l-0.2659,6.3173l-11.2879,2.84l3.1893,-44.1099l12.6842,-3.1955l23.6917,37.3467l-11.2303,2.8267z"/>
  <path fill="#0c2e66" fill-rule="evenodd" id="path203" d="m167.646,278.8806c1.1931,-0.1142 2.1597,-0.6239 2.8985,-1.5392c0.7364,-0.9119 1.0437,-2.0253 0.9221,-3.3398c-0.1231,-1.3141 -0.6313,-2.3402 -1.5234,-3.0812c-0.8932,-0.7413 -1.9369,-1.0531 -3.1317,-0.9422l-5.5573,0.5229l0.8342,8.8991l5.5576,-0.5196zm-1.7917,-19.116c4.2202,-0.3957 7.8927,0.6438 11.0191,3.125c3.124,2.478 4.8869,5.8478 5.2866,10.1097c0.4005,4.2616 -0.7061,7.8999 -3.3166,10.9177c-2.609,3.0143 -6.0261,4.7211 -10.2463,5.1168l-5.5551,0.5196l1.1761,12.5472l-10.6946,1.0027l-3.9189,-41.8165l16.2497,-1.5222z"/>
  <path fill="#0c2e66" fill-rule="evenodd" id="path205" d="m216.5958,258.3932l-0.034,10.3811l-10.3813,-0.0335l-0.1063,31.6162l-10.7416,-0.0334l0.1086,-31.6196l-10.3788,-0.0338l0.0343,-10.3844l31.4991,0.1074z"/>
  <path fill="#0c2e66" fill-rule="evenodd" id="path207" d="m231.5225,286.2439l8.43,0.7007l-3.0649,-14.5825l-5.3651,13.8818zm11.7122,16.323l-1.294,-6.1866l-13.9312,-1.1568l-2.2935,5.8915l-11.6008,-0.9589l17.2803,-40.7135l13.0351,1.0797l10.3448,43.0002l-11.5407,-0.9556z"/>
  <path fill="#0c2e66" fill-rule="evenodd" id="path209" d="m307.3901,269.6896l-6.9902,41.4142l-10.531,-1.7737l3.7632,-22.3084l-12.8622,14.9315l-1.0635,-0.1811l-7.2051,-18.2543l-3.7528,22.2446l-10.5911,-1.7838l6.9891,-41.4176l10.5897,1.7873l7.5458,19.468l13.5748,-15.9004l10.5333,1.7737z"/>
  <path fill="#0c2e66" fill-rule="evenodd" id="path211" d="m318.994,305.1989l15.8366,3.685l-2.2827,9.8181l-26.2985,-6.1194l9.5171,-40.9045l26.005,6.0491l-2.27,9.7608l-15.5446,-3.6181l-1.3178,5.6701l14.0828,3.276l-2.2434,9.6435l-14.0831,-3.2794l-1.4014,6.0188z"/>
  <path fill="#0c2e66" fill-rule="evenodd" id="path213" d="m371.3828,285.8953l10.2705,2.9205l-11.4911,40.3982l-10.2705,-2.9205l4.4161,-15.5251l-11.3703,-3.2323l-4.4161,15.5216l-10.3309,-2.9375l11.4911,-40.398l10.3275,2.9407l-4.2483,14.9448l11.3703,3.2324l4.2517,-14.9448z"/>
  <path fill="#0c2e66" fill-rule="evenodd" id="path215" d="m416.6362,300.3001l-3.2593,9.8549l-9.8546,-3.2593l-9.9287,30.0203l-10.1967,-3.3698l9.9286,-30.0237l-9.8549,-3.2593l3.2558,-9.8546l29.9098,9.8915z"/>
  <path fill="#0c2e66" fill-rule="evenodd" id="path217" d="m830.4757,550.2169l-27.9345,31.3614l-8.0207,-7.1422l21.0306,-23.6123l-8.1548,-7.2629l-21.0305,23.6125l-8.0206,-7.1421l27.9346,-31.3648l24.1959,21.5504z"/>
  <path fill="#0c2e66" fill-rule="evenodd" id="path219" d="m824.8762,585.0555c0.064,3.0379 1.2574,5.6869 3.5844,7.9402c2.3304,2.2532 5.0128,3.3596 8.0541,3.3261c3.0413,-0.0334 5.7138,-1.2438 8.024,-3.6314c2.3102,-2.384 3.4302,-5.0967 3.3698,-8.138c-0.064,-3.0379 -1.2608,-5.6869 -3.5878,-7.9401c-2.3269,-2.2533 -5.0128,-3.3597 -8.0541,-3.3262c-3.0378,0.0368 -5.7172,1.2441 -8.024,3.6314c-2.3068,2.3874 -3.4336,5.1001 -3.3664,8.138zm11.9168,21.8084c-5.9986,0.0672 -11.2093,-2.0418 -15.6356,-6.3238c-4.426,-4.2852 -6.6994,-9.4255 -6.8267,-15.4211c-0.1241,-5.9953 1.9548,-11.2025 6.2399,-15.6285c4.2821,-4.4297 9.4224,-6.6762 15.4177,-6.7465c5.9987,-0.0671 11.2093,2.0387 15.6356,6.3238c4.4226,4.2855 6.6994,9.4255 6.8267,15.4211c0.1275,5.9953 -1.9548,11.2059 -6.2399,15.6288c-4.282,4.4294 -9.4224,6.6759 -15.4177,6.7462z"/>
  <path fill="#0c2e66" fill-rule="evenodd" id="path221" d="m863.0546,643.765c-4.2585,-4.6743 -6.2303,-9.9488 -5.9284,-15.8233c0.305,-5.8748 2.763,-10.9145 7.3769,-15.1126c4.6137,-4.2046 9.8615,-6.1798 15.7394,-5.9315c5.8779,0.248 10.9445,2.706 15.1962,7.38c2.5617,2.81 4.2653,6.0188 5.1135,9.6267c0.8518,3.608 0.7747,7.1156 -0.2348,10.5222l-10.2101,-3.2828c0.5534,-1.5893 0.6203,-3.2558 0.1911,-5.0028c-0.4292,-1.747 -1.3008,-3.3463 -2.6221,-4.7948c-2.26,-2.4846 -4.8619,-3.7823 -7.8026,-3.8897c-2.9373,-0.1106 -5.6667,0.9791 -8.1816,3.2695c-2.5115,2.2867 -3.8526,4.8988 -4.017,7.8395c-0.1675,2.9372 0.8784,5.6466 3.1419,8.1311c1.3178,1.4485 2.8298,2.4679 4.53,3.058c1.7,0.5902 3.3798,0.6673 5.0432,0.2382l2.2665,10.512c-3.5141,0.7109 -7.0146,0.4762 -10.4986,-0.7076c-3.4838,-1.1837 -6.5183,-3.1921 -9.1035,-6.0321z"/>
  <path fill="#0c2e66" fill-rule="evenodd" id="path223" d="m931.1057,657.4691l-32.4077,26.714l-6.8304,-8.2888l24.3973,-20.1118l-6.9443,-8.4266l-24.4004,20.1121l-6.8303,-8.289l32.411,-26.7106l20.6048,25.0007z"/>
  <path fill="#0c2e66" fill-rule="evenodd" id="path225" d="m920.0973,691.2482c-0.4626,3.0044 0.2617,5.8175 2.1663,8.4364c1.9046,2.6221 4.3557,4.178 7.3601,4.6676c3.001,0.4895 5.8411,-0.2416 8.5303,-2.1932c2.6824,-1.9548 4.2582,-4.4325 4.7177,-7.4404c0.4626,-3.0044 -0.2616,-5.8175 -2.1662,-8.4399c-1.9043,-2.6152 -4.3589,-4.1711 -7.3565,-4.6607c-3.0044,-0.4895 -5.8479,0.2415 -8.5337,2.1929c-2.6858,1.9516 -4.2585,4.4328 -4.718,7.4373zm7.9838,23.532c-5.9182,-0.9623 -10.6897,-3.9364 -14.3144,-8.9192c-3.6179,-4.9827 -4.9759,-10.4383 -4.0671,-16.3666c0.9085,-5.9281 3.8525,-10.6997 8.8387,-14.321c4.9793,-3.6215 10.4315,-4.9526 16.3496,-3.9903c5.9182,0.9692 10.6898,3.9433 14.311,8.926c3.6216,4.9794 4.9794,10.4383 4.0709,16.363c-0.9122,5.9284 -3.8563,10.7034 -8.839,14.3246c-4.9825,3.6213 -10.4315,4.9493 -16.3497,3.9835z"/>
  <path fill="#0c2e66" fill-rule="evenodd" id="path227" d="m957.6456,728.5614c0.6369,1.016 1.5256,1.6498 2.6756,1.8978c1.1435,0.2481 2.2768,0.027 3.3968,-0.6738c1.1199,-0.701 1.8105,-1.6163 2.0721,-2.7462c0.2548,-1.1301 0.071,-2.203 -0.5666,-3.219l-2.9574,-4.7347l-7.5813,4.7412l2.9608,4.7347zm16.2757,-10.1834c2.2501,3.5946 2.9676,7.3434 2.156,11.2498c-0.8147,3.9062 -3.0345,6.9911 -6.6625,9.2611c-3.6281,2.2734 -7.3769,2.9171 -11.2428,1.9381c-3.8696,-0.9791 -6.9276,-3.2624 -9.1741,-6.8571l-2.9576,-4.7313l-10.6864,6.6796l-5.6933,-9.1037l35.6065,-22.2713l8.6542,13.8348z"/>
  <path fill="#0c2e66" fill-rule="evenodd" id="path229" d="m998.4058,761.8042l-9.1573,4.892l-4.8855,-9.1573l-27.8943,14.8944l-5.0599,-9.4723l27.8909,-14.8946l-4.8889,-9.1574l9.1573,-4.8886l14.8377,27.7838z"/>
  <path fill="#0c2e66" fill-rule="evenodd" id="path231" d="m1010.3998,789.0647l4.3086,10.1029l-31.5258,0.2617c-4.949,0.0201 -9.0065,-0.9791 -12.1682,-3.0011c-3.1689,-2.0185 -5.5528,-5.1672 -7.1555,-9.439l9.2177,-3.9297c1.1936,3.6212 3.2289,5.7974 6.1092,6.5285l21.215,-23.9814l4.3288,10.1565l-12.7516,13.8481l18.4218,-0.5465z"/>
  <path fill="#0c2e66" fill-rule="evenodd" id="path233" d="m14.2849,505.2719l19.5843,-7.9067l-25.1325,-5.8377l-3.1216,-7.7323l38.9469,-15.7227l4.0201,9.9587l-19.5843,7.9067l25.1314,5.8377l3.1003,7.6753l-38.9472,15.7227l-3.9974,-9.9017z"/>
  <path fill="#0c2e66" fill-rule="evenodd" id="path235" d="m87.4335,551.9134l-35.8886,21.822l-5.5482,-9.1239l19.3285,-11.7558l-19.7058,0.047l-0.5607,-0.9255l9.0873,-17.3891l-19.2762,11.719l-5.5797,-9.1775l35.886,-21.8219l5.5798,9.1774l-9.779,18.4487l20.9069,-0.1443l5.5497,9.1239z"/>
  <path fill="#0c2e66" fill-rule="evenodd" id="path237" d="m74.3655,583.4092c-0.4283,3.0075 0.3249,5.8141 2.2598,8.416c1.9343,2.5988 4.4045,4.1244 7.412,4.5805c3.0047,0.4561 5.8402,-0.3053 8.5031,-2.2901c2.6643,-1.9817 4.2097,-4.4765 4.638,-7.4874c0.4272,-3.0113 -0.3259,-5.8144 -2.2609,-8.4164c-1.9343,-2.5954 -4.4044,-4.1244 -7.4106,-4.5805c-3.0047,-0.4558 -5.8416,0.3087 -8.5034,2.2904c-2.6668,1.9814 -4.2108,4.4762 -4.638,7.4875zm8.244,23.4448c-5.9281,-0.8986 -10.7314,-3.8226 -14.4091,-8.7651c-3.6751,-4.939 -5.0938,-10.3779 -4.2502,-16.3162c0.8419,-5.9383 3.734,-10.7433 8.6774,-14.4215c4.9419,-3.6751 10.3762,-5.0667 16.3057,-4.1647c5.9281,0.8952 10.73,3.8157 14.4091,8.7582c3.6754,4.9425 5.0938,10.3813 4.2517,16.3196c-0.8436,5.9383 -3.7369,10.7434 -8.6789,14.4219c-4.9405,3.6748 -10.3762,5.0663 -16.3057,4.1678z"/>
  <path fill="#0c2e66" fill-rule="evenodd" id="path239" d="m83.6875,617.0641l7.6309,-6.4917c1.239,1.8845 2.5463,2.9141 3.9243,3.0816c1.3765,0.1678 3.1921,-0.7041 5.4473,-2.6255l19.1483,-16.2893l19.3615,22.7608l-31.9921,27.2138l-6.9576,-8.1817l24.0834,-20.4874l-5.4439,-6.4009l-11.6059,9.8782c-2.6209,2.2263 -5.1554,3.7386 -7.6037,4.5368c-2.4477,0.7946 -4.6496,0.9085 -6.6039,0.3385c-1.9542,-0.5701 -3.6898,-1.4686 -5.2078,-2.6992c-1.5191,-1.2271 -2.9131,-2.7731 -4.1808,-4.634z"/>
  <path fill="#0c2e66" fill-rule="evenodd" id="path241" d="m130.3101,650.8165c-0.0579,3.0379 1.0321,5.7336 3.2663,8.0742c2.236,2.3471 4.8753,3.5643 7.9141,3.6482c3.0398,0.0873 5.7594,-1.016 8.1638,-3.3061c2.4012,-2.2904 3.632,-4.9561 3.6898,-7.9971c0.0576,-3.0413 -1.0307,-5.7305 -3.2666,-8.0776c-2.2357,-2.344 -4.8736,-3.5578 -7.9127,-3.6482c-3.0398,-0.0839 -5.7602,1.0194 -8.1652,3.3095c-2.4006,2.2935 -3.632,4.9558 -3.6895,7.9971zm11.0375,22.2678c-5.995,-0.1709 -11.1175,-2.488 -15.3692,-6.9443c-4.2516,-4.4595 -6.3198,-9.6837 -6.2044,-15.679c0.1125,-5.9953 2.3981,-11.1189 6.8567,-15.3706c4.4572,-4.2517 9.6834,-6.2903 15.677,-6.1194c5.9936,0.1675 11.1166,2.4812 15.368,6.9409c4.2517,4.4563 6.3199,9.6837 6.2059,15.679c-0.1139,5.9956 -2.3995,11.1189 -6.8567,15.3709c-4.4586,4.2516 -9.6863,6.2903 -15.6773,6.1225z"/>
  <path fill="#0c2e66" fill-rule="evenodd" id="path243" d="m162.4104,686.6878l7.4464,7.0616l14.8992,-15.7226l-5.7056,-5.4085l-5.8167,6.143c-3.8548,4.0637 -7.4619,6.7062 -10.8233,7.9265zm15.1994,14.4051l3.2652,3.0948l-12.6711,13.3722l-7.7513,-7.3466l5.5301,-5.8345l-14.2404,-13.496l-5.5299,5.8342l-7.7947,-7.3902l12.6698,-13.3687l3.2221,3.0546c3.513,-0.9153 7.2641,-3.4773 11.2538,-7.6853l12.5887,-13.2817l21.2096,20.0985l-21.7519,22.9487z"/>
  <path fill="#0c2e66" fill-rule="evenodd" id="path245" d="m192.3018,714.5319l12.2216,10.7266l-6.6484,7.5748l-20.2941,-17.8084l27.705,-31.5661l20.0673,17.6105l-6.6107,7.5311l-11.9937,-10.5253l-3.8401,4.3725l10.8686,9.5394l-6.5307,7.4406l-10.8689,-9.5397l-4.0759,4.644z"/>
  <path fill="#0c2e66" fill-rule="evenodd" id="path247" d="m242.6885,769.4022l-9.2458,-7.4605l3.551,-20.6484l-11.4909,14.2438l-8.3593,-6.7431l11.4908,-14.2407l-19.4754,7.7995l-9.2472,-7.4607l23.1885,-8.5805l3.6465,-23.73l9.2477,7.4574l-3.8967,20.2159l11.4145,-14.1503l8.3608,6.7396l-11.4137,14.1503l18.8861,-8.1212l9.2458,7.4573l-22.3739,8.6276l-3.5288,24.444z"/>
  <path fill="#0c2e66" fill-rule="evenodd" id="path249" d="m289.4488,751.5535l8.5884,6.3477l-24.9636,33.7756l-8.5887,-6.3473l9.5933,-12.9799l-9.5054,-7.0282l-9.5942,12.9833l-8.6369,-6.3842l24.9648,-33.776l8.6354,6.3845l-9.2352,12.4934l9.504,7.0282l9.2381,-12.4971z"/>
  <path fill="#0c2e66" fill-rule="evenodd" id="path251" d="m295.5744,791.7774c0.5712,2.9844 2.1941,5.3952 4.8688,7.2258c2.6717,1.8309 5.5038,2.4747 8.4955,1.9282c2.9902,-0.5432 5.4235,-2.1861 7.3006,-4.9258c1.8785,-2.7394 2.5279,-5.5996 1.957,-8.5873c-0.5737,-2.9874 -2.1965,-5.3952 -4.8688,-7.2258c-2.673,-1.8309 -5.5051,-2.4746 -8.4965,-1.9315c-2.9928,0.5465 -5.4267,2.1864 -7.3024,4.9292c-1.8765,2.736 -2.529,5.5995 -1.9542,8.5872zm15.4061,19.4982c-5.8992,1.0731 -11.3899,-0.1307 -16.4722,-3.6111c-5.0833,-3.4807 -8.1887,-8.1649 -9.318,-14.0562c-1.1302,-5.8881 0.0459,-11.3737 3.5274,-16.4571c3.4815,-5.0799 8.1706,-8.1581 14.0715,-9.2344c5.898,-1.0729 11.3896,0.1307 16.4721,3.6114c5.0805,3.4837 8.1876,8.168 9.3163,14.0561c1.1305,5.8878 -0.0459,11.3737 -3.5274,16.4568c-3.4801,5.0834 -8.1717,8.1581 -14.0697,9.2345z"/>
  <path fill="#0c2e66" fill-rule="evenodd" id="path253" d="m347.4249,787.5056l4.5031,-7.092l16.3599,10.3882l-4.5,7.0883l-16.363,-10.3845zm-10.7736,46.7456l11.3201,-17.8285l-23.8325,9.885l-7.0401,-4.4697l22.5099,-35.4557l9.0669,5.754l-11.3168,17.8316l23.8306,-9.8883l6.9877,4.4396l-22.5094,35.4591l-9.0164,-5.7271z"/>
  <path fill="#0c2e66" fill-rule="evenodd" id="path255" d="m412.1464,830.3482l-21.0073,36.371l-9.2979,-5.375l15.8131,-27.3782l-9.4558,-5.462l-15.8131,27.3781l-9.3016,-5.3717l21.0073,-36.3679l28.0553,16.2057z"/>
  <path fill="#0c2e66" fill-rule="evenodd" id="path257" d="m413.4506,864.2982c0.8989,2.9038 2.7766,5.1202 5.6367,6.6427c2.8602,1.5256 5.7439,1.8507 8.661,0.9757c2.9106,-0.8686 5.1471,-2.7732 6.7096,-5.7002c1.5593,-2.9308 1.8913,-5.8479 0.9927,-8.7517c-0.8989,-2.9072 -2.7799,-5.1202 -5.6367,-6.6424c-2.8602,-1.5259 -5.7472,-1.8511 -8.6576,-0.976c-2.914,0.8719 -5.1505,2.7697 -6.713,5.7005c-1.5624,2.9304 -1.8947,5.8476 -0.9927,8.7514zm17.4699,17.6743c-5.7441,1.72 -11.3334,1.1333 -16.7689,-1.7672c-5.4388,-2.897 -9.0433,-7.209 -10.8173,-12.9361c-1.777,-5.7272 -1.2138,-11.31 1.6835,-16.7454c2.9004,-5.4355 7.219,-9.0131 12.9629,-10.7334c5.7441,-1.7235 11.3335,-1.1333 16.7689,1.7637c5.4388,2.8973 9.0434,7.2094 10.8173,12.9365c1.7736,5.7302 1.2104,11.3133 -1.6835,16.7485c-2.897,5.4354 -7.219,9.0133 -12.9629,10.7334z"/>
  <path fill="#0c2e66" fill-rule="evenodd" id="path259" d="m434.4043,889.9327l4.4059,-8.9997c1.8879,1.2373 3.4974,1.6563 4.8251,1.2608c1.3312,-0.3957 2.6456,-1.9247 3.9467,-4.5839l11.0517,-22.5796l26.8382,13.134l-18.4621,37.7258l-9.6468,-4.7211l13.8985,-28.404l-7.5444,-3.6919l-6.6994,13.6908c-1.5123,3.0881 -3.2292,5.489 -5.1571,7.1957c-1.9281,1.7068 -3.8999,2.689 -5.9184,2.9472c-2.0217,0.2583 -3.9699,0.1276 -5.8544,-0.3923c-1.8811,-0.523 -3.7789,-1.3813 -5.6835,-2.5818z"/>
  <path fill="#0c2e66" fill-rule="evenodd" id="path261" d="m494.901,918.4977l8.6106,-19.2835l-22.1403,13.2412l-7.6184,-3.3999l17.1244,-38.3493l9.8078,4.3755l-8.6108,19.2872l22.1406,-13.2448l7.5645,3.3766l-17.1243,38.3527l-9.7541,-4.3557z"/>
  <path fill="#0c2e66" fill-rule="evenodd" id="path263" d="m554.1066,897.6951l-3.9098,9.6134l-9.6166,-3.9098l-11.9103,29.2927l-9.9451,-4.0437l11.9067,-29.2929l-9.6166,-3.9096l3.9096,-9.6168l29.1821,11.8667z"/>
  <path fill="#0c2e66" fill-rule="evenodd" id="path265" d="m563.4416,945.9226l7.2695,-19.83l-21.1847,14.7268l-7.8296,-2.8703l14.4587,-39.4325l10.0825,3.6986l-7.2694,19.8301l21.185,-14.7303l7.7723,2.8503l-14.4584,39.4325l-10.0259,-3.6752z"/>
  <path fill="#0c2e66" fill-rule="evenodd" id="path267" d="m613.9159,962.7018l-11.4307,-3.6584l-5.7574,-21.5638l-5.7272,17.8855l-10.2302,-3.276l12.8123,-39.9991l10.2268,3.276l-5.3815,16.799l16.2961,-13.305l11.4273,3.6615l-18.9048,15.3638l6.6693,24.8165z"/>
  <path fill="#0c2e66" fill-rule="evenodd" id="path269" d="m630.926,956.9009l15.6725,4.3254l-2.679,9.7172l-26.0269,-7.1822l11.1691,-40.4855l25.7386,7.0985l-2.6657,9.6605l-15.3842,-4.2418l-1.5491,5.6098l13.9388,3.8426l-2.632,9.5429l-13.9391,-3.8427l-1.643,5.9553z"/>
  <path fill="#0c2e66" fill-rule="evenodd" id="path271" d="m702.7965,941.0306l-2.1059,10.1633l-10.1664,-2.1092l-6.4279,30.9557l-10.5154,-2.1826l6.4279,-30.9592l-10.1634,-2.1093l2.1127,-10.163l30.8384,6.4043z"/>
  <path fill="#0c2e66" fill-rule="evenodd" id="path273" d="m731.5996,974.7997c1.8777,2.3908 4.426,3.7857 7.6383,4.1879c3.2156,0.4026 6.029,-0.3251 8.4364,-2.1829c2.4075,-1.8542 3.8191,-4.4294 4.2316,-7.7256c0.409,-3.2958 -0.3251,-6.1392 -2.2028,-8.5269c-1.878,-2.3907 -4.4263,-3.7887 -7.6385,-4.1879c-3.2157,-0.4025 -6.0256,0.3118 -8.4331,2.1527c-2.4041,1.8343 -3.8157,4.4195 -4.2316,7.7524c-0.4124,3.2962 0.3221,6.1396 2.1997,8.5303zm11.7661,-28.8569c6.1092,0.7645 11.0182,3.5007 14.7234,8.2184c3.7052,4.7146 5.1738,10.1265 4.4127,16.2392c-0.7577,6.0723 -3.524,10.9479 -8.2922,14.6262c-4.775,3.6785 -10.1968,5.1369 -16.2694,4.3792c-5.2407,-0.6539 -9.6033,-2.8301 -13.0938,-6.5319c-3.4872,-3.6983 -5.4153,-8.1311 -5.7739,-13.2984l-5.1237,-0.637l-2.0352,16.3129l-10.6563,-1.3312l5.2007,-41.6724l10.6563,1.3277l-1.8879,15.1226l5.4187,0.6772c1.7805,-4.5734 4.7512,-8.1145 8.9124,-10.6192c4.1613,-2.5046 8.765,-3.4435 13.8082,-2.8133z"/>
  <path fill="#0c2e66" fill-rule="evenodd" id="path275" d="m810.9842,949.4268l-0.017,42.001l-10.6795,0l0.01,-22.6233l-10.2033,16.8593l-1.0831,0l-10.133,-16.8058l-0.01,22.563l-10.7399,-0.01l0.017,-41.9978l10.7399,0.003l10.673,17.9425l10.7433,-17.9357l10.6826,0.0038z"/>
  <path fill="#0c2e66" fill-rule="evenodd" id="path277" d="m831.5421,978.8904l16.1184,-2.1291l1.3178,9.9921l-26.7644,3.5343l-5.4992,-41.639l26.4693,-3.4937l1.3111,9.9318l-15.8233,2.0922l0.7645,5.7674l14.3345,-1.891l1.2943,9.8144l-14.3345,1.8913l0.8115,6.1293z"/>
  <path fill="#0c2e66" fill-rule="evenodd" id="path279" d="m867.6147,938.3649l10.2135,-3.1252l12.2859,40.1635l-10.2135,3.1218l-4.7214,-15.4309l-11.3031,3.4568l4.7211,15.4344l-10.2705,3.1419l-12.2859,-40.1635l10.2708,-3.1417l4.5467,14.8609l11.3032,-3.4605l-4.5468,-14.8575z"/>
  <path fill="#0c2e66" fill-rule="evenodd" id="path281" d="m922.7599,956.6727l-11.8097,-17.5098l-0.4762,25.7955l-6.9106,4.6641l-23.4884,-34.8185l8.9024,-6.0055l11.8095,17.5065l0.4762,-25.7921l6.8638,-4.6304l23.4884,34.8151l-8.8554,5.9751z"/>
  <path fill="#2d9a2b" fill-rule="evenodd" id="path283" d="m739.5063,319.5703l-25.799,0l-244.1928,422.9501c-11.4877,-5.8377 -23.019,-12.0779 -34.5268,-18.7271c-0.074,-0.0437 -23.0426,-13.7208 -33.9032,-20.8125l221.3617,-383.4105l-25.1819,0l140.3609,-120.4467l1.8811,120.4467z"/>
  <path fill="#0a2d68" fill-rule="evenodd" id="path285" d="m409.2862,414.2117l30.2684,-52.4392l-25.1884,0l140.3606,-120.4501l1.8879,120.4501l-25.7987,0l-177.3689,307.2078c-10.8204,-8.46 -21.0906,-17.0473 -30.7805,-25.7184c-10.4707,-9.3617 -20.251,-18.8108 -29.3004,-28.27c-61.6407,-64.44 -89.1595,-129.5101 -64.9899,-171.3702c10.9698,-18.9986 31.4093,-31.1703 58.5695,-36.8203c-6.1903,4.919 -11.2893,10.7198 -15.1597,17.4192c-21.0093,36.4014 -0.9601,91.1106 47.23,146.3428l77.6693,-134.5331c-53.2976,-13.3285 -92.9089,-11.0285 -105.0296,9.9518c-2.0395,3.521 -3.2301,7.4608 -3.6099,11.7494c-1.4893,-10.3309 -0.1403,-19.552 4.3302,-27.3008c14.4692,-25.0577 58.7004,-29.4874 116.8999,-16.1989l0.0102,-0.0201z"/>
  <path fill="#ce031c" fill-rule="evenodd" id="path287" d="m713.5767,588.8109l-0.06,0.1006c42.0077,44.5694 61.1101,85.9904 46.4003,111.4605c-4.3926,7.6082 -11.5214,13.3084 -20.9602,17.1879c3.3395,-2.4177 6.0188,-5.328 7.9804,-8.718c12.3292,-21.3695 -6.3709,-57.7405 -46.0114,-98.1218l-60.7281,105.19l-1.2404,2.1325l-16.6014,28.7598c73.2988,14.968 131.9814,5.1973 153.2704,-31.6803c3.9801,-6.8905 6.4914,-14.4417 7.598,-22.5193c9.0031,26.6874 8.8019,50.8096 -2.3003,70.0294c-24.4775,42.4 -96.0662,50.7795 -184.2092,28.5885c-12.6881,-3.1887 -25.7181,-7.018 -38.9965,-11.4809c-12.3227,-4.1176 -24.8632,-8.7885 -37.5514,-13.9892l216.7478,-375.4298l-25.1887,0l140.3609,-120.4501l1.8879,120.4501l-25.8089,0l-114.5892,198.4901z"/>
  <path fill="#ffffff" fill-rule="evenodd" id="path289" d="m346.392,583.3856l16.3667,9.449l-1.2408,2.1527l-12.7922,-7.3868l5.8179,10.4986l-0.161,0.2815l-11.9773,0.2248l12.7653,7.3701l-1.2541,2.1762l-16.3666,-9.4525l1.415,-2.4545l11.6623,-0.218l-5.6534,-10.1865l1.4182,-2.4546z"/>
  <path fill="#ffffff" fill-rule="evenodd" id="path291" d="m362.9197,584.1065c1.9213,-0.5029 3.3964,-1.6498 4.4328,-3.4435c1.036,-1.7907 1.2909,-3.6448 0.7645,-5.5596c-0.5267,-1.9146 -1.6866,-3.39 -3.4807,-4.426c-1.8073,-1.0429 -3.6717,-1.3145 -5.593,-0.8116c-1.9213,0.4997 -3.3999,1.6464 -4.436,3.4404c-1.0329,1.7938 -1.2877,3.6448 -0.7613,5.5593c0.5264,1.9182 1.6934,3.3968 3.5008,4.4396c1.7937,1.0361 3.6515,1.3043 5.5729,0.8014zm7.5577,-9.667c0.7041,2.6019 0.3722,5.0834 -0.9958,7.454c-1.3714,2.3672 -3.3531,3.8928 -5.9485,4.5771c-2.5951,0.684 -5.0732,0.3452 -7.4271,-1.0128c-2.3706,-1.3714 -3.903,-3.3463 -4.6037,-5.9315c-0.7007,-2.5886 -0.3654,-5.0667 1.0026,-7.4339c1.368,-2.3706 3.3497,-3.903 5.9417,-4.5972c2.5951,-0.6939 5.0766,-0.3586 7.4472,1.0094c2.3539,1.3581 3.8829,3.3398 4.5836,5.9349z"/>
  <path fill="#ffffff" fill-rule="evenodd" id="path293" d="m374.2129,572.991l-1.965,-1.1333c0.7778,-0.9859 0.9457,-1.965 0.4964,-2.9407c-0.4428,-0.9725 -1.6935,-2.0554 -3.7523,-3.2425l-9.2814,-5.3583l6.2333,-10.8037l16.3698,9.4493l-1.2571,2.1761l-14.3079,-8.2621l-3.7287,6.4513l7.2261,4.1712c1.4686,0.8484 2.6155,1.6934 3.4469,2.5385c0.8317,0.8416 1.3513,1.663 1.5594,2.4576c0.2043,0.7948 0.2211,1.5525 0.043,2.2703c-0.1743,0.7208 -0.5363,1.4618 -1.0828,2.2263l0.0003,0z"/>
  <path fill="#ffffff" fill-rule="evenodd" id="path295" d="m382.4713,550.2401c1.9214,-0.5028 3.4002,-1.6497 4.4329,-3.4435c1.0363,-1.7906 1.2911,-3.6448 0.7645,-5.5596c-0.5264,-1.9145 -1.6866,-3.3899 -3.4804,-4.426c-1.8074,-1.0429 -3.6717,-1.3144 -5.593,-0.8147c-1.9214,0.5029 -3.3999,1.6498 -4.4329,3.4435c-1.036,1.7941 -1.2909,3.6448 -0.7645,5.5596c0.5264,1.9146 1.6934,3.3965 3.5039,4.4394c1.7907,1.0329 3.6482,1.3011 5.5695,0.8013zm7.5615,-9.667c0.7007,2.5988 0.3688,5.0834 -0.9992,7.4506c-1.368,2.3706 -3.3497,3.8965 -5.9486,4.5805c-2.5985,0.684 -5.0731,0.3453 -7.427,-1.0159c-2.3672,-1.3683 -3.903,-3.3432 -4.6038,-5.9318c-0.6976,-2.5852 -0.3656,-5.0632 1.0027,-7.4339c1.368,-2.3672 3.3497,-3.8996 5.9448,-4.5938c2.592,-0.6973 5.0734,-0.3586 7.444,1.006c2.3539,1.3615 3.8829,3.3398 4.5871,5.9383z"/>
  <path fill="#ffffff" fill-rule="evenodd" id="path297" d="m394.0999,533.7966l4.2384,-7.3434l-12.2757,-7.0849l-3.5241,6.0993l6.5722,3.7956c2.4777,1.4318 4.1411,2.9406 4.9892,4.5334zm5.4958,-9.5162l1.0094,-1.7535l5.194,2.9977l-1.2575,2.1727l-3.1317,-1.8107l-6.2368,10.8036l3.1317,1.8074l-1.254,2.1762l-5.1939,-2.9977l0.8282,-1.4249c-0.6808,-1.7402 -2.3071,-3.3566 -4.8755,-4.8419l-8.5604,-4.9391l6.0355,-10.4516l14.311,8.2618z"/>
  <path fill="#ffffff" fill-rule="evenodd" id="path299" d="m403.3111,517.8359l4.3892,-7.5983l2.0588,1.1872l-5.6432,9.7741l-16.3667,-9.449l5.5729,-9.6568l2.0588,1.1869l-4.3189,7.4843l5.0264,2.9004l3.9835,-6.8975l2.0319,1.1769l-3.9801,6.8975l5.1874,2.9943zm-12.8928,-15.1124c0.1074,0.3722 0.06,0.7308 -0.1341,1.0729c-0.2013,0.3422 -0.4895,0.5667 -0.8719,0.6673c-0.3821,0.104 -0.741,0.0536 -1.0863,-0.1443c-0.3421,-0.1978 -0.5601,-0.4827 -0.6539,-0.8617c-0.094,-0.3756 -0.044,-0.7342 0.1542,-1.0797c0.1978,-0.3419 0.4796,-0.5633 0.8518,-0.6605c0.3688,-0.1006 0.7242,-0.0502 1.0664,0.1474c0.3418,0.1979 0.5697,0.4864 0.6738,0.8586zm-2.5651,4.4394c0.1072,0.3756 0.06,0.7344 -0.1375,1.0763c-0.1978,0.3455 -0.4861,0.5666 -0.8651,0.6673c-0.3821,0.104 -0.7478,0.0538 -1.0896,-0.144c-0.3422,-0.1979 -0.5602,-0.4831 -0.654,-0.8618c-0.094,-0.3756 -0.044,-0.7378 0.1542,-1.0763c0.1979,-0.3455 0.483,-0.5669 0.8518,-0.6673c0.3688,-0.0972 0.7243,-0.047 1.0661,0.1508c0.3422,0.1979 0.5667,0.4828 0.6741,0.855z"/>
  <path fill="#ffffff" fill-rule="evenodd" id="path301" d="m421.7496,490.659l-1.4318,2.478l-11.4341,1.6597l7.8565,4.5369l-1.2407,2.1492l-7.8562,-4.5334l4.2783,10.7299l-1.4182,2.4546l-4.5904,-11.3772l-11.6419,1.6966l1.4182,-2.4577l10.948,-1.6296l-7.5076,-4.3322l1.2439,-2.1495l7.5044,4.3325l-4.064,-10.2975l1.4317,-2.478l4.339,10.9545l12.1649,-1.7368z"/>
  <path fill="#ffffff" fill-rule="evenodd" id="path303" d="m412.465,468.9411l1.2405,-2.1529l16.3666,9.4524l-1.2407,2.1495l-7.3633,-4.2517l-4.5938,7.95l7.3667,4.2517l-1.2541,2.1728l-16.3698,-9.449l1.2575,-2.1728l6.9443,4.0071l4.587,-7.947l-6.9409,-4.0101z"/>
  <path fill="#ffffff" fill-rule="evenodd" id="path305" d="m428.0369,466.5937l3.3865,-5.8711l-9.7676,-1.7102l6.3811,7.5813zm10.294,-4.6573l-4.4396,-0.7846l-4.2517,7.3632l2.9004,3.4538l-1.338,2.3136l-12.8423,-15.5517l1.415,-2.4545l19.8938,3.3465l-1.3376,2.3137z"/>
  <path fill="#ffffff" fill-rule="evenodd" id="path307" d="m435.1787,448.3933l2.5385,-4.396l-6.1061,-3.5243l-2.5348,4.396c-0.4595,0.7948 -0.5601,1.6531 -0.3019,2.5719c0.2617,0.9187 0.8116,1.6194 1.6532,2.1058c0.8416,0.4862 1.7269,0.6134 2.6623,0.3855c0.932,-0.2313 1.6296,-0.7444 2.0888,-1.5389zm-4.3588,-11.2431l16.3698,9.449l-1.2441,2.1493l-6.2634,-3.6179l-1.878,3.2525l3.8228,7.8497l-1.4185,2.4545l-3.8962,-8.0475c-0.9122,0.9691 -2.0387,1.5559 -3.3834,1.7537c-1.3411,0.2044 -2.5886,-0.0269 -3.7454,-0.6942c-1.4015,-0.8115 -2.3137,-1.995 -2.7295,-3.5577c-0.419,-1.5591 -0.2245,-3.0444 0.5868,-4.4462l3.7791,-6.5452z"/>
  <path fill="#ffffff" fill-rule="evenodd" id="path309" d="m443.0786,415.9117l16.3667,9.4524l-1.254,2.1761l-14.3079,-8.2621l-4.3489,7.5277l14.311,8.2621l-1.2541,2.1728l-16.3698,-9.449l6.857,-11.88z"/>
  <path fill="#ffffff" fill-rule="evenodd" id="path311" d="m459.5961,416.656c1.9213,-0.4994 3.3968,-1.6463 4.4328,-3.4401c1.0327,-1.794 1.2875,-3.6451 0.7645,-5.5596c-0.5264,-1.9145 -1.6866,-3.3899 -3.4804,-4.426c-1.8073,-1.0429 -3.6717,-1.3144 -5.593,-0.815c-1.9213,0.5032 -3.4001,1.6498 -4.4328,3.4439c-1.0361,1.7937 -1.2909,3.6447 -0.7645,5.5593c0.5264,1.9148 1.6931,3.3933 3.5005,4.4396c1.794,1.036 3.6516,1.3008 5.5729,0.7979zm7.558,-9.6636c0.7041,2.5986 0.3688,5.0834 -0.9961,7.454c-1.368,2.3672 -3.3531,3.8928 -5.9482,4.5768c-2.5988,0.6809 -5.0732,0.3422 -7.4271,-1.0159c-2.3708,-1.368 -3.903,-3.3429 -4.604,-5.9281c-0.7007,-2.5886 -0.3654,-5.0666 1.0026,-7.4372c1.368,-2.3673 3.3497,-3.8997 5.9417,-4.5939c2.5954,-0.6973 5.0766,-0.3588 7.4472,1.0094c2.3539,1.3578 3.8829,3.3361 4.5839,5.9349z"/>
  <path fill="#ffffff" fill-rule="evenodd" id="path313" d="m470.9061,405.517l-1.965,-1.1367c0.7781,-0.9859 0.9456,-1.965 0.4997,-2.9406c-0.4459,-0.9723 -1.6999,-2.052 -3.7553,-3.2423l-9.2849,-5.3583l6.2368,-10.8037l16.3698,9.449l-1.2575,2.1761l-14.3076,-8.2621l-3.7252,6.4548l7.2226,4.1712c1.4653,0.845 2.6153,1.69 3.447,2.535c0.8314,0.845 1.3512,1.6631 1.559,2.4579c0.2047,0.7945 0.2214,1.5525 0.044,2.27c-0.1778,0.7208 -0.5366,1.4618 -1.0831,2.2297l-0.0003,0z"/>
  <path fill="#ffffff" fill-rule="evenodd" id="path315" d="m486.9037,377.8069l-12.2052,-7.048l7.3466,15.4644l-1.0126,1.7538l-16.3698,-9.449l1.2575,-2.1762l12.2287,7.0614l-7.3701,-15.4777l1.0125,-1.7538l16.3698,9.449l-1.2574,2.1761z"/>
  <path fill="#ffffff" fill-rule="evenodd" id="path317" d="m479.8689,352.1894l2.0588,1.1869l-2.793,4.8418l14.3076,8.2622l-1.2407,2.1492l-14.311,-8.2619l-2.7796,4.8184l-2.0588,-1.1869l6.8167,-11.8097z"/>
  <path fill="#ffffff" fill-rule="evenodd" id="path319" d="m503.354,349.3125l-12.2052,-7.0483l7.3466,15.4644l-1.0126,1.7538l-16.3664,-9.449l1.2541,-2.1762l12.2287,7.0617l-7.3701,-15.478l1.0125,-1.7536l16.3698,9.4491l-1.2574,2.1761z"/>
  <path fill="#ffffff" fill-rule="evenodd" id="path321" d="m513.5105,331.7221l-1.5389,2.6657l-11.9336,2.5248l7.8596,4.5369l-1.2574,2.1727l-16.3698,-9.449l1.2574,-2.1727l7.3902,4.265l-3.4472,-11.0954l1.5392,-2.6657l3.7789,11.8162l12.7216,-2.5985z"/>
  <path fill="#ffffff" fill-rule="evenodd" id="path323" d="m510.741,323.3426l3.3866,-5.868l-9.7676,-1.7098l6.381,7.5778zm10.2941,-4.6542l-4.4397,-0.7877l-4.2516,7.3666l2.9004,3.4538l-1.3346,2.3136l-12.8458,-15.5551l1.4151,-2.4545l19.8938,3.3466l-1.3376,2.3167z"/>
  <path fill="#ffffff" fill-rule="evenodd" id="path325" d="m462.9929,684.0592c0.8917,-1.8343 1.2506,-3.4537 1.0763,-4.862c-0.171,-1.4119 -0.9457,-2.5115 -2.3171,-3.3063c-1.3714,-0.7914 -2.7093,-0.9088 -4.0169,-0.3521c-1.3077,0.5534 -2.5351,1.6767 -3.6752,3.3633l8.9329,5.1571zm-8.9227,5.137c1.3581,0.7846 2.6893,0.8985 3.9969,0.3452c1.3076,-0.5567 2.5316,-1.6767 3.6717,-3.3664l-8.9059,-5.1438c-0.892,1.8341 -1.2506,3.4538 -1.0797,4.8654c0.1743,1.4083 0.9456,2.5081 2.317,3.2996zm3.1788,-15.9809c1.9381,-0.7614 3.856,-0.5936 5.7606,0.5028c1.9012,1.0999 3.0044,2.6757 3.3128,4.7345c0.3084,2.0588 -0.1374,4.3123 -1.3444,6.7566l1.8507,1.063l-1.2271,2.1291l-1.851,-1.0664c-1.5055,2.2502 -3.2256,3.7556 -5.1636,4.5167c-1.935,0.7646 -3.8563,0.597 -5.7575,-0.5028c-1.9012,-1.0965 -3.0075,-2.6759 -3.3128,-4.7347c-0.3084,-2.0588 0.134,-4.3019 1.3277,-6.7298l-1.8473,-1.0695l1.2271,-2.126l1.8476,1.0664c1.5157,-2.2634 3.2423,-3.7754 5.1772,-4.5399z"/>
  <path fill="#ffffff" fill-rule="evenodd" id="path327" d="m478.4505,665.8752l-12.2086,-7.0483l7.35,15.4647l-1.0126,1.7535l-16.3697,-9.449l1.2574,-2.1762l12.2253,7.0617l-7.3667,-15.478l1.0125,-1.7535l16.3667,9.449l-1.2543,2.1761z"/>
  <path fill="#ffffff" fill-rule="evenodd" id="path329" d="m477.8067,647.4364c0.845,-0.6335 1.747,-0.989 2.7026,-1.0596c0.9558,-0.0703 1.9014,0.1611 2.8369,0.7011c1.4014,0.8112 2.243,2.0018 2.5248,3.5642c0.2818,1.5659 -0.077,3.2123 -1.0763,4.9459c-0.9088,1.5724 -1.9916,2.6354 -3.246,3.1887c-1.2571,0.5533 -2.5483,0.7075 -3.8826,0.4561l0.017,-2.4545c2.1192,0.58 3.8024,-0.2146 5.0531,-2.3808c0.6571,-1.1367 0.9119,-2.166 0.7645,-3.0816c-0.1443,-0.9153 -0.6404,-1.616 -1.4788,-2.1021c-0.8451,-0.4865 -1.6898,-0.5837 -2.5416,-0.2985c-0.8549,0.2883 -1.5792,0.9555 -2.183,1.9984l-1.1097,1.9179l-1.9851,-1.15l0.7979,-1.3782c0.5735,-0.9992 0.7881,-1.9312 0.6373,-2.81c-0.1477,-0.875 -0.6203,-1.5423 -1.4151,-2.0018c-0.7778,-0.4493 -1.5727,-0.5397 -2.3839,-0.2682c-0.8116,0.2682 -1.499,0.8955 -2.069,1.8746c-1.0429,1.8105 -0.9355,3.4804 0.3186,5.0162l-2.1059,1.2172c-1.6931,-2.287 -1.7736,-4.7549 -0.2446,-7.4072c0.9088,-1.5724 2.0789,-2.5952 3.5172,-3.068c1.4352,-0.4694 2.8233,-0.3152 4.1613,0.4561c1.5627,0.902 2.3573,2.2768 2.3907,4.1241l-0.0003,0z"/>
  <path fill="#ffffff" fill-rule="evenodd" id="path331" d="m495.1791,636.8978l-12.2051,-7.0484l7.3465,15.4647l-1.0125,1.7536l-16.3698,-9.4491l1.2575,-2.1761l12.2286,7.0617l-7.3701,-15.4781l1.0126,-1.7535l16.3698,9.449l-1.2575,2.1762z"/>
  <path fill="#ffffff" fill-rule="evenodd" id="path333" d="m487.2827,612.7687l1.2574,-2.1727l16.3664,9.449l-1.2541,2.1761l-6.5922,-3.8089c-0.1307,1.6294 -0.6035,3.1451 -1.4117,4.5499c-0.9187,1.5894 -2.1089,2.6155 -3.5742,3.0816c-1.4621,0.4663 -2.9106,0.2817 -4.3458,-0.5466l-5.8444,-3.3732l1.2574,-2.1762l5.7036,3.2928c0.8887,0.5164 1.7606,0.6437 2.6121,0.3889c0.8552,-0.2549 1.5693,-0.8819 2.1461,-1.8811c0.8113,-1.4014 1.2776,-2.9103 1.3981,-4.5232l-7.7187,-4.4564z"/>
  <path fill="#ffffff" fill-rule="evenodd" id="path335" d="m506.1339,613.1678l4.3892,-7.5979l2.0588,1.1868l-5.6432,9.7742l-16.3701,-9.449l5.5763,-9.6568l2.0554,1.1868l-4.3186,7.4809l5.0295,2.9039l3.9835,-6.8976l2.0319,1.1738l-3.9835,6.8973l5.1908,2.9976z"/>
  <path fill="#ffffff" fill-rule="evenodd" id="path337" d="m518.7716,596.7411c-1.4318,2.4777 -3.4336,4.0504 -6.0021,4.7177c-2.5651,0.6706 -5.0431,0.3152 -7.427,-1.0596c-2.3874,-1.3782 -3.9331,-3.3463 -4.6372,-5.9049c-0.7044,-2.5582 -0.3422,-5.0765 1.0896,-7.5577c0.8617,-1.4956 2.0152,-2.6623 3.4571,-3.5039c1.4417,-0.8419 2.9741,-1.2609 4.5936,-1.2609l0.01,2.5283c-1.1736,-0.0536 -2.3003,0.2279 -3.3732,0.845c-1.073,0.6168 -1.9347,1.4853 -2.5818,2.6087c-1.0866,1.8845 -1.3683,3.7755 -0.8416,5.6701c0.5263,1.8944 1.7033,3.3699 3.5274,4.4226c1.8074,1.0429 3.6649,1.3213 5.5695,0.8283c1.9046,-0.4895 3.3999,-1.6767 4.4898,-3.5643c0.6471,-1.1233 0.9689,-2.3037 0.9689,-3.541c0,-1.2373 -0.3118,-2.3471 -0.9321,-3.3262l2.1694,-1.2741c0.8181,1.3881 1.2274,2.9205 1.224,4.6037c0,1.6832 -0.4394,3.2692 -1.3011,4.7682l-0.0032,0z"/>
  <path fill="#ffffff" fill-rule="evenodd" id="path339" d="m530.8293,575.1504l-1.5389,2.6657l-11.9339,2.5248l7.8565,4.5369l-1.254,2.1728l-16.3701,-9.4491l1.2575,-2.1727l7.3871,4.265l-3.4473,-11.0954l1.5393,-2.6657l3.7822,11.8162l12.7216,-2.5985z"/>
  <path fill="#ffffff" fill-rule="evenodd" id="path341" d="m528.0565,566.7743l3.3899,-5.868l-9.7676,-1.7098l6.3777,7.5778zm10.2971,-4.6542l-4.4393,-0.7877l-4.2551,7.3667l2.9038,3.4503l-1.338,2.317l-12.8457,-15.5551l1.4184,-2.4545l19.8905,3.3466l-1.3346,2.3167z"/>
  <path fill="#ffffff" fill-rule="evenodd" id="path343" d="m535.2018,548.5671l2.5384,-4.396l-6.1027,-3.524l-2.535,4.3957c-0.4593,0.7948 -0.5599,1.6532 -0.3016,2.5719c0.2579,0.9187 0.8078,1.6197 1.6528,2.1058c0.8385,0.4862 1.7269,0.6137 2.6626,0.3855c0.9321,-0.2313 1.6294,-0.7443 2.0855,-1.5389zm-4.3557,-11.243l16.3666,9.449l-1.2407,2.1495l-6.2668,-3.6182l-1.8746,3.2525l3.8225,7.8497l-1.4184,2.4545l-3.8962,-8.0475c-0.9119,0.9691 -2.0387,1.5525 -3.3832,1.7538c-1.3413,0.2043 -2.592,-0.027 -3.7454,-0.6942c-1.4017,-0.8116 -2.3136,-1.9951 -2.7295,-3.5578c-0.4192,-1.5591 -0.2248,-3.0444 0.5868,-4.4461l3.7789,-6.5452z"/>
  <path fill="#ffffff" fill-rule="evenodd" id="path345" d="m559.485,525.5144l-1.5392,2.6657l-11.9335,2.5282l7.8562,4.5334l-1.2541,2.1762l-16.3664,-9.4524l1.2541,-2.1728l7.3902,4.2653l-3.4503,-11.0922l1.5389,-2.6657l3.7825,11.8165l12.7216,-2.6022z"/>
  <path fill="#ffffff" fill-rule="evenodd" id="path347" d="m549.3889,505.2081l1.2674,-2.1997l9.449,12.4736c1.0596,1.4017 1.6395,2.7428 1.7402,4.0303c0.1006,1.281 -0.2682,2.5653 -1.1132,3.8426l-2.0084,-1.1599c0.6135,-0.8484 0.902,-1.66 0.8683,-2.4279c-0.034,-0.7676 -0.3787,-1.5894 -1.0361,-2.4678l-0.2817,-0.3821l-14.9346,-1.234l1.2673,-2.1962l11.8633,1.0493l-7.0815,-9.3282z"/>
  <path fill="#ffffff" fill-rule="evenodd" id="path349" d="m566.2718,513.7619l-1.965,-1.1333c0.7778,-0.9859 0.9422,-1.9649 0.4963,-2.9409c-0.4462,-0.9723 -1.6968,-2.0554 -3.7556,-3.2423l-9.2815,-5.3583l6.2368,-10.8037l16.3698,9.449l-1.2572,2.1762l-14.3078,-8.2619l-3.7287,6.4514l7.226,4.1712c1.4653,0.8484 2.6156,1.69 3.447,2.535c0.8317,0.8447 1.3513,1.6665 1.5559,2.461c0.2078,0.7915 0.2211,1.5526 0.047,2.27c-0.1777,0.7177 -0.5363,1.4621 -1.0828,2.2266l-0.0002,0z"/>
  <path fill="#ffffff" fill-rule="evenodd" id="path351" d="m577.7895,489.1133c0.5233,-0.9054 0.6505,-1.8275 0.3858,-2.7698c-0.2651,-0.9456 -0.8686,-1.6866 -1.8009,-2.2263c-0.9221,-0.5298 -1.8609,-0.6775 -2.8199,-0.4428c-0.9555,0.2381 -1.6965,0.8082 -2.2198,1.7136l-2.1693,3.7655l6.4513,3.7253l2.1728,-3.7655zm-8.4867,-4.8989c0.872,-1.5123 2.1059,-2.478 3.6984,-2.9004c1.5962,-0.4192 3.132,-0.2012 4.614,0.6537c1.4955,0.8617 2.4579,2.0891 2.8802,3.6751c0.4258,1.586 0.2013,3.1317 -0.6706,4.6474l-3.4302,5.9383l-16.3664,-9.4524l1.2574,-2.1728l5.8445,3.3733l2.1727,-3.7622z"/>
  <path fill="#ffffff" fill-rule="evenodd" id="path353" d="m572.8538,464.5618l2.0588,1.1869l-2.7964,4.8419l14.311,8.2621l-1.2407,2.1526l-14.311,-8.2652l-2.7831,4.8183l-2.0554,-1.1903l6.8168,-11.8063z"/>
  <path fill="#ffffff" fill-rule="evenodd" id="path355" d="m579.5129,453.0271l1.2708,-2.1997l9.4493,12.4702c1.0596,1.4017 1.6396,2.7462 1.7402,4.0306c0.1006,1.2841 -0.2716,2.565 -1.1132,3.846l-2.012,-1.1602c0.6137,-0.8518 0.9088,-1.6597 0.8719,-2.4276c-0.034,-0.7679 -0.379,-1.5928 -1.036,-2.4712l-0.2818,-0.379l-14.938,-1.234l1.2708,-2.1996l11.8632,1.0527l-7.0852,-9.3282z"/>
  <path fill="#ffffff" fill-rule="evenodd" id="path357" d="m593.8409,447.8164c0.5196,-0.9053 0.6472,-1.8309 0.3722,-2.7796c-0.2749,-0.9456 -0.8719,-1.6866 -1.7906,-2.2164c-0.9354,-0.54 -1.8811,-0.6908 -2.8301,-0.4493c-0.9488,0.2412 -1.6866,0.8147 -2.2062,1.7201l-2.1728,3.7621l6.4545,3.7287l2.173,-3.7656zm-8.49,-4.8988c0.8717,-1.5157 2.1022,-2.4848 3.6882,-2.9072c1.5862,-0.4258 3.1286,-0.2078 4.6241,0.6574c1.482,0.8549 2.4375,2.0786 2.8701,3.668c0.4326,1.5928 0.2146,3.1419 -0.6605,4.6542l-2.1727,3.7655l5.8444,3.3767l-1.254,2.1727l-16.3698,-9.449l3.4302,-5.9383z"/>
  <path fill="#ffffff" fill-rule="evenodd" id="path359" d="m601.2243,440.0472l3.3866,-5.868l-9.7676,-1.7098l6.381,7.5778zm10.2941,-4.6573l-4.4397,-0.7846l-4.2516,7.3667l2.9004,3.4503l-1.3377,2.3136l-12.8424,-15.5517l1.4148,-2.4545l19.8941,3.3466l-1.3379,2.3136z"/>
  <path fill="#ffffff" fill-rule="evenodd" id="path361" d="m623.2274,415.1103l-12.2054,-7.0483l7.3469,15.4681l-1.0163,1.7535l-16.3664,-9.4524l1.2575,-2.1728l12.2286,7.0583l-7.37,-15.478l1.0128,-1.7536l16.3664,9.4524l-1.2541,2.1728z"/>
  <path fill="#ffffff" fill-rule="evenodd" id="path363" d="m634.6346,396.0547c-1.4284,2.4777 -3.4302,4.0504 -5.9987,4.7177c-2.5684,0.6707 -5.0431,0.3152 -7.427,-1.063c-2.3874,-1.3779 -3.9334,-3.3429 -4.6375,-5.9015c-0.7041,-2.5582 -0.3419,-5.0765 1.0899,-7.5543c0.8652,-1.4955 2.0152,-2.6657 3.4569,-3.5073c1.442,-0.8419 2.971,-1.2608 4.5938,-1.2608l0.01,2.5282c-1.1735,-0.0536 -2.3003,0.2279 -3.3698,0.845c-1.0763,0.6168 -1.935,1.4853 -2.5852,2.6087c-1.0865,1.8845 -1.3683,3.7755 -0.8419,5.6701c0.5267,1.8944 1.7036,3.3699 3.5277,4.4227c1.8071,1.0428 3.6649,1.3212 5.5692,0.8282c1.9046,-0.4895 3.4002,-1.6766 4.4901,-3.5642c0.6472,-1.12 0.9689,-2.3004 0.9689,-3.5411c0,-1.2373 -0.3118,-2.3471 -0.932,-3.3261l2.1693,-1.2742c0.8181,1.3881 1.2271,2.9239 1.224,4.6037c-0.01,1.6798 -0.4393,3.2692 -1.3045,4.7682l-0.0032,0z"/>
  <path fill="#ffffff" fill-rule="evenodd" id="path365" d="m630.3192,365.0284l16.3697,9.449l-1.2574,2.1761l-14.311,-8.2618l-4.3455,7.5276l14.3076,8.2619l-1.2507,2.1762l-16.3698,-9.449l6.8571,-11.88z"/>
  <path fill="#ffffff" fill-rule="evenodd" id="path367" d="m646.8332,365.7727c1.9214,-0.4994 3.4002,-1.6497 4.4363,-3.4435c1.0326,-1.7906 1.2874,-3.6448 0.7611,-5.5596c-0.5264,-1.9145 -1.6867,-3.3899 -3.4773,-4.4226c-1.8074,-1.0463 -3.6748,-1.3144 -5.5962,-0.815c-1.9182,0.5032 -3.3967,1.6464 -4.4328,3.4404c-1.0329,1.7938 -1.2909,3.6482 -0.7645,5.5628c0.5264,1.9148 1.6931,3.3933 3.5039,4.4362c1.7907,1.036 3.6482,1.3045 5.5695,0.8013zm7.5612,-9.667c0.701,2.5988 0.369,5.0834 -0.9992,7.454c-1.368,2.3706 -3.3497,3.8962 -5.9483,4.5771c-2.5954,0.684 -5.07,0.3453 -7.4273,-1.0128c-2.3672,-1.368 -3.9027,-3.3463 -4.6038,-5.9315c-0.6973,-2.5886 -0.3619,-5.0632 1.0027,-7.4338c1.368,-2.3707 3.3497,-3.9031 5.9451,-4.5973c2.5954,-0.6939 5.0765,-0.3586 7.4437,1.0094c2.3539,1.3612 3.8829,3.3398 4.5871,5.9349z"/>
  <path fill="#ffffff" fill-rule="evenodd" id="path369" d="m655.065,341.7712c0.5199,-0.9054 0.6438,-1.8306 0.3688,-2.7796c-0.2715,-0.9491 -0.8682,-1.6866 -1.7872,-2.2164c-0.9354,-0.5398 -1.8777,-0.6908 -2.8264,-0.4493c-0.9525,0.2446 -1.6901,0.8146 -2.2099,1.7166l-2.1728,3.7656l6.4514,3.7253l2.1761,-3.7622zm-8.49,-4.9022c0.8719,-1.5089 2.1025,-2.4778 3.6884,-2.9038c1.586,-0.4258 3.1283,-0.2044 4.6239,0.6573c1.4822,0.855 2.4378,2.079 2.8704,3.6683c0.4325,1.5894 0.2146,3.142 -0.6605,4.654l-2.173,3.7655l5.8478,3.3732l-1.2574,2.1762l-16.3664,-9.4524l3.4268,-5.9383z"/>
  <path fill="#ffffff" fill-rule="evenodd" id="path371" d="m656.9161,318.9569l2.0588,1.1868l-2.7933,4.8419l14.3079,8.2621l-1.2407,2.1493l-14.311,-8.2585l-2.78,4.8149l-2.0588,-1.1871l6.8171,-11.8094z"/>
  <path fill="#ffffff" fill-rule="evenodd" id="path373" d="m581.5718,754.1892l4.2383,-7.3434l-12.2757,-7.085l-3.524,6.0994l6.5721,3.7955c2.4778,1.4318 4.1377,2.9407 4.9893,4.5335zm5.4924,-9.5162l1.0128,-1.7535l5.1905,2.9976l-1.254,2.1728l-3.1352,-1.8108l-6.2368,10.8037l3.1318,1.8108l-1.2541,2.1727l-5.1905,-2.9976l0.8249,-1.425c-0.6775,-1.7436 -2.3037,-3.3565 -4.8756,-4.8418l-8.557,-4.9391l6.0322,-10.4551l14.311,8.2653z"/>
  <path fill="#ffffff" fill-rule="evenodd" id="path375" d="m589.5623,736.6459c1.9214,-0.5032 3.3999,-1.6498 4.4363,-3.4439c1.0326,-1.7903 1.2875,-3.6447 0.7611,-5.5593c-0.5233,-1.9148 -1.6867,-3.3899 -3.4773,-4.426c-1.8074,-1.0428 -3.6717,-1.3144 -5.593,-0.8115c-1.9214,0.4994 -3.3999,1.6497 -4.436,3.4401c-1.0363,1.794 -1.2912,3.6482 -0.7614,5.563c0.5233,1.9145 1.6901,3.3933 3.5008,4.4359c1.7938,1.0364 3.6482,1.3011 5.5695,0.8017zm7.5612,-9.667c0.7041,2.6019 0.3688,5.083 -0.9992,7.4537c-1.368,2.3709 -3.3497,3.8931 -5.9485,4.5771c-2.5952,0.684 -5.0732,0.3452 -7.4271,-1.0126c-2.3672,-1.3683 -3.903,-3.3466 -4.6038,-5.9318c-0.6973,-2.5885 -0.3619,-5.0632 1.0061,-7.4338c1.368,-2.3706 3.3497,-3.903 5.9417,-4.597c2.5951,-0.6942 5.0765,-0.3588 7.4437,1.0092c2.3573,1.3581 3.8829,3.3398 4.5871,5.9352z"/>
  <path fill="#ffffff" fill-rule="evenodd" id="path377" d="m592.721,701.8239l16.3664,9.4522l-1.2541,2.1761l-14.311,-8.2652l-4.3458,7.531l14.3113,8.2588l-1.2574,2.1761l-16.3667,-9.449l6.8573,-11.88z"/>
  <path fill="#ffffff" fill-rule="evenodd" id="path379" d="m609.2484,702.5482c1.9213,-0.5032 3.3999,-1.6498 4.4362,-3.4438c1.0327,-1.7904 1.2875,-3.6448 0.7611,-5.5593c-0.5264,-1.9148 -1.6832,-3.39 -3.4773,-4.4263c-1.8073,-1.0426 -3.6751,-1.3142 -5.5964,-0.8113c-1.9179,0.4995 -3.3999,1.6498 -4.4325,3.4401c-1.033,1.7941 -1.2912,3.6451 -0.7645,5.563c0.5264,1.9145 1.6931,3.3934 3.5039,4.4359c1.7906,1.0364 3.6482,1.3046 5.5695,0.8017zm7.5611,-9.667c0.7007,2.6019 0.3688,5.0831 -0.9992,7.4537c-1.368,2.3675 -3.3497,3.8965 -5.9482,4.5771c-2.5954,0.684 -5.0735,0.3453 -7.4274,-1.0125c-2.3672,-1.3683 -3.903,-3.3466 -4.6003,-5.9318c-0.7007,-2.5852 -0.3688,-5.0664 0.9992,-7.4339c1.368,-2.3706 3.3497,-3.8996 5.9451,-4.5969c2.5951,-0.6942 5.0766,-0.3589 7.4438,1.0091c2.3539,1.3581 3.8829,3.3398 4.587,5.9352z"/>
  <path fill="#ffffff" fill-rule="evenodd" id="path381" d="m620.5549,691.4191l-1.9649,-1.1333c0.7781,-0.9893 0.9422,-1.9684 0.4963,-2.9407c-0.4459,-0.9757 -1.6965,-2.0554 -3.7553,-3.2459l-9.2815,-5.3581l6.2368,-10.8037l16.3664,9.4491l-1.2541,2.1761l-14.311,-8.2621l-3.7253,6.4547l7.2258,4.1712c1.4655,0.845 2.6156,1.69 3.4472,2.535c0.8314,0.8451 1.3479,1.6631 1.5557,2.458c0.2081,0.7979 0.2214,1.5522 0.047,2.2699c-0.1777,0.7209 -0.54,1.4619 -1.0831,2.2298z"/>
  <path fill="#ffffff" fill-rule="evenodd" id="path383" d="m620.1561,654.3071l1.2438,-2.1527l16.3664,9.449l-1.2404,2.1527l-7.367,-4.2517l-4.5904,7.95l7.367,4.252l-1.2541,2.1727l-16.3698,-9.449l1.2572,-2.173l6.9443,4.0071l4.587,-7.9501l-6.944,-4.007z"/>
  <path fill="#ffffff" fill-rule="evenodd" id="path385" d="m645.6696,647.9195l-12.2085,-7.045l7.3465,15.461l-1.0125,1.7572l-16.3664,-9.4524l1.254,-2.1727l12.2287,7.0582l-7.3667,-15.478l1.0126,-1.7535l16.3664,9.4521l-1.2541,2.1731z"/>
  <path fill="#ffffff" fill-rule="evenodd" id="path387" d="m638.6281,622.3084l2.0588,1.1869l-2.793,4.8419l14.3076,8.2621l-1.2407,2.1492l-14.311,-8.2618l-2.7797,4.8183l-2.0588,-1.1903l6.8168,-11.8063z"/>
  <path fill="#ffffff" fill-rule="evenodd" id="path389" d="m655.4338,626.2483l4.3892,-7.5983l2.0557,1.1872l-5.6401,9.7741l-16.3698,-9.449l5.5763,-9.6568l2.0554,1.1869l-4.3189,7.4843l5.0264,2.9004l3.9836,-6.8975l2.0352,1.1738l-3.9835,6.9007l5.1905,2.9942z"/>
  <path fill="#ffffff" fill-rule="evenodd" id="path391" d="m662.5726,618.6435l-1.9681,-1.1333c0.7778,-0.9859 0.9454,-1.9683 0.4995,-2.9406c-0.4459,-0.976 -1.7,-2.0588 -3.7554,-3.2426l-9.2849,-5.3617l6.2368,-10.8003l16.3698,9.449l-1.254,2.1728l-14.311,-8.2619l-3.7287,6.4548l7.2261,4.1712c1.4686,0.845 2.6152,1.69 3.4469,2.535c0.8348,0.8447 1.3513,1.6631 1.5591,2.4576c0.2046,0.7949 0.2213,1.5526 0.044,2.2734c-0.1743,0.7177 -0.5363,1.4587 -1.0797,2.2266l-0.0004,0z"/>
  <path fill="#ffffff" fill-rule="evenodd" id="path393" d="m674.094,593.9847c0.523,-0.902 0.6503,-1.8273 0.3821,-2.7695c-0.2647,-0.9456 -0.8651,-1.6866 -1.8005,-2.2266c-0.9187,-0.5298 -1.8576,-0.6772 -2.8165,-0.4391c-0.9559,0.2347 -1.6969,0.8048 -2.2199,1.7099l-2.1727,3.7621l6.4545,3.7287l2.173,-3.7655zm-8.4869,-4.8989c0.8719,-1.5123 2.1058,-2.4777 3.6986,-2.9004c1.5959,-0.4192 3.1317,-0.2012 4.614,0.6506c1.4953,0.8651 2.4542,2.0922 2.8803,3.6782c0.4257,1.586 0.2009,3.132 -0.6707,4.644l-3.4302,5.9417l-16.3667,-9.4521l1.2543,-2.1731l5.8476,3.3733l2.1728,-3.7622z"/>
  <path fill="#ffffff" fill-rule="evenodd" id="path395" d="m670.1439,567.7268l1.2408,-2.1529l16.3664,9.4524l-1.2408,2.1495l-7.3666,-4.252l-4.5905,7.9503l7.367,4.2517l-1.2543,2.1762l-16.3698,-9.449l1.2574,-2.1762l6.9443,4.0105l4.5905,-7.9504l-6.9444,-4.0101z"/>
  <path fill="#ffffff" fill-rule="evenodd" id="path397" d="m687.9053,566.3117c1.9213,-0.4997 3.3967,-1.6497 4.4328,-3.4438c1.036,-1.7904 1.2909,-3.6448 0.7645,-5.5593c-0.5264,-1.9148 -1.6866,-3.39 -3.477,-4.4229c-1.8108,-1.046 -3.6751,-1.3144 -5.5964,-0.8147c-1.9214,0.5029 -3.4002,1.6464 -4.4329,3.4401c-1.036,1.7941 -1.2909,3.6482 -0.7645,5.563c0.5264,1.9146 1.6935,3.3934 3.5008,4.4363c1.7938,1.036 3.6513,1.3042 5.5727,0.8013zm7.558,-9.6636c0.7041,2.5985 0.3722,5.0831 -0.9958,7.4506c-1.3683,2.3706 -3.35,3.8962 -5.9485,4.5768c-2.5986,0.684 -5.0732,0.3453 -7.4271,-1.0125c-2.3706,-1.368 -3.903,-3.3466 -4.6037,-5.9318c-0.6976,-2.5886 -0.3657,-5.0632 1.0023,-7.4338c1.3683,-2.3707 3.35,-3.9031 5.9417,-4.597c2.5954,-0.6942 5.0768,-0.3589 7.4475,1.0091c2.3538,1.3615 3.8829,3.3398 4.5836,5.9386z"/>
  <path fill="#ffffff" fill-rule="evenodd" id="path399" d="m699.7853,549.4323l4.386,-7.5983l2.0588,1.1903l-5.6432,9.771l-16.3701,-9.449l5.5763,-9.6571l2.0588,1.1871l-4.3188,7.4841l5.0264,2.9038l3.9835,-6.9007l2.0319,1.177l-3.9802,6.8972l5.1906,2.9946z"/>
  <path fill="#ffffff" fill-rule="evenodd" id="path401" d="m709.2411,529.357c1.9213,-0.5029 3.4001,-1.6498 4.4328,-3.4401c1.0361,-1.7941 1.2909,-3.6482 0.7645,-5.5627c-0.5264,-1.9148 -1.6866,-3.3869 -3.4804,-4.4229c-1.8074,-1.0463 -3.6683,-1.3144 -5.593,-0.8147c-1.9213,0.5029 -3.4002,1.6495 -4.4328,3.4401c-1.0361,1.7941 -1.2909,3.6482 -0.7645,5.5627c0.5263,1.9148 1.6934,3.3934 3.5039,4.4363c1.7906,1.036 3.6481,1.3011 5.5695,0.8013zm7.558,-9.6636c0.7041,2.5954 0.3722,5.08 -0.9961,7.4506c-1.368,2.3706 -3.3497,3.8965 -5.9482,4.5771c-2.5954,0.684 -5.0732,0.3453 -7.4271,-1.0128c-2.3675,-1.368 -3.903,-3.3463 -4.604,-5.9315c-0.6973,-2.5852 -0.3654,-5.0633 1.006,-7.4339c1.3649,-2.3706 3.3463,-3.903 5.9383,-4.5969c2.5988,-0.6942 5.0766,-0.3589 7.4472,1.0091c2.3539,1.3615 3.8829,3.3364 4.5839,5.9383z"/>
  <path fill="#ffffff" fill-rule="evenodd" id="path403" d="m723.4347,508.5209c0.4694,-0.8115 0.5868,-1.663 0.3555,-2.5551c-0.2347,-0.8918 -0.7713,-1.5826 -1.6129,-2.0687c-0.8249,-0.4762 -1.6833,-0.5936 -2.5716,-0.3487c-0.8921,0.2446 -1.5693,0.7744 -2.0387,1.586l-2.2969,3.9733l5.8711,3.3866l2.2935,-3.9734zm-7.8999,-4.5634c0.8181,-1.4185 1.9885,-2.3406 3.5141,-2.7698c1.5257,-0.4291 2.9844,-0.2415 4.3691,0.5567c1.4218,0.8215 2.3238,1.9917 2.7127,3.5139c0.3856,1.5259 0.1676,3.001 -0.6607,4.4362l-3.5507,6.1498l-16.3667,-9.4493l5.6702,-9.8212l2.0588,1.1905l-4.4161,7.6451l4.3724,2.5214l2.2969,-3.9733z"/>
  <path fill="#ffffff" fill-rule="evenodd" id="path405" d="m725.3662,491.6817c0.5196,-0.9054 0.6472,-1.8309 0.3722,-2.7796c-0.2749,-0.9457 -0.8685,-1.6866 -1.7906,-2.2164c-0.9355,-0.54 -1.8777,-0.6908 -2.8267,-0.4493c-0.9522,0.2412 -1.6866,0.8147 -2.2096,1.72l-2.1728,3.7622l6.4548,3.7287l2.1727,-3.7656zm-8.49,-4.9022c0.8716,-1.5123 2.1024,-2.4815 3.6884,-2.9038c1.586,-0.4258 3.1283,-0.2078 4.6273,0.6571c1.4786,0.8552 2.4344,2.0789 2.8667,3.6683c0.436,1.5894 0.2148,3.1419 -0.6571,4.6542l-2.1761,3.7655l5.8478,3.3732l-1.2574,2.1762l-16.3664,-9.449l3.4268,-5.9417z"/>
  <path fill="#ffffff" fill-rule="evenodd" id="path407" d="m732.7496,483.9125l3.3869,-5.868l-9.7645,-1.7098l6.3776,7.5778zm10.2941,-4.6573l-4.4394,-0.7846l-4.252,7.3667l2.9007,3.4503l-1.3379,2.3136l-12.8424,-15.5517l1.4182,-2.4545l19.8907,3.3466l-1.3379,2.3136z"/>
  <path fill="#ffffff" fill-rule="evenodd" id="path409" d="m741.6354,462.151c0.8416,-0.6373 1.7436,-0.9893 2.6991,-1.0596c0.959,-0.0737 1.9012,0.161 2.837,0.7007c1.4014,0.8116 2.2464,1.9984 2.5282,3.5643c0.2783,1.5661 -0.081,3.2125 -1.0797,4.9425c-0.9088,1.5726 -1.9919,2.639 -3.246,3.1923c-1.254,0.5531 -2.5483,0.7073 -3.8795,0.4559l0.014,-2.4546c2.1189,0.5803 3.8024,-0.2145 5.0531,-2.3805c0.6604,-1.1367 0.9153,-2.1662 0.7679,-3.0815c-0.1477,-0.9153 -0.6407,-1.6164 -1.4823,-2.1025c-0.8416,-0.4861 -1.69,-0.5868 -2.5415,-0.2985c-0.8518,0.2886 -1.5795,0.9559 -2.1796,1.9987l-1.1097,1.9145l-1.9851,-1.1469l0.7945,-1.3779c0.5769,-0.9961 0.7914,-1.9349 0.6406,-2.81c-0.1476,-0.875 -0.6205,-1.5423 -1.4184,-2.0018c-0.7778,-0.4527 -1.5727,-0.5397 -2.3839,-0.2715c-0.8082,0.2681 -1.499,0.8951 -2.0657,1.8776c-1.0428,1.8108 -0.9388,3.4807 0.3187,5.0162l-2.1093,1.2172c-1.6931,-2.2867 -1.7736,-4.7579 -0.2446,-7.4069c0.9085,-1.5727 2.0823,-2.5985 3.5172,-3.0682c1.4352,-0.4695 2.8233,-0.3184 4.1647,0.4561c1.559,0.9019 2.3538,2.2733 2.3907,4.1244l-0.0004,0z"/>
  <path fill="#ffffff" fill-rule="evenodd" id="path411" d="m751.2522,456.5883c1.9213,-0.4998 3.3999,-1.6498 4.436,-3.4405c1.0363,-1.7937 1.2911,-3.6481 0.7645,-5.5593c-0.5264,-1.9182 -1.6867,-3.3902 -3.4804,-4.4263c-1.8074,-1.0459 -3.6717,-1.3175 -5.5965,-0.8146c-1.9179,0.5028 -3.3964,1.6497 -4.4294,3.4435c-1.036,1.7906 -1.2909,3.6448 -0.7645,5.5596c0.5264,1.9145 1.6934,3.3933 3.5008,4.4393c1.7938,1.033 3.6513,1.3011 5.5695,0.7983zm7.5612,-9.6639c0.7007,2.5988 0.3721,5.0799 -0.9959,7.4506c-1.3714,2.3709 -3.3531,3.8965 -5.9519,4.5771c-2.5951,0.684 -5.0697,0.3452 -7.4236,-1.0126c-2.3706,-1.3683 -3.903,-3.3466 -4.6038,-5.9317c-0.701,-2.5852 -0.3656,-5.0633 1.0026,-7.4339c1.368,-2.3672 3.3497,-3.8996 5.9417,-4.597c2.5952,-0.6942 5.0766,-0.3588 7.4438,1.0126c2.3573,1.3581 3.8863,3.3364 4.5871,5.9349z"/>
  <path fill="#ffffff" fill-rule="evenodd" id="path413" d="m765.9688,434.8567c0.4224,-0.7344 0.5199,-1.4989 0.2917,-2.2935c-0.2245,-0.7948 -0.7109,-1.4116 -1.4584,-1.8408c-0.7344,-0.426 -1.5058,-0.5298 -2.3105,-0.322c-0.8079,0.2112 -1.4182,0.6741 -1.8306,1.3915l-2.8233,4.8855l5.3078,3.0648l2.8233,-4.8855zm-12.5974,-6.5888l-2.5251,4.3724l5.0029,2.8905l2.5248,-4.3724c0.3957,-0.6874 0.4895,-1.4018 0.2749,-2.1495c-0.2111,-0.7478 -0.6704,-1.3213 -1.3714,-1.7269c-0.6874,-0.3957 -1.4116,-0.4995 -2.1761,-0.305c-0.7679,0.191 -1.3445,0.6202 -1.73,1.2909zm7.4639,0.57c0.7912,-0.5431 1.6532,-0.8416 2.5784,-0.8986c0.9255,-0.0569 1.8275,0.1676 2.6994,0.6704c1.3077,0.758 2.1425,1.8511 2.5013,3.2828c0.3555,1.4318 0.1508,2.8134 -0.6137,4.1378l-4.0739,7.0616l-16.3698,-9.449l3.7788,-6.5486c0.7379,-1.2775 1.7941,-2.1123 3.1655,-2.5081c1.3714,-0.3923 2.6858,-0.2247 3.9498,0.5029c1.4488,0.8382 2.2433,2.0857 2.3842,3.7488z"/>
  <path fill="#ffffff" fill-rule="evenodd" id="path415" d="m768.1518,422.5977l3.3866,-5.8711l-9.7677,-1.7101l6.3811,7.5812zm10.294,-4.6573l-4.4396,-0.788l-4.2551,7.3667l2.9038,3.4537l-1.3345,2.3136l-12.8458,-15.5551l1.4151,-2.4545l19.8938,3.3466l-1.3377,2.317z"/>
  <path fill="#ffffff" fill-rule="evenodd" id="path417" d="m770.3815,394.1064l1.2442,-2.1526l16.3664,9.4524l-1.2408,2.1492l-7.3666,-4.2516l-4.5905,7.9503l7.3667,4.2517l-1.254,2.1727l-16.3698,-9.449l1.2574,-2.1727l6.9443,4.0101l4.5871,-7.95l-6.9444,-4.0105z"/>
  <path fill="#ffffff" fill-rule="evenodd" id="path419" d="m795.8885,387.7256l-12.202,-7.0483l7.3434,15.4644l-1.0125,1.7538l-16.3667,-9.449l1.2541,-2.1762l12.2289,7.0617l-7.37,-15.478l1.0125,-1.7538l16.3698,9.4493l-1.2575,2.1761z"/>
  <path fill="#ffffff" fill-rule="evenodd" id="path421" d="m798.3731,378.6755l4.386,-7.6014l2.0588,1.1869l-5.6432,9.7744l-16.37,-9.449l5.5763,-9.6571l2.0588,1.1871l-4.3189,7.4841l5.0264,2.9004l3.9835,-6.8973l2.0319,1.177l-3.9801,6.8972l5.1905,2.9977z"/>
 </g>
</svg>