<?xml version="1.0" encoding="UTF-8" standalone="no"?>
<!-- Created with Inkscape (http://www.inkscape.org/) -->

<svg
   version="1.1"
   id="svg2"
   xml:space="preserve"
   width="250.90999"
   height="194.19733"
   viewBox="0 0 250.90999 194.19733"
   sodipodi:docname="25d63dea6e7a6944b83fb07b78e6a901.eps"
   xmlns:inkscape="http://www.inkscape.org/namespaces/inkscape"
   xmlns:sodipodi="http://sodipodi.sourceforge.net/DTD/sodipodi-0.dtd"
   xmlns="http://www.w3.org/2000/svg"
   xmlns:svg="http://www.w3.org/2000/svg"><defs
     id="defs6" /><sodipodi:namedview
     id="namedview4"
     pagecolor="#ffffff"
     bordercolor="#666666"
     borderopacity="1.0"
     inkscape:pageshadow="2"
     inkscape:pageopacity="0.0"
     inkscape:pagecheckerboard="0" /><g
     id="g8"
     inkscape:groupmode="layer"
     inkscape:label="ink_ext_XXXXXX"
     transform="matrix(1.3333333,0,0,-1.3333333,-46.619332,262.26399)"><g
       id="g10"
       transform="scale(0.1)"><path
         d="m 1045.2,1101.88 h 11.58 c 7.86,0 15.1,-1.09 21.72,-3.25 6.61,-2.16 12.3,-5.37 17.09,-9.63 4.77,-4.25 8.48,-9.46 11.09,-15.62 2.62,-6.15 3.94,-13.16 3.94,-21.01 0,-7.99 -1.45,-15.1 -4.33,-21.32 -2.88,-6.22 -6.77,-11.49 -11.68,-15.81 -4.91,-4.33 -10.65,-7.6 -17.19,-9.83 -6.55,-2.22 -13.43,-3.34 -20.64,-3.34 h -11.58 v -17.086 h -29.27 v 17.086 h -11.6 c -7.85,0 -15.088,1.08 -21.701,3.24 -6.617,2.16 -12.281,5.38 -16.992,9.64 -4.715,4.25 -8.379,9.46 -11.004,15.6 -2.621,6.16 -3.926,13.17 -3.926,21.03 0,7.99 1.438,15.09 4.32,21.31 2.879,6.23 6.782,11.5 11.692,15.82 4.91,4.32 10.605,7.59 17.09,9.82 6.48,2.23 13.324,3.35 20.521,3.35 h 11.6 v 17.48 h 29.27 z m -39.88,-25.35 c -8.25,0 -14.535,-2.23 -18.863,-6.68 -4.316,-4.46 -6.48,-10.48 -6.48,-18.08 0,-7.72 2.257,-13.68 6.777,-17.87 4.519,-4.19 10.707,-6.29 18.566,-6.29 h 10.61 v 48.92 z m 50.48,-49.11 c 8.25,0 14.54,2.22 18.87,6.68 4.31,4.44 6.47,10.47 6.47,18.06 0,7.73 -2.25,13.7 -6.77,17.89 -4.52,4.19 -10.71,6.29 -18.57,6.29 h -10.6 v -48.92 h 10.6"
         style="fill:#393536;fill-opacity:1;fill-rule:nonzero;stroke:none"
         id="path12" /><path
         d="m 1233.39,1114.15 c 8.65,-3.47 16.01,-8.29 22.11,-14.45 6.08,-6.15 10.84,-13.38 14.23,-21.7 3.41,-8.31 5.11,-17.38 5.11,-27.21 0,-9.43 -1.7,-18.3 -5.11,-26.62 -3.39,-8.31 -8.18,-15.58 -14.34,-21.8 -6.15,-6.222 -13.51,-11.132 -22.09,-14.729 -8.59,-3.61 -18.05,-5.411 -28.39,-5.411 -10.22,0 -19.58,1.739 -28.1,5.208 -8.51,3.472 -15.87,8.289 -22.1,14.442 -6.21,6.15 -11.03,13.42 -14.43,21.8 -3.41,8.39 -5.11,17.43 -5.11,27.11 0,9.43 1.7,18.34 5.11,26.72 3.4,8.38 8.22,15.65 14.43,21.8 6.23,6.16 13.59,11.04 22.1,14.64 8.52,3.61 17.88,5.41 28.1,5.41 10.34,0 19.84,-1.74 28.48,-5.21 z m -45.47,-24.46 c -5.04,-2.23 -9.31,-5.24 -12.78,-9.04 -3.46,-3.79 -6.12,-8.25 -7.95,-13.35 -1.84,-5.11 -2.75,-10.62 -2.75,-16.51 0,-5.89 0.91,-11.42 2.75,-16.59 1.83,-5.18 4.52,-9.66 8.06,-13.47 3.53,-3.79 7.79,-6.77 12.76,-8.93 4.98,-2.16 10.62,-3.24 16.9,-3.24 6.41,0 12.14,1.11 17.19,3.34 5.04,2.22 9.3,5.27 12.76,9.13 3.48,3.86 6.1,8.35 7.86,13.46 1.77,5.1 2.66,10.54 2.66,16.3 0,6.03 -0.92,11.63 -2.75,16.8 -1.84,5.17 -4.49,9.66 -7.96,13.46 -3.47,3.79 -7.72,6.74 -12.77,8.83 -5.04,2.1 -10.7,3.15 -16.99,3.15 -6.28,0 -11.96,-1.12 -16.99,-3.34"
         style="fill:#393536;fill-opacity:1;fill-rule:nonzero;stroke:none"
         id="path14" /><path
         d="m 1334.03,1065.14 h 57.56 v 51.47 h 29.66 V 984.984 h -29.66 v 52.836 h -57.56 v -52.836 h -29.67 v 131.626 h 29.67 v -51.47"
         style="fill:#393536;fill-opacity:1;fill-rule:nonzero;stroke:none"
         id="path16" /><path
         d="m 1578.59,1011.5 h 19.05 v -8.05 l -2.55,-45.97 h -26.52 l -1.18,27.504 h -88.99 l -1.57,-27.504 h -26.72 l -1.57,45.77 v 8.05 h 5.5 c 2.75,0 5.5,0.99 8.25,2.95 2.75,1.96 5.05,5.04 6.88,9.23 3.53,7.87 6.08,18.02 7.66,30.45 1.57,12.45 2.35,26.2 2.35,41.27 v 21.41 h 99.41 z m -73.86,31.04 c -2.23,-13.22 -5.24,-23.58 -9.04,-31.04 h 53.44 v 78.78 h -40.87 c -0.13,-18.6 -1.31,-34.51 -3.53,-47.74"
         style="fill:#393536;fill-opacity:1;fill-rule:nonzero;stroke:none"
         id="path18" /><path
         d="M 464.766,749.117 H 435.102 V 853.434 H 379.309 V 749.117 H 349.645 V 880.738 H 464.766 V 749.117"
         style="fill:#393536;fill-opacity:1;fill-rule:nonzero;stroke:none"
         id="path20" /><path
         d="m 581.102,877.301 c 6.414,-2.297 11.949,-5.5 16.593,-9.629 4.657,-4.121 8.223,-9.102 10.711,-14.926 2.489,-5.828 3.735,-12.348 3.735,-19.547 0,-7.597 -1.407,-14.371 -4.223,-20.328 -2.816,-5.969 -6.688,-11.008 -11.598,-15.133 -4.91,-4.129 -10.699,-7.273 -17.379,-9.429 -6.683,-2.161 -13.882,-3.243 -21.609,-3.243 h -26.723 v -35.949 h -29.461 v 131.621 h 58.536 c 7.863,0 14.996,-1.144 21.418,-3.437 z m -23.77,-66.102 c 7.856,0 14.012,1.957 18.469,5.895 4.445,3.926 6.676,9.226 6.676,15.906 0,6.551 -2,11.758 -5.989,15.617 -4,3.867 -9.988,5.793 -17.98,5.793 h -27.899 v -43.211 h 26.723"
         style="fill:#393536;fill-opacity:1;fill-rule:nonzero;stroke:none"
         id="path22" /><path
         d="m 738.234,854.219 h -69.347 v -24.754 h 61.879 V 803.727 H 668.887 V 775.641 H 741.57 V 749.117 H 639.813 v 131.621 h 98.421 v -26.519"
         style="fill:#393536;fill-opacity:1;fill-rule:nonzero;stroke:none"
         id="path24" /><path
         d="m 840.359,832.809 c 2.625,2.222 3.938,5.3 3.938,9.23 0,4.973 -1.738,8.742 -5.207,11.293 -3.473,2.559 -9.141,3.828 -16.996,3.828 -12.309,0 -23.836,-4.117 -34.574,-12.371 l -15.325,20.234 c 7.332,6.29 15.227,10.934 23.672,13.95 8.446,3.004 17.781,4.515 27.992,4.515 7.864,0 14.871,-0.918 21.02,-2.75 6.16,-1.832 11.398,-4.39 15.715,-7.66 4.328,-3.269 7.633,-7.176 9.926,-11.691 2.289,-4.512 3.429,-9.528 3.429,-15.032 0,-5.628 -1.14,-10.703 -3.429,-15.218 -2.293,-4.52 -5.735,-8.086 -10.317,-10.711 v -1.766 c 6.285,-2.094 11.195,-5.664 14.735,-10.711 3.531,-5.035 5.3,-11.226 5.3,-18.562 0,-6.149 -1.207,-11.852 -3.633,-17.09 -2.421,-5.238 -6.019,-9.758 -10.804,-13.551 -4.781,-3.797 -10.738,-6.812 -17.875,-9.035 -7.141,-2.231 -15.485,-3.344 -25.051,-3.344 -5.758,0 -11.195,0.36 -16.297,1.078 -5.109,0.723 -9.957,1.871 -14.543,3.442 -4.582,1.574 -8.972,3.566 -13.164,5.992 -4.187,2.422 -8.316,5.402 -12.371,8.941 l 15.516,21.61 c 6.816,-5.375 13.589,-9.176 20.332,-11.399 6.75,-2.222 14.246,-3.343 22.496,-3.343 8.644,0 15.094,1.609 19.347,4.816 4.254,3.207 6.391,7.437 6.391,12.676 0,9.164 -5.969,13.75 -17.883,13.75 H 799.5 v 25.535 h 30.055 c 4.582,0 8.191,1.113 10.804,3.344"
         style="fill:#393536;fill-opacity:1;fill-rule:nonzero;stroke:none"
         id="path26" /><path
         d="m 938.719,793.121 63.641,87.617 h 25.94 V 749.117 h -29.273 v 82.707 l -60.5,-82.707 h -28.882 v 131.621 h 29.074 v -87.617"
         style="fill:#393536;fill-opacity:1;fill-rule:nonzero;stroke:none"
         id="path28" /><path
         d="m 1185.64,775.641 h 19.06 v -8.055 l -2.56,-45.973 h -26.53 l -1.17,27.504 h -88.99 l -1.57,-27.504 h -26.72 l -1.57,45.774 v 8.054 h 5.5 c 2.75,0 5.5,0.981 8.25,2.95 2.75,1.961 5.05,5.039 6.88,9.23 3.53,7.863 6.08,18.012 7.66,30.449 1.57,12.442 2.35,26.192 2.35,41.258 v 21.41 h 99.41 z m -73.86,31.039 c -2.24,-13.227 -5.24,-23.578 -9.04,-31.039 h 53.43 v 78.769 h -40.86 c -0.13,-18.594 -1.31,-34.504 -3.53,-47.73"
         style="fill:#393536;fill-opacity:1;fill-rule:nonzero;stroke:none"
         id="path30" /><path
         d="m 1330.98,854.219 h -69.35 v -24.754 h 61.88 v -25.738 h -61.88 v -28.086 h 72.69 v -26.524 h -101.76 v 131.621 h 98.42 v -26.519"
         style="fill:#393536;fill-opacity:1;fill-rule:nonzero;stroke:none"
         id="path32" /><path
         d="m 1395.39,829.266 h 57.56 v 51.472 h 29.66 V 749.117 h -29.66 v 52.844 h -57.56 v -52.844 h -29.67 v 131.621 h 29.67 v -51.472"
         style="fill:#393536;fill-opacity:1;fill-rule:nonzero;stroke:none"
         id="path34" /><path
         d="m 1629.05,854.02 h -44.99 V 749.117 h -29.27 V 854.02 h -44.99 v 26.718 h 119.25 V 854.02"
         style="fill:#393536;fill-opacity:1;fill-rule:nonzero;stroke:none"
         id="path36" /><path
         d="m 1739.71,853.332 c -5.95,2.164 -12.6,3.246 -19.93,3.246 -6.41,0 -12.22,-1.015 -17.39,-3.047 -5.16,-2.031 -9.59,-4.914 -13.26,-8.644 -3.66,-3.731 -6.47,-8.153 -8.44,-13.262 -1.97,-5.102 -2.94,-10.668 -2.94,-16.699 0,-6.289 1,-11.981 3.04,-17.094 2.03,-5.102 4.87,-9.461 8.53,-13.059 3.67,-3.597 8.07,-6.414 13.17,-8.445 5.1,-2.031 10.73,-3.047 16.89,-3.047 7.47,0 14.44,1.278 20.92,3.828 6.5,2.555 12.29,6.254 17.39,11.102 l 16.7,-20.625 c -14.92,-14.148 -33.78,-21.219 -56.58,-21.219 -10.22,0 -19.58,1.606 -28.08,4.813 -8.52,3.211 -15.82,7.793 -21.92,13.75 -6.08,5.957 -10.83,13.133 -14.24,21.515 -3.4,8.379 -5.1,17.746 -5.1,28.09 0,9.43 1.67,18.336 5.01,26.719 3.34,8.379 8.16,15.715 14.44,22.004 6.29,6.285 13.87,11.226 22.78,14.828 8.91,3.605 18.99,5.402 30.26,5.402 10.21,0 19.58,-1.539 28.09,-4.613 8.51,-3.078 16.11,-7.562 22.78,-13.461 l -16.3,-21.406 c -4.59,4.051 -9.85,7.164 -15.82,9.324"
         style="fill:#393536;fill-opacity:1;fill-rule:nonzero;stroke:none"
         id="path38" /><path
         d="m 1830.74,830.641 14.35,1.574 37.13,48.523 h 36.34 l -48.92,-61.484 53.64,-70.137 h -37.92 l -40.07,56.188 h -14.55 v -56.188 h -29.06 v 131.621 h 29.06 v -50.097"
         style="fill:#393536;fill-opacity:1;fill-rule:nonzero;stroke:none"
         id="path40" /><path
         d="m 1979.15,793.121 63.65,87.617 h 25.93 V 749.117 h -29.27 v 82.707 l -60.5,-82.707 h -28.89 v 131.621 h 29.08 v -87.617"
         style="fill:#393536;fill-opacity:1;fill-rule:nonzero;stroke:none"
         id="path42" /><path
         d="m 2162.91,833.785 h 1.97 l 26.12,46.953 h 36.34 l -42.04,-64.828 46.17,-66.793 h -38.12 l -29.46,50.684 h -1.97 l -29.06,-50.684 h -37.91 l 46.16,68.367 -42.06,63.254 h 36.75 l 27.11,-46.953"
         style="fill:#393536;fill-opacity:1;fill-rule:nonzero;stroke:none"
         id="path44" /><path
         d="M 900.934,618.152 H 830.801 V 513.254 h -29.465 v 131.621 h 99.598 v -26.723"
         style="fill:#393536;fill-opacity:1;fill-rule:nonzero;stroke:none"
         id="path46" /><path
         d="m 1007.48,641.434 c 6.41,-2.293 11.95,-5.5 16.6,-9.629 4.65,-4.117 8.22,-9.102 10.71,-14.922 2.48,-5.832 3.73,-12.348 3.73,-19.547 0,-7.598 -1.41,-14.371 -4.22,-20.332 -2.82,-5.965 -6.69,-11.004 -11.6,-15.133 -4.91,-4.125 -10.7,-7.269 -17.38,-9.43 -6.679,-2.156 -13.882,-3.238 -21.609,-3.238 h -26.723 v -35.949 h -29.465 v 131.621 h 58.547 c 7.856,0 14.99,-1.145 21.41,-3.441 z m -23.769,-66.098 c 7.852,0 14.012,1.957 18.469,5.891 4.45,3.929 6.68,9.23 6.68,15.906 0,6.551 -2,11.758 -6,15.621 -3.993,3.863 -9.985,5.801 -17.973,5.801 h -27.899 v -43.219 h 26.723"
         style="fill:#393536;fill-opacity:1;fill-rule:nonzero;stroke:none"
         id="path48" /><path
         d="m 1188.67,513.254 h -32.62 l -10.01,26.129 h -56.38 l -9.82,-26.129 h -32.03 l 54.03,131.812 h 32.41 z m -52.26,52.059 -17.48,50.089 h -1.97 l -17.67,-50.089 h 37.12"
         style="fill:#393536;fill-opacity:1;fill-rule:nonzero;stroke:none"
         id="path50" /><path
         d="m 1245.14,593.41 h 57.56 v 51.465 h 29.66 V 513.254 h -29.66 v 52.844 h -57.56 v -52.844 h -29.67 v 131.621 h 29.67 V 593.41"
         style="fill:#393536;fill-opacity:1;fill-rule:nonzero;stroke:none"
         id="path52" /><path
         d="M 1478.79,618.152 H 1433.8 V 513.254 h -29.27 v 104.898 h -44.98 v 26.723 h 119.24 v -26.723"
         style="fill:#393536;fill-opacity:1;fill-rule:nonzero;stroke:none"
         id="path54" /><path
         d="m 1596.44,642.418 c 8.65,-3.469 16.02,-8.285 22.11,-14.445 6.09,-6.149 10.84,-13.387 14.24,-21.703 3.4,-8.313 5.1,-17.379 5.1,-27.211 0,-9.426 -1.7,-18.297 -5.1,-26.618 -3.4,-8.316 -8.18,-15.578 -14.34,-21.8 -6.16,-6.223 -13.52,-11.133 -22.1,-14.731 -8.58,-3.609 -18.05,-5.41 -28.39,-5.41 -10.22,0 -19.58,1.738 -28.1,5.207 -8.5,3.473 -15.87,8.289 -22.09,14.438 -6.22,6.156 -11.04,13.429 -14.44,21.808 -3.41,8.383 -5.11,17.422 -5.11,27.106 0,9.429 1.7,18.339 5.11,26.722 3.4,8.383 8.22,15.653 14.44,21.801 6.22,6.16 13.59,11.035 22.09,14.637 8.52,3.605 17.88,5.406 28.1,5.406 10.34,0 19.84,-1.734 28.48,-5.207 z m -45.47,-24.457 c -5.04,-2.231 -9.31,-5.238 -12.77,-9.039 -3.47,-3.797 -6.13,-8.254 -7.96,-13.356 -1.84,-5.109 -2.75,-10.613 -2.75,-16.507 0,-5.887 0.91,-11.418 2.75,-16.594 1.83,-5.176 4.52,-9.66 8.06,-13.461 3.53,-3.793 7.79,-6.774 12.76,-8.934 4.99,-2.16 10.62,-3.238 16.9,-3.238 6.42,0 12.14,1.109 17.19,3.336 5.04,2.223 9.3,5.27 12.76,9.133 3.48,3.859 6.1,8.351 7.86,13.461 1.77,5.101 2.66,10.539 2.66,16.297 0,6.031 -0.92,11.629 -2.75,16.804 -1.84,5.168 -4.48,9.653 -7.96,13.453 -3.47,3.797 -7.72,6.743 -12.77,8.836 -5.04,2.098 -10.7,3.145 -16.99,3.145 -6.28,0 -11.95,-1.113 -16.99,-3.336"
         style="fill:#393536;fill-opacity:1;fill-rule:nonzero;stroke:none"
         id="path56" /><path
         d="m 1759.44,635.246 c 7.92,-6.414 11.88,-15.187 11.88,-26.324 0,-5.5 -1.14,-10.41 -3.43,-14.731 -2.29,-4.324 -5.41,-7.531 -9.33,-9.628 v -1.766 c 6.41,-2.098 11.55,-5.863 15.42,-11.293 3.86,-5.441 5.8,-11.758 5.8,-18.965 0,-5.367 -0.96,-10.437 -2.86,-15.219 -1.89,-4.785 -4.83,-8.941 -8.83,-12.48 -4,-3.531 -9.07,-6.348 -15.23,-8.445 -6.15,-2.094 -13.42,-3.141 -21.81,-3.141 h -63.64 v 131.621 h 58.14 c 14.67,0 25.97,-3.207 33.89,-9.629 z m -32.71,-42.238 c 4.98,0 8.88,1.215 11.69,3.637 2.81,2.425 4.22,5.726 4.22,9.921 0,8.77 -5.62,13.164 -16.89,13.164 h -29.07 v -26.722 z m 4.72,-54.61 c 12.96,0 19.45,5.176 19.45,15.516 0,4.981 -1.7,8.742 -5.11,11.301 -3.4,2.551 -8.25,3.832 -14.54,3.832 h -34.57 v -30.649 h 34.77"
         style="fill:#393536;fill-opacity:1;fill-rule:nonzero;stroke:none"
         id="path58" /><path
         d="m 1712.1,1826.57 h -387.18 c -39.21,0 -74.24,-24.53 -87.65,-61.37 l -150.01,-412.15 c -13.46,-36.74 -48.42,-61.18 -87.561,-61.18 h 65.291 68.96 252.93 c 39.21,0 74.23,24.52 87.64,61.37 l 150.02,412.16 c 13.47,36.73 48.42,61.17 87.56,61.17"
         style="fill:#cca061;fill-opacity:1;fill-rule:nonzero;stroke:none"
         id="path60" /><path
         d="m 1209.89,1775.16 c 17.53,48.18 63.76,80.55 115.03,80.55 h 38.64 l 22.32,61.32 c 11,29.99 39.54,49.95 71.5,49.95 h -53.32 -65.82 -197.06 c -32.03,0 -60.63,-20.03 -71.59,-50.12 L 947.086,1580.27 c -10.996,-30.01 -39.547,-49.98 -71.516,-49.98 h 53.325 56.316 135.549 l 89.13,244.87"
         style="fill:#dfcba4;fill-opacity:1;fill-rule:nonzero;stroke:none"
         id="path62" /></g></g></svg>
