<svg version="1.2" xmlns="http://www.w3.org/2000/svg" viewBox="0 0 454 229" width="595" height="300">
	<title>лого-ткпст-svg</title>
	<style>
		.s0 { fill: #ffffff } 
		.s1 { fill: #2b6bb2 } 
	</style>
	<g id="g10">
		<g id="g12">
			<path id="path16" fill-rule="evenodd" class="s0" d="m49-140.5c7.5-4.6 14.5-10 20.6-16.2 6.2-6.2 11.7-13.1 16.2-20.6 8.6 2.1 17.3 3.1 26 3.1 8.8 0 17.6-1 26.1-3.1 6.5 10.7 14.8 20.3 24.6 28.2-9.9 0-12.9 0.8-18.5-4-8.7-7.2-19.9-11.6-32.2-11.6-27.7 0-50.2 22.5-50.2 50.2 0 27.7 22.5 50.2 50.2 50.2 12.3 0 23.5-4.4 32.2-11.6 5.6-4.7 8.6-4 18.5-4-9.8 7.9-18.1 17.5-24.6 28.2-8.5-2-17.3-3.1-26.1-3.1-8.7 0-17.4 1-26 3.1-4.5-7.5-10-14.4-16.2-20.6-6.1-6.2-13.1-11.6-20.6-16.2 2.1-8.5 3.2-17.2 3.2-26 0-8.7-1.1-17.5-3.2-26zm24.1-40.8q4.8 1.8 9.6 3.2c-4.3 7-9.4 13.5-15.2 19.3-5.8 5.8-12.3 10.9-19.3 15.2q-1.3-4.8-3.1-9.6l3.6-5.7c10.1-0.6 18.1-8.7 18.8-18.8 1.9-1 3.8-2.4 5.6-3.6zm-5.6 130c-0.7-10.1-8.7-18.2-18.8-18.8l-3.6-5.7q1.8-4.7 3.1-9.6c7 4.3 13.5 9.5 19.3 15.3 5.8 5.8 10.9 12.2 15.2 19.2q-4.8 1.4-9.6 3.2c-1.8-1.2-3.7-2.5-5.6-3.6zm-29.9-24.7l-5.5-13.3 4.1-2.4q4.8 2.1 9.3 4.7-1.4 5-3.2 9.9zm364.9-62.2c0-6-4.9-10.9-11-10.9h-189.1c-7.3 0-13.6-4.7-16-11.2l-1.5-3.6c-7.6 2.5-14.2 3.5-20.7-3-2.8-2.9-4.6-6.7-4.9-10.9 0 0 2.2-1.8 3-2.5-0.5 6.1 3 11.9 8.6 14.2 5.8 2.4 10.3 0.2 15.7-1.5l2.7 6.5c2.1 5.2 7.2 8.9 13.1 8.9h189.1c7.7 0 14 6.3 14 14v47.3c0 7.7-6.3 14-14 14h-189.1c-5.9 0-11 3.7-13.1 8.9l-2.7 6.5c-5.4-1.7-9.9-3.9-15.7-1.5-5.6 2.3-9.1 8.1-8.6 14.2-0.8-0.8-3-2.5-3-2.5 0.3-4.2 2.1-8 4.9-10.9 6.5-6.5 13.1-5.5 20.7-3l1.5-3.6c2.4-6.5 8.7-11.2 16-11.2h189.1c6.1 0 11-4.9 11-10.9zm-372.8 12.9l3.9-0.4c2.7 3.1 4.1 7 4.1 11.1 0 4.2-1.4 8.1-4.1 11.2l-3.9-0.4c3.2-2.7 5-6.6 5-10.8 0-4.1-1.8-8-5-10.7zm19.4 10.7c0 8.2-0.9 16.4-2.8 24.5q-4.4-2.5-9.1-4.6v-0.1l-1.3-6.2q-0.1-0.1-0.1-0.3c3.3-3.8 5-8.5 5-13.3 0-4.7-1.7-9.5-5-13.3q0-0.1 0.1-0.2l1.3-6.2v-0.1q4.7-2.1 9.1-4.6c1.9 8 2.8 16.2 2.8 24.4zm62.7-40.8c-22.6 0.3-40.8 18.1-40.8 40.8 0 22.8 18.2 40.6 40.8 40.9 9.7 0 18.7-3.4 26.2-9.5 3.2-2.7 6.1-4.3 9-5.1-8 10.7-20.8 17.6-35.2 17.6-24.2 0-43.8-19.6-43.8-43.9 0-24.2 19.6-43.8 43.8-43.8 14.4 0 27.2 6.9 35.2 17.6-2.9-0.9-5.8-2.4-9-5.1-7.5-6.2-16.5-9.5-26.2-9.5zm43.6 119.6l-18.7 7.7 1.8-4 12.7-5.3zm-32.8 3.4c-2.7-3.2-6.6-5-10.7-5-4.2 0-8.1 1.9-10.8 5l-0.4-3.9c3.2-2.8 7.2-4.1 11.2-4.1 4 0 7.9 1.3 11.1 4.1zm-35.6 4.4l-18.7-7.8 4.2-1.6 12.7 5.3zm-25.7-20.8c0.4-4.1-1.1-8.2-4-11.1-2.9-3-7-4.5-11.2-4.1 0.7-0.9 2-2.2 2.5-3.1 4.2 0.3 8 2.2 10.8 5 2.9 2.8 4.7 6.6 5 10.8-0.9 0.6-2.2 1.8-3.1 2.5zm-28.2-22.1l-7.8-18.8 4.1 1.9 5.3 12.7zm92.8 35.4q3.2-0.7 6.4-1.4 1.6 2.8 3.2 5.6l-4.3 4.8q-2.9-1.3-5.9-2.6 0.3-3.2 0.6-6.4zm-37.8 4.2q1.6-2.8 3.3-5.6 3.1 0.7 6.3 1.4 0.3 3.2 0.6 6.4-3 1.3-5.9 2.6c-1.6-1.8-3.2-3.5-4.3-4.8zm-24.8-7.2q-1.2-3-2.3-6 2.5-2.1 5-4.1 2.7 1.7 5.4 3.4-0.8 3.2-1.6 6.3-3.2 0.2-6.5 0.4zm-27.1-33.9q3.2-0.9 6.3-1.7 1.7 2.8 3.5 5.5-2.1 2.5-4.1 5-3-1.2-6.1-2.4 0.2-3.2 0.4-6.4zm-9.8-28.6q3.2 0.3 6.4 0.6 0.7 3.2 1.4 6.4-2.8 1.6-5.6 3.2l-4.8-4.2q1.3-3 2.6-6zm108.2 62.1q2.1-4.7 4.7-9.2 5 1.3 9.9 3.2c0 0 0.8 3.4 1.1 4.7l-13.2 5.5zm17.6-6.3q2.7-1.7 5.5-3.5 2.5 2.1 4.9 4.1l-2.3 6-6.5-0.4q-0.8-3.1-1.6-6.2zm24.1-25c-10.7 0-19.5 8.3-20.1 18.8-1.8 1.1-4 2.5-5.7 3.7q-4.7-1.8-9.6-3.2c6.9-11.2 16-21.1 26.5-29h24.3c-4 2.4-7.1 6.4-8.5 10.9-2.5-0.7-4.3-1.2-6.9-1.2zm-51.2 31.7c-7.6-6.7-19-6.7-26.6 0-2-0.5-4.5-1-6.6-1.4q-2-4.7-4.5-9.1c8-1.8 16.2-2.8 24.4-2.8 8.2 0 16.4 1 24.4 2.8-1.6 3-4.5 9.1-4.5 9.1zm-51.9-1.9c-0.3 1.3 1-3.9 1.2-4.6q4.9-1.9 9.9-3.2 2.6 4.5 4.7 9.2c-0.8 0.9-1.8 3-2.5 4.1zm-31-111.5q1.8 4.8 3.2 9.8-4.5 2.6-9.3 4.8l-4.1-2.5 5.5-13.3zm109-39.8l-12.8-5.3-1.8-4 18.7 7.7zm-28.2-1.1c-3.2 2.8-7.2 4.2-11.2 4.2-4 0-8-1.4-11.2-4.2l0.5-3.9c2.6 3.2 6.6 5 10.7 5 4.2 0 8.1-1.8 10.8-5zm-37.9-4.1l-12.7 5.2-4.2-1.5 18.8-7.8zm-20.8 19.2c-0.3 4.2-2.1 8-4.9 10.8-2.9 2.8-6.7 4.7-10.9 5-0.5-0.9-1.7-2.2-2.5-3.1 4.2 0.4 8.3-1.1 11.2-4 2.9-2.9 4.5-7.1 4.1-11.2 0.8 0.7 2.1 1.9 3 2.5zm-29.7 23.8l-5.3 12.7-4.1 1.9 7.8-18.8zm90.7-46q3-1.3 5.9-2.6l4.3 4.9q-1.6 2.8-3.3 5.6-3.1-0.7-6.3-1.4-0.3-3.3-0.6-6.5zm-33-2.6q3 1.3 6 2.6-0.3 3.2-0.7 6.5-3.1 0.7-6.3 1.4-1.6-2.8-3.2-5.6c1.1-1.3 2.7-3.1 4.2-4.9zm-22.5 12.5q0.8 3.1 1.6 6.2-2.7 1.8-5.5 3.5-2.5-2.1-5-4.1 1.2-3 2.4-6 3.2 0.2 6.5 0.4zm-34 27.1q3-1.2 6-2.4 2.1 2.5 4.1 5-1.7 2.7-3.4 5.4-3.2-0.8-6.3-1.6-0.2-3.2-0.4-6.4zm-12 29l4.8-4.3q2.8 1.7 5.6 3.3-0.7 3.2-1.4 6.3-3.2 0.3-6.4 0.6-1.3-2.9-2.6-5.9zm113.2-60.3l13.3 5.5c-0.3 1.2-1.2 4.7-1.2 4.7q-4.8 1.8-9.8 3.2-2.6-4.5-4.8-9.2zm16.8 4.1l6.5-0.4 2.3 6q-2.5 2.1-5 4.1-2.7-1.7-5.4-3.4 0.8-3.2 1.6-6.3zm29.3 30c1.5 4.5 4.6 8.5 8.6 11h-24.3c-10.6-7.9-19.6-17.8-26.5-29.1q4.8-1.3 9.6-3.1c1.7 1.2 3.8 2.6 5.7 3.6 0.6 10.5 9.4 18.9 20.1 18.9 2.5 0 4.4-0.5 6.8-1.3zm-51.5-29c0 0 2.9 6.1 4.6 9-8 1.9-16.2 2.9-24.4 2.9-8.2 0-16.4-1-24.4-2.9q2.5-4.4 4.5-9c2.1-0.4 4.6-0.9 6.6-1.5 7.6 6.7 19 6.7 26.6 0zm-45.1-5.1c0.6 1.1 1.7 3.3 2.5 4.1q-2.2 4.8-4.8 9.3-5-1.4-9.8-3.2c-0.3-0.8-1.6-6-1.2-4.7zm249 68.3v-12.2h55.9v12.2h-20.7v35h-14.5v-35zm-251.7 0v-12.2h56v12.2h-20.7v35h-14.5v-35zm60.8-12.2h14.5v16.6h7.5l16.5-16.6h20l-23.6 22.5 26.5 24.7h-21l-18.4-18.4h-7.5v18.4h-14.5zm65.7 0h61.5v47.1h-14.5v-35h-32.5v35h-14.5zm94.6-0.6q20.1 0 24.8 3.3 4.1 2.9 4.1 15.4h-14.5q0-4.1-2.2-5.2-2.7-1.4-12.2-1.4-10.6 0-12.4 1.7-1.9 1.6-1.9 10.4 0 8.7 1.9 10.3 1.8 1.7 12.4 1.7 9.6 0 12-1.2 2.4-1.1 2.4-5.4h14.5q0 12.5-3.9 15.4-4.7 3.3-25 3.3-20.2 0-24.5-3.7-4.2-3.6-4.2-20.5 0-16.8 4-20.3 4.5-3.8 24.7-3.8z"/>
			<path id="path18" fill-rule="evenodd" class="s1" d="m59 94.4c7.9-4.8 15.2-10.5 21.7-17.1 6.5-6.5 12.2-13.8 17-21.7 9 2.2 18.2 3.3 27.4 3.3 9.3 0 18.5-1.1 27.4-3.3 6.9 11.3 15.7 21.4 26 29.8-10.5 0-13.6 0.7-19.5-4.2-9.2-7.7-21-12.3-33.9-12.3-29.2 0-52.8 23.7-52.8 52.9 0 29.2 23.6 52.8 52.8 52.8 12.9 0 24.7-4.6 33.9-12.2 5.9-5 9-4.2 19.5-4.2-10.3 8.3-19.1 18.4-26 29.7-8.9-2.2-18.1-3.3-27.4-3.3-9.2 0-18.4 1.1-27.4 3.3-4.8-7.9-10.5-15.2-17-21.7-6.5-6.5-13.8-12.2-21.7-17 2.2-9 3.3-18.2 3.3-27.4 0-9.2-1.1-18.4-3.3-27.4zm25.4-43q5 2 10.1 3.4c-4.6 7.4-10 14.2-16.1 20.3-6.1 6.1-12.9 11.5-20.3 16q-1.4-5.1-3.3-10.1l3.8-5.9c10.6-0.7 19.1-9.2 19.8-19.8 2-1.2 4-2.6 6-3.9zm-6 136.9c-0.7-10.6-9.2-19.1-19.8-19.8l-3.8-6q1.9-5 3.3-10.1c7.4 4.6 14.2 10 20.3 16.1 6.1 6.1 11.5 12.9 16.1 20.3q-5.1 1.4-10.1 3.3c-2-1.3-4-2.6-6-3.8zm-31.4-25.9l-5.8-14 4.3-2.7q5 2.3 9.8 5-1.4 5.3-3.4 10.4zm384.2-65.4c0-6.4-5.1-11.6-11.5-11.6h-199.2c-7.7 0-14.3-4.9-16.8-11.7l-1.6-3.8c-8 2.6-14.9 3.6-21.8-3.2-2.9-3-4.9-7-5.2-11.4 0 0 2.3-1.9 3.3-2.7-0.6 6.4 3.1 12.6 9 15 6 2.5 10.8 0.2 16.5-1.6l2.9 6.8c2.1 5.5 7.5 9.4 13.7 9.4h199.2c8.1 0 14.8 6.6 14.8 14.8v49.7c0 8.2-6.7 14.8-14.8 14.8h-199.2c-6.2 0-11.6 3.9-13.7 9.4l-2.9 6.9c-5.7-1.9-10.5-4.2-16.5-1.7-5.9 2.4-9.6 8.6-9 15-1-0.8-3.3-2.7-3.3-2.7 0.3-4.4 2.3-8.4 5.2-11.4 6.9-6.8 13.8-5.8 21.8-3.2l1.6-3.8c2.5-6.8 9.1-11.7 16.8-11.7h199.2c6.4 0 11.5-5.2 11.5-11.6zm-392.5 13.6l4.1-0.4c2.8 3.3 4.4 7.4 4.4 11.7 0 4.4-1.6 8.5-4.4 11.8l-4.1-0.4c3.3-2.9 5.2-7 5.2-11.4 0-4.4-1.9-8.4-5.2-11.3zm20.4 11.3c0 8.7-1 17.3-3 25.8q-4.6-2.7-9.5-4.8v-0.1l-1.4-6.6q-0.1-0.1-0.1-0.3c3.5-3.9 5.3-9 5.3-14 0-5-1.8-10-5.3-14q0-0.1 0.1-0.3l1.4-6.5v-0.1q4.9-2.1 9.5-4.8c2 8.5 3 17.1 3 25.7zm66.1-42.9c-23.9 0.3-43 19-43 42.9 0 24.1 19.1 42.7 43 43 10.2 0 19.7-3.5 27.5-9.9 3.4-2.9 6.5-4.5 9.5-5.4-8.4 11.3-21.9 18.6-37 18.6-25.5 0-46.2-20.7-46.2-46.3 0-25.5 20.7-46.2 46.2-46.2 15.1 0 28.6 7.3 37 18.6-3-0.9-6.1-2.5-9.5-5.4-7.8-6.4-17.3-9.9-27.5-9.9zm45.9 125.9l-19.8 8.1 2-4.2 13.4-5.6zm-34.6 3.6c-2.8-3.3-6.9-5.3-11.3-5.3-4.4 0-8.5 2-11.3 5.3l-0.5-4.1c3.4-2.9 7.6-4.4 11.8-4.4 4.2 0 8.4 1.5 11.8 4.4zm-37.5 4.6l-19.8-8.2 4.4-1.7 13.4 5.6zm-27-21.9c0.4-4.3-1.2-8.7-4.3-11.7-3.1-3.1-7.4-4.7-11.7-4.3 0.7-0.9 2-2.3 2.6-3.2 4.4 0.3 8.4 2.2 11.4 5.2 3 2.9 4.9 7 5.2 11.4-0.9 0.6-2.3 1.9-3.2 2.6zm-29.7-23.3l-8.2-19.7 4.3 1.9 5.5 13.4zm97.8 37.3q3.3-0.8 6.7-1.5 1.7 2.9 3.4 5.9l-4.5 5.1q-3.1-1.4-6.2-2.7 0.3-3.4 0.6-6.8zm-39.9 4.4q1.8-3 3.5-5.9 3.3 0.7 6.7 1.5 0.3 3.4 0.6 6.8-3.1 1.3-6.2 2.7c-1.7-1.9-3.4-3.8-4.6-5.1zm-26-7.6q-1.3-3.2-2.5-6.3 2.6-2.2 5.3-4.4 2.8 1.9 5.7 3.7-0.9 3.3-1.7 6.6-3.4 0.2-6.8 0.4zm-28.5-35.7q3.2-0.9 6.5-1.7 1.9 2.8 3.7 5.7-2.2 2.6-4.3 5.3-3.2-1.3-6.4-2.5 0.2-3.4 0.5-6.8zm-10.4-30.1q3.4 0.4 6.8 0.7 0.7 3.3 1.4 6.6-2.9 1.8-5.8 3.5l-5.1-4.5q1.3-3.2 2.7-6.3zm113.9 65.4q2.3-5 5-9.7 5.2 1.4 10.4 3.3c0 0 0.9 3.7 1.2 5l-14 5.8zm18.6-6.6q2.9-1.9 5.7-3.7 2.7 2.2 5.3 4.3l-2.5 6.4-6.8-0.4q-0.8-3.3-1.7-6.6zm25.4-26.3c-11.3 0-20.5 8.7-21.2 19.8-1.9 1.1-4.2 2.6-6 3.8q-5-1.9-10.1-3.3c7.3-11.8 16.8-22.2 27.9-30.6h25.6c-4.2 2.6-7.5 6.8-9 11.5-2.6-0.8-4.5-1.2-7.2-1.2zm-53.9 33.4c-8-7.1-20-7.1-28 0-2.1-0.6-4.8-1.2-6.9-1.6q-2.2-4.9-4.8-9.5c8.4-2 17-3 25.7-3 8.6 0 17.3 1 25.7 3-1.8 3.1-4.8 9.5-4.8 9.5zm-54.6-1.9c-0.4 1.4 1-4.1 1.2-4.9q5.2-2 10.4-3.4 2.8 4.7 5 9.7c-0.8 1-1.9 3.2-2.6 4.4zm-32.7-117.5q2 5.1 3.4 10.4-4.7 2.7-9.8 5l-4.3-2.6 5.8-14zm114.7-41.9l-13.4-5.6-1.9-4.3 19.7 8.2zm-29.7-1.2c-3.4 3-7.6 4.4-11.8 4.4-4.2 0-8.4-1.4-11.8-4.4l0.5-4.1c2.8 3.4 6.9 5.3 11.3 5.3 4.4 0 8.5-1.9 11.3-5.3zm-39.8-4.4l-13.4 5.6-4.4-1.7 19.7-8.1zm-21.8 20.2c-0.4 4.4-2.3 8.4-5.3 11.4-2.9 3-6.9 4.9-11.4 5.2-0.5-0.9-1.8-2.3-2.6-3.2 4.4 0.4 8.7-1.2 11.8-4.3 3-3 4.7-7.4 4.2-11.7 1 0.7 2.3 2 3.3 2.6zm-31.3 25.1l-5.6 13.4-4.3 1.9 8.2-19.7zm95.5-48.5q3.1-1.3 6.2-2.7l4.5 5.1q-1.7 2.9-3.4 5.9-3.3-0.8-6.7-1.5-0.3-3.4-0.6-6.8zm-34.7-2.7q3.1 1.4 6.2 2.7-0.3 3.4-0.6 6.8-3.4 0.7-6.7 1.5-1.7-3-3.4-5.9c1.2-1.3 2.8-3.2 4.5-5.1zm-23.8 13.1q0.9 3.3 1.7 6.6-2.9 1.8-5.7 3.6-2.7-2.1-5.3-4.3 1.3-3.2 2.5-6.3 3.4 0.2 6.8 0.4zm-35.7 28.5q3.1-1.2 6.3-2.5 2.2 2.6 4.3 5.3-1.8 2.8-3.6 5.7-3.3-0.8-6.6-1.7-0.2-3.4-0.4-6.8zm-12.7 30.6l5.1-4.5q2.9 1.7 5.9 3.4-0.8 3.4-1.5 6.7-3.4 0.3-6.8 0.7-1.4-3.2-2.7-6.3zm119.2-63.5l14 5.8c-0.3 1.3-1.2 4.9-1.2 4.9q-5.1 2-10.4 3.4-2.7-4.7-5-9.7zm17.7 4.3l6.8-0.4 2.5 6.4q-2.7 2.1-5.3 4.3-2.9-1.8-5.7-3.7 0.8-3.3 1.7-6.6zm30.9 31.7c1.5 4.7 4.8 8.9 9 11.5h-25.6c-11.1-8.4-20.6-18.7-27.9-30.6q5.1-1.4 10.1-3.3c1.8 1.2 4.1 2.7 6 3.8 0.7 11.1 9.9 19.9 21.1 19.9 2.8 0 4.7-0.5 7.3-1.3zm-54.3-30.6c0 0 3.1 6.4 4.8 9.5-8.4 2-17 3-25.7 3-8.6 0-17.2-1-25.7-3q2.6-4.6 4.8-9.5c2.2-0.4 4.8-1 6.9-1.6 8 7.1 20 7.1 28 0.1zm-47.5-5.5c0.7 1.2 1.8 3.5 2.7 4.4q-2.3 5-5 9.7-5.3-1.4-10.4-3.3c-0.2-0.8-1.6-6.3-1.2-5zm262.1 72v-12.8h59v12.8h-21.8v36.8h-15.3v-36.8zm-265 0v-12.8h58.9v12.8h-21.8v36.8h-15.3v-36.8zm64-12.8h15.3v17.4h7.9l17.4-17.4h21l-24.9 23.7 28 25.9h-22.1l-19.4-19.4h-7.9v19.4h-15.3zm69.2 0h64.8v49.6h-15.3v-36.8h-34.3v36.8h-15.2zm99.7-0.6q21.2 0 26.1 3.5 4.3 3 4.3 16.2h-15.3q0-4.3-2.3-5.5-2.9-1.4-12.8-1.4-11.2 0-13.1 1.7-2 1.7-2 10.9 0 9.2 2 10.9 1.9 1.8 13.1 1.8 10.1 0 12.6-1.3 2.5-1.2 2.5-5.7h15.3q0 13.3-4.2 16.2-4.9 3.6-26.2 3.6-21.4 0-25.8-3.9-4.5-3.9-4.5-21.6 0-17.7 4.3-21.4 4.6-4 26-4z"/>
		</g>
	</g>
</svg>