<?xml version="1.0" encoding="UTF-8" standalone="no"?>
<svg
   xmlns:dc="http://purl.org/dc/elements/1.1/"
   xmlns:cc="http://creativecommons.org/ns#"
   xmlns:rdf="http://www.w3.org/1999/02/22-rdf-syntax-ns#"
   xmlns:svg="http://www.w3.org/2000/svg"
   xmlns="http://www.w3.org/2000/svg"
   viewBox="0 0 424 256"
   height="256"
   width="424"
   xml:space="preserve"
   id="svg2"
   version="1.1"><metadata
     id="metadata8"><rdf:RDF><cc:Work
         rdf:about=""><dc:format>image/svg+xml</dc:format><dc:type
           rdf:resource="http://purl.org/dc/dcmitype/StillImage" /></cc:Work></rdf:RDF></metadata><defs
     id="defs6" /><g
     transform="matrix(1.3333333,0,0,-1.3333333,0,256)"
     id="g10"><g
       transform="scale(0.1)"
       id="g12"><path
         id="path14"
         style="fill:#231f20;fill-opacity:1;fill-rule:evenodd;stroke:none"
         d="m 2942.15,1859.2 c -12.78,-7.25 -25.56,-9.32 -35.23,-9.32 -10.37,0 -17.62,2.07 -18.66,2.76 l 7.26,11.4 c 3.11,-0.34 6.56,-0.69 9.67,-0.69 11.05,0 33.86,4.15 33.86,17.62 0,1.73 -0.35,3.8 -1.38,6.22 l 16.23,3.11 c 1.04,-0.69 4.84,-4.84 4.84,-10.71 0,-5.53 -3.8,-13.13 -16.59,-20.39 z m -928.61,-181.37 v 0 c 12.77,7.26 16.58,14.86 16.58,20.39 0,5.87 -3.81,10.01 -4.84,10.71 l -16.24,-3.11 c 1.04,-2.42 1.38,-4.49 1.38,-6.22 0,-13.47 -22.79,-17.62 -33.85,-17.62 -3.11,0 -6.57,0.34 -9.68,0.69 l -7.25,-11.4 c 1.03,-0.69 8.29,-2.76 18.66,-2.76 9.67,0 22.45,2.07 35.24,9.32 z m -42.5,-768.318 v 0 l 27.64,15.886 c 14.16,8.293 26.94,4.149 35.58,-1.035 7.95,-4.492 15.2,-10.363 -1.38,-19.683 -8.98,-5.532 -17.62,-10.371 -26.6,-15.551 -11.4,6.91 -23.49,13.473 -35.24,20.383 z m 325.43,542.728 v 0 l 27.64,15.9 c 14.51,8.29 26.6,4.14 35.59,-0.7 7.59,-4.83 14.85,-11.05 -1.39,-20.38 -8.98,-5.18 -17.96,-10.02 -26.6,-15.2 -11.74,6.56 -23.49,13.47 -35.24,20.38 z m -341.32,-303.67 v 0 c -13.13,-7.6 -22.8,-7.94 -36.97,0 -13.81,8.29 -13.81,14.17 -2.76,22.81 10.37,8.29 18.66,14.51 27.98,20.38 l 28.68,-16.58 c 0,-6.91 -2.77,-18.32 -16.93,-26.61 z m -444.27,164.45 v 0 c -19.01,-11.06 -38.01,-22.11 -57.01,-33.51 -20.03,11.74 -29.36,27.29 -7.25,40.08 21.76,12.77 40.76,6.9 64.26,-6.57 z M 2755.6,1322 v 0 l -57.35,-33.17 c -19.69,11.4 -29.01,26.95 -7.25,39.73 22.11,12.44 41.46,7.26 64.6,-6.56 z M 2175.9,987.242 c -23.49,13.468 -42.83,19.348 -64.6,6.563 -22.11,-12.782 -12.78,-28.332 6.91,-39.727 l 57.69,33.164 v 0 z m 325.78,542.728 c -23.83,13.82 -43.18,19.35 -64.95,6.57 -22.11,-12.79 -12.43,-28.68 7.26,-39.73 18.65,11.05 38,22.11 57.69,33.16 v 0 z m -157.19,-105.36 v 0 l 29.03,16.58 c 18.99,10.71 33.85,6.56 43.52,0.69 10.37,-6.22 18.31,-12.78 1.04,-22.45 -10.71,-6.57 -21.42,-12.79 -32.13,-19.01 l -41.46,24.19 z M 2019.06,881.871 v 0 l 29.02,16.59 c 18.66,11.051 33.86,6.559 43.53,1.027 10.71,-6.207 18.65,-13.117 1.38,-22.797 l -32.47,-18.652 c -13.82,7.602 -27.64,15.891 -41.46,23.832 z m 953.15,842.259 c -38,22.45 -76.35,44.21 -114.7,66.33 6.23,3.45 12.44,7.25 18.31,10.36 38.35,-21.76 76.35,-43.88 114.7,-65.98 l -18.31,-10.71 v 0 z m -146.48,-12.79 v 0 l 25.91,14.86 c 5.87,3.8 12.44,4.84 18.66,4.84 9.32,0 17.27,-3.81 23.49,-7.26 6.91,-3.8 15.2,-9.33 16.24,-15.55 0,-3.45 -1.73,-6.9 -8.29,-10.71 l -26.26,-15.2 c -16.24,9.68 -33.17,19.01 -49.75,29.02 z M 1397.22,815.199 1378.91,804.141 c -38.7,22.461 -76.7,44.57 -115.04,66.328 l 64.6,37.312 c 4.84,-2.41 9.67,-5.519 14.16,-7.941 l -45.95,-26.602 100.54,-58.039 v 0 z m 1513.15,518.551 -18.31,-10.37 c -33.51,19 -67.02,38.35 -100.53,58.04 l -35.93,-20.73 c -4.83,2.42 -9.33,5.53 -14.16,7.95 29.71,17.62 60.11,34.89 90.16,52.16 l 14.17,-7.94 c -12.09,-7.25 -23.84,-14.16 -36.28,-21.07 l 100.88,-58.04 v 0 z m -588.68,14.85 c -6.56,-3.45 -12.78,-7.25 -19,-10.71 -33.51,19.69 -67.02,38.7 -100.53,58.04 -11.75,-6.91 -23.49,-13.82 -35.58,-20.38 -4.5,2.42 -9.68,5.18 -14.17,7.95 30.4,17.61 60.11,34.89 90.51,51.82 l 13.82,-7.95 c -12.09,-6.57 -23.83,-13.82 -35.92,-20.73 l 100.87,-58.04 v 0 z m 371.03,-140.6 -18.99,-10.71 -100.54,58.03 c -11.74,-6.9 -23.49,-13.82 -35.58,-20.38 -4.49,2.77 -8.98,5.53 -14.16,8.29 l 90.16,51.82 14.17,-8.29 c -12.1,-6.56 -23.84,-13.81 -35.93,-20.38 L 2692.72,1208 v 0 z m -957.63,-80.5 c 27.98,-16.23 71.16,-46.98 76,-58.38 l 48.71,27.98 -88.44,51.13 -36.27,-20.73 v 0 z m 413.52,244.25 8.98,-10.71 c -10.01,-1.04 -26.95,-2.76 -43.18,-12.09 -20.38,-11.75 -13.13,-25.22 18.31,-43.53 32.13,-18.31 55.62,-20.73 74.28,-10.02 16.23,8.98 19.69,19.35 21.42,24.87 6.21,-2.07 12.09,-3.79 18.65,-5.18 -1.03,-4.49 -6.22,-15.89 -26.25,-27.63 -35.24,-20.39 -72.55,-13.82 -107.45,6.21 -35.24,20.38 -47.67,42.84 -12.43,62.88 17.27,10.02 36.97,14.5 47.67,15.2 v 0 z m -424.24,110.2 v 0 c -10.01,-1.03 -30.4,-5.18 -47.67,-15.2 -35.24,-20.38 -22.46,-42.83 12.44,-62.53 34.89,-20.38 72.2,-26.95 107.78,-6.56 19.7,11.4 25.22,23.14 26.26,27.29 l -18.65,5.18 c -2.08,-5.52 -5.53,-15.54 -21.42,-24.52 -19,-11.06 -42.15,-8.3 -74.28,10.02 -31.78,18.3 -38.69,31.43 -18.31,43.17 15.89,9.34 33.17,11.41 42.83,12.45 l -8.98,10.7 z M 1559.93,1032.5 c 3.11,-3.8 6.22,-7.6 9.33,-10.71 -10.02,-1.04 -26.95,-3.45 -43.18,-12.79 -20.04,-11.398 -12.78,-24.867 19,-43.18 31.44,-18.304 54.92,-20.726 73.58,-10.015 16.24,9.328 19.69,19 21.76,24.527 l 18.32,-4.836 c -1.04,-4.496 -5.87,-15.894 -26.26,-27.641 -34.89,-20.378 -72.55,-13.816 -107.44,6.563 -35.24,20.039 -47.67,42.496 -12.44,62.532 17.28,10.02 37.31,14.51 47.33,15.55 v 0 z m 829.82,123.68 c 3.11,-3.46 6.22,-7.26 8.64,-10.72 -9.33,-0.69 -26.6,-3.1 -42.5,-12.43 -20.38,-11.74 -13.47,-24.88 18.31,-42.84 31.79,-18.31 55.28,-21.07 73.93,-10.37 16.24,9.34 19.7,19.35 21.43,24.88 6.21,-2.07 12.43,-3.45 18.65,-5.53 -1.38,-4.14 -6.22,-15.54 -26.6,-27.29 -34.9,-20.03 -72.21,-13.47 -107.44,6.56 -34.55,20.04 -47.33,42.5 -12.44,62.88 17.62,10.02 37.65,14.16 48.02,14.86 v 0 z m -1484.828,-93.97 102.258,59.08 15.2,-8.65 -40.763,-23.48 137.843,-79.81 -19.69,-11.053 -137.844,79.453 -41.805,-24.18 -15.199,8.64 v 0 z m 904.788,423.54 c 1.38,0.7 7.6,4.15 13.82,7.95 l -5.87,51.48 19,11.39 2.07,-54.23 c 14.85,7.94 27.29,7.94 39.72,4.48 10.37,-3.11 61.84,-15.19 71.86,-17.61 l -22.11,-13.48 -60.8,16.58 c -11.06,2.77 -17.97,2.08 -25.56,-1.72 l -20.39,-11.4 55.63,-32.13 -18.32,-10.71 -114.69,65.99 18.31,10.7 47.33,-27.29 v 0 z m 283.97,-256.68 v 0 c -11.05,-6.22 -29.02,-12.44 -46.63,-13.82 l -69.45,40.07 c 2.08,10.37 10.37,21.08 22.12,27.98 16.23,8.99 39.03,3.46 70.47,-14.5 31.44,-18.66 39.39,-30.4 23.49,-39.73 z m 241.14,-215.57 v 0 c -11.06,-6.23 -29.02,-12.44 -46.98,-13.82 l -69.1,40.07 c 2.08,10.37 10.37,20.73 22.11,27.98 15.89,9.33 39.04,3.8 70.48,-14.85 31.78,-17.96 39.38,-30.06 23.49,-39.38 z m 300.56,516.13 v 0 c -18.66,10.71 -36.97,21.07 -55.28,32.12 l 53.9,31.1 55.27,-31.79 18.31,10.37 -114.69,66.33 -18.32,-10.71 47.33,-27.29 -54.23,-31.09 -47.33,27.29 -18.31,-10.71 c 38.35,-22.11 76.35,-43.88 114.69,-66.33 6.22,3.8 12.44,6.91 18.66,10.71 z m -1045.74,-184.83 55.28,-31.78 -18.66,-10.71 -114.35,65.98 18.31,10.71 47.33,-27.29 54.24,31.09 -47.67,27.3 18.65,10.7 114.7,-66.33 -18.66,-10.36 -55.27,31.78 -53.9,-31.09 v 0 z m 230.78,-640.491 v 0 c -18.66,11.05 -36.62,21.41 -55.28,32.132 l 53.55,31.079 55.62,-31.782 18.65,10.723 c -38.34,21.75 -76.69,43.859 -115.04,66.32 -6.56,-3.801 -12.78,-7.25 -18.31,-11.051 l 47.33,-27.3 c -17.96,-10.7 -35.92,-21.071 -53.55,-31.09 -16.23,8.98 -32.12,17.969 -47.67,27.289 -6.56,-3.449 -12.78,-6.899 -19,-10.707 l 115.04,-66.332 c 6.22,3.801 12.44,7.262 18.66,10.719 z m 941.05,898.211 -18.31,-10.71 c -38.69,22.11 -76.69,43.88 -115.04,66.33 l 18.32,10.71 47.67,-27.29 53.55,31.09 -47.33,27.29 19,10.71 114.69,-66.33 c -6.21,-3.8 -12.43,-7.25 -18.65,-10.71 l -55.28,32.13 -53.89,-31.09 55.27,-32.13 v 0 z M 1181.65,1110.57 v 0 c -25.92,14.86 -44.23,31.09 -18.32,45.95 26.61,15.55 50.79,7.25 80.5,-10.02 30.05,-17.27 42.15,-30.05 15.89,-45.25 -26.25,-15.2 -52.17,-5.53 -78.07,9.32 z m 545.49,-467.422 v 0 l 11.06,-13.808 c 10.01,-13.129 -8.29,-17.621 -27.99,-19.008 l 7.6,-11.742 c 8.99,1.039 23.49,4.84 31.44,9.332 15.54,8.969 14.86,19 6.22,30.398 -9.33,11.75 -20.38,23.5 -93.28,107.442 -6.56,-3.801 -13.47,-7.953 -20.03,-11.391 l 73.24,-72.91 -133.7,38 -20.04,-11.742 165.48,-44.571 z m 7.25,358.942 v 0 l 11.06,-13.813 c 10.02,-13.125 -8.29,-17.617 -27.98,-19 l 7.6,-11.75 c 8.98,1.043 23.49,4.84 31.43,9.332 15.55,8.981 14.86,19 6.22,30.403 -9.33,11.738 -20.38,23.488 -93.27,107.438 -6.57,-3.8 -13.48,-7.95 -20.04,-11.4 l 73.24,-72.89 -133.7,38 -20.03,-11.75 165.47,-44.57 z M 1421.4,893.961 v 0 c -25.91,14.859 -44.57,31.098 -17.96,46.293 26.25,15.207 50.09,7.262 80.14,-10.359 29.72,-17.274 42.15,-29.704 15.55,-45.254 -26.26,-15.2 -51.82,-5.532 -77.73,9.32 z m 1119.32,226.629 v 0 l -32.47,85.68 90.16,-52.52 17.97,10.37 -115.39,66.68 -17.27,-9.67 32.82,-86.03 -90.52,52.17 -17.27,-10.02 114.7,-66.68 17.27,10.02 z m 502.31,644.64 v 0 l -32.47,85.68 90.16,-52.51 17.97,10.37 -115.38,66.67 -17.28,-9.67 32.82,-86.02 -90.52,52.16 -17.27,-10.02 114.7,-66.67 17.27,10.01 z m -928.62,-181.37 -17.27,-10.01 -114.7,66.67 17.28,10.02 90.51,-52.16 -32.82,86.02 17.27,9.67 115.39,-66.67 -17.97,-10.37 -90.16,52.51 32.47,-85.68 v 0 z m -169.97,-807.36 -17.27,-10.02 -114.7,66.68 17.28,10.02 90.51,-52.16 -32.82,86.019 17.27,9.672 115.39,-66.672 -17.97,-10.367 -90.16,52.508 32.47,-85.68 v 0 z m 42.15,733.78 v 0 l -32.47,85.68 90.16,-52.51 17.97,10.36 -115.39,66.67 -17.28,-9.66 32.83,-86.03 -90.52,52.17 -17.27,-10.02 114.69,-66.67 17.28,10.01 z m 882.67,154.43 v 0 l 43.53,24.87 c 12.43,7.6 18.66,14.17 19.69,21.07 2.08,8.98 -5.87,16.93 -18.65,24.53 -12.44,6.91 -24.19,11.05 -38.35,9.68 -11.4,-0.7 -23.15,-4.5 -36.62,-12.44 -8.29,-4.84 -16.93,-9.68 -24.87,-14.51 l -41.11,23.84 -18.66,-11.06 c 38.35,-21.76 76.35,-43.87 115.04,-65.98 z m -854,-492.99 -11.74,-6.56 c -6.23,2.07 -12.09,4.49 -17.97,6.56 0,-8.63 -2.42,-21.42 -17.96,-30.4 -22.11,-12.78 -44.57,-18.31 -69.45,-4.15 -21.76,12.79 -17.61,25.92 4.84,41.81 12.44,8.63 21.08,13.47 29.72,18.65 l -18.66,11.06 c -12.79,7.25 -30.06,7.6 -43.88,0 -15.19,-8.98 -23.83,-21.08 -27.29,-29.02 -6.21,1.72 -12.09,3.46 -18.31,5.53 3.46,7.25 11.4,18.65 32.82,31.09 32.82,19 59.77,11.74 79.81,0 25.91,-14.51 51.81,-29.37 78.07,-44.57 v 0 z m 409.04,371.73 c 36.27,20.73 63.91,15.2 106.4,-9.68 -25.22,-14.16 -50.44,-29.02 -75.66,-43.53 l 5.53,-3.11 c 30.05,-17.27 56.66,-13.47 71.17,-5.18 15.89,9.33 25.22,19.69 28.33,27.3 6.21,-2.08 12.78,-3.8 19.34,-5.19 -4.49,-7.6 -14.85,-17.96 -34.89,-29.71 -35.58,-20.72 -72.55,-16.92 -109.86,4.84 -34.89,20.03 -45.95,43.53 -10.36,64.26 v 0 z m 254.61,-207.63 v 0 c -36.28,-21.07 -24.53,-44.57 10.36,-64.94 36.97,-21.08 74.27,-24.88 109.86,-4.5 19.69,11.75 30.4,22.45 34.55,29.71 -6.57,1.73 -12.79,3.11 -19,5.18 -3.8,-7.6 -13.13,-18.31 -28.68,-27.29 -14.85,-8.29 -41.11,-12.09 -70.82,5.18 l -5.53,3.11 75.66,43.88 c -42.49,24.53 -70.82,30.05 -106.4,9.67 z m -1244.73,-8.98 v 0 c -35.93,-20.73 -24.87,-44.22 10.02,-64.61 37.31,-21.76 74.28,-25.56 109.86,-4.49 20.04,11.4 28.67,20.73 34.54,29.72 l -18.65,4.83 c -3.8,-7.6 -13.12,-17.97 -29.02,-27.29 -14.51,-8.29 -40.76,-12.09 -70.48,5.18 -1.72,0.7 -3.45,2.07 -5.52,3.11 25.22,14.51 50.78,29.02 75.66,43.87 -42.5,24.54 -70.82,30.06 -106.41,9.68 z m 664.69,-325.78 c 35.92,20.73 63.91,14.86 106.75,-9.673 -25.22,-14.86 -50.44,-29.367 -76.01,-43.871 2.07,-1.039 4.14,-2.078 5.53,-3.114 30.06,-17.273 56.31,-13.472 71.17,-5.183 15.89,8.984 24.87,19.699 28.67,26.949 l 18.65,-4.492 c -3.8,-7.946 -14.5,-18.313 -34.2,-30.055 -35.92,-20.73 -73.23,-16.93 -110.55,4.84 -34.89,20.031 -45.95,43.871 -10.01,64.599 v 0 z m -646.03,201.07 -103.64,57.69 69.43,-77.39 -20.72,-12.09 -131.63,39.04 98.11,-58.39 -17.27,-10.02 -110.55,68.41 27.64,16.23 130.59,-39.03 -68.4,74.62 26.94,15.54 119.19,-63.56 -19.69,-11.05 v 0 z m 600.08,-290.552 v 0 c 5.18,6.563 14.51,15.899 -2.08,25.223 -18.65,10.715 -40.42,10.019 -63.91,-3.449 -15.54,-8.989 -31.44,-17.973 -46.64,-26.942 38.35,-22.121 76.35,-44.57 114.7,-66.328 l 49.06,27.977 c 30.4,17.613 29.7,29.711 7.6,42.152 -16.93,9.66 -43.19,11.738 -58.73,1.367 z M 2378,1454.32 v 0 c 8.99,9.32 10.37,18.31 -1.37,25.22 -18.67,10.7 -40.43,10.01 -64.27,-3.46 l -46.98,-27.29 115.04,-66.33 c 16.24,9.33 32.48,19 49.06,28.33 30.06,17.61 29.36,29.36 7.25,42.14 -16.93,9.68 -43.53,11.41 -58.73,1.39 z m -438.74,-365.51 -16.24,-9.33 c -11.4,6.57 -22.45,13.13 -33.86,19.35 l -77.38,-44.57 c 10.71,-6.9 21.42,-13.81 32.13,-20.38 -5.18,-2.77 -10.37,-5.88 -15.55,-8.98 l -46.98,27.29 11.74,6.56 c -5.52,16.24 -54.92,46.64 -87.4,66.68 23.49,13.82 47.33,27.29 71.16,41.11 l 101.57,-58.73 c 5.19,3.11 10.71,6.22 15.9,9.67 l 44.91,-28.67 v 0 z m -537.9,-206.251 v 0 c 34.89,-20.028 70.82,-27.289 110.21,-4.829 38.69,22.461 26.6,43.524 -8.29,63.563 -34.9,20.383 -72.9,27.984 -111.94,5.527 -39.04,-22.457 -24.87,-44.218 10.02,-64.261 z m 938.3,65.988 v 0 c 6.21,3.801 12.43,7.258 18.65,10.711 l -58.73,33.512 c 16.59,1.035 32.82,4.144 48.37,13.12 35.58,20.74 18.3,38.35 -16.58,58.74 -35.24,20.03 -67.72,31.09 -103.65,10.71 -15.2,-8.99 -21.41,-21.08 -21.06,-31.79 -5.88,2.08 -11.41,4.49 -17.63,6.22 -4.15,-2.41 -8.63,-4.84 -12.43,-7.25 l 163.06,-93.973 z m -241.49,215.573 v 0 c 6.22,3.45 12.44,7.26 19,10.71 l -58.38,33.51 c 15.89,1.04 32.47,4.14 48.02,13.13 35.58,20.73 17.97,38.69 -16.93,58.73 -34.89,20.03 -67.71,31.44 -103.29,10.36 -15.2,-8.63 -21.77,-20.72 -21.42,-31.09 -5.53,1.73 -11.4,3.8 -16.93,6.22 l -13.13,-7.6 163.06,-93.97 z m -922.75,-122.3 v 0 l 18.32,10.72 -54.24,31.09 24.52,14.16 c 34.55,-19.35 69.45,-25.56 107.44,-3.45 39.04,22.45 27.3,43.53 -7.59,63.56 -34.9,20.39 -73.25,28.33 -112.28,5.53 -34.9,-19.7 -26.95,-39.73 0,-57.69 l -24.88,-14.51 -47.67,27.29 -18.31,-10.37 114.69,-66.33 v 0" /><path
         id="path16"
         style="fill:#231f20;fill-opacity:1;fill-rule:evenodd;stroke:none"
         d="m 1171.87,463.238 v 0 c -44.57,0 -74.62,60.801 -74.62,131.282 0,33.171 12.78,55.968 39.04,55.968 44.91,0 74.96,-60.808 74.96,-131.277 0,-33.172 -12.78,-55.973 -39.03,-55.973 z m 492.64,-325.429 v 0 l -53.55,31.089 -0.34,290.891 143.37,-83.269 0.35,-59.411 -90.18,52.172 0.35,-231.472 z m -724.1,649.48 v 0 l -75.664,43.531 0.348,-231.121 -53.547,30.75 -0.348,231.461 -74.965,43.531 v 59.418 L 940.41,846.711 v -59.422 z m 991.15,-512.328 v 0 l -61.5,-117.461 -27.98,168.941 -73.58,42.141 68.06,-268.7812 c -10.37,-5.5195 -29.37,-3.7891 -55.63,13.4802 l -1.72,-48.7107 c 55.96,-32.4687 74.27,-15.5508 100.87,24.8711 l 102.95,155.7966 -51.47,29.723 z m -417.33,97.758 v 0 l 6.22,-152 49.06,-28.328 -13.13,256.339 -44.22,25.911 -74.97,-139.911 -60.8,218.68 -64.26,37.309 -20.38,-238.02 49.06,-28.328 13.47,138.527 49.4,-175.16 48.02,-27.289 62.53,112.27 z m -330.96,39.73 c 54.24,0 86.37,40.422 86.37,102.61 0,110.55 -69.79,186.211 -144.41,186.211 -40.42,0 -68.75,-22.801 -80.49,-60.11 l 0.35,3.449 -31.1,17.973 -0.34,101.906 -52.857,30.742 V 544.082 l 53.197,-30.402 v 95.691 l 24.88,-14.851 c 1.72,-108.481 70.82,-182.071 144.4,-182.071 v 0" /><path
         id="path18"
         style="fill:#00adef;fill-opacity:1;fill-rule:evenodd;stroke:none"
         d="M 966.57,1363.82 736.234,1496.81 45.2148,1097.84 V 831.871 L 275.551,698.891 V 964.859 L 966.57,1363.82" /><path
         id="path20"
         style="fill:#00adef;fill-opacity:1;fill-rule:evenodd;stroke:none"
         d="M 505.895,33.9492 V 831.871 L 275.551,698.891 V 166.93 L 505.895,33.9492" /></g></g></svg>